<svg id="Sub-3_Schedule" xmlns="http://www.w3.org/2000/svg" viewBox="0 0 244 136"><defs><style>.cls-1{fill:none;}.cls-2{fill:#ffaa96;}.cls-3{fill:#ff564d;}</style></defs><title>Illustrated-Icons_All-Icons</title><rect class="cls-1" width="244" height="136"/><path class="cls-2" d="M44.24986,113.43458q0.17082-.3841.35978-0.77145c0.28253-.58093.58-1.15451,0.85366-1.73967,0.05593-.11952.10861-0.24069,0.16442-0.36027l0.02193-.062c0.02408-.06757.04735-0.13514,0.071-0.20265-0.552.1039-1.10667,0.1945-1.66052,0.28841a12.41236,12.41236,0,0,1-1.65428.198,9.505,9.505,0,0,1,3.48167-.99248l0.0095-.02971c0.30348-1.02844.57566-2.03642,0.97649-3.02632-1.16107.25784-2.32581,0.50086-3.48884,0.75038a7.69013,7.69013,0,0,0-1.75511.35482c-1.377.67564-2.91011,0.61273-4.33148,1.04725-0.31494.0963-.66345,0.07823-0.98476,0.15922-0.9401.23689-1.87573,0.492-2.81044,0.74958-1.13626.31316-2.2768,0.6134-3.40228,0.962-0.9341.28927-1.8364,0.68477-2.77571,0.953-1.209.34526-2.445,0.59447-3.66153,0.91474-1.13179.298-2.249,0.65181-3.38231,0.94316a2.137,2.137,0,0,1-.94169-0.00031,1.80369,1.80369,0,0,0-1.734.70462,7.70776,7.70776,0,0,0-.188,1.35526c0.63864,0.70878,1.55179.10653,2.39173,0.09373-0.08564.88907-.08521,0.87039-0.887,0.85238a2.04646,2.04646,0,0,0-.68906.20816c-0.2149.079-.42264,0.17759-0.54362,0.22924-0.14917.45663-.28468,0.87149-0.45529,1.39361l1.64368,0.81715a1.04146,1.04146,0,0,0,1.29357,1.26466c0.44389-.03308.89115-0.02089,1.335-0.05464a0.74036,0.74036,0,0,0,.29748-0.18354,4.37814,4.37814,0,0,1,.74946-0.53278c0.78-.33375,1.57562-0.63288,2.37378-0.92178,1.71952-.62241,3.42807-1.28224,5.17258-1.82593,1.2703-.39593,2.59113-0.62957,3.88881-0.93814a4.51167,4.51167,0,0,0,.47538-0.1401c0.61959-.22158,1.22435-0.49854,1.85852-0.66247,1.25957-.3256,2.53379-0.59563,3.80427-0.878,1.21822-.27077,2.44239-0.515,3.658-0.79663C43.94068,113.51888,44.09555,113.47783,44.24986,113.43458Zm-7.35106.14862c-0.82567.194-1.67633,0.28768-2.49483,0.505-1.06765.28345-2.11177,0.65463-3.1712,0.97061a4.70028,4.70028,0,0,1-.76606.09244,0.83267,0.83267,0,0,1,.79908-0.73188c1.35851-.34729,2.7052-0.74248,4.06806-1.07089,0.80619-.19426,1.63449-0.29705,2.4528-0.441l0.07382,0.25362A5.57022,5.57022,0,0,1,36.8988,113.5832Zm3.38954-2.03764a0.91282,0.91282,0,0,1-.41136-0.24743l0.03473-.22109,1.29-.17331,0.02726,0.20461A6.88143,6.88143,0,0,1,40.28834,111.54556Z"/><g id="_9lQaFB.tif" data-name="9lQaFB.tif"><path class="cls-2" d="M197.59905,117.199c-0.735-.16231-0.3369-0.93179-0.59372-1.41615-0.10854-.20472-0.19407-0.42164-0.29008-0.633l-0.17787.04645a2.78609,2.78609,0,0,1,.20694-0.55431c0.31973-.50433.5821-0.97611-0.06108-1.45238a0.89737,0.89737,0,0,1-.024-0.51231c0.016-.54525.02311-1.09144,0.06272-1.63515a6.13474,6.13474,0,0,1,.36038-2.49333,1.27762,1.27762,0,0,0,.15124-0.3389c0.10541-.601.22245-1.20221,0.27909-1.80859a2.69993,2.69993,0,0,0-.14324-0.79073,1.1232,1.1232,0,0,1-.103-0.28558c0.13343-1.1483.29482-2.29352,0.41466-3.44312a2.24447,2.24447,0,0,0-.03748-1.27193c-0.48515-.76034-0.04526-1.48548-0.103-2.21717-0.03913-.49566-0.07255-0.99411-0.06431-1.49058,0.0102-.61252.09577-1.22438,0.09339-1.83631a10.56522,10.56522,0,0,0-.13788-1.51868,1.65511,1.65511,0,0,1,.09789-1.1636,3.09129,3.09129,0,0,0-.09152-1.48762,2.94444,2.94444,0,0,1-.10307-0.6414c0.21029-1.60658.45575-3.20859,0.66177-4.81567a0.97714,0.97714,0,0,0-.33565-1.11321,2.12186,2.12186,0,0,1-.422-0.84892,2.70694,2.70694,0,0,0-.38962-0.79158,1.62235,1.62235,0,0,1-.26249-1.34129,0.91707,0.91707,0,0,1,.59009-0.38152,1.38889,1.38889,0,0,0,1.0752-.955c0.51235,0.1364,1.04483.27667,1.57628,0.42081a0.76448,0.76448,0,0,0,.33488.10511c1.073-.624,1.70045.40611,2.53587,0.65553,0.307,0.09166.65716,0.03145,0.97182,0.10664,0.49295,0.1178.96612,0.32006,1.46017,0.43083a5.07224,5.07224,0,0,0,.98527.01111l0.08678,0.26785c0.76067-.07383,1.46144-0.14391,2.16277-0.208a0.82914,0.82914,0,0,1,.37231.01038c1.25449,0.523,2.47918-.082,3.71843-0.08873,0.46749-.00255.93483-0.033,1.40227-0.04985,0.57608-.02081,1.154-0.02057,1.72722-0.07263a1.05711,1.05711,0,0,0,.53606-0.26547,1.15007,1.15007,0,0,1,1.68325-.03671,0.37486,0.37486,0,0,0,.27619.08137c0.7133-.20064,1.42119-0.42049,2.13244-0.62867,0.23515-.06883.47362-0.12907,0.71382-0.17706a2.17078,2.17078,0,0,0,.81643-0.15257c0.61093-.46021,1.43435-0.58084,1.90653-1.29576a1.29853,1.29853,0,0,1,.90967-0.53063,1.77755,1.77755,0,0,0,.91427-0.99227,1.86558,1.86558,0,0,1,1.56269-1.1113,1.78646,1.78646,0,0,0,.30941-0.02934c0.91557-.164,1.33338.30265,1.69855,1.16655,0.544,1.28689.02646,2.4136-.18035,3.60892-0.10034.57989-.07489,1.18063-0.12741,1.77007-0.027.30342-.10013,0.60273-0.166,0.98215a3.0448,3.0448,0,0,1,.81478.156,0.75555,0.75555,0,0,1,.40927.50585,17.64566,17.64566,0,0,0-.26108,4.2089c-0.06345,1.03138-.07454,2.06593-0.13246,3.09774a20.7916,20.7916,0,0,0-.07256,3.27648c0.09474,0.94973-.21792,1.93281-0.22156,2.90162-0.00387,1.02984.18839,2.05925,0.21155,3.09072,0.01925,0.858-.08025,1.71879-0.13119,2.5781-0.05147.86834-.099,1.73705-0.16484,2.60435-0.05731.75473-.12038,1.50987-0.21407,2.26068a0.74294,0.74294,0,0,0,.51.93732,1.10721,1.10721,0,0,0-.27442.34612c-0.3031,1.30782-.63835,2.61143-0.8612,3.93364-0.21381,1.26849-.31794,2.55634-0.44273,3.83836-0.03556.3653,0.07507,0.746,0.03152,1.10911a3.16249,3.16249,0,0,1-2.00326,2.23947,0.75756,0.75756,0,0,0-.51234.99168,2.01166,2.01166,0,0,1-.99168,2.15209,0.46805,0.46805,0,0,1-.78386-0.14225,0.60227,0.60227,0,0,0-.3976-0.28456,1.18677,1.18677,0,0,0-.36508.4134,17.11833,17.11833,0,0,1-1.76707,2.16232,0.94841,0.94841,0,0,1-1.39859-.12976c-0.36546-.5155-1.64744-0.3348-2.26063.19578l0.213,0.629c-0.84515.11446-1.50766,0.65861-2.45628,0.48907a5.734,5.734,0,0,0-2.20234.42545,2.89648,2.89648,0,0,1-1.44274.10236,2.81291,2.81291,0,0,0-1.87924.12488,4.3506,4.3506,0,0,1-2.4576.36951,14.29738,14.29738,0,0,1-2.00354-.229,0.936,0.936,0,0,1-.52391-0.17125,1.13192,1.13192,0,0,0-1.54935-.01425l0.07112-.41242c-0.49336-.075-0.99409-0.14348-1.49065-0.23457a0.69036,0.69036,0,0,1-.21-0.19912,3.93445,3.93445,0,0,0-.56726-0.48287,3.00835,3.00835,0,0,1-1.4969-2.35061,7.52748,7.52748,0,0,0-1.016-2.85672c-0.26226-.43545-0.812-0.968-0.31033-1.61866a0.30054,0.30054,0,0,0,.03274-0.24271,15.03328,15.03328,0,0,1-.52828-1.51286A3.51332,3.51332,0,0,1,197.59905,117.199Zm10.12,1.79158,0.26,0.08091c0.27132-.50645.56412-1.00279,0.80885-1.52178,0.34926-.74058.65124-1.50338,0.99566-2.24636,0.36566-.78873.83-1.53928,1.12229-2.35285,0.57638-1.60464,1.0487-3.24636,1.59723-4.86149,0.15715-.46273.44614-0.87912,0.6391-1.33193a5.32473,5.32473,0,0,1,.169-0.71269,4.17055,4.17055,0,0,0,.7209-2.13513,4.07387,4.07387,0,0,1,.21214-0.8061c0.18779-.76044.37674-1.52081,0.54252-2.28613a0.64366,0.64366,0,0,0-.19285-0.276,0.72058,0.72058,0,0,0-.25709.22344,6.75877,6.75877,0,0,1-.16476.78885,28.74531,28.74531,0,0,0-1.687,4.31546,30.64794,30.64794,0,0,1-1.14418,3.01949c-0.414,1.087-.83323,2.17242-1.221,3.26886-0.25376.71765-.41738,1.46827-0.68875,2.17837-0.51912,1.35833-1.09177,2.69612-1.627,4.04845A2.56294,2.56294,0,0,0,207.7191,118.99062Zm2.23767-35.2201,0.02749,0.2949c0.47074,0.10169.88031,0.52283,1.44037,0.18123a0.54574,0.54574,0,0,1,.4149.02056,1.32854,1.32854,0,0,1,.60668,1.83576c-0.2076.34775-.45581,0.672-0.6958,0.99947-0.32891.44879-.70817,0.86618-0.99234,1.341-0.43437.72575-.79223,1.49684-1.20884,2.23384-0.30261.53532-.697,1.02287-0.96257,1.57407a12.151,12.151,0,0,1-1.53583,2.51834,0.91376,0.91376,0,0,0-.08163.37953,0.72755,0.72755,0,0,0,.37922-0.00148,4.77976,4.77976,0,0,0,.61582-0.68332c0.55018-.7251,1.08363-1.46287,1.63126-2.18994a9.42416,9.42416,0,0,0,.77269-0.98946c0.32707-.58509.53716-1.23726,0.8797-1.81159,0.4436-.74383,1.013-1.41335,1.44775-2.16161,0.55961-.96307,1.03809-1.9732,1.55557-2.961,0.05763-.11.14439-0.20448,0.21294-0.30923,0.101-.1544.19786-0.31156,0.29645-0.46755a2.08306,2.08306,0,0,0-.6153-0.1805c-0.95635.02822-1.913,0.07517-2.86676,0.15017C210.83476,83.57867,210.39717,83.69248,209.95677,83.77052Zm14.89,0.29372-0.17086-.046a1.60345,1.60345,0,0,0-.16024.23906c-0.3915.88846,0.049,2.12612-1.12858,2.6874a0.14,0.14,0,0,0-.04572.11187,8.63083,8.63083,0,0,1-.37615,2.00846,12.30666,12.30666,0,0,1-.7216,2.6676c-0.41374.95313-.3207,2.09685-1.10694,2.90684a0.28446,0.28446,0,0,0,.43346.354,1.59107,1.59107,0,0,1,1.251-.63,0.39014,0.39014,0,0,0,.19547-0.27968c-0.07592-.96619.65334-1.71214,0.63761-2.71367a18.27212,18.27212,0,0,1,.54119-3.32769q0.2804-1.606.55047-3.21389C224.78855,84.5753,224.81362,84.31909,224.84678,84.06424ZM201.99761,83.436c-0.18046-.00842-0.51842-0.01964-0.85573-0.04089a0.8244,0.8244,0,0,0-.96239,1.02907,1.801,1.801,0,0,1-.05506.583,4.03856,4.03856,0,0,0-.25737.88668,11.95513,11.95513,0,0,0,.1722,1.6887,0.93659,0.93659,0,0,0,.22956.3381c0.42489-.62988.83447-1.1923,1.19317-1.78549a3.71313,3.71313,0,0,0,.51522-1.16389A8.68541,8.68541,0,0,0,201.99761,83.436Zm5.89472,0.36515c-0.83674-.24929-0.96367-0.17074-1.29347.58394a4.80255,4.80255,0,0,1-.57762.76274c-0.51321.718-1.01873,1.44149-1.52479,2.16456a0.96355,0.96355,0,0,1-.21982.34036,1.25442,1.25442,0,0,0-.67752,1.1118,1.34065,1.34065,0,0,1-.23594.45209c-0.17173.26464-.35624,0.521-0.59389,0.86555,0.66664,0.09129,1.042.06255,1.15151-.54153a2.70643,2.70643,0,0,1,.39553-1.098c0.41461-.56689.96239-1.03533,1.388-1.5955C206.45467,85.85954,207.15488,84.83373,207.89233,83.80116Zm14.39476,4.79145-0.12973-.04132a1.64077,1.64077,0,0,0-.235.31839c-0.30863.73826-.628,1.47338-0.89941,2.22554q-0.61682,1.70919-1.16254,3.44339a1.14882,1.14882,0,0,0,.154.52953,0.95324,0.95324,0,0,0,.42221-0.24032c0.18328-.45772.29826-0.94217,0.45771-1.41018,0.42086-1.23529.86945-2.46149,1.26719-3.70405A5.55834,5.55834,0,0,0,222.28709,88.5926Zm-0.42842,29.806,0.34868,0.81744a1.80265,1.80265,0,0,0,.56906-0.29629c0.53814-.61848,1.05175-1.25932,1.55214-1.90907a1.41509,1.41509,0,0,0-.49841-1.35495c-0.3686.74611-.79012,1.47232-1.08305,2.24714A0.60642,0.60642,0,0,1,221.85867,118.39861ZM203.45314,99.5989a3.83075,3.83075,0,0,0-.78364,3.16674c0.14268-.37669.24256-0.64889,0.34889-0.91856a2.66222,2.66222,0,0,1,.28267-0.65611A1.72737,1.72737,0,0,0,203.45314,99.5989Zm18.21383,11.3603-0.91734,2.68221C221.52383,113.29521,222.1293,111.60931,221.667,110.95921Zm-4.43735-8.87c0.2279,0.01486.41055,0.03771,0.59292,0.03576a1.07185,1.07185,0,0,0,.60182-0.05574,2.5695,2.5695,0,0,0,.17216-0.8088l-0.16762-.06566C218.0491,101.50453,217.13085,100.99452,217.22962,102.08917Zm-1.71952,20.35024-0.11563-.25916c-0.6313.30867-1.49736,0.0889-1.92546,0.855l0.118,0.26436Zm1.97035-7.39083,0.14877,0.06709a2.18476,2.18476,0,0,0,.72894-2.25082Zm6.731-32.17a6.68507,6.68507,0,0,0,.19786-0.88384,4.90282,4.90282,0,0,0-.0533-0.77048l-0.69841.19235Zm-4.84951,41.8926a0.85481,0.85481,0,0,0,1.26432-.75346C220.11892,124.18766,219.4872,124.00859,219.36194,124.77122Zm3.993-12.45584-0.19363-.06257-0.4466,1.37823C223.49032,113.44185,223.616,113.1021,223.355,112.31539Zm-16.30584,8.444a1.03919,1.03919,0,0,0,.45536-1.57936Z"/><path class="cls-2" d="M148.80225,109.62463l-1.615,4.24754h-1.488c0.17865-.34218.31685-0.6034,0.45189-0.86623a8.55236,8.55236,0,0,0,.83638-2.51357,14.22965,14.22965,0,0,1,.79526-1.798c0.21886-.66841.29645-1.38213,0.45509-2.07162,0.07395-.32143.20273-0.62982,0.291-0.94844,0.3333-1.20253.59981-2.42884,1.02547-3.59739,0.1316-.36128.30834-0.73158,0.46047-1.10254a1.27489,1.27489,0,0,0,.00006-0.9954,2.13,2.13,0,0,1,.29827-1.69359,4.778,4.778,0,0,0,1.22112-2.01959,13.46288,13.46288,0,0,1,.91382-2.15447c0.37674-.93283.72963-1.8758,1.0703-2.82249,0.22922-.637.38171-1.30325,0.6351-1.92946,0.52383-1.29452,1.10886-2.56426,1.63243-3.85888a12.66355,12.66355,0,0,0,.332-1.31921c0.43091-1.52705.87866-3.04937,1.30565-4.57751,0.10979-.393.12032-0.8176,0.25865-1.19778,0.2353-.64666.53295-1.27086,0.81155-1.90133a1.05284,1.05284,0,0,0,.19136-0.31041c-0.17415-1.57165.96235-2.62819,1.50369-3.91851a9.29666,9.29666,0,0,0,.44594-1.72712q0.31249-1.51835.57546-3.04675c0.17017-.99393.28245-1.9983,0.47133-2.98832,0.1268-.66463.35236-1.30985,0.51676-1.968,0.30956-1.23917.60063-2.483,0.91336-3.72132,0.08465-.33522.26225-0.65023,0.32186-0.98781,0.11453-.6486.17623-1.30658,0.25717-1.961a1.21772,1.21772,0,0,1,.02115-0.31039c0.51371-1.199.38975-2.54069,1.01865-3.75823a12.5352,12.5352,0,0,0,.84653-3.47685c0.13531-.73743.11811-1.50165,0.1959-2.2511a1.87332,1.87332,0,0,1,2.92164-1.3406,0.71253,0.71253,0,0,1,.18011.36449c0.07553,0.23366.132,0.47349,0.21136,0.76587l0.4484-.19019a1.948,1.948,0,0,1,.24621.77524,12.12987,12.12987,0,0,0-.18325,3.09c0.07566,0.83243-.14235,1.69037-0.07844,2.52539a17.726,17.726,0,0,0,.49147,2.17889c0.17766,0.85609.2743,1.73129,0.49138,2.57629,0.24935,0.97065.60479,1.91358,0.88831,2.87617,0.1177,0.39963.13437,0.82946,0.25654,1.22726,0.28306,0.92162.67225,1.81588,0.88937,2.75119,0.27029,1.16431.40217,2.3603,0.61306,3.53917,0.054,0.302.21513,0.585,0.26717,0.88711,0.16863,0.97883.29084,1.96585,0.46929,2.94271,0.08151,0.44613.30073,0.868,0.37392,1.31457,0.18773,1.14546.31563,2.30065,0.49677,3.44732a4.72478,4.72478,0,0,0,.31111.92714,5.45592,5.45592,0,0,1,.41468,1.06543,1.73378,1.73378,0,0,1-.32136.72851c1.1104,0.52185.719,1.75592,1.083,2.66248a11.21806,11.21806,0,0,1,.48841,2.52762c0.09436,0.63678.09456,1.28767,0.19191,1.92382,0.16879,1.10292.39013,2.19774,0.56548,3.29976,0.03411,0.2144-.0902.454-0.05622,0.66842,0.09266,0.58485.21609,1.166,0.35416,1.74221,0.27337,1.14085.54131,2.28393,0.85686,3.41342,0.21829,0.78137.56218,1.52917,0.75764,2.31494,0.1644,0.6609.16623,1.36044,0.29231,2.03307,0.21529,1.14859.4771,2.28838,0.70788,3.43418,0.09419,0.46762.14456,0.94409,0.23971,1.41147,0.1229,0.60364.26288,1.20416,0.41064,1.80227,0.09364,0.379.20285,0.75524,0.32684,1.12542,0.14875,0.44414.34284,0.874,0.47461,1.32258a5.14281,5.14281,0,0,1,.13605.911,1.56432,1.56432,0,0,0,.019.54076,4.62748,4.62748,0,0,1,.32715,2.11456c0.06336,0.73119.25583,1.45228,0.303,2.18351a6.69458,6.69458,0,0,0,.96656,2.67905,1.379,1.379,0,0,1-.00123,1.46935,0.59761,0.59761,0,0,0-.01642.40429c0.14889,0.84126.05009,0.98677-.74272,1.20227-0.47891.13018-.949,0.29764-1.41469,0.47066a2.03367,2.03367,0,0,1-2.27493-.71674,2.32276,2.32276,0,0,0-1.25039-.74017c-0.89489-.17621-1.82593-0.16-2.73342-0.28545a4.65079,4.65079,0,0,1-1.08678-.40458,16.29586,16.29586,0,0,0-2.06935-.85431c-0.70681-.18444-1.27975-0.65012-1.97-0.81108-0.65458-.15264-1.34342-0.15421-2.00289-0.29116-0.95644-.19862-1.90537-0.43975-2.8475-0.69911-0.88226-.24289-1.73976-0.585-2.63016-0.78609a7.8574,7.8574,0,0,0-2.187-.22028,2.26187,2.26187,0,0,0-1.17144.64,1.02371,1.02371,0,0,1-1.08187.24643A31.03651,31.03651,0,0,0,148.55,113.9305a0.7364,0.7364,0,0,1-.52956-0.19463,1.46916,1.46916,0,0,1,.08325-0.94333,1.98238,1.98238,0,0,0,.59871-1.84229,1.475,1.475,0,0,1,.26588-0.58443c0.081-.20865.13091-0.42938,0.19443-0.64483Zm21.42638-48.89212-0.23588.11524a3.28055,3.28055,0,0,0,.00594.60621c0.10688,0.55875.2571,1.1093,0.361,1.66851,0.09905,0.53282.1278,1.08,0.24672,1.60756,0.2413,1.07054.498,2.139,0.79563,3.195,0.2193,0.77808-.1985,1.66689.42807,2.36473,0.13166,0.14664.27227,0.28524,0.40875,0.42755a2.805,2.805,0,0,0,.25163-0.64821,5.79581,5.79581,0,0,0-.01316-0.9158,0.52732,0.52732,0,0,0-.02612-0.29213,1.34915,1.34915,0,0,1-.31545-1.19809,2.9842,2.9842,0,0,0-.0618-0.42392c-0.23108-.83718-0.49319-1.66651-0.69992-2.50951-0.26725-1.08982-.47757-2.19362-0.74638-3.283A3.062,3.062,0,0,0,170.22863,60.73251ZM164.2485,93.23136a2.0586,2.0586,0,0,0,.2959-0.46554c0.16376-.9119.32787-1.82431,0.46045-2.74112,0.18391-1.2718.30091-2.55476,0.5312-3.81751a1.095,1.095,0,0,0-.21573-1.02806,1.27155,1.27155,0,0,0-.33414-0.19828,1.33473,1.33473,0,0,0-.14109.37974c-0.0133.26934,0.05139,0.545,0.02036,0.81062-0.25523,2.185-.52745,4.368-0.78359,6.553A1.75616,1.75616,0,0,0,164.2485,93.23136Zm2.22459,14.43515,0.23064,0.05579a5.20055,5.20055,0,0,0,.285-0.79949c0.06542-.34488.05569-0.70337,0.09145-1.05465,0.0926-.90978.19884-1.8182,0.28727-2.72836,0.07347-.75619.13909-1.51349,0.18629-2.27166a1.71261,1.71261,0,0,0-.10246-0.5905,0.37108,0.37108,0,0,0-.26026-0.03475,1.746,1.746,0,0,0-.19085.55695c-0.076.7813-.12559,1.56513-0.18821,2.34776-0.099,1.23669-.20216,2.473-0.29979,3.70984C166.49094,107.12649,166.48569,107.39679,166.47309,107.66651ZM164.4069,60.68085l-0.36948-.01908-1.28868,5.91309a2.56729,2.56729,0,0,0,1.14774-1.73181c0.22085-.99189.4289-1.98851,0.58457-2.99208A5.28725,5.28725,0,0,0,164.4069,60.68085ZM162.659,110.55833a3.946,3.946,0,0,0,.40267.10476c0.58884,0.083,1.25789.07433,1.38671,0.84906a5.97068,5.97068,0,0,1-.06532,1.06309,0.6779,0.6779,0,0,0,.10832.482,0.80018,0.80018,0,0,0,.569.08946,0.48274,0.48274,0,0,0,.1853-0.38387c-0.00656-.53752-0.0914-1.07625-0.06964-1.61137,0.02332-.57344-0.20046-0.72438-0.74336-0.66487a0.85667,0.85667,0,0,1-1.09007-.98821c-0.02068-.351-0.055-0.70115-0.0936-1.18265Zm11.2094,4.3755-0.04294.21821c0.70239,0.21054.80269,1.26283,1.8577,1.10549,0.66836-.09968,1.277.80843,2.26124,0.43183a13.76384,13.76384,0,0,0-1.96891-1.26663A11.70583,11.70583,0,0,0,173.86836,114.93383ZM162.71847,92.34033a8.61424,8.61424,0,0,1-.91348.99844,2.38176,2.38176,0,0,0-.62993,1.731,0.22636,0.22636,0,0,0,.11609.13236,2.52494,2.52494,0,0,0,.96031-0.0933,0.96937,0.96937,0,0,0,.44618-0.68C162.75845,93.76238,162.71847,93.08675,162.71847,92.34033Zm2.29474,12.08316,0.25062,0.014q0.17163-3.61252.34326-7.225l-0.16053-.00984C164.83208,99.5809,165.04381,102.00958,165.01321,104.42349ZM163.5897,87.31211l-0.21806-.13914a1.55107,1.55107,0,0,0-.72975.96047c-0.185.52047-.37681,1.03856-0.59078,1.62667a0.85831,0.85831,0,0,0,1.23613-.47964A17.679,17.679,0,0,0,163.5897,87.31211Zm5.7488,16.89716-0.03106-.00079a1.14674,1.14674,0,0,0-.003-0.24882c-0.04488-.19713-0.10478-0.39084-0.15864-0.58593a2.28516,2.28516,0,0,0-.2035.54534q-0.16814,1.63173-.29364,3.26769a4.96136,4.96136,0,0,0,.04023.99449,0.88193,0.88193,0,0,0,.23356.31616,0.91875,0.91875,0,0,0,.2466-0.35083C169.23895,106.83486,169.28556,105.5219,169.33851,104.20928Zm-13.80274,3.31636,0.18552,0.17348a5.61114,5.61114,0,0,0,.64216-0.65252c0.50028-.70062,1.445-0.99688,1.71893-1.88827a1.986,1.986,0,0,0-.00562-0.59886,3.01353,3.01353,0,0,0-.44748.3458,3.41942,3.41942,0,0,1-.96222,1.08441C155.817,106.2722,156.01488,107.09436,155.53576,107.52564Zm14.06851,6.7655c-0.34765-1.0486-2.44167-1.28777-3.22982-.45363Zm-6.64647-32.7822,0.66768-2.83931-0.20241-.04522c-0.26212.38089-.52627,0.76041-0.78478,1.14374a1.36387,1.36387,0,0,0-.13977.276A1.0459,1.0459,0,0,0,162.95781,81.50894Zm-3.49121,11.70774-0.19505-.06925c-0.07522.11511-.158,0.226-0.22438,0.346-0.387.7-.77355,1.40033-1.15064,2.10568a1.5565,1.5565,0,0,0-.09325.36105,0.88761,0.88761,0,0,0,.4211-0.11193,6.04282,6.04282,0,0,0,.90047-1.22793A6.82435,6.82435,0,0,0,159.46661,93.21667Zm6.07587-38.42953a9.28907,9.28907,0,0,0-.81448,3.95717A13.443,13.443,0,0,0,165.54247,54.78714Zm-4.57571,23.65293-0.2508-.047c-0.30377,1.01836-.61564,2.03449-0.897,3.059a0.815,0.815,0,0,0,.23661.3515,0.998,0.998,0,0,0,.332-0.32766c0.19885-.83707.36721-1.68151,0.53688-2.52527A4.25391,4.25391,0,0,0,160.96677,78.44007ZM154.808,97.69275a4.04252,4.04252,0,0,0-1.35636,2.439A3.59418,3.59418,0,0,0,154.808,97.69275Zm10.51227-14.41c0.51427-.293.69388-0.49193,0.53789-0.94181a2.61212,2.61212,0,0,1,.074-0.91327c0.03174-.4832.04778-0.96742,0.07046-1.4512l-0.26834-.00707Zm-0.60662-8.014a1.83922,1.83922,0,0,0-.83933,2.46794Zm-3.736,10.93469a2.62189,2.62189,0,0,0,1.039-1.725,0.7708,0.7708,0,0,0-.21026-0.32648,1.03425,1.03425,0,0,0-.31381.24617,4.76426,4.76426,0,0,0-.37954.87842A6.77741,6.77741,0,0,0,160.97765,86.20347Zm10.22948,20.48976,0.183,0.02552v-1.98928l-0.183.001v1.96279Zm-1.32492-21.32159c-0.06183.51-.12179,0.88229-0.14056,1.25661a0.329,0.329,0,0,0,.21871.23771,0.33913,0.33913,0,0,0,.28007-0.1675A1.064,1.064,0,0,0,169.88222,85.37164Zm-16.1382,24.5348,0.12509,0.04912c0.13327-.11649.27412-0.22553,0.39786-0.3514a4.80509,4.80509,0,0,0,.40742-0.47778,0.54957,0.54957,0,0,0-.19667-0.17473,1.69644,1.69644,0,0,0-.60743.36965A1.38562,1.38562,0,0,0,153.744,109.90644Zm16.64831-30.27421a1.81806,1.81806,0,0,0-.1204,1.94749Zm-2.476,9.4231a0.87725,0.87725,0,0,0,.33946-1.06813,0.32377,0.32377,0,0,0-.23673-0.2158,0.32935,0.32935,0,0,0-.23042.22989C167.80044,88.31849,167.8603,88.6339,167.91636,89.05533Zm-18.24605,20.47478c-0.05192-.42607-0.08672-0.7405-0.13791-1.05223a0.8806,0.8806,0,0,0-.21953-0.01563c0.00526,0.30846.00878,0.617,0.02051,0.9252A1.76359,1.76359,0,0,0,149.67031,109.53011ZM160.0297,99.4518l0.32391,0.08893,0.27613-1.14409-0.3-.07443Zm10.7163,12.8255-0.01116.18716,0.74052,0.41332,0.155-.115a1.27,1.27,0,0,0-.26121-0.5927A1.19951,1.19951,0,0,0,170.746,112.2773Zm0.78046-9.022-0.32413-.05627-0.13128,1.11816,0.28206,0.0356Zm-5.35194-12.56464-0.24215-.03617-0.206,1.40622,0.22671,0.03343Zm-6.64035,18.02612,0.05289-1.03438C158.98717,108.09012,159.04933,108.39234,159.53418,108.71681Zm-3.09131-4.52582,0.27954,0.21695c0.17139-.21609.34859-0.42827,0.50217-0.65636a1.57708,1.57708,0,0,0-.22906-0.2269Z"/><path class="cls-2" d="M135.10832,98.2146c0.297-.18332.47875-0.31384,0.67618-0.41323a6.47444,6.47444,0,0,1,1.00836-.45654,5.54646,5.54646,0,0,1,1.2478-.23118,2.25051,2.25051,0,0,1,.73587.18417,1.49628,1.49628,0,0,1,.21268.12808,1.361,1.361,0,0,1,.61691.325,2.03085,2.03085,0,0,1-.04706,1.86107,9.89,9.89,0,0,1-.90707,1.01275,0.91126,0.91126,0,0,0-.23226.27919c-0.12246.40384-.19764,0.82224-0.32464,1.22443-0.4396,1.39218-.86943,2.78824-1.35085,4.16611a21.89574,21.89574,0,0,0-.98745,2.51694,6.64967,6.64967,0,0,1-.46286,1.89514,1.28081,1.28081,0,0,0,.11967.39456c0.03754,0.31556.04887,0.63424,0.07543,1.01825a1.08384,1.08384,0,0,1,.34706.44375,5.36659,5.36659,0,0,1,.13441,1.78364,1.37536,1.37536,0,0,1-.92424.6194,1.79553,1.79553,0,0,0-1.00969.92507,2.39326,2.39326,0,0,1-.65846.40236c-0.25071.16753-.48606,0.358-0.7426,0.5494-1.0123-.2159-1.73528-0.70658-1.47136-1.92228-1.1726-.24064-1.67687-0.0128-1.79954.91214-0.48051-.239-0.91684-0.46577-1.36279-0.67166a0.75892,0.75892,0,0,0-.4139-0.06923c-0.55215.09028-1.10605,0.18232-1.648,0.31857a6.57346,6.57346,0,0,1-1.48991.44081c-1.00484-.00825-1.93057.62511-2.95926,0.319a0.54309,0.54309,0,0,0-.23937.15624,0.68093,0.68093,0,0,1-.11773-0.08271c-0.29308-.337-0.01917-1.16708-0.905-0.99658a12.36615,12.36615,0,0,1-1.51539.15736,7.7465,7.7465,0,0,0-.87327-0.00917c-0.698.13-1.38417,0.322-2.08035,0.46329a0.92756,0.92756,0,0,1-.62409-0.01944,1.10527,1.10527,0,0,1-.02135-0.70585,4.59533,4.59533,0,0,1,.36674-0.98112,0.56646,0.56646,0,0,1,.38671-0.30351,0.822,0.822,0,0,0,.87587-0.79665,2.20369,2.20369,0,0,1,.62235-1.23045,2.45533,2.45533,0,0,0,.60616-2.20509,5.15915,5.15915,0,0,1,.60244-2.54491c0.208-.51356.36619-1.04708,0.56544-1.56444a3.3625,3.3625,0,0,1,.46138-1.00127,8.33618,8.33618,0,0,0,1.10034-2.73879,1.83524,1.83524,0,0,0-.26674-1.04024c-0.10782-.28014-0.22244-0.51388.17517-0.63943a0.35394,0.35394,0,0,0,.20581-0.12047c0.00493-.761.73715-0.86449,1.13837-1.26142a0.53448,0.53448,0,0,1,.41162-0.17418,4.88123,4.88123,0,0,0,3.379.10214,2.254,2.254,0,0,1,.73275.0919,8.65735,8.65735,0,0,0,3.11883-.39391,6.96746,6.96746,0,0,1,1.35105-.2249c0.54816-.03279,1.10107.02123,1.65122,0.00788a0.84444,0.84444,0,0,0,.32664-0.21363,4.593,4.593,0,0,1,.96969-0.63813C134.60132,97.018,134.89277,97.53307,135.10832,98.2146Zm-0.74411,4.77865-0.22835-.11606c-0.17785.20842-.37121,0.40574-0.52991,0.62784-0.24131.33772-.45122,0.69771-0.68749,1.03924q-0.96271,1.39163-1.93792,2.77459c-0.3.42467-.61487,0.839-0.92616,1.25558-0.59289.79349-1.2046,1.57383-1.76783,2.38778a0.692,0.692,0,0,0-.01548.64951,1.84755,1.84755,0,0,0,1.60744-.51623c0.33014-.67319.67605-1.33911,1.03212-1.999,0.59673-1.106,1.18544-2.21716,1.81782-3.30268,0.44319-.76075.96079-1.47782,1.42806-2.22511A2.83028,2.83028,0,0,0,134.36421,102.99325Zm-12.82626,8.36414-0.13227-.113c-0.72825.68062-1.4684,1.34912-2.179,2.04774-0.28954.28468-.11619,0.49354,0.219,0.56928a11.65924,11.65924,0,0,1,1.15643.2256c0.47677,0.16065.62367-.0144,0.46832-0.42558a2.15176,2.15176,0,0,1,.19645-1.68368C121.35427,111.7697,121.44742,111.5641,121.53795,111.35738Zm10.51191-.1043a2.33208,2.33208,0,0,0,1.03846-2.32522A3.49906,3.49906,0,0,0,132.04986,111.25308Zm-8.51294,2.57866a2.07881,2.07881,0,0,0,.78976-0.61071,1.66671,1.66671,0,0,0-.37052-0.80226c-0.25149.332-.51275,0.65768-0.73977,1.00567A1.82035,1.82035,0,0,0,123.53692,113.83174Zm9.67089-13.45116a12.15245,12.15245,0,0,0,1.2908.35426,0.56117,0.56117,0,0,0,.36637-0.33079,0.48931,0.48931,0,0,0-.24529-0.34638A0.9881,0.9881,0,0,0,133.20781,100.38058Z"/><path class="cls-2" d="M86.96613,54.63994a1.65431,1.65431,0,0,0-1.16571,1.61876c-0.09127.746-.49426,1.4523-0.5985,2.19863a20.12037,20.12037,0,0,1-.99666,2.66917,1.55523,1.55523,0,0,0,.07142.8721,1.54373,1.54373,0,0,0,.67822-0.02609c0.71469-.1239,1.4234-0.28364,2.13964-0.39639a1.57807,1.57807,0,0,1,.75773.12636,2.065,2.065,0,0,1-1.13069.92883,6.5361,6.5361,0,0,0-2.30729.65812,11.456,11.456,0,0,1-2.1487.77238,3.33431,3.33431,0,0,0-1.51756,1.5746,1.13739,1.13739,0,0,1-1.77752.10368,3.09765,3.09765,0,0,0-1.615-.63948,1.29155,1.29155,0,0,0-1.46025.58529,1.10124,1.10124,0,0,1-.82433.05127c-0.56776-.13982-1.08072-0.5166-1.63715.15212a1.66611,1.66611,0,0,1-1.23679-.31411c-0.55764-.40568-0.7756-0.48353-1.23616.01959a0.756,0.756,0,0,1-1.11931-.0458,0.56544,0.56544,0,0,0-.84589-0.04106,0.73391,0.73391,0,0,1-1.13147-.295,2.07642,2.07642,0,0,1-.44494-1.08078,3.40112,3.40112,0,0,1,.69957-1.11484,11.03958,11.03958,0,0,0,1.59206-2.65867c0.38432-1.1738.93881-2.29259,1.43637-3.42783,0.07084-.16163.26273-0.26668,0.35365-0.42391a4.71485,4.71485,0,0,0,.28675-0.66089,2.55148,2.55148,0,0,0,.18707-0.57121,1.043,1.043,0,0,0-.02345-0.68491c-0.31417-.332-0.16659-0.5122.06131-0.78672a14.46751,14.46751,0,0,0,1.04456-1.43913,1.51925,1.51925,0,0,1,1.40549-.52269c1.19-.06717,2.38674-0.00777,3.58055-0.02,0.3083-.00316.61446-0.10122,0.92394-0.1244,0.98611-.07387,1.97278-0.172,2.96028-0.18575a7.148,7.148,0,0,0,2.40536-.30361,4.49069,4.49069,0,0,1,2.27539.08528,1.65918,1.65918,0,0,1,.7931,2.093C87.2513,53.76718,87.13133,54.16022,86.96613,54.63994ZM72.24982,61.46041L72.466,61.56273a2.21254,2.21254,0,0,1,.09693-0.23022c1.13384-2.03858,2.27443-4.07342,3.39863-6.11729a0.55113,0.55113,0,0,0-.14768-0.86356,0.84975,0.84975,0,0,0-1.0591.46947c-0.37517.96072-.746,1.92344-1.14227,2.87552-0.40558.97453-.85495,1.931-1.25007,2.90959A3.39307,3.39307,0,0,0,72.24982,61.46041ZM79.094,57.75265l0.224,0.02241c0.15094-.20933.31584-0.41029,0.44806-0.63085,0.09275-.15473.13293-0.33994,0.21042-0.505,0.32385-.69.66988-1.37028,0.96625-2.07169a1.19864,1.19864,0,0,0-.087-0.55293,1.11957,1.11957,0,0,0-.418.27473c-0.496.97232-.97429,1.9542-1.42757,2.947A1.08924,1.08924,0,0,0,79.094,57.75265Zm3.10205-1.04215a1.19423,1.19423,0,0,0-.54126,1.40539C82.45391,57.2774,82.45391,57.2774,82.19605,56.7105ZM78.26827,59.28L78.474,59.37866l0.60265-1.16-0.20737-.09938Zm2.89719,0.0996-0.3165-.04548-0.122.77742,0.30774,0.04763Z"/></g><g id="dlR9ha.tif"><path class="cls-3" d="M88.4045,38.77478c-0.06065-.3626-0.69953.05109,0,0h0Z"/><path class="cls-3" d="M68.08137,47.57085c-0.01917.07639-.04386,0.15315-0.07088,0.22991A0.69327,0.69327,0,1,0,68.08137,47.57085Z"/><path class="cls-3" d="M182.37908,120.41551c0.02077-.36242-0.44971.15842,0,0h0Z"/><path class="cls-3" d="M139.24112,37.67068c-0.20767-.57248-0.1624.06622,0,0h0Z"/><path class="cls-3" d="M74.535,39.06687a1.98827,1.98827,0,0,0-.1001.23849C74.672,39.25941,74.66478,38.84964,74.535,39.06687Z"/><path class="cls-3" d="M112.22541,37.05857c-0.44518-.51489-0.31488.36321,0,0h0Z"/><path class="cls-3" d="M185.16155,122.32947c-0.204-.91793-0.63055-1.8469-0.85924-2.77632a19.52823,19.52823,0,0,1-.52956-3.60329c-0.12748-2.35552-.98825-4.51085-1.12033-6.8271a34.9811,34.9811,0,0,0-1.35851-5.96976c-0.31084-1.23623.09734-2.24133-.1349-3.47738a16.73175,16.73175,0,0,0-.81017-2.43786,9.32439,9.32439,0,0,1-.50411-1.83242c-0.08466-.47979-0.41394-1.08535-0.47121-1.50027a25.31636,25.31636,0,0,0-.29417-2.75592c-0.48935-2.0162-.69494-4.14353-1.23409-6.20739-0.563-2.15514-.91872-4.49418-1.26374-6.6413-0.2334-1.45273-.41406-2.95122-0.75681-4.38355-0.11793-.49278-0.36952-1.012-0.474-1.48367a0.57841,0.57841,0,0,1-.14194-0.99658l0.09318-.577c-0.04111-.89122-0.48077-1.71682-0.57162-2.65895-0.11486-1.19176-.46454-2.01265-0.508-3.20949a8.48924,8.48924,0,0,0-.864-3.5909c-0.5125-.7698-0.88454.29184-0.73984-0.85973a13.00215,13.00215,0,0,0,.52984-1.25982,5.51217,5.51217,0,0,0-.28229-1.60245c-0.19168-.92791-0.29442-1.84927-0.43385-2.80089-0.24964-1.70408-1.11874-3.13518-1.47883-4.81255-0.29736-1.38553-.52825-2.78042-0.78377-4.17379a17.05082,17.05082,0,0,1-.69163-4.04821c0.09814-1.26858.78438-1.54235,0.30042-2.79684-0.34483.29509-1.39906-.70713-1.7798-0.98133-0.83014-.59778-1.2045-1.0217-2.23392-0.9295-1.66426.14917-3.18407,0.6376-4.90769,0.6376a3.41516,3.41516,0,0,1,2.931-1.23048c0.83933-.0484,2.77516-0.53676,1.3658-1.56422-0.83345-.60764-2.54414.19383-3.3983,0.37375-1.18159.24884-2.09994,0.34912-2.90393,1.34338-1.05319,1.30252-.98047.86763-2.59456,0.90488a11.71409,11.71409,0,0,1-3.33679-.15431c-2.75335-.63472.31917-2.05124,1.54278-2.18528,0.42588-.04668,2.03887-0.05207,1.61586-1.10477-0.33283-.82836-2.62341-0.11566-3.20306.02346-1.32322.31764-2.18969,0.52157-2.98283,1.6226-0.79761,1.10734-.87939,1.65213-2.2428,1.98637a13.89092,13.89092,0,0,1-1.84253.2867c-0.49186.04674-1.45083,0.313-1.86912,0.33111q-0.2085-.18-0.41712-0.36a1.05847,1.05847,0,0,0-1.04663.00637,1.253,1.253,0,0,1-.96418-0.10629c-0.3109-.37932.51361-1.67823,0.82389-2.08855,0.03841-.05078.97992-0.93318,1.01472-0.945a8.405,8.405,0,0,0,1.09062.09287c0.84031,2.81884,3.34243-2.01253-.13-1.7597-1.42743.1039-5.81539,2.367-5.06874,4.4249-1.82409.74425-4.316,0.036-6.26191,0.02242-0.62743-.00435-2.77889.38153-2.68088-0.634a4.15955,4.15955,0,0,1,1.2619-1.33137c0.90506-.448,3.59212.68109,3.99877-0.7331,0.53823-1.87187-3.30824-1.33793-4.12877-1.05276-1.74439.60617-2.23257,2.04352-3.352,3.29385-0.7622.85134-1.97124,0.72685-3.21874,0.69292-1.3582-.03694-2.66875-0.10267-4.03191-0.061-0.76986.02352-2.47933,0.4083-2.62476-.44169-0.15125-.88386,1.25829-1.77024,1.84516-2.07783a3.32981,3.32981,0,0,1,2.47682-.40358,9.91223,9.91223,0,0,1,2.03182.36591c0.12889-1.14018.35813-1.17675-.35458-1.69256a3.12747,3.12747,0,0,0-1.33934-.34575,9.27857,9.27857,0,0,0-3.2683.32725,9.68877,9.68877,0,0,0-2.44172,1.26619c-0.59245.56476-.66823,1.48685-1.30135,2.04518-0.785-1.04731-1.90679-1.28132-2.90478-2.16041-0.87419-.77-1.68778-2.21242-3.00782-2.2852-1.90073-.10482-4.22292,3.03631-4.55428,4.68238-0.184.91419,0.17588,1.78586-1.27366,1.39619-1.43288-.38527-2.18105-2.67659-3.19118-3.70491-0.59073-.60139-2.42726-1.94906-3.35088-1.93858-1.34987.01525-3.53724,1.73606-4.30336,2.74036-0.453.59392-1.06605,3.32834-1.5021,3.15914,0.0601,0.02334-.81776-1.1852-0.841-1.23017-0.20216-.39213-0.29074-0.86065-0.47281-1.22809a4.69663,4.69663,0,0,0-3.23345-2.611c-1.81515-.2413-2.59873.75614-3.49123,2.16053-0.8615,1.35557-1.41469,2.62856-2.872.96375-1.29707-1.4817-1.3345-3.1709-3.77021-2.784-1.70543.27083-1.85221,0.85072-2.69687,1.90538a8.93341,8.93341,0,0,0-1.06232,1.32218c-0.30691.53327-.05538,1.45242-1.01858,1.26582q0.22513,0.50641.4502,1.01288c-1.012,0-3.42415-.48849-4.36-0.07682-0.685.30128-.99015,2.07066-1.1501,2.72578-0.35041,1.43539-.70106,2.89547-0.95309,4.33907-0.26428,1.51338-.94647,2.71371-1.2959,4.18678-0.60495,2.55076-1.52483,5.0976-2.26639,7.62692-0.92776,3.16428-1.96594,6.35981-3.10155,9.46056-0.44824,1.22386-1.03242,2.32845-1.44611,3.57938-0.47514,1.4368-.71087,3.18272-1.23835,4.55024-0.77574,2.011-1.97948,4.11106-2.44591,6.29591-0.12721.59588-.037,1.19654-0.20011,1.6914-0.18951.57505-.60884,1.15059-0.82067,1.75143-0.47391,1.34411-1.1014,2.5858-1.49166,3.96612-0.42355,1.49806-1.62793,8.00263-3.12728,8.387,0.32771,1.16382-.76174,2.60118-1.19007,3.70074-0.50874,1.306-1.14358,2.70238-1.54162,4.01862a25.92865,25.92865,0,0,1-1.11843,3.51745,33.53707,33.53707,0,0,0-1.12388,3.23173c-0.84827,2.57857-2.0411,4.935-2.70269,7.60737a13.85424,13.85424,0,0,1-.88307,2.50763c-0.53924,1.20652-.60078,2.8543-1.13708,3.97408a6.79421,6.79421,0,0,0-.79018,2.81212c0.34661,0.77918.9687,0.78885,2.15994,0.78989a2.45,2.45,0,0,0,1.18422-.07884c0.52332-.05207,5.10662-0.20261,6.79916-0.43417,3.07864-.42129,6.22889-0.11836,9.34138-0.35261,1.09086-.08209,1.95611-0.41191,2.88389-0.558,1.33373-.20994,2.99628.30973,4.3962,0.22219,4.99376-.31237,10.11433.00472,15.09927,0.05213,5.17375,0.04919,10.03237-.27114,15.24752-0.2157a42.33343,42.33343,0,0,0,4.4913.16926,27.01268,27.01268,0,0,1,4.72336-.2938,25.56331,25.56331,0,0,0,3.16465.26042c0.94059-.03915,1.83965-0.03026,2.788-0.10163,5.70934-.42968,11.503.20853,17.1749-0.212,2.25953-.16755,4.30452.32646,6.43,0.27108,1.263-.033,2.4971.43544,3.7307,0.47887,0.91621,0.03222,2.34309-.10353,2.5956-0.06046a17.50053,17.50053,0,0,0,3.37483.06524,6.18453,6.18453,0,0,0,2.00444-1.28,26.82122,26.82122,0,0,1,3.036-2.26424c1.6514-1.0957,3.14541-2.42928,4.75093-3.3665,2.01663-1.17724,3.70711-2.99606,5.88688-3.87368,0.74548-.30011,2.85224-1.69328,3.28241-1.79659a7.36661,7.36661,0,0,1,2.46607.99943c0.49815,0.27165,1.87274.3181,2.749,0.99068,0.90518,0.69488,4.04478,1.921,4.86873,2.42861,0.354,0.21809,2.15165.8604,2.65625,1.11463,0.4752,0.23947,4.14028,1.64711,5.61023,2.49575a3.215,3.215,0,0,0,3.54651-.10242C185.63752,124.06335,185.36554,123.24741,185.16155,122.32947ZM107.99422,35.34732c1.79615-1.39882,3.08875.3898,4.23119,1.71125-0.31978.36885,0.18409,0.71846,0.39881,0.94231-2.10123.40058-4.24859,0.32652-6.36949,0.53854A4.89965,4.89965,0,0,1,107.99422,35.34732ZM94.276,37.30459c-0.46595-.75062,1.47209-1.81441,2.12359-1.93466,1.14869-.21208,1.12768.27053,1.88988,0.67981,0.32094,0.17233,1.80608.55153,1.57409,0.8737,0.52782,1.77533.35984,1.8655-1.49916,1.79946-1.53629-.05458-3.05156.0008-4.59257,0.07363C93.79517,38.0671,93.64416,37.67993,94.276,37.30459Zm-9.16265-.3313c1.71572-1.57519,3.01052.12344,3.29115,1.80148C87.008,38.87684,82.30162,39.55475,85.11335,36.9733ZM74.535,39.06687a7.61851,7.61851,0,0,1,1.9422-2.198c0.82726-.62982,1.39135-0.454,1.945.69163,0.54932,1.13675.12074,1.21032-.89967,1.283a24.39988,24.39988,0,0,0-3.08765.46184A1.251,1.251,0,0,1,74.535,39.06687Zm68.74517,82.38976c-0.38282,1.82568-1.19041,3.7008-1.06948,5.44268-2.03562.00276-4.08141,0.55827-6.11856,0.426-0.84258-.05471-1.70126-0.3463-2.543-0.35157-0.95774-.006-1.88143.26538-2.871,0.21233-4.13164-.22127-8.22476-0.1673-12.37993.01415-4.01023.17514-7.91472,0.15646-11.8915,0.02438-4.24222-.141-8.50263.35892-12.71894,0.2761-3.79006-.07437-7.57705.00821-11.37869-0.09128-3.60683-.0944-7.18186.36842-10.76768,0.09587a14.51777,14.51777,0,0,0-3.5814.2739,5.41634,5.41634,0,0,1-1.954-.17441c-1.46712-.1091-3.06247.2568-4.57015,0.25074-1.86832-.00747-3.71869.10776-5.58872,0.07388a18.89191,18.89191,0,0,0-2.05253.22274c-0.24415.01844-.52041-0.2924-0.82355-0.277a18.40067,18.40067,0,0,1-2.444.2111,16.58523,16.58523,0,0,0-3.46544.11266,16.482,16.482,0,0,1-4.29876-.12172c-1.15736-.10733-1.8647.3624-2.064-0.74512-0.0986-.5481.57413-1.78444,0.65358-2.34859a21.17314,21.17314,0,0,1,1.39655-4.77721c2.119-5.33939,3.92906-10.576,5.60379-16.10168,0.77228-2.54806,2.34759-4.93544,3.16958-7.47505,0.61573-1.90232.95294-3.88464,1.58-5.77753,0.50871-1.53561,1.268-2.95526,1.70276-4.52279a193.20518,193.20518,0,0,1,6.58378-19.52172C62.705,63.479,63.54755,60.0956,64.73484,56.72082c0.63417-1.80246,1.20138-3.61608,1.88633-5.40231q0.51192-1.33508,1.03548-2.66575c0.1077-.27512.25245-0.56415,0.35384-0.852a5.752,5.752,0,0,0,.19689-1.33352,5.3659,5.3659,0,0,0,.88215-0.91958c0.03351-.09789-0.19787-0.91-0.15928-1.12106a3.50573,3.50573,0,0,1,.45927-0.83492c0.4034-.72477,1.90048-2.2531,2.87146-2.22167,1.47638,0.04772.68409,2.44012,1.502,3.16373,0.9205,0.81433,1.561-.56856,2.37819-0.56856,0.177-.84117-2.40913-1.86575-1.31471-2.9258,0.47532-.46043,2.99576-0.26685,3.63415-0.31077a14.85784,14.85784,0,0,1,3.06492-.24737c1.2151,0.20541.8457,0.64991,1.0263,1.90489a2.92193,2.92193,0,0,0,.51667,1.4863c0.77641,1.32984,1.41413,1.12051,2.9065.93361-0.69549-.77243-0.34343-1.04608-0.85758-1.8606-0.29552-.46827-1.49316-1.32494-1.03218-2.096,0.30189-.505,4.15891-0.59043,4.84625-0.57291,1.85944,0.04729,3.27535-.72594,3.477,1.75266,0.1643,2.01933.30777,3.54777,2.72676,3.09579-0.49223-.83872.33963-0.75485,0.02211-1.45444a3.86808,3.86808,0,0,0-.81807-0.8109c-0.326-.42325-1.27513-2.29512-0.72324-2.83783,0.5337-.52482,4.65867-0.15009,5.33014-0.08191,1.54836,0.15713,1.27562,1.1585,2.60749,1.66052a1.74324,1.74324,0,0,0,1.99115-.3939c0.26661-.28964.33534-1.24634,0.6882-1.39759,1.2567-.53885,1.2347,1.31373,1.10226,2.10331-0.11713.69837-.51716,0.71111-0.293,1.49034a1.76115,1.76115,0,0,0,1.09068,1.10838,1.79428,1.79428,0,0,0,1.99243-1.91782c-0.12681-.75393-2.04187-1.92186-1.55558-2.77124,0.17618-.30777,3.24184-0.51336,3.82228-0.54877,1.40029-.08534,2.91759.28737,4.26513,0.28388,1.54529-.004,1.26882-0.36511,2.24911,1.12149a5.00637,5.00637,0,0,0,3.0621,2.12194c0.92123,0.25184,3.45845,1.02317,3.90106-.31133,0.63692-1.92027-2.08322-1.42032-2.79684-1.53941-0.7853-.131-1.57733-1.22833-2.2164-1.62554,1.81839-.35335,3.88758.10451,5.75952,0.0737,0.79283-.013,2.26712-0.48292,2.95342.07014,0.55306,0.44579.50963,1.75848,1.04835,2.37329,0.76821,0.87676,4.87026,2.6307,5.17093.28,0.122-.95395-0.77353-1.327-1.448-1.62744A3.75428,3.75428,0,0,1,130.1763,39.057c2.21867,0,4.37871.514,6.61379,0.34257,0.78867-.06053,1.41928-0.32247,1.97614.23028,0.53064,0.52672.69727,1.6819,1.24205,2.30872,0.898,1.0331,3.67164,1.74433,4.67741.458,1.44274-1.84516-2.47516-1.90728-3.30016-2.55064,0.9469-1.00277,3.90909-.36419,5.23108-0.34912,0.82371,0.00943,2.33733-.21747,2.77375.14751,0.47673,0.39874.66927,1.31391,1.24132,1.78427,0.74658,0.614,3.86149,2.04677,4.67594.90941,1.15059-1.6068-1.71664-2.38909-2.66023-2.65607a7.01846,7.01846,0,0,1,5.07224-.43593c0.64121,0.224.74768,0.16209,0.73463,0.0884,0.01795,0.02015.04031,0.04429,0.06818,0.07321a1.52081,1.52081,0,0,0,.198,1.44544,1.867,1.867,0,0,0,.68679.78952c0.72532,0.545,2.964,1.12076,3.69369.34373,1.36641-1.455-1.3144-1.576-2.06337-2.13474,0.56494-.43409,2.22081-0.18372,2.96016.00129,1.82293,0.45614,1.6038.98929,1.23893,2.64516-0.33454,1.51822-.8438,3.0017-1.16272,4.51936-0.33215,1.58064-.27242,3.254-0.91309,4.76551-1.09534,2.5839-1.45812,5.49359-2.21095,8.23952-0.84141,3.06908-1.96382,6.0861-2.78533,9.14133-1.45322,5.40451-2.71494,10.60368-4.60862,15.76793-1.03224,2.81485-1.74733,5.72509-2.5907,8.60273-0.42717,1.45751-.76379,2.941-1.13209,4.41448-0.35261,1.4104-.56733,3.62612-1.5146,4.75209,0.32137,0.87406-.53186,2.11851-0.70468,2.98559-0.2478,1.24346-.42974,2.40974-0.76177,3.6347-0.313,1.15537-.5669,2.32373-0.90776,3.47273a23.53115,23.53115,0,0,0-1.22527,3.19791,10.16936,10.16936,0,0,1-.65726,3.00047A16.19093,16.19093,0,0,0,143.28014,121.45663ZM157.823,116.7604a4.93624,4.93624,0,0,1-1.354.99426c-1.372,1.07114-2.47682,2.37341-3.96361,3.35009-2.75953,1.81276-5.184,3.96042-8.11914,5.597-0.95885-1.02158.7448-5.078,1.03879-6.23006,0.24859-.97441.879-1.83493,1.07782-2.806,0.16044-.7834-0.14843-1.16585.36327-1.7956,0.70419-.86665.798-1.38858,1.12143-1.42588a13.84893,13.84893,0,0,1,1.86832.10113,5.83007,5.83007,0,0,0,1.82905-.072q0.874,0.07351,1.74794.14709a11.309,11.309,0,0,0,1.79156.07008,0.62662,0.62662,0,0,0,.14574.03192,0.56879,0.56879,0,0,0,.2565-0.03774c0.04864,0.00024.0974-.00092,0.146-0.00153a5.756,5.756,0,0,0,1.14214.21692,12.95822,12.95822,0,0,1,1.44942.16412c0.15891,0.087,1.59842.15459,1.73705,0.20825A17.81331,17.81331,0,0,0,157.823,116.7604Zm24.569,5.89925c-3.4024-.20571-6.41611-2.898-9.513-3.80917a25.2067,25.2067,0,0,1-6.21989-2.9748,12.86985,12.86985,0,0,1-1.15684-.73176,10.11046,10.11046,0,0,0-1.82257-1.05819,3.62649,3.62649,0,0,0-1.78336-.48032,10.27522,10.27522,0,0,1-1.8807.176c-0.5991-.06131-1.40713-0.28138-1.70105-0.31093a2.423,2.423,0,0,0-1.09687.07042c-0.47066-.01581-0.94182.01311-1.41322,0.01495a3.74,3.74,0,0,0-.57425-0.14555,21.73588,21.73588,0,0,0-3.92881-.11027,10.63084,10.63084,0,0,0-1.31355-.0416c-2.25579.071-2.47186-.97888-1.91739-2.72247,1.064-3.34592,1.30987-6.9386,2.62231-10.27631a14.67551,14.67551,0,0,0,1.01055-2.76866c0.41516-2.11789.9635-4.0642,1.54266-6.146,0.52843-1.89968,1.15071-3.75894,1.58376-5.67228,0.36-1.59044,1.23862-2.83544,1.53261-4.38526a59.39593,59.39593,0,0,1,2.92782-9.32383c0.52862-1.42191.68746-3.28693,1.12688-4.79081,0.454-1.55375.51183-3.1048,0.84509-4.52181,0.31261-1.32929.91768-2.6323,1.26784-4.02426,0.48145-1.9142,1.29051-3.75557,1.7817-5.66665,0.87743-3.41349,1.77949-6.90368,2.7256-10.416,1.31158,2.03348,1.54707,4.63153,2.03182,6.95483,0.56121,2.69013,1.83389,5.22765,2.28667,7.92164,0.37957,2.25855.39029,4.69242,0.95725,6.90521,0.5288,2.064.96,4.10267,1.38191,6.18007,0.43084,2.12181.5103,4.55845,0.82836,6.64252a18.70987,18.70987,0,0,1,.55006,2.34088,25.93591,25.93591,0,0,0,.79277,3.99154c0.50975,2.19055,1.0157,4.32431,1.42945,6.51663,0.30214,1.6003,1.386,4.8003.60188,6.21027,0.97919,0.39335.55643,2.08089,0.74781,3.07129,0.22728,1.17608.64023,2.24286,0.78738,3.444,0.21766,1.77735.59061,3.53442,0.94249,5.32053,0.79332,4.02713,2.24078,8.23713,2.00383,12.372C181.873,120.59377,182.415,122.27929,182.39207,122.65966Z"/><path class="cls-3" d="M224.78443,122.20064c0.61376,1.25256-1.15816,2.72918-2.21682,1.877C221.39955,123.13735,224.25219,122.29993,224.78443,122.20064Z"/><path class="cls-3" d="M229.64235,100.80184q0.014-2.37533.01549-4.75069c-0.00088-3.15145-.02913-6.30315-0.11883-9.45343q-0.06726-2.36238-.18433-4.72311a36.77142,36.77142,0,0,1,.46775-3.83673,2.948,2.948,0,0,0-.05273-0.78972,3.67784,3.67784,0,0,0-2.19221-2.67369c-1.19415-.39684-2.78392.24884-4.06518,0.15824a13.01649,13.01649,0,0,0-2.8445-.283q-0.52424-.07949-1.05184-0.13453a3.16148,3.16148,0,0,0-1.56147-.08509c-0.01041.00184-.01875,0.0057-0.02873,0.008,0.17-.77954.387-1.55589,0.58638-2.32024,1.29137-4.95131,1.71566-10.08505,2.73025-15.10038a4.759,4.759,0,0,0,.00337-2.868c-0.4684-1.0481-1.66714-1.631-2.11912-2.68627-0.44328-1.03487-.12754-2.4207-0.96632-3.17163a1.4714,1.4714,0,0,0-2.04138.16344,3.42407,3.42407,0,0,0-.51955,1.53917,26.44255,26.44255,0,0,1-1.02213,3.22511,28.65379,28.65379,0,0,0-1.16695,9.08344,51.72054,51.72054,0,0,1-1.01092,9.19047c-0.193.97153-.08509,2.236-0.83841,2.83115-0.97379.76931-2.93823,0.34747-4.0332,0.29-1.83934-.09661-1.447-0.07351-1.94563-2.91783-0.2331-1.32984-.328-2.64057-0.48236-3.97825-0.29815-2.58347-1.14091-5.018-1.45726-7.559-0.305-2.45029.21784-6.22461-3.04268-5.83958-0.10757-.929-2.08438-0.119-2.785-0.018-0.94427.13606-1.44342-.41577-2.35975-0.35525-2.3769.15707-2.222,3.233-2.33708,4.84937a15.11457,15.11457,0,0,0,.45651,3.97758c0.31874,1.56232.37614,2.40931,0.74817,3.74086,0.59129,2.11661,1.05858,7.22358,1.89313,7.67991a1.31442,1.31442,0,0,0,1.82654-1.51889,17.38974,17.38974,0,0,0-.83878-1.91678c-0.25754-.895-0.31145-1.80253-0.52169-2.70979-0.92613-3.99632-2.99845-11.14749-.75056-12.20521,0.85636-.16687,1.40911.87939,1.67762,1.55718a7.49488,7.49488,0,0,1,.01066,2.13339c0.03039,1.76522.0449,3.53822,0.11413,5.302,0.1148,2.927,1.57065,5.61163,2.19049,8.45234,0.14647,0.67129.4616,1.389,0.53744,2.05847a7.35654,7.35654,0,0,1-.14035,1.144,11.73419,11.73419,0,0,0-3.563,1.76136c-0.92583.49584-.78377,1.29308-0.65536,2.25916a22.11159,22.11159,0,0,1-.194,3.876c-0.06677,2.49072.6844,5.30337,0.41706,7.76935a3.656,3.656,0,0,0-.20424,1.38c0.04735,0.67148-.16663,1.27017-0.15634,1.934a38.04854,38.04854,0,0,0-.07595,4.4429,47.68552,47.68552,0,0,1,.15694,6.765c0.00323,2.68662.08255,5.39091,0.08714,8.06507a47.64808,47.64808,0,0,0,.06285,5.84479,7.97632,7.97632,0,0,0,.634,3.20108,13.36714,13.36714,0,0,0,2.69229,2.691,7.354,7.354,0,0,0,4.5952,1.8592,31.93842,31.93842,0,0,0,3.46764.24462c1.2105-.06626,2.39169-0.41592,3.6177-0.47491,3.26678-.15718,6.9846.42792,9.87161-1.47211a0.8591,0.8591,0,0,0-.18262-1.50664c-0.42821-.32388-0.9039.04913-1.50217,0.34575-0.42784.21208-.79436,0.40358-1.14091,0.57174a0.91217,0.91217,0,0,0-.15664.03277,9.00308,9.00308,0,0,1-2.85339.09538c-1.55851-.0518-3.06736.09125-4.612,0.06724-0.95253-.0148-1.87116-0.39067-2.82357-0.41142-1.11878-.02437-2.21171.40281-3.3304,0.1951a8.89414,8.89414,0,0,1-3.10053-1.10508,6.30635,6.30635,0,0,1-2.42338-3.33487c-0.8468-2.52785-.36278-5.42724-0.6395-8.0483a47.372,47.372,0,0,1,.05838-5.33993c0.02642-2.81633-.45238-5.61894-0.39855-8.41782,0.0299-1.2921-.25895-2.63524-0.13343-3.90768a43.14349,43.14349,0,0,0,.35966-4.68673c-0.00539-.92344-0.09587-1.75615-0.09673-2.7063-0.00086-.9537.2429-1.793,0.28615-2.63885,0.04748-.9292-0.76526-2.63285.23175-3.40007,0.80925-.62277,2.705.28413,3.50005,0.57174,2.2175,0.802,4.79981.43807,7.14768,0.95787,1.89809,0.42025,3.796-.0147,5.90752.04515a16.114,16.114,0,0,0,3.57025-.12687c1.04951-.18746,2.146.054,3.21813-0.41155,0.44487-.19315.91253-0.6648,1.34675-0.9001a5.16735,5.16735,0,0,1,1.70451-.44122c0.90109-.214,1.46376-1.29394,1.99576-0.16064a7.39521,7.39521,0,0,1,.23289,3.36668c-0.08469,1.896.10515,3.79189,0.20632,5.68709,0.14325,2.68344.10874,5.37283,0.0742,8.05987a146.82326,146.82326,0,0,1-1.05481,18.87591,5.57013,5.57013,0,0,1-.78565,2.4864c-0.43827.61716-1.16383,1.21878-.979,1.95281,0.94586-.56586,2.16955-0.55431,3.0675-1.19346a3.52774,3.52774,0,0,0,1.15132-1.57182,12.00974,12.00974,0,0,0,.57489-4.6607C229.56318,110.11973,229.61481,105.46082,229.64235,100.80184ZM199.68393,79.09305c-0.32388-.33148-0.58571-0.68832-0.88429-0.94849a13.70559,13.70559,0,0,1,1.96137-.782,3.0516,3.0516,0,0,1,.56237,1.64239C201.2895,80.52642,200.60081,80.03132,199.68393,79.09305Zm0.89881-7.72469a30.35256,30.35256,0,0,0-.92491-4.58957,17.05571,17.05571,0,0,1-.41289-3.343c-0.00447-.91309-0.20461-1.70831-0.17135-2.63861a8.44722,8.44722,0,0,0-.33822-2.215c-0.16375-1.05515.14592-1.05515,0.7671-1.22472,0.88423-.2413,1.62934.59888,1.99151,1.30558a8.521,8.521,0,0,1,.591,2.71353,23.91888,23.91888,0,0,0,.48733,2.81614,40.75954,40.75954,0,0,1,.99677,5.10421c0.13293,1.04351.82389,2.68443,0.84055,3.5403s0.28131,1.32151-1.20015,1.86605S200.95233,73.072,200.58274,71.36836Zm1.78078,9.30925a4.84571,4.84571,0,0,0,.09967-2.642,2.00349,2.00349,0,0,1,1.28138-1.13828,1.38955,1.38955,0,0,1,1.51221.689c0.08913,1.26331.43838,3.08256,0.619,4.08858C205.59488,81.58047,202.64434,80.77208,202.36352,80.67761Zm11.98124-12.66368c0.99879-4.55992.39072-9.38913,2.19373-13.78536a1.31794,1.31794,0,0,1,1.08223-1.02195,1.18948,1.18948,0,0,1,.81066.60041,7.14614,7.14614,0,0,1,1.12107,4.02033,21.29819,21.29819,0,0,1-.53192,4.19578q-1.13126,5.80565-2.26253,11.61135-0.04255.21842-.08644,0.43764-0.90742-.07223-1.81662-0.10947A8.41982,8.41982,0,0,1,214.34476,68.01393Zm10.20861,10.88438c-0.24921.27788-.242,0.696-0.50252,0.96216q-0.468-.51321-0.72428.265l-0.42215.32566a9.1126,9.1126,0,0,1-2.45672.58565,18.59855,18.59855,0,0,1-5.08394.5397c-0.91915-.04006-6.47639.52837-7.27657,0.14188-0.55024-.26575-1.14361-2.55891-1.71039-4.10316a1.45591,1.45591,0,0,1,.35752-1.144c0.51777-.30593,2.27074.043,2.95594-0.08092a10.78718,10.78718,0,0,1,2.49256-.44316c-0.05183.8076-.289,1.5777-0.37939,2.37562a4.32521,4.32521,0,0,0,.0389,1.23734c0.06438,0.3645.30667,0.73408,0.60341,0.27794a3.53359,3.53359,0,0,0,.54044-1.63363c0.06365-.756-0.72453-2.411.66976-2.42977a2.21581,2.21581,0,0,0,1.05631-.11382,12.39523,12.39523,0,0,0,1.62156.174,38.11775,38.11775,0,0,0-.93753,4.77414c0.01838,0.01905.03829,0.03645,0.0574,0.05464a0.44443,0.44443,0,0,1,.44022-0.161,4.52461,4.52461,0,0,0,1.10936.061,0.49785,0.49785,0,0,1,.00931-0.107c0.23708-1.14961.56635-2.284,0.69837-3.45294a0.485,0.485,0,0,1,.03259-0.125,7.88821,7.88821,0,0,1,.0193-0.9711,3.29946,3.29946,0,0,0,.86947.42276,5.9011,5.9011,0,0,0,1.39533.31953,3.08445,3.08445,0,0,0,1.23115.45308c1.76142,0.2119,3.48945-.93551,5.00166.49155C225.73662,78.10051,225.007,78.39223,224.55338,78.89831Z"/><path class="cls-3" d="M146.49216,81.56048c0.86442,0.67586,1.49432,1.57621.47589,2.32051-0.23612.17256-.98654,0.16742-1.12655,0.321a9.44414,9.44414,0,0,0-.30188,2.15644,5.39482,5.39482,0,0,1-.61931,1.793q-0.75184.15306-.41214,0.65133a0.58725,0.58725,0,0,1-.19991.8472c-0.27068,1.09066-.35106,2.20955-0.72206,3.30686-0.85611,2.53216-1.13069,5.13816-1.99147,7.65615a26.48684,26.48684,0,0,0-.99954,4.05935c-0.00657.03824-.55714,2.49224-1.17921,1.81518,1.363,1.48345-.3207,3.08-0.661,4.67686a22.19767,22.19767,0,0,0-.80989,5.21631c0.014,0.47569-4.90711,1.27881-5.37161,1.22216-1.50578-.18366-3.03422.01956-4.54834-0.09173-5.66809-.41661-11.45254.01221-17.13131-0.07633-1.38874-.02165-2.73781.37153-4.10316,0.4211-1.20415.04373-2.20163-.38819-3.46049-0.39391a73.48993,73.48993,0,0,0-8.88553.18952c-2.66529.31665-5.61371-.18934-8.34919-0.1705-3.06255.02109-6.17362-.26866-9.18117-0.06732-1.37262.09189-2.76228,0.22736-4.1381,0.20949a35.7669,35.7669,0,0,0-4.184-.227c-0.56033.05906-1.4138,0.12308-1.95588,0.22271a10.6834,10.6834,0,0,1-1.647.57745c-1.18573-.04115-2.40763-0.538-3.71449-0.56831a29.03333,29.03333,0,0,0-4.38411.19881,16.12162,16.12162,0,0,0-1.69952.48312c-0.39955.0944-1.11663,0.16736-1.72147,0.25a19.48576,19.48576,0,0,1-2.07969.47034c-1.231.03434,0.21955,0.45786-.8949-0.18717a1.54962,1.54962,0,0,0-.55879-0.07633,0.50564,0.50564,0,0,0-.15713-0.58575c-0.5107-.37493-0.50226.26154-0.87243-0.49-0.27307-.55439.113-0.75122,0.23774-1.19278,0.18247-.64566.38973-0.79349,0.6249-1.46057,0.39859-1.13065,1.15041-1.77111,1.58891-2.82975a5.40991,5.40991,0,0,0,.18608-1.70122,4.358,4.358,0,0,1,.96929-2.3192,7.40718,7.40718,0,0,0,.8583-2.57137c0.27522-1.15016,1.08572-2.1159,1.38282-3.25923a21.77584,21.77584,0,0,1,1.67423-5.414c1.22637-2.31671,1.59733-4.8798,2.68413-7.26982,1.21874-2.68016,1.75316-5.6897,2.77643-8.40339,0.371-.98376.97642-1.76811,1.34278-2.70407,0.43913-1.12189.37961-2.516,0.75569-3.65572,0.82485-2.49962,1.80685-5.01768,2.86737-7.42886a94.01658,94.01658,0,0,0,4.53285-13.78107,4.49328,4.49328,0,0,0,.271-2.50405c-0.16777-.73047-0.43294-0.09054-0.38981-0.96388a2.11505,2.11505,0,0,1,.403-0.87371,3.07153,3.07153,0,0,1,1.969-.93357c1.76986-.04859.19046,0.33434,1.09168,0.576a6.83314,6.83314,0,0,0,2.04611.06972c2.55445-.1157,5.0161.22873,7.51588,0.25066,2.5669,0.02252,4.72114.83044,7.26763,0.57738,2.91283-.28946,5.6531.63535,8.651,0.4097a11.46532,11.46532,0,0,0,3.11862-.43152l0.38252,0.17165a0.37486,0.37486,0,0,0,.27564-0.387,1.678,1.678,0,0,1,1.60217-.06,6.06,6.06,0,0,0,1.04993.63909,7.81172,7.81172,0,0,0,1.65467.02761,25.04547,25.04547,0,0,1,3.87264.17533,15.68113,15.68113,0,0,0,3.96181-.39221c1.84851-.19333,3.67938.18183,5.52433,0.12527,5.82092-.17845,11.75924-0.18528,17.41788-0.103a19.73975,19.73975,0,0,0,2.14809.075c0.9364-.09516,1.61519-0.63521,2.52416-0.77736a14.11265,14.11265,0,0,1,3.54309.289,22.97973,22.97973,0,0,0,4.43225-.15823c1.36919-.07432,2.72136-0.37464,4.01282.28073,2.70889,1.37467-.69474,4.0389-1.381,5.56031-1.348,2.9885-1.78848,6.61422-2.87362,9.716-0.48708,1.39228-.90511,2.79671-1.36307,4.20372-0.149.45766-.46109,1.2832-0.57612,1.71213a0.91411,0.91411,0,0,1-.3738.22477,3.38919,3.38919,0,0,1,.08568,1.5506c-0.21087,1.60052-1.14119,3.15214-1.57034,4.6898-0.3995,1.43143-.29076,2.909-1.18985,4.12059C146.57994,81.62911,146.72229,81.25036,146.49216,81.56048Zm-29.40853,34.5713a42.23505,42.23505,0,0,1,5.2078-.18117c1.95662-.10051,3.90921-0.30552,5.86916-0.33352,1.722-.0246,3.27643.41517,4.9991,0.0757a5.46919,5.46919,0,0,0,2.4132-.7176,4.10682,4.10682,0,0,0-.01764-0.88526,1.78026,1.78026,0,0,0,.51323-0.63838c0.48173-1.45361.66687-2.8414,1.28346-4.23631a19.83877,19.83877,0,0,0,1.17485-4.03362c0.21889-.9826,1.95985-3.82929,1.17457-4.78174-0.77816-.94382-2.46607.03631-3.48749-0.06425a16.08114,16.08114,0,0,0-3.29662-.37611c-0.45177.04381-.96221,0.21469-1.5386,0.22712a14.59286,14.59286,0,0,1-2.4375-.04742c-1.65011-.21817-3.26424-0.39109-4.94445-0.51786-1.61682-.122-2.97018-0.55807-3.73325.92732-0.38114.74193-.45031,1.68921-0.7874,2.4621a3.73867,3.73867,0,0,0-.51425,2.05125c0.06686,1.59358-.56122,2.4222-0.84433,3.92966-0.23409,1.24643-.66926,2.71281-0.76928,3.91a17.61116,17.61116,0,0,1-.17836,1.83812c-0.13924.76687-.6833,0.70106-0.0862,1.39192C117.74509,116.017,117.03487,116.07536,117.08363,116.13178ZM127.9761,71.41344c-0.33021.0924-.78964,3.09711-0.94094,3.62345-0.40734,1.4171-.76117,2.88292-1.28074,4.26367-0.36963.98228-1.32013,1.9714-.03662,2.497,1.23768,0.50686,3.28042-.33612,4.594-0.29025,2.36085,0.08243,4.8576.11158,7.17781,0.26378,1.20033,0.07874,2.41091-.03944,3.62841.00051,0.54838,0.018,3.09314-.23939,3.28556.03412,0.55555-1.885,1.32646-3.55,1.73949-5.47424,0.17883-.83313.58774-1.48922,0.81755-2.28561q0.00475-.43694.00558-0.8739a0.78525,0.78525,0,0,1,.52787-0.69633c0.20621-.71858.80283-3.289,0.33327-3.86316-0.62448-.76359-2.94605-0.72-3.86732-0.85882-3.59932-.54227-7.368-0.14053-10.96278-0.73342-1.22516-.20207-2.67711-1.29967-3.7212-0.30981-0.838.79451-1.14471,3.57549-1.2999,4.703C127.68171,71.49581,128.03591,70.979,127.9761,71.41344Zm1.927-6.58157c3.164,0.40336,6.59385,1.31386,9.77826,1.0675,1.79039-.13851,3.65164-0.21469,5.47718-0.35964,1.74932-.1389,2.87094-0.51256,4.28642.71089a16.86936,16.86936,0,0,0,.55594-2.68756c0.25269-1.1521.88193-2.18729,1.21545-3.32194,0.4723-1.60676.83537-3.2477,1.26756-4.85157,0.171-.63453.82794-2.09039,0.60663-2.71175C152.85268,52.01,151.50918,51.9,150.88266,51.796a19.61505,19.61505,0,0,0-6.13038-.07018,7.76854,7.76854,0,0,1-1.05342.34006c-0.30088.02042-1.05241-.12444-1.40835-0.15685-1.18971-.10834-2.334.01411-3.52281-0.03281-0.993-.03919-2.08282-0.55262-2.82291.01849-0.25146.194-.48177,1.22646-0.85042,1.55855a5.4823,5.4823,0,0,1-.76385.47247c-0.123.23217,0.00818,0.687-.11886,0.88821a21.52674,21.52674,0,0,0-1.50365,2.45575c-1.13915,2.42655-1.89308,5.04153-2.80489,7.5622C131.32178,65.01272,130.34549,63.60892,129.90311,64.83186Zm5.96918,18.78783c-2.33049-.73684-4.64792-0.26756-7.06042-0.41032-1.09352-.06471-2.59387-0.41839-3.65145.02515-1.11905.46932-1.03454,1.3825-1.37568,2.61972a38.67937,38.67937,0,0,0-1.43008,4.6964c-0.35238,2.43045-1.50343,4.95214-1.50343,7.44453,0.79327-.22217.58307,0.36036,1.26146,0.4177,1.01082,0.08544,2.11519-.38719,3.19762-0.287a59.21807,59.21807,0,0,0,6.01124.51517c1.67248-.01781,3.2998-0.45574,4.91222-0.53649,0.77668-.03889,1.60174.49611,2.37519,0.36,0.51239-.09014,1.00129-0.81143,1.55392-0.37425,0.48657-1.97512,1.465-3.5958,1.48282-5.59789,0.01507-1.69226,1.04462-3.22251,1.41509-4.911,0.35484-1.61729,1.76089-3.77279-.698-3.88753-0.79856-.03726-6.35275,1.112-6.49045-0.07415C135.42541,83.4784,135.90584,83.90867,135.87229,83.61969ZM85.08065,104.96895c-0.10712-.07465,1.065-1.79471,1.22416-2.26577,0.39733-1.1762.39709-2.462,0.74183-3.68975a47.21843,47.21843,0,0,1-7.6282.006c-1.61737-.19259-6.90067-1.30937-7.80958.06484-0.16592.25085-.14979,1.419-0.28586,1.8267-0.20423.612-.63959,1.23781-0.89325,1.84958-0.48827,1.17762-.75716,2.47041-1.25551,3.62059a25.12618,25.12618,0,0,0-1.85807,4.99468c-0.12164.62868-1.093,3.61259-.55316,4.08858,0.36987,0.32609,3.27032.05943,3.76212,0.0422,2.72646-.0955,5.63136-0.34519,8.34118-0.69686,1.77282-.23007,1.8615-0.62064,2.78077-2.0057a10.10054,10.10054,0,0,0,1.57448-2.59494c0.30889-.96853.65183-1.03858,0.97356-2.04172,0.131-.40838-0.03934-0.91582.06923-1.34966,0.15549-.62134.59716-1.21941,0.8163-1.84878C85.0261,104.93094,84.95612,105.3266,85.08065,104.96895ZM85.7165,81.87972c-1.56195.51087-3.41134,0.007-5.054-.05A12.54915,12.54915,0,0,0,78.2024,81.679a4.36557,4.36557,0,0,0-.466,1.579c-0.40856,1.11244-.791,2.2926-1.24417,3.39656q-0.273.50469-.56543,0.99838,0.46782,0.40821.07472,0.70495c-0.18968.49669-.59858,0.91262-0.76071,1.45763-0.15339.51561,0.01619,1.13432-.10083,1.57065l-0.43776.25193a2.966,2.966,0,0,1-.45138,1.41468c-0.25843.63782-.544,1.33632-0.82506,1.96133-0.18934.421-.70833,0.93778-0.8327,1.33069-0.36494,1.15289-.02186,1.01775,1.03785.92145a12.27625,12.27625,0,0,1,2.25734.03593c1.12473,0.098,2.03252.126,3.05692,0.29349,1.81641,0.29693,6.74128,1.191,8.40176.11942,2.20309-1.42181,1.87859-5.64253,2.871-7.75256,0.67757-1.44057,1.24342-2.818,1.82816-4.29863,0.2509-.63529,1.49865-2.671,1.17974-3.43319-0.51993-1.24263-6.17312-.35094-7.50939-0.35094C85.38895,81.98685,86.18167,81.87972,85.7165,81.87972ZM85.58738,114.3569a41.13887,41.13887,0,0,1,4.14185-.01927c1.52037-.01932,3.2-0.40673,4.68048-0.27255q0.52444,0.19985,1.06114.36371a7.16422,7.16422,0,0,1,.87584-0.30017,3.46233,3.46233,0,0,1,1.18873.86285c1.76219,1.219,1.25355-.63411,1.49011-1.97771a6.02934,6.02934,0,0,1,1.25736-2.2224,25.89892,25.89892,0,0,0,1.23606-3.82912c0.20058-.56451.28129-1.1854,0.45368-1.7627,0.22363-.74887.23721-1.68613,0.46317-2.36059A29.92757,29.92757,0,0,0,103.74,99.078a73.76962,73.76962,0,0,0-7.96229.06942,28.86591,28.86591,0,0,1-4.54949.166c-1.45175-.1169-1.96117-0.53256-2.51824.81684-0.24982.60515-.21036,1.30147-0.51449,1.897-0.26922.5272-.53347,0.62-0.69275,1.02892a9.14232,9.14232,0,0,1-.38074,1.681,7.52256,7.52256,0,0,0-.73029,2.00673,27.07942,27.07942,0,0,1-1.20091,3.9813c-0.55544,1.38121-.09833,2.09425.39662,3.63173C86.1763,114.292,85.2956,113.45053,85.58738,114.3569ZM109.30551,81.1346c1.027-.8131,1.31608-3.2199,1.79741-4.42286a28.46949,28.46949,0,0,0,1.75918-6.2178,9.83843,9.83843,0,0,1,.75217-2.9275c0.32759-.6616,1.01616-1.14564.27068-1.7694-0.93757-.78449-4.26193.23475-5.39823,0.14659a38.71779,38.71779,0,0,0-5.67321-.10124c-0.8266.05419-1.8389-.07979-2.43739,0.54393a12.7784,12.7784,0,0,0-1.24554,2.91613c-1.48056,3.5037-1.97666,7.83706-3.96408,11.01785,1.81732,0.80765,4.767.28737,6.75057,0.36341,2.48082,0.09511,4.91666.20119,7.38842,0.4509C109.37,81.08351,108.02637,81.00538,109.30551,81.1346ZM89.61028,96.42011c-0.00165-.00074-1.607.86108-0.43116,1.53608,0.57027,0.32735,2.66348.11162,3.28576,0.07924,2.90106-.15091,6.13683-0.775,9.0435-0.35265,0.95118,0.13822,1.90364.65479,2.7013-.11206,0.03958-.03805.472-1.22454,0.51835-1.33093,0.25024-.57473.53871-1.15983,0.792-1.74838,1.10587-2.56934,1.54433-5.50967,2.52377-8.20914,0.19339-.533,1.51581-3.20718,1.14077-3.72726-0.3542-.49118-3.70966-0.25668-4.2958-0.28916a82.52151,82.52151,0,0,0-8.71754-.36166c-1.5797.08-1.55035,0.85488-2.0623,2.3358a21.76645,21.76645,0,0,1-1.31957,3.44689,48.76726,48.76726,0,0,0-3.17911,8.73323C89.66149,96.44317,89.73914,95.992,89.61028,96.42011ZM64.4886,81.82543c-1.21265-.69294-1.61729,2.1536-1.86514,2.90551a18.73216,18.73216,0,0,1-1.302,3.082c-0.60844,1.1411-.65849,2.6797-1.19085,3.92872-0.49309,1.15689-1.764,3.34428-1.7004,4.5583-0.00875.00782,1.9251,0.70315,2.16661,0.76022a19.30384,19.30384,0,0,0,2.61014.481,52.52973,52.52973,0,0,0,5.3316.01768c2.29513-.04671,2.41047-0.70876,3.27038-2.82832,0.66981-1.651,1.1364-3.30493,1.717-4.976,0.55831-1.607,1.31671-3.136,1.88434-4.74382,0.49132-1.3917,2.02864-3.33017-.06243-3.31085a20.26642,20.26642,0,0,1-3.10326.16733c-0.83767-.11511-1.60664-0.50151-2.45875-0.57763a17.08453,17.08453,0,0,0-5.29724.53585C63.8989,81.48846,65.1,81.68063,64.4886,81.82543Zm22.9857-.90768c0.21557-1.10311,5.299.00224,6.26664-.78605,0.89453-.72874,1.077-2.86938,1.31032-3.90378a18.723,18.723,0,0,1,1.32241-3.416A29.99923,29.99923,0,0,0,97.838,68.67c0.20942-.74678,1.055-2.0757.59073-2.78519-0.37294-.56993-3.582-0.30057-4.20528-0.26236-1.72259.10562-3.40643,0.44836-5.13557,0.45122a14.75614,14.75614,0,0,1-2.07566-.03694,3.21143,3.21143,0,0,1-.95171-0.45551l-0.59728.22719c-1.2131-.12353-1.51612-0.03157-2.02391,1.2393-0.97358,2.43663-1.47586,5.08834-2.49461,7.526-0.553,1.32331-3.10044,4.728-1.92457,5.89628,0.612,0.60809,3.759.24348,4.65032,0.25164,0.88175,0.00807,3.19433-.52484,3.80385.1961C87.48851,80.845,87.02418,80.38535,87.47429,80.91775Zm23.5733,1.55447a17.42461,17.42461,0,0,0-1.198,2.93168c-0.2253.93069-.20721,1.88646-0.48458,2.80757-0.61259,2.03437-1.53562,3.97151-2.25995,5.98646-0.26054.72476-1.11648,2.472-.80525,3.25657,0.44064,1.1108,1.953.69444,2.99041,0.67315,2.68571-.0551,5.82772.82216,8.453,0.12937,2.23562-.59,2.20741-3.7244,2.45087-5.66336a14.077,14.077,0,0,1,.49424-3.0556c0.3727-1.0273.9359-1.90948,1.248-2.98878,0.24816-.85807.94745-2.3218,0.49576-3.20518-0.47787-.93457-1.28791-0.51749-2.355-0.51862-3.01418-.00321-6.01268-0.35326-9.02954-0.35326C110.73295,83.17408,111.80355,82.47222,111.0476,82.47222Zm3.99315,27.8653c0.96456-1.10774,2.23705-5.12241,1.67116-6.10865q0.22727-.25947.49162,0.13172l1.15436-4.84572a56.09708,56.09708,0,0,1-6.14775-.10353c-1.77177-.06069-3.66774-0.55217-5.42485-0.40985-1.0831.08773-.70292,0.08535-1.18983,0.9347a4.60583,4.60583,0,0,0-.799,1.78414c-0.27661,1.71535-1.08165,3.02941-1.25915,4.71242a19.35892,19.35892,0,0,1-1.09763,4.83475c-0.47846,1.24573-1.86027,4.12034-.40153,4.7013a7.10054,7.10054,0,0,0,2.61907-.11542,21.75916,21.75916,0,0,1,3.04.153c2.06472,0.16189,4.086-.01155,6.13288-0.01155l-1.0352-1.929h0.83908a1.34533,1.34533,0,0,1,.29191-1.80281c0.43134-.43028,2.42957-1.05506,1.11479-1.92551C115.41277,109.91027,115.64737,110.73913,115.04075,110.33752ZM116.008,65.96168c-0.31995.80773-.97568,1.522-1.21875,2.35566-0.26729.91675-.32539,1.90459-0.564,2.8446-0.4954,1.95158-.94529,3.82507-1.54509,5.77165-0.22381.72633-1.79356,3.38581-1.20113,4.12646,0.54585,0.68241,5.50873.26892,6.43434,0.35,1.35855,0.119,4.40134.66993,5.29841-.29239a5.78078,5.78078,0,0,0,.60976-1.80338,6.98147,6.98147,0,0,1,.64648-2.40344c1.65769-3.17795,2.14347-7.247,2.98436-10.76777-2.10585-.14025-4.26218.40812-6.37623,0.15318a41.46,41.46,0,0,0-5.06814-.33459C115.993,65.99941,117.251,65.96168,116.008,65.96168ZM57.496,99.00688c-0.5471.27158-.18413,1.013-0.25894,1.47718-0.1365.84706-.58735,1.67893-0.80464,2.51861a24.79957,24.79957,0,0,1-1.58911,4.56068c-0.6643,1.44259-1.19427,3.01394-1.77091,4.4896a9.77742,9.77742,0,0,0-.29232,2.49031,3.57586,3.57586,0,0,1-.887,1.763c0.43625-.0605.94578-0.40858,1.33632-0.432a8.48769,8.48769,0,0,1,1.98337.4468,21.346,21.346,0,0,0,4.77644-.25278,8.42528,8.42528,0,0,0,3.5473-.76425c1.16858-.74223.82008-1.66053,1.30986-2.87867a63.98217,63.98217,0,0,0,2.204-6.046c0.76243-2.63509,2.336-4.566,2.61129-7.42712-2.22836,0-4.45353-.20969-6.68242-0.149-0.93225.0254-5.14857,0.98862-5.4833,0.20366C57.042,99.23223,57.86356,99.86882,57.496,99.00688ZM103.52859,64.7548c0.20764-.5278,4.92335-0.18257,5.6965-0.2395,1.94445-.14318,4.99151.7186,6.17944-1.1554,0.638-1.00639.38823-2.33045,0.92037-3.34475a7.7095,7.7095,0,0,0,.83227-0.97521,5.61323,5.61323,0,0,0,.14853-1.46672c0.11594-1.12508.10985-2.32649,0.23081-3.3924,0.05209-.459.71617-1.79815,0.26121-2.27716-0.3839-.4042-1.85164-0.18653-2.41257-0.18545-1.38478.00267-2.79562,0.15826-4.19163,0.16292-1.37648.0046-2.75274,0.01116-4.12753-.06636-1.29711-.07314-1.52226.00213-2.10413,1.194a39.84615,39.84615,0,0,0-2.78413,7.20088,22.16928,22.16928,0,0,0-.63094,3.43829c-0.11958,1.4076.3064,0.99783,1.9818,1.10682C103.51719,64.78379,102.96724,64.71829,103.52859,64.7548ZM86.3785,51.30517a11.53246,11.53246,0,0,0-2.5011-.078c-1.37571-.053-2.72936.00171-4.10733-0.13323-1.97688-.19358-4.17278-0.29053-5.4767,1.23062-1.24637,1.454-1.77257,3.61455-2.3619,5.49814-0.30726.982-.756,1.9032-1.00652,2.89477-0.156.61722-.93511,2.90571-0.51331,3.4625-0.00246-.00325,1.50439.22731,1.55,0.22838,1.33462,0.03129,2.67526-.033,4.0251.04662,2.03216,0.1198,5.47867,1.16673,6.9144-.39137,1.52284-1.65264,1.72377-4.567,2.35036-6.63513a16.33233,16.33233,0,0,0,.82979-3.02083c0.04068-.69207-0.07385-1.08807-0.00361-1.6356,0.05851-.45611.26061-0.94931,0.30086-1.46689C86.399,51.31447,86.343,51.762,86.3785,51.30517Zm3.65429-.01281a14.34,14.34,0,0,1-1.81995,3.366,13.08568,13.08568,0,0,0-1.54107,2.77047c-0.17678.76465-.07673,1.41888-0.28451,2.21986-0.32608,1.257-.84184,2.3486-1.28191,3.56019-0.591,1.62724.07672,1.43122,1.63063,1.47266,1.43094,0.03816,2.8594-.0473,4.28877-0.02167a34.89635,34.89635,0,0,0,3.67866-.10894c1.25113-.10721,3.01507.29719,4.18593-0.0127,1.45088-.384,1.72408-4.27615,2.25806-5.69166,0.47-1.246.73528-2.52508,1.29819-3.72872a6.50054,6.50054,0,0,0,.86524-2.74837c0.00832-.88541.57839-0.63062-0.637-0.888-1.32744-.28108-3.00185.17409-4.36479,0.16723-2.766-.01393-5.51173-0.35636-8.27629-0.35636C89.85361,51.86277,90.67522,51.29236,90.03279,51.29236Zm-20.563,28.617c0.049,0.17177,4.77048.58889,5.41623,0.65488,2.40213,0.24547,2.1919-.92709,3.1251-2.776,1.53857-3.04829,2.3687-6.39018,3.60254-9.64279,0.93193-2.45674.398-1.61289-1.43647-2.07859-0.4102-.10413-0.61792-0.50062-0.97237-0.53407,0.0016,0.00015-1.31719.43336-1.16473,0.39944-1.64086.365-3.44215-.32921-4.99543,0.04758-0.71779.17412-3.69505,1.94434-3.66689-.14264-0.968.86573-1.4311,3.10783-1.84694,4.305-0.25153.72414-.53456,1.37008-0.732,2.11a12.92194,12.92194,0,0,1-.71555,1.87854,18.08042,18.08042,0,0,0-.51012,2.47015c-0.14372.54153-.90359,1.49422-0.81571,2.01061,0.2743,1.61174,3.45992,1.159,4.71234,1.29787C69.47954,79.94366,68.93456,79.85,69.46976,79.90937Zm62.93055-28.37164a52.8503,52.8503,0,0,0-7.46517.10483c-0.82229.03914-2.84642-.38626-3.4698,0.02554a7.70774,7.70774,0,0,0-1.30815,1.78451c-1.12061,1.74776-1.63,4.48751-2.27529,6.48848a16.85834,16.85834,0,0,0-1.04272,3.76214c0.05719,0.98.12934,0.73366,1.33382,0.8711,2.1356,0.24367,4.27741.17273,6.43331,0.3445,0.7938,0.06325,2.43366.49178,3.14285,0.12284,0.73393-.3818.783-1.37413,0.9809-2.12609a12.90238,12.90238,0,0,1,.94932-3.4386c0.22038-.34511.64316-0.47306,0.81987-0.80306,0.06449-.12044.10446-0.852,0.16077-1.03426,0.24692-.79925.75688-1.52863,0.99185-2.36339a32.37818,32.37818,0,0,1,.74845-3.73852C131.45769,51.452,132.31686,51.73987,132.40031,51.53774Z"/><path class="cls-3" d="M129.03818,91.57268c1.78262-.41572,3.39812-1.75362,4.91409-2.76908,1.17689-.78833,1.57291-2.22495,3.14418-2.45456,1.55545-.2273,1.62951,1.46284.5417,2.2889a12.96364,12.96364,0,0,1-2.48953,1.049,13.22825,13.22825,0,0,0-2.21024,1.51278,27.88253,27.88253,0,0,1-3.428,2.09685c-1.27493.64614-2.9095,2.33648-2.99651-.19293-0.03777-1.09794.37321-3.56225,1.48707-4.07193,2.42853-1.11123.81431,2.11434,1.03724,2.54095C129.3665,91.49611,128.99986,91.49935,129.03818,91.57268Z"/><path class="cls-3" d="M104.11011,89.00779l-0.39267-.25734c-0.18726.549-.09686,0.2654-0.50731,0.45112a2.63692,2.63692,0,0,0-1.08226.741,18.34253,18.34253,0,0,0-1.3693,1.75995c-0.7541,1.00393-1.90811,2.50122-3.20075,2.08284-1.64739-.5332-0.881-3.08915-0.56969-4.393,0.16266-.68123.671-2.4143,1.873-1.74468,0.67073,0.37363.4281,1.84758-.15971,2.16256,1.04472,1.08671,2.45133-.75344,3.03693-1.50233,0.61573-.78742,1.72757-1.61377,1.85529-2.46511a6.55659,6.55659,0,0,1,1.415,1.55531c0.11245,0.55-.47535,1.06144-0.89861,1.60969C103.9723,88.91748,104.47239,88.53853,104.11011,89.00779Z"/><path class="cls-3" d="M84.62129,75.46618c-0.15393-.86792-0.75316-2.27688-0.08014-3.01862a1.36314,1.36314,0,0,1,1.88347-.07284c0.33151,0.21853.28817,0.77291,0.7657,0.88813a1.82021,1.82021,0,0,0,1.2304-.65312c0.80632-.58417,1.69909-2.12834,2.74156-2.22073,1.09425-.097,1.43189.51006,1.03632,1.40687-0.39522.896-1.32054,1.14541-2.117,1.553-2.14133,1.0959-2.87848,2.87748-5.46034,2.11729C84.4907,74.72988,85.69268,75.78164,84.62129,75.46618Z"/><path class="cls-3" d="M106.13773,112.70452c0.08167-.93524-0.49471-0.66713-0.5747-1.58512a18.96653,18.96653,0,0,1-.65167-2.14291,10.82407,10.82407,0,0,0-.06921-1.157,1.63714,1.63714,0,0,1,1.36663-1.19728c1.34565-.28189,1.29459,1.76664,1.29122,2.83088,1.05525-.7526,4.46163-4.63445,5.11215-5.29512,1.06721-1.08386,3.3756-.37922,2.0616,1.08468-0.835.93028-4.75218,4.2637-5.50095,5.22255a9.75127,9.75127,0,0,1-.94063,1.28361,4.10426,4.10426,0,0,1-2.09445.95566C106.16252,112.42067,106.40772,112.62,106.13773,112.70452Z"/><path class="cls-3" d="M60.32521,110.71591c-0.66553.68188-1.43874,1.81939-2.447,1.76282-1.739-.09758-1.11642-1.80678-0.98306-2.87109,0.14456-1.15376-.85238-3.53214.83252-4.00494,2.01235-.56469,1.24354,1.63984,1.16291,2.65256-0.025.31371-.45859,1.02843-0.01054,1.25584,0.41413,0.21019,4.26342-4.18527,4.50315-4.47807,0.77358-.94481,1.056-2.6135,2.73431-1.96729,3.37823,1.30072-6.12675,6.51283-5.79231,7.65018C59.88574,111.16617,60.20155,110.29539,60.32521,110.71591Z"/><path class="cls-3" d="M92.77363,61.229L92.525,62.31179c-1.94822-.96833-2.16782-1.15074-2.06474-3.253,0.06594-1.34491-.39771-2.85624.653-3.72207,1.25993-1.03825,1.95876-.183,1.84919,1.16135-0.11037,1.35415-.588,2.595,1.087,1.15237a12.50359,12.50359,0,0,0,1.85549-1.60114c0.42825-.55781.46153-1.40513,0.95047-1.90944,1.172-1.20884,3.12871-.38261,2.69512,1.34176a2.28941,2.28941,0,0,1-1.61666,1.3959,5.41152,5.41152,0,0,0-2.39709,1.4961c-0.7.78465-1.8213,2.8679-2.76306,2.85542C92.69071,61.59009,93.24889,61.23533,92.77363,61.229Z"/><path class="cls-3" d="M76.95322,71.77347A10.22262,10.22262,0,0,1,74.772,73.20662a3.9462,3.9462,0,0,0-1.41257,1.14894,14.74261,14.74261,0,0,1-2.89192,2.54808,1.05947,1.05947,0,0,1-1.24588.15328,1.82006,1.82006,0,0,1-.98819-0.53187,3.69491,3.69491,0,0,1-.4714-1.84095,14.84172,14.84172,0,0,0,.04426-1.96151c-0.11052-.71008-0.56066-1.08425.03879-1.80365a2.25356,2.25356,0,0,1,1.69322-.6433c1.12844,0.21568,1.24358,1.16067,1.01144,2.07634-0.19982.7882-1.09546,2.3309,0.03544,2.36784,1.40328,0.04584,2.72582-2.69844,3.46912-3.61733a2.37493,2.37493,0,0,1,1.54378-1.03919c1.29716,0.05375.61178,1.32582,1.35514,1.71019C76.37,72.23171,76.8853,71.73835,76.95322,71.77347Z"/><path class="cls-3" d="M128.37242,55.85591l-0.14688,1.72814q-0.64832.18225-1.29668,0.36439c-0.08992.0473-.81844,0.67418-0.93607,0.78681-0.38754.37105-.65387,0.89987-1.01569,1.239-0.42487.39819-.9065,0.37548-1.32142,0.72914-0.95981.81809-1.97211,3.59236-3.72854,2.05049a3.40893,3.40893,0,0,1-.77212-2.48437c0.02239-.92762.20279-3.39331,1.76369-2.92641,1.44824,0.4332-.35068,2.28829.571,2.87565,0.79167,0.50448,2.90546-2.66286,3.33292-3.16,0.40719-.47358,1.04729-1.63078,1.71529-1.7471a6.74607,6.74607,0,0,1,1.83447.54432C128.32278,56.44,128.0261,55.77223,128.37242,55.85591Z"/></g><path class="cls-3" d="M16.32163,113.466c-0.49792.27469,0.00582,0.753,0,0h0Z"/><path class="cls-3" d="M43.46218,115.64461a12.6909,12.6909,0,0,1,.52751-1.59559c-3.751.90892-7.521,1.71394-11.27442,2.63162-2.08071.50871-4.18359,0.49131-6.2893,1.17209-1.28782.41639-2.6293,0.63135-3.94388,0.96871a15.16122,15.16122,0,0,1-3.00035.93551c0.14163-1.993-1.74065-6.34553-1.10373-6.54573s5.1327-.85648,5.59675-1.0527c0.50975-.21545,1.06048-0.231,1.57727-0.417,0.63325-.22783,1.65182-0.44512,2.27147-0.66112,0.76171-.26556,1.864-0.73476,2.54022-0.891a29.0514,29.0514,0,0,0,4.31432-.90819c1.32806-.50644,2.72174-0.73629,4.09042-1.16738a81.59582,81.59582,0,0,1,7.82834-2.32979c0.27965-.05728.55612-0.11762,0.83143-0.17913q0.14758-.24305.31451-0.472a2.99223,2.99223,0,0,1-.28266-1.144c-0.00129-.02873-0.001-0.05728-0.00129-0.08583-2.4895.72152-4.96638,1.46412-7.40509,2.30939-1.25565.43519-2.934,0.1118-4.06732,0.58706-0.45676.19156,0.00049,0.3966-.344,0.61205a5.53541,5.53541,0,0,1-1.61648.59913c-1.62175.38331-3.24784,0.23977-4.87853,0.68207-1.47564.40021-2.88,0.83382-4.31665,1.35477-0.14488-.37485.52414-0.22636,0.28315-0.65506-2.91477,1.54266-6.10386,1.67357-9.33222,2.01822-1.315.14035-2.46475,0.42147-3.06945,1.65048-0.35739.7263-.48053,1.54578-0.8857,2.25971-0.422.74358-1.30993,1.11347-.96724,1.91616l-0.44163-.04515c-0.48053,1.19329-2.88383,2.67689-3.14394,2.8306a5.20592,5.20592,0,0,0-1.04265.41541,1.70026,1.70026,0,0,0-.42588,1.25228,1.02262,1.02262,0,0,0,.62314.8506,1.20465,1.20465,0,0,0,.878.01764c0.60458-.05912,2.18626.06469,3.09763,0.10874,1.1411,0.0552,1.42682-.10886,2.14111-0.01158a6.66113,6.66113,0,0,0,2.98387.24039,9.19505,9.19505,0,0,0,2.80456-.7165,32.69953,32.69953,0,0,1,3.49852-1.17491,14.7801,14.7801,0,0,1,3.21868-1.09858c3.0662-.65028,6.26675-1.02777,9.29026-1.77281,3.05463-.75271,6.0475-1.59553,9.05073-2.38125C43.4139,115.71543,43.4381,115.68,43.46218,115.64461ZM14.554,120.87245c-1.60508-.23732-3.64818.202-4.60494-0.86922,0.46221-.39366,2.97983-2.5632,3.33342-3.04317,0.28186-.38257.75785-0.87112,0.96448-1.12829a8.33608,8.33608,0,0,1,.69769-0.86132,0.64631,0.64631,0,0,0,.32676-0.58093,4.60178,4.60178,0,0,1,1.05019-.9235,6.65749,6.65749,0,0,0,1.01711,2.76517,4.09911,4.09911,0,0,1,.202,1.77012,4.87885,4.87885,0,0,0,.40591,1.5709c0.36315,0.39047,1.18239-.01709,1.3454.49161A12.16633,12.16633,0,0,1,14.554,120.87245Z"/></svg>