<svg id="Sub-2_Choice" xmlns="http://www.w3.org/2000/svg" viewBox="0 0 244 136"><defs><style>.cls-1{fill:none;}.cls-2{fill:#ffaa96;}.cls-3{fill:#ff564d;}</style></defs><title>Illustrated-Icons_All-Icons</title><rect class="cls-1" width="244" height="136"/><g id="_3vMCy3.tif" data-name="3vMCy3.tif"><path class="cls-2" d="M152.96448,57.18062c0.26062,0.32874.42141,0.51171,0.56008,0.71014a3.04555,3.04555,0,0,1,.45778,2.01874,2.97405,2.97405,0,0,0,.28221.67193q0.23314,0.92243.40011,1.86078a0.44348,0.44348,0,0,1-.1622.37662c-0.58563.31172-.92556,0.96891-1.63571,1.11768a2.13014,2.13014,0,0,0-.63865.4455l-0.1207-.396a5.533,5.533,0,0,0-.98062.51421c-0.87226.70788-1.80391,0.415-2.75267,0.26788-0.62558-.097-1.27-0.06628-1.90406-0.11663-0.59331-.04711-1.18343-0.13316-1.77621-0.18851-0.72019-.06724-1.44071-0.14819-2.16285-0.174-1.80917-.06458-3.49643.63086-5.256,0.86578a10.04281,10.04281,0,0,1-1.92721-.11178c-0.16072-.01039-0.32253-0.00242-0.4836-0.00877-0.76245-.03-1.52459-0.07186-2.2873-0.08981a10.85881,10.85881,0,0,0-1.36444.03053,13.69694,13.69694,0,0,1-3.06137.32244c-1.60417-.21236-3.18.36629-4.78789-0.049a6.693,6.693,0,0,0-2.25789.11453c-0.68757.07249-1.37083,0.19322-2.05237,0.31327-0.465.08191-.92386,0.19921-1.44372,0.31349-0.11692-.31813-0.34323-0.3859-0.80658-0.23358a3.79324,3.79324,0,0,1-1.5405.05738c-0.83839-.09027-1.66516-0.28638-2.50308-0.38427a7.64852,7.64852,0,0,0-1.081.08384c-0.69669.0213-1.39412,0.02806-2.09118,0.02524-0.88606-.00358-1.772-0.0265-2.6581-0.03421q-2.19834-.01914-4.39678-0.0274a9.6345,9.6345,0,0,0-1.60942.05017c-0.73028.123-1.51172-.12217-2.19945,0.30532a0.25277,0.25277,0,0,1-.23766-0.00746,1.767,1.767,0,0,0-1.467-.27756,4.53259,4.53259,0,0,0-1.5267-.03616c-0.70778.23229-1.55581-.17015-2.168,0.52373a1.7311,1.7311,0,0,1-.78781-0.03428,1.96081,1.96081,0,0,1-1.46485-.469,2.7333,2.7333,0,0,1-.42023-1.13493,2.455,2.455,0,0,1-.00877-0.6136,6.53165,6.53165,0,0,0,1.83384-3.02956c0.28508-.94777.68048-1.86192,1.01071-2.79671a2.304,2.304,0,0,1,.82977-1.30893,0.92743,0.92743,0,0,0,.07743-0.4092,11.233,11.233,0,0,1,.63778-2.424c0.31834-.63152.51777-1.29039,0.80206-1.9138,0.39406-.86413.78858-1.71647,1.11837-2.61155a4.71359,4.71359,0,0,1,1.04081-1.19309,0.46146,0.46146,0,0,0,.14949-0.30329c-0.41272-.74983.28034-0.44056,0.39177-0.65847,0.15829-.24961.31457-0.50053,0.47584-0.7482a1.26994,1.26994,0,0,0,.21261-0.30138,3.463,3.463,0,0,1,1.92155-2.12039,10.86761,10.86761,0,0,0,1.036-1.04244,1.88769,1.88769,0,0,1,.93381-0.32332,0.58486,0.58486,0,0,0,.67609-0.38759,0.58894,0.58894,0,0,1,.51387-0.26392,14.78677,14.78677,0,0,1,1.457.51938c0.29034,0.10786.589,0.198,0.8685,0.32895,0.23849,0.11175.60188,0.1447,0.43785,0.59669a0.641,0.641,0,0,0,.209.4143c0.24181,0.28767.66563,0.49854,0.3466,0.98345a0.1317,0.1317,0,0,0,.02513.1124c0.99423,0.18319.44186,1.13607,0.78137,1.67744a8.71018,8.71018,0,0,1,.41084,1.608c0.20912,0.62987.07349,1.23257,0.2294,1.82286,0.13894,0.526.28986,1.04914,0.41276,1.57882a1.49959,1.49959,0,0,1-.08243.35156c-0.02058.27514-.01036,0.55267-0.03326,0.82751-0.01829.21947-.067,0.43639-0.11784,0.75091a3.42932,3.42932,0,0,0,.68407.78409,1.80408,1.80408,0,0,0,1.071.29953c0.73105-.06463,1.45053-0.25809,2.17545-0.395,0.44146-.08338.88391-0.16168,1.32656-0.23858a1.00884,1.00884,0,0,0,.36421-0.04953c0.78889-.5463,1.56632-1.10912,2.348-1.66581,0.29282-.20853.60544-0.39335,0.87733-0.626a5.52047,5.52047,0,0,0,.83774-0.84448,11.14705,11.14705,0,0,0,1.24224-1.84548,8.71337,8.71337,0,0,0,.47315-1.7182,8.46063,8.46063,0,0,0,.84211-1.04568,1.05254,1.05254,0,0,1,1.32291-.62466,4.37438,4.37438,0,0,0,1.30159.05352,1.00291,1.00291,0,0,1,1.20169.54565,1.11083,1.11083,0,0,0,1.20475.647c0.50865,0.015.86523,0.12312,0.89012,0.68718a2.7248,2.7248,0,0,1,2.05883,1.16849,1.52159,1.52159,0,0,0,1.57432.4805,1.43057,1.43057,0,0,0,1.03509-1.19768c0.29121-1.03805.466-2.11548,0.83741-3.12179a5.52518,5.52518,0,0,1,1.11405-1.62429,11.86428,11.86428,0,0,1,1.44306-1.29618,1.07154,1.07154,0,0,1,.57043-0.18562c0.98149-.07447,1.91534-0.5859,2.93472-0.32a0.37891,0.37891,0,0,0,.3012-0.0222c0.57185-.64533,1.23635-0.29362,1.88687-0.214a4.93367,4.93367,0,0,0,.90351-0.05975,0.92548,0.92548,0,0,1,.3629.00134,22.86913,22.86913,0,0,0,3.02116,1.11281c0.94287,0.20514,1.17226.97952,1.76094,1.57172l0.52912-.16749a3.91821,3.91821,0,0,0,2.04654,1.98507,0.66583,0.66583,0,0,1,.53971.77149,4.48134,4.48134,0,0,0,.11078,1.29209,1.55246,1.55246,0,0,0,.41649.4635,1.2157,1.2157,0,0,0-.43764.00985,0.52735,0.52735,0,0,0-.29028.29517,4.99527,4.99527,0,0,0,.6322,2.30645,0.619,0.619,0,0,1,.08285.53487,0.74607,0.74607,0,0,0,.36449,1.04275,1.16431,1.16431,0,0,1,.24016.54557,4.39594,4.39594,0,0,1,.1522.64206c0.0497,0.31319.05116,0.6361,0.12317,0.94313a4.80158,4.80158,0,0,0,.32953.97057C152.3614,56.05158,152.70252,56.67513,152.96448,57.18062Zm-17.03362,3.24394,0.00161,0.05608c0.22894,0,.45944.01619,0.68624-0.00577a2.2911,2.2911,0,0,0,.436-0.12893,0.87861,0.87861,0,0,0-.2181-0.40019,4.35413,4.35413,0,0,0-1.44964-.41177c-0.88158.00765-1.76056,0.18552-2.64291,0.26789-1.07085.1-2.14475,0.16739-3.21536,0.26958a1.03381,1.03381,0,0,0-.36735.235,0.98162,0.98162,0,0,0,.379.3006c0.58751,0.03064,1.17826.02476,1.76685,0.004C132.84869,60.55675,134.38968,60.48773,135.93086,60.42456ZM95.62923,63.7398a3.52864,3.52864,0,0,0,.5117.08859c0.93183,0.01528,1.86478-.0024,2.79537.0374,0.44774,0.01915.89387,0.214,1.33585,0.19761,0.69419-.02567,1.38272-0.1781,2.07656-0.24786,0.60534-.06086,1.21626-0.06718,1.82093-0.13262a0.88813,0.88813,0,0,0,.32732-0.28576,0.8776,0.8776,0,0,0-.35176-0.2744c-1.08709.01674-2.17346,0.07491-3.26053,0.1001-0.79962.01853-1.60321-.03915-2.39914,0.01851-0.92845.06727-1.85051,0.2229-2.775,0.3426A0.682,0.682,0,0,0,95.62923,63.7398Zm45.67209-14.27928,0.061,0.24688c0.295-.01532.59122-0.01809,0.8847-0.048,1.6993-.17337,3.22947-1.02445,4.92027-1.23643a0.19891,0.19891,0,0,0,.05377-0.09263,3.7498,3.7498,0,0,0-.41524-0.58187,0.61528,0.61528,0,0,0-.46238-0.19857c-0.75.23148-1.48821,0.50248-2.22584,0.77256q-1.09737.4018-2.18526,0.82925C141.715,49.23667,141.51126,49.3566,141.30132,49.46052ZM140.728,62.47666a6.44106,6.44106,0,0,0-2.96993-.24976,12.07993,12.07993,0,0,1-2.1641-.19083,1.27129,1.27129,0,0,0-.45181-0.1108,0.57844,0.57844,0,0,0-.24013.455,0.5208,0.5208,0,0,0,.34428.35705c0.58784,0.08716,1.18363.12329,1.77727,0.168,0.42064,0.03171.84252,0.06719,1.26376,0.0661A4.72629,4.72629,0,0,0,140.728,62.47666ZM118.53474,61.182c-1.97027.25789-3.98056-.122-5.91284,0.49979a0.71433,0.71433,0,0,0,.39665.13434c1.27684,0.04214,2.56212.00423,3.82775,0.14459A1.85575,1.85575,0,0,0,118.53474,61.182Zm-1.18508-2.51145,0.04947,0.21176c1.05974,0,2.12026.02114,3.17856-.01788a2.16275,2.16275,0,0,0,.728-0.44541,2.92553,2.92553,0,0,0-1.08267-.53548,15.02479,15.02479,0,0,0-2.29563.42154A2.09992,2.09992,0,0,0,117.34966,58.6706Zm15.09673-2.49935c1.15674,0.19837,5.80194-.9714,6.0962-1.51044C137.28029,54.642,132.832,55.71823,132.44639,56.17125Zm4.4523-11.06576-0.26926-.39763a2.50168,2.50168,0,0,0-.58236.231,6.016,6.016,0,0,1-1.06061.83111,1.15244,1.15244,0,0,0-.64056,1.15994,0.77664,0.77664,0,0,0,.1782.34166,1.33823,1.33823,0,0,0,.28413-0.19188c0.3581-.40746.67719-0.85341,1.06467-1.22947A8.431,8.431,0,0,1,136.89869,45.10549Zm-30.42687,5.79163a3.32683,3.32683,0,0,0-.49619-2.48784,0.82593,0.82593,0,0,0-.46516-0.419,1.11334,1.11334,0,0,0-.52544.2116,3.93857,3.93857,0,0,0,.42888.53549c0.39433,0.35119.81734,0.62726,0.48447,1.29721C105.66788,50.49853,105.95258,50.811,106.47182,50.89711Zm26.165,6.52139,0.00028,0.24782c1.07659-.05112,2.15421-0.08957,3.22788-0.17666a0.96968,0.96968,0,0,0,.20869-0.53108,0.52667,0.52667,0,0,0-.33678-0.148C134.70118,57.00026,133.66961,57.2126,132.63685,57.4185Zm-26.46275-3.35,0.562,0.0967,0.21155-1.15533-0.58-.79425c-0.73364.503-.23766,1.45776-0.8208,2.06443l0.62718,0.23487V54.0685Zm25.71371,8.3251-0.01725.29756c0.43775,0.04224.87476,0.09768,1.3135,0.1223a5.85833,5.85833,0,0,0,.95581-0.01825,2.3833,2.3833,0,0,0,.52972-0.18626A1.02807,1.02807,0,0,0,134.3,62.21913C133.49491,62.24645,132.69166,62.32894,131.88782,62.3936Zm19.47724-1.124a0.50757,0.50757,0,0,0-.16706-0.28436,0.48005,0.48005,0,0,0-.43379.097,6.78812,6.78812,0,0,0-.77184.94933,1.06213,1.06213,0,0,0-.02925.48324,2.5685,2.5685,0,0,0,.5201-0.17453,1.84462,1.84462,0,0,1,.34-0.32442C151.33024,62.074,151.36085,61.761,151.36506,61.2696ZM141.18673,50.07023a1.14662,1.14662,0,0,0-1.71029.56209ZM102.68266,60.66805l0.08726,0.25624c0.40436-.06714.81293-0.117,1.21018-0.21344a0.775,0.775,0,0,0,.2465-0.302,0.72114,0.72114,0,0,0-.32195-0.19687C103.48976,60.3394,103.0886,60.5115,102.68266,60.66805Zm-7.16153.1917,0.46359-.49266a1.52564,1.52564,0,0,0-.54423-0.38569,0.699,0.699,0,0,0-.37115.4473A1.612,1.612,0,0,0,95.52113,60.85975Zm39.41722-13.34247-0.2411-.08467-0.304.80444a0.86132,0.86132,0,0,0,.41308.07983C135.23538,48.1281,135.14844,47.824,134.93835,47.51728Zm7.24739,12.88042,0.10313-.33018a2.31639,2.31639,0,0,0-.6207-0.17558,0.90052,0.90052,0,0,0-.2397.36706Zm-1.03307-7.851,0.09654,0.2571a5.77606,5.77606,0,0,0,.72529-0.28018,1.1901,1.1901,0,0,0,.00722-0.45792Z"/><path class="cls-2" d="M195.04543,71.58822c0.58066-.046,1.161-0.09683,1.74211-0.13605,0.30615-.02066.61418-0.0372,0.92044-0.02715,0.58531,0.01921,1.17007.057,1.75473,0.09269a0.2158,0.2158,0,0,1,.16168.07211c0.23179,0.65738.84483,0.43434,1.29374,0.61225a4.069,4.069,0,0,1,1.59877,1.06246,1.52658,1.52658,0,0,1,.74819,1.32848c0.37813,0.03813.75621,0.07692,1.13443,0.11409,0.157,0.01545.31479,0.02434,0.47135,0.04331a0.95375,0.95375,0,0,0,.10607.05329c0.7823-.45633,1.60735.19126,2.39412-0.09488,0.07486-.02723.14839-0.05808,0.15367,0.06984,0.24657,0.17866.509,0.33924,0.73663,0.5395a4.04535,4.04535,0,0,1,1.07835,2.01669,5.08358,5.08358,0,0,0,1.47921,2.11727,5.71178,5.71178,0,0,1,1.136,2.37235,10.86618,10.86618,0,0,0,.519,1.06366c0.24823,0.54166.50313,1.08216,0.71113,1.63959a4.257,4.257,0,0,1,.19063.96243,0.52373,0.52373,0,0,1-.08912.39764,16.302,16.302,0,0,1-1.3599,1.11979,1.44347,1.44347,0,0,1-1.422-.08724l0.37234-.31517c-0.27091-.33359-0.54569-0.672-0.82023-1.01053a1.45294,1.45294,0,0,1-1.92583.32448,2.56579,2.56579,0,0,0-.57559.1,19.85945,19.85945,0,0,1-3.06322-.29975c-0.66265-.16361-1.44983-0.64719-2.22366-0.11711a0.78175,0.78175,0,0,1-.61017-0.0197,5.145,5.145,0,0,0-2.66866.07821c-0.889.10539-1.81949,0.02689-2.74042,0.21826a5.99883,5.99883,0,0,1-1.64616-.09121c-0.4042-.03346-0.80622-0.09917-1.2108-0.12-0.37182-.01918-0.7462-0.00815-1.11863.008-0.89119.03877-1.78176,0.0915-2.67284,0.133q-2.10356.09785-4.2075,0.18756a47.06654,47.06654,0,0,1-5.58044.15855c-0.92035-.07183-1.81824.06839-2.72955-0.00148a1.36685,1.36685,0,0,0-1.67039.63421c-0.05172.12325-.57839-0.006-0.724,0.14112-0.42.42463-.6483,0.07111-0.91538-0.14475a1.52428,1.52428,0,0,1-.12764-0.2858c-0.12721-.17774-0.27362-0.34175-0.41214-0.51139l-0.16738.09726a3.40728,3.40728,0,0,1-.06166-1.17806,1.54788,1.54788,0,0,1,1.38807-1.01416,0.89165,0.89165,0,0,0,.49941-0.1714c0.34338-.36927.621-0.80049,0.97059-1.16287a7.84174,7.84174,0,0,1,.67768-0.40057c0.704-.58365,1.42357-1.15583,2.06832-1.8012a11.79054,11.79054,0,0,0,1.14718-1.50665c0.61012-.85015,1.17315-1.7366,1.82063-2.55676a9.54381,9.54381,0,0,0,1.47347-2.71171c0.11935-.32932.49437-0.56672,0.61087-0.89621,0.31433-.88907.53226-1.81175,0.82859-2.70782a5.46578,5.46578,0,0,1,.655-1.478,3.095,3.095,0,0,1,1.04129-.58188c0.76078,0.59092,1.33425.13112,1.88216-.508a4.15841,4.15841,0,0,1,.9653-0.95437,6.15116,6.15116,0,0,1,1.75422-.67672,1.70211,1.70211,0,0,1,.70538.57433c0.18911,0.16711.369,0.34459,0.557,0.513,0.17049,0.1528.35583,0.29013,0.51722,0.45165a2.11336,2.11336,0,0,0,.5005.54057,0.85954,0.85954,0,0,1,.50665,1.21609,1.43181,1.43181,0,0,0,.34255,1.6683c0.35623,0.36761.65777,0.78822,0.98369,1.18522Zm7.02906,8.17781-0.10359-.29759a10.092,10.092,0,0,0-1.15609.35,0.93638,0.93638,0,0,0-.19329.45289,1.1028,1.1028,0,0,0,.54653.11006A6.72428,6.72428,0,0,0,202.07449,79.766Zm-4.28424-5.5779-0.0433.2199a0.93248,0.93248,0,0,0,1.62945.037Zm-10.82756-2.15726-0.15542-.1344c-0.55441.23938-1.26429,0.34487-1.01957,1.42823Zm19.97712,6.05379c-0.32721.57782-.21933,0.87342,0.5866,1.418Zm-17.47919,6.00128c-0.64908-.40886-0.82591-0.37645-1.22574.21922Z"/><path class="cls-2" d="M77.45849,100.07351c0.92672,0.12944,1.47293.49456,1.41658,1.375l0.66122,0.14935c-0.20263.38353-.39877,0.69225-0.53482,1.02551-0.26753.65529-.4073,0.73561-1.012,0.383a5.4143,5.4143,0,0,0-2.66665-.80463,5.50868,5.50868,0,0,0-3.14406.89522c-0.42246.26937-.86309,0.51053-1.2821,0.78492a2.01749,2.01749,0,0,1-1.772.22472c0.5522-.764,1.78518-0.77842,1.926-1.86935-0.49026.19276-1.177,0.04652-1.286,0.85443a0.85473,0.85473,0,0,1-.48711.3264c-0.96567.40725-1.91929,0.0145-2.88238-.03447a17.785,17.785,0,0,0-2.23793.18509c-1.2809.09905-2.56283,0.18474-3.84433,0.276l-0.1018-.22343a2.70964,2.70964,0,0,1,.35407-0.48733,3.08125,3.08125,0,0,1,.58239-0.36531c0.84653-.46424.91839-0.614,0.47675-1.45472a1.171,1.171,0,0,1,.45253-1.36673c0.395-.54447,1.04769-0.91664,1.3843-1.4845a7.38759,7.38759,0,0,1,1.03743-1.29916,2.22631,2.22631,0,0,0,.21152-0.91691c0.81881-.06644.41113-0.79183,0.49-1.311,0.08777-.5779.20119-1.153,0.33528-1.72181a0.57385,0.57385,0,0,1,.30834-0.26028,10.68038,10.68038,0,0,1,1.25086-.57078c0.48447-.16572.993-0.26159,1.49205-0.38386a1.92365,1.92365,0,0,0,.35965-0.06667,5.53488,5.53488,0,0,1,2.86294-.363,0.91083,0.91083,0,0,0,.37178-0.03936,7.46844,7.46844,0,0,1,3.22485-.25547,3.638,3.638,0,0,0,.69769-0.12643A2.65623,2.65623,0,0,1,76.947,91.089c0.45772,0.094.89107,0.30371,1.34766,0.40773a1.5103,1.5103,0,0,0,.58625-0.12756c1.13761,1.00592,1.13761,1.00592.47354,1.42371a4.61791,4.61791,0,0,1,.80692.9564,9.35876,9.35876,0,0,1,.4137,1.61918,0.59288,0.59288,0,0,1,.14691.95042,2.89358,2.89358,0,0,0-.11137,1.16329,0.61858,0.61858,0,0,1-.05231.35014c-0.52246.38264-1.06386,0.73939-1.59854,1.10541q-0.1692.11583-.33257,0.24014C78.28727,99.43674,77.94882,99.69748,77.45849,100.07351Zm-0.21761-2.2603-0.06063-.20165a0.86872,0.86872,0,0,0-.39426-0.06466c-0.59292.23651-1.17322,0.50455-1.75911,0.75889-0.43165.18738-.87044,0.35938-1.295,0.56136a1.868,1.868,0,0,0-.36932.312,1.25016,1.25016,0,0,0,.47933.08787,11.211,11.211,0,0,0,1.78172-.51946A14.99218,14.99218,0,0,0,77.24088,97.81322Z"/><path class="cls-2" d="M53.786,104.109a8.39445,8.39445,0,0,1-3.1415.13622c-0.9974-.18867-2.0378-0.13775-3.04989-0.26619a3.75483,3.75483,0,0,1-1.51591-.467A6.76369,6.76369,0,0,0,42.11862,102.36c-1.38515.04521-2.77293,0.00973-4.23646,0.00973a1.4745,1.4745,0,0,1,1.31733-.53574,1.74135,1.74135,0,0,0,1.796-.12752,11.68459,11.68459,0,0,1,1.19766-.44944,1.49787,1.49787,0,0,0,.33586-0.27048l-0.03817-.17891c-0.5401-.09377-1.07686-0.226-1.621-0.27327-1.12733-.09783-2.26075-0.1286-3.38641-0.24a2.00783,2.00783,0,0,1-.6428-0.42772c-0.1675-.1052-0.35922-0.1722-0.52516-0.27942-0.229-.148-0.4439-0.3178-0.78214-0.56347-0.3904.1984-.38921-0.2281-0.40966-0.61079-0.017-.3179.12077-0.69627-0.3693-0.79684a0.17738,0.17738,0,0,1-.1017-0.13794,4.62179,4.62179,0,0,1,.22493-1.99874,8.98224,8.98224,0,0,1,.7813-1.26c0.47237-.513.61914-1.25622,1.32446-1.61424,0.935-.47461,1.78277-1.09176,2.935-0.90227a5.50077,5.50077,0,0,0,1.08559-.24,9.0277,9.0277,0,0,1,1.28643.06425c0.92087,0.06379,1.84077.14765,2.7626,0.18812a3.26205,3.26205,0,0,0,.744-0.10562c0.29265,0.20853.48816,0.34293,0.67769,0.48529a0.44623,0.44623,0,0,1,.20162.19991c-0.03917,1.11641,1.00882,1.78874,1.15784,2.83254a1.07663,1.07663,0,0,0,.45218.313,1.48434,1.48434,0,0,0,.91,1.69091c1.44428,0.927.94962,0.81525,1.39644,2.28718,0.748-.13314.83219,0.46507,1.0057,0.96874,0.2766,0.80291.54253,1.60959,0.83035,2.40842a0.35747,0.35747,0,0,0,.26877.19835,0.7698,0.7698,0,0,1,.96165.87564A0.74905,0.74905,0,0,0,53.786,104.109ZM39.15635,98.17491c0.02711-.54.06986-1.0114,0.0596-1.48161a0.437,0.437,0,0,0-.29026-0.28906,4.17523,4.17523,0,0,0-1.12791.43671,0.69915,0.69915,0,0,0,.01271.64828A10.74688,10.74688,0,0,0,39.15635,98.17491Zm5.22878,2.36528,0.12368,0.30705a10.40379,10.40379,0,0,0,1.02285-.27889,0.43363,0.43363,0,0,0,.13036-0.35786,0.33455,0.33455,0,0,0-.283-0.14508C45.03906,100.202,44.71489,100.37808,44.38513,100.54019Zm-0.9659.69377,0.47588-.42587a0.937,0.937,0,0,0-.41506-0.25646,1.27779,1.27779,0,0,0-.45768.30709Z"/><path class="cls-2" d="M152.75924,76.72413c-0.05454.40029-.08452,0.66614-0.12813,0.92973a9.10261,9.10261,0,0,1-.219,1.18377c-0.33329,1.08751-.70086,2.16451-1.09817,3.37764,0.7579-.1195.95284,0.15952,0.89594,0.69858a0.91242,0.91242,0,0,0,.15559.3939,0.70023,0.70023,0,0,1,.13946.26889c-0.43031.84942,0.32859,1.99362-.66539,2.6948a3.40267,3.40267,0,0,1-.5111.291c-0.3033.143-.61394,0.27033-0.84376,0.3704a2.64854,2.64854,0,0,0-.84261-0.13722,5.87864,5.87864,0,0,0-3.471,1.452c-0.14617.15492-.42309,0.18648-0.61217,0.37724h0.37271l0.0536,0.126a4.48787,4.48787,0,0,1-.60069.31181,3.2173,3.2173,0,0,0-.95421.40725c-0.50066-.02381-1.003-0.08476-1.50153-0.06176a0.84105,0.84105,0,0,1-1.02074-.73694,0.50753,0.50753,0,0,0-.09839-0.22,1.10129,1.10129,0,0,1-.41894-1.25161,1.05638,1.05638,0,0,0-.22018-0.43352l1.05725-.33721c0.21967-.59223.74741-0.77526,1.9291-0.742a6.98636,6.98636,0,0,0,1.9528-.47638,0.31673,0.31673,0,0,0,.184-0.23581c-0.01848-.6154-0.04562-1.23146-0.10171-1.84442-0.02962-.32378-0.13766-0.63972-0.18154-0.96309a2.09809,2.09809,0,0,0-.03034-0.6752,1.16248,1.16248,0,0,1,.24574-1.43429c0.51708-.73909.90872-1.56553,1.36162-2.35027a0.89875,0.89875,0,0,1,.33756-0.43548,4.75937,4.75937,0,0,0,1.82714-1.51706,0.6953,0.6953,0,0,1,.30978-0.203,3.1655,3.1655,0,0,0,1.64385-.90209,3.012,3.012,0,0,1,1.18564-.454,1.01086,1.01086,0,0,1,.83988.92849A2.31049,2.31049,0,0,1,152.75924,76.72413Z"/></g><g id="KnC8nP.tif"><path class="cls-3" d="M232.04053,53.50389c0.02009,0.00619.04141,0.01017,0.06245,0.01464C232.62109,53.611,233.14554,52.92792,232.04053,53.50389Z"/><path class="cls-3" d="M243.20922,47.55557a4.55938,4.55938,0,0,0-1.18367-2.00965,3.16581,3.16581,0,0,0-.83152-1.21743c-2.34878-1.76375-3.369,2.33224-4.88184,3.5781a50.82593,50.82593,0,0,0-6.03966,5.26012c-2.49045,2.80407-5.27286,5.307-7.96011,7.91539a173.07808,173.07808,0,0,1-15.01489,12.87705c-0.79687-1.28028-1.3038-1.11047-2.41721-1.76932,0.06993-.25895.83078-1.72687,0.87216-1.852A3.958,3.958,0,0,1,206.78,68.79472c0.52081-.62277.66636-1.35943,1.20916-1.976a9.29873,9.29873,0,0,0,1.74561-2.09284c1.77888-3.54575,4.62308-6.54518,6.90717-9.83566,2.26709-3.2661,5.07064-6.07047,7.21252-9.45,0.59083-.9322,5.37548-7.64953,6.1697-8.37306s2.39748-1.06962,2.43962-2.41545a1.62886,1.62886,0,0,0-.71433-1.35238,12.12291,12.12291,0,0,0-.87069-0.89618c-0.95949-.787-2.11048-1.84-3.27158-1.04461-0.99214.67968-1.0195,2.05339-1.5736,3.1731-1.403,2.83531-3.541,5.28867-5.24658,7.93787a90.00645,90.00645,0,0,1-5.6437,8.20938,30.77457,30.77457,0,0,0-2.15989,3.08807c-0.25938-.00031-3.98358,5.70236-4.51673,6.50671-0.78248,1.18061-1.42721,2.15894-2.31616,3.2778-0.81164,1.02152-1.08443,1.9909-1.942,2.95587-0.96356,1.08431-2.21013,3.09072-2.93181,4.10108s-3.10855,3.71816-3.55695,4.52932,0.4989-.18871-0.60718-2.31641c-0.42113-.81011-0.24694-1.81-0.5345-2.6832a15.84688,15.84688,0,0,0-1.12621-3.04611c-2.54206-3.5275-7.16109-1.25829-10.2575-.20859a7.189,7.189,0,0,0-1.09089-3.19749c-0.83185-1.28592-.7728-0.96424-2.01026-1.31808,0.53973-.99389-3.24521-2.47565-4.18439-2.63965-1.79857-.31408-4.68645.7603-6.38278,1.39073a32.60422,32.60422,0,0,0-5.01027,2.01246,4.67764,4.67764,0,0,1-2.58819,1.00467c-2.08218-.006.27628-0.79773-1.15173-1.36727q-0.24783.28422-.49566,0.56831a0.94962,0.94962,0,0,0-.4604-0.99628,0.41284,0.41284,0,0,0-.38395.40095q-0.73439-.77868-0.694.51079c-0.69236-.595-0.73454-0.03418-1.29431-0.2535-0.12558-.04919-0.87164-0.533-0.84723-0.52733a4.07249,4.07249,0,0,0-2.36248.595c-0.08485-.35335.07109-0.79749-0.02922-1.113-0.14344-.45137-0.5-0.273-0.68875-0.61646a13.56556,13.56556,0,0,1-1.00982-4.3085c-0.71212.67435-1.10394-1.817-1.15938-2.02882a14.85746,14.85746,0,0,0-1.16168-2.79856A33.71146,33.71146,0,0,1,150.0652,46.649a31.27147,31.27147,0,0,0-1.95754-4.64219,31.065,31.065,0,0,1-1.72261-6.40006,10.00185,10.00185,0,0,0-1.04743-2.19018c-0.28829-.69561-0.27083-1.60907-0.60495-2.38419a9.83588,9.83588,0,0,1-.57891-2.29965,11.70476,11.70476,0,0,0-.47265-1.18986l0.09508-.43446-0.43241-.25827c-0.71252-1.55473-2.03139-2.71978-2.91422-4.13618a11.58831,11.58831,0,0,0-2.69316-2.08143c-0.84011-.58187-2.08368-0.39135-3.57-0.74059a4.83124,4.83124,0,0,0-1.85928-.30838,9.135,9.135,0,0,0-3.4103,1.13479c-0.64223.3406-1.29952,0.67314-1.90726,1.07208a4.23514,4.23514,0,0,1-2.34444,1.12943,9.35554,9.35554,0,0,1-3.05451-.51555c-1.0063-.37972-1.93352-0.93943-2.93781-1.32379a10.51362,10.51362,0,0,0-4.5423-.57211,5.61522,5.61522,0,0,0-2.85446,1.60374c-0.96666.84441-1.93194,1.63241-2.93116,2.46212a1.88742,1.88742,0,0,1-1.03545.64232,10.51049,10.51049,0,0,0-1.10884,1.53292c-0.70324,1.05864-1.62441,1.42749-2.04248,2.56173a20.3137,20.3137,0,0,1-.72777,2.15134c-0.19257.37736-.51054,0.68226-0.71858,1.115a59.09689,59.09689,0,0,0-3.43217,8.597c-0.80743,2.72161-2.32414,5.09178-3.334,7.75887-0.97922,2.58611-2.40107,5.02886-3.52636,7.55-0.64267,1.43986-1.16684,2.86674-1.8874,4.25649-0.46673.90016-1.45787,2.23368-1.3635,3.275-2.18177-.59214-4.59015-0.267-6.7922-0.43262a2.867,2.867,0,0,0-2.5581.80031c-1.00294,1.28359.08258,1.58413,0.75081,2.51382,1.094,1.522,1.0025,3.42041,1.86642,5.11775,1.12848,2.217,3.32544,3.38157,5.31893,4.73543,0.4601,0.31249.9817,0.61107,1.42815,0.92154q0.25991,0.01378.51981,0.02769a1.74791,1.74791,0,0,0,.309.56335,25.04436,25.04436,0,0,0,2.82854.76649,25.107,25.107,0,0,1,3.0222,1.47834,8.32868,8.32868,0,0,0,3.32071.75307,14.31608,14.31608,0,0,1,3.23054,1.3193,16.39324,16.39324,0,0,0,3.49181.74462c1.33921,0.22452,2.45844.79779,3.7544,1.1259,0.92681,0.23469,2.06509.073,1.73551,1.30773,0.87253-.54405.77442-0.19309,1.56376-0.15125,0.147,0.00778.67736-.0892,0.92319-0.09832,1.21265-.045,2.59331.60121,3.783,0.77825a10.14206,10.14206,0,0,1,1.303.09771c0.72217,0.28419.3637,0.39311,0.94638,0.80061,0.60645,0.42417,1.8255,1.45836,2.59107,1.15016-0.0499.84784,0.61224,1.35006,0.84484,2.15882,0.35565,1.23636-.18893,1.35784-0.55906,2.39093-0.11979.3343,0.27246,0.613,0.06049,0.98966a4.743,4.743,0,0,1-1.10691,1.143c-1.10321.72054-.30477,0.0155-1.0194,0.36162,0.09743-.04717-1.10456.72042-0.99245,0.62026-1.56006,1.3941-2.61766,2.7985-2.31883,5.15451a6.86328,6.86328,0,0,0,2.83917,4.8408c0.72048,0.64207,2.072,1.61807,1.89537,2.76768-0.13566.88288-1.11062,1.02942-1.62916,1.462a10.73822,10.73822,0,0,1-1.37024,1.086c-0.69037.42472-1.54563,0.729-2.43957,1.20475a14.52289,14.52289,0,0,0-2.67809,1.6003c-0.59168.49045-1.3382,0.74664-1.82152,1.10287a6.6337,6.6337,0,0,0-1.22193,1.2581c-0.29583.60078,0.16886,2.62648-.92414,2.70342,0.86616,1.78543,1.8176,4.10438,4.13272,4.26317a10.51691,10.51691,0,0,0,2.91459-.25129c1.05726-.31806,1.55439-1.10869,2.6878-1.286,2.1767-.34067,4.58537.01868,6.79025-0.0805,2.39262-.10763,4.73365-0.165,7.15148-0.17208,1.93494-.00576,3.9966.53009,5.95815,0.2,0.19034-.032.073-0.30887,0.1341-0.32278a8.732,8.732,0,0,0,1.678-.26789c0.7807-.425.416-0.41927,0.46071-1.2227,0.09339-1.67682.50475-4.26176-.34232-5.83211-0.17732-.32866-0.56485-0.37767-0.68581-0.667a6.27543,6.27543,0,0,1,.01957-0.8177c-0.37706-.66106-1.43423-1.0644-1.15163-2.00058a2.4898,2.4898,0,0,1-1.911-.50117,4.12677,4.12677,0,0,0-.74021-0.59086,22.29677,22.29677,0,0,0-2.60948-.143c-2.692-.44156-2.93125-1.18055-2.13085-3.70417,0.8106,0.85311,3.27167-1.113,3.90422-1.58144,1.38194-1.02342,1.90471-1.29651,1.86553-2.92616-0.03415-1.42014.095-2.87526-.94316-4.02946-0.529-.5881-1.29942-1.23421-1.882-1.8421a3.29263,3.29263,0,0,1-1.09246-1.86085,4.97441,4.97441,0,0,1,1.28567-4.707,6.187,6.187,0,0,1,2.4106-.55122,10.64464,10.64464,0,0,1,2.33653-.45033c0.95894,0.31114,1.14235,1.78482,1.71768,2.42885,0.63331,0.709,1.3103,1.02777,1.97586,1.82574,0.80227,0.96191,1.84967,1.78709,2.58712,2.78729,0.49964,0.67772.37372,1.47025,1.20346,1.304l-0.42944.7603c1.64371-.03706,1.36537,2.1095,2.31233,2.52889-0.68278,1.0062,2.91079,3.97531,3.54373,4.795,0.446,0.57756.87857,1.13607,1.26953,1.75554l0.36122,0.62571q0.15042,0.93738.89428,0.46111a18.77554,18.77554,0,0,1,.68318,2.04524,27.5168,27.5168,0,0,0,2.31644,4.03639c1.04516,1.51436,3.18615,3.73112,3.20686,5.42148,0.01449,1.18514-.58115,2.67763-0.28933,3.8379,0.343,1.3639,1.92229,1.5089,3.14529,1.35471,0.5771-.07278,1.60835-0.19646,1.91261-0.25588a9.18207,9.18207,0,0,0,1.14358-.39329,19.19136,19.19136,0,0,1,3.286.07682c1.08752,0.05746,2.81648-.11431,3.42084-0.06193a10.77124,10.77124,0,0,0,2.22231.30961,15.87067,15.87067,0,0,1,2.06493-.03155,28.716,28.716,0,0,1,3.13907.30667,10.50833,10.50833,0,0,1,1.83781.35237,5.92486,5.92486,0,0,0,2.20617.55759,2.146,2.146,0,0,0,1.28494-.89428,2.53933,2.53933,0,0,0-.256-1.98079c-0.6077-.77274-0.03859-1.2241.29135-2.27227a13.29072,13.29072,0,0,1,1.04124-2.62893,3.25736,3.25736,0,0,1,1.17718-1.00412c1.14869-1.083,1.79321-2.80579,2.71874-3.98958,0.60789-.77752,1.69091-1.39913,2.37344-2.169,0.56546-.6379.97058-1.49849,1.58447-2.07789,0.7966-.75185,1.57972-1.33223,2.31714-2.06742,0.988-.98494,2.18574-2.55419,3.17142-3.69222,0.3547-.40953.71665-0.64985,1.05745-1.07831,0.5624-.70707.62868-1.59124,1.57537-1.28561,0.0578-.95615,2.40906-2.08414,3.22328-2.997,0.26216-.29393.45342-0.7853,0.70278-1.03769a2.669,2.669,0,0,1,.66226-0.39831c0.53088-.42986,1.09846-0.80251,1.5962-1.26319a18.43877,18.43877,0,0,1,3.0787-2.83121,9.63589,9.63589,0,0,0,1.94177-1.113,4.66421,4.66421,0,0,0,.39072-2.0899c0.06785-1.31134-.43911-1.7458.28091-2.85406a4.36922,4.36922,0,0,0,.84555-1.01576,2.94433,2.94433,0,0,0-.28161-1.65225,8.71921,8.71921,0,0,0-2.31111-2.53943c-0.94693-.87719-0.64385-2.03274-1.79952-2.89951-0.80879-.60666-2.39666-0.46613-2.77277-1.30558,1.32569-.94792,2.29909-1.8448,3.21967-2.60518s2.24356-2.08657,3.714-3.18552c2.8502-2.13015,5.26873-4.757,8.00765-7.15258,1.371-1.19917,2.75822-2.49973,4.19076-3.58453a44.16093,44.16093,0,0,0,3.30916-2.92733c1.06771-.99566,2.24066-1.868,3.31088-2.84291a15.73117,15.73117,0,0,1,4.03568-3.1641C240.90466,49.553,243.30543,49.44214,243.20922,47.55557ZM206.73136,85.0229c0.81191-.08521,1.36206-0.68036,1.82342.2769,0.55134,1.14416-2.88163.91793-3.79575,0.97478-2.07158.12877-4.06138-.44475-6.08386-0.4499-1.48759-.0038-3.15528.41976-4.65107,0.35586-0.86656-.037-1.63256-0.28921-2.55208-0.27132-1.11426.02169-2.24139,0.06726-3.35713,0.07161-1.96235.00766-3.9293-.22385-5.8995-0.267-1.01429-.02224-2.016-0.28437-3.01873-0.30434-0.82536-.01642-1.6279.185-2.496,0.15425-0.60375-.02144-4.8475.37651-4.964-0.35212-0.0941-.58871,1.14073-0.82248,1.42-1.06942a16.18255,16.18255,0,0,1,1.56275-1.679,6.12544,6.12544,0,0,0,1.36822-.9186c0.68388-.71313.49633-0.979,1.60487-1.2442a10.054,10.054,0,0,0-.53119,2.705c-0.02453.42533-.68054,0.33742-0.08129,0.7532a1.403,1.403,0,0,0,.88117.05752c0.274,0.00974.565-.27739,0.8533-0.25607a2.16518,2.16518,0,0,1,.831.39862c-0.192-.11964,1.52229-0.14525.85768,0.17992,0.123-.06016.9991-0.13728,0.34266-0.7282-0.23692-.21331-1.13522.17159-1.465-0.03669a1.57283,1.57283,0,0,1-.6077-1.161c-0.34759-1.53739.63254-2.55744,1.96343-3.08287,0.26042,1.69256.15778,2.18693,1.78709,2.85259-0.11894-1.222-.64155-2.68951.88653-2.52184a5.024,5.024,0,0,1,2.655,1.9868c0.23625,0.85562-.05143.46325-0.613,0.993-0.04172.03939-1.12946,0.77635-1.16021,0.784-1.224.30348-1.47435-.51152-2.49844,0.6194a2.96168,2.96168,0,0,0,1.8346.61652c0.54954-.14519.4797-0.61861,0.88157-0.74609,0.65849-.2089,1.67305.33712,2.461,0.17931,0.54693-.10947,1.45221-0.90384,1.94024-0.84772,0.71258,0.082.72146,0.83051,1.26837,1.14471,0.726,0.41718,1.86486.12228,2.64636,0.09526q0.895-.02444,1.79018-0.042a0.794,0.794,0,0,1,1.213.38208,8.17062,8.17062,0,0,0,1.989.157c1.7178,0.00968,3.20824.69757,4.90108,0.50344,0.76447-.08766,1.48057-0.115,2.24121-0.132a0.527,0.527,0,0,1,.94552-0.06175A0.46456,0.46456,0,0,0,206.73136,85.0229ZM183.673,77.45829c1.45769-1.28408,5.23853-4.06928,6.17085-1.03359,0.29806,0.97049.1277,3.43959-1.19755,3.81879-0.844.24155-1.87028-1.01241-2.3788-1.34478S184.53684,77.93122,183.673,77.45829Zm19.908-4.87473a0.39021,0.39021,0,0,1,.17717.14666,0.29216,0.29216,0,0,1-.15088.11045c-0.36912.13894-.84077-0.44634-0.95088,0.40224C202.14988,72.59446,203.07773,72.30237,203.581,72.58356Zm-0.8026,2.38462c0.5654,0.33632,1.66791.0245,2.12864,0.27016a3.94594,3.94594,0,0,1,1.26316,1.28,2.98854,2.98854,0,0,1-1.62907,1.36016c-0.56329.12693-1.26595-.32689-1.60214,0.0109a1.22941,1.22941,0,0,0,.78052,2.02368c0.76536,0.17447.64967-1.061,1.30377,0.084-0.7264.22777-1.93044,0.452-1.71593,1.56465,0.15744,0.81678,1.282.9205,2.07391,1.04933-1.46069,1.48991-3.93531.41473-5.6857-.008a19.19055,19.19055,0,0,0,1.55439-3.05573,5.22193,5.22193,0,0,0,.10668-1.08161c-0.05749.39635,0.58357-.65426,0.65855-0.75356-1.02057.21423-.75978-0.49921-0.90671-1.4213C202.33035,76.58055,203.25535,76.44351,202.77838,74.96818Zm-7.219,2.55425a4.58543,4.58543,0,0,1,1.96189-.77372c0.68027-.01121,2.30838.38643,2.59882,1.065,0.72934,1.7039-2.3512,3.46752-3.56986,3.88256-1.852.63074-4.06876,0.95609-5.42825-.72594a1.31763,1.31763,0,0,0,.50889-0.74774c0.71889-.00355,1.30828-0.72538,1.8927-1.23605A8.46321,8.46321,0,0,1,195.55936,77.52243Zm-12.57657-5.72007c0.50935-.41381,1.34659-0.283,1.83377-0.66847,1.21326-.96026,1.37058-2.37807,2.83369-3.09052a7.75,7.75,0,0,1,4.54941-.63055c-0.5092.89863,1.08765,0.88938,1.6098,1.70629a16.87412,16.87412,0,0,1,.96693,3.38819c0.49835,1.56765,1.16355,2.25542-.05734,3.28331-0.23126.19469-2.9273,2.04965-2.87219,2.06833,0-1.44311.13591-2.58378-.85143-3.8172a4.032,4.032,0,0,0-1.47533-1.13907,4.64631,4.64631,0,0,0-2.21858.02413,9.60081,9.60081,0,0,0-4.23781,2.68051c-0.92944,1.17712-1.37817,1.11439-2.85651,1.50652-0.15144-1.04032,1.15739-2.40778,1.6638-3.308A6.89909,6.89909,0,0,1,182.98279,71.80236ZM159.85571,68.7062c1.25627-.75889,1.85382-1.26439,3.29419-2.2292a26.82855,26.82855,0,0,1,3.87382-1.94729,45.31416,45.31416,0,0,1,8.84735-2.711c0.9684-.14157,1.22925.44169,1.97816,0.68936-0.088-.029,1.54107.43317,0.77715,0.12558a6.14716,6.14716,0,0,1,1.5826.81017c0.65827,0.52917.79724,1.59063,1.6117,1.25523,0.11036,0.89226.74934,1.10943,0.89967,1.92088a4.96648,4.96648,0,0,1-.82248,2.663,39.18254,39.18254,0,0,1-1.96241,3.50991,36.92069,36.92069,0,0,1-2.33739,3.46164c-1.1815,1.41187-1.762,3.38415-3.42087,4.39666-0.67971.41486-1.31645,0.70076-1.9887,1.12682-0.669.424-1.51243,1.20518-2.16981,1.52875a3.71446,3.71446,0,0,1-1.67241.16105,3.75709,3.75709,0,0,0-1.3507.484c-0.25074.27249-.1111,1.00982-0.44392,1.25559-0.54127.3996-2.15018,0.14727-2.81155,0.08546-0.86389-.08068-1.879.00943-2.72682-0.11-0.33751-.04754-0.70493-0.10476-0.88938-0.15315s-1.12-.17185-1.4503-0.20659-1.48466-.16183-2.42117-0.16183a12.36111,12.36111,0,0,1-2.3343-2.7928,9.08622,9.08622,0,0,1-1.171-3.08562,3.71,3.71,0,0,1,.13853-2.1386,8.158,8.158,0,0,1,1.226-2.10656,22.67931,22.67931,0,0,1,1.27232-1.93852A20.45215,20.45215,0,0,1,159.85571,68.7062Zm-14.89546,9.49058a12.29448,12.29448,0,0,1,1.20456-1.91573,6.06457,6.06457,0,0,1,3.88654-2.30511c2.01357-.13159,1.53963.67827,0.86389,1.8402a8.40663,8.40663,0,0,0-.55049,1.35c0.12062,0.50607.2357,0.23193,0.66173,0.62351a0.82653,0.82653,0,1,1-.05789.1907c-0.41853,1.0867-1.86042-.43685-2.65861-0.39476-1.07224.05654-2.464,1.62095-3.28659,2.31252C145.167,79.27429,144.72213,78.85276,144.96025,78.19678Zm6.15734,2.81271c-0.07149.40211,0.02144,0.92687-.43489,0.86291C150.743,81.42006,150.60864,80.93188,151.11759,81.00949Zm-5.49892.212c0.74284,0.52561,1.50158-.567,2.16464-0.87933h0.00021l0.00423-.00012h-0.00006c2.03976-.08969,1.50459.89924,0.06331,0.0378a0.61762,0.61762,0,0,1-.0842.01917c-0.2727.91664-.94154,2.22069,0.2444,2.81687,1.24052,0.62369,1.39269-1.06875,2.436-.08662a1.54275,1.54275,0,0,1,.54173-0.76453c0.34447,0.44775,1.9498,1.26086,2.02239,1.57133,0.1877,0.80251-2.57977.27187-2.91909,0.24737-1.20153-.08662-2.44377.255-3.39232-0.67178C146.36954,83.18883,145.40114,81.6561,145.61868,81.22145ZM101.77518,39.9289c0.32079-.64464.58167-1.31918,0.85875-2.02282a17.04528,17.04528,0,0,1,1.46523-3.31511c0.72517-1.08253,1.05463-2.40729,1.78568-3.54011,0.41418-.64182.825-1.22527,1.213-1.88425,0.58939-1.001.77115-.64238,1.411-1.22116a17.53893,17.53893,0,0,1,1.2703-1.57531c0.25818-.18985.677-0.07327,0.94537-0.29191,0.25665-.209.37788-0.61634,0.58-0.78223a7.17156,7.17156,0,0,1,1.86553-1.28677c0.91272-.34416,1.33783.04723,2.22219-0.045,0.82558-.08607,1.37876-0.52941,2.405-0.35464a6.56647,6.56647,0,0,1,2.27025,1.07567c1.4852,0.86414,2.83017.713,4.48647,0.38478,0.81874-.16222,1.4871-0.03749,2.30762-0.18593,1.14324-.20688.37219-0.26152,1.26322-0.681a14.527,14.527,0,0,0,1.33627-.5704,4.73783,4.73783,0,0,1,2.05412-.56917c1.01315-.22476,1.62208-0.779,2.76425-0.7445a8.26022,8.26022,0,0,1,2.10494.46007,20.862,20.862,0,0,1,2.53722,2.633c0.892-.23506.87774,1.15225,1.2533,1.78335a13.0671,13.0671,0,0,0,1.01772,1.13105,21.47533,21.47533,0,0,1,1.60508,4.23346,41.28552,41.28552,0,0,1,1.56006,4.30771c0.19472,0.74732.11324,1.52557,0.31589,2.26731,0.2818,1.03107.91333,0.87137-.42515,1.50768a0.917,0.917,0,0,0-1.42911.79982c-2.15208-.43133-4.37724-1.93613-6.4796-1.34877a5.22846,5.22846,0,0,0-4.16506,4.73212c-0.08638.83553,0.70018,2.14779,0.42738,2.80965a3.5252,3.5252,0,0,1-1.01435.61585l-0.25331.2081q-0.76563-.289-0.83035.43054c-2.52849.33485-4.4196-3.143-5.616-4.82223-0.43571.617-.58963-0.19132-1.17675-0.24314a2.07956,2.07956,0,0,0-1.05236.378,8.70309,8.70309,0,0,0-2.16528,1.39833c-1.74641,1.4093-2.28253,3.68438-3.6404,5.35238-0.95428,1.17228-2.19291,2.49226-3.8311,1.98729a3.7042,3.7042,0,0,1-1.90624-1.514c-0.80505-1.00436-.64565-1.29553-0.60709-2.53208a18.94959,18.94959,0,0,0-.7075-4.59851,5.205,5.205,0,0,0-.88071-2.04,3.89393,3.89393,0,0,0-.6897-1.02427,1.23333,1.23333,0,0,0-.68581-0.04429,3.87791,3.87791,0,0,0-3.56309-.28982c-0.68406.34545-2.63861,2.23674-3.212,1.36831C100.49973,41.85676,101.58953,40.302,101.77518,39.9289Zm18.223,9.65029a0.10984,0.10984,0,0,1-.04111.02064,0.19772,0.19772,0,0,1-.00337-0.02879c-0.05023-.49517.78824-1.93858,1.37606-1.80853C121.83593,47.87449,120.32751,49.381,119.99818,49.57918Zm0.34471,0.1711c-0.19867.50785-.34431,0.88007-0.51759,1.323C119.33525,50.3654,119.43908,50.04568,120.34289,49.75028Zm-12.83316-5.48556a0.8612,0.8612,0,0,1-1.148-.99879,2.39988,2.39988,0,0,1,.025-0.43048A3.9919,3.9919,0,0,1,107.50973,44.26472Zm-14.47926,15.34c0.52617-1.27158,1.01842-2.61153,1.64019-3.83416,1.33064-2.61674,1.9359-5.29712,4.24816-7.2082-1.03826-.703-0.1533-1.59442.62427-1.91157a3.84575,3.84575,0,0,0,2.00395-1.21118c0.73543-.80613,1.01616-1.67382,2.12543-1.30307a1.60411,1.60411,0,0,1,1.78136.399c0.42689,0.26409.39308,0.65739,0.9764,0.74646,0.60838,0.09293,1.11469-.73329,1.49258-0.43078,0.7422,0.5941.164,3.2343-.02019,4.0019-0.05244.21839-.64538,0.60023-0.63423,0.71687A7.75148,7.75148,0,0,0,108.367,51.022q-0.39072.23671-.78141,0.4733c0.82824,0.10739.96356,1.20193,1.43352,1.74188,0.38867,0.44653,1.27036.66988,1.35309,1.30044,0.21156,1.61268-2.38756-.197-1.62126-1.1784-0.55-.35163-0.96761.07186-1.45463,0.2674,0.35727,0.4638,1.07631.8805,0.52047,1.41a4.25264,4.25264,0,0,1,1.55828.662,0.43456,0.43456,0,0,0,.66562.387,2.03239,2.03239,0,0,1,.39311-0.12185,4.89049,4.89049,0,0,0,3.61785-.17324c0.73754-.298,1.08189-1.06691,1.79257-1.35514-0.12748.07278,1.3987-.27592,1.10305-0.09367,0.7044-.43415.39351-1.01943,0.82622-1.57617a1.03279,1.03279,0,0,1,.60587-0.75222q0.54128,0.39715.78548-.11039-1.32272.05817-.54041-0.78144a0.495,0.495,0,0,1,.80505.03994c0.60035-.19352.20614,0.53915,0.83777-0.02983,0.42588-.38361.03124-0.62982,0.28354-0.98917a12.786,12.786,0,0,1,1.3462-1.15451c0.9794-.82983,1.96278-1.15537,2.979-0.18464,0.72621,0.69377,1.239,1.77655,2.24473,2.21793a0.521,0.521,0,0,0,.73439-0.11842l0.35111,0.52273q0.40524,0.37206.634-.13165,0.04369-.47314.38324-0.29724c0.35412,0.14666.36683,0.83161,0.71185,1.01392,0.80349,0.42478.95664-.10273,1.52793-0.42643,2.18883-1.24009,4.13511-3.55145,2.39118-6.11495a11.37826,11.37826,0,0,1,3.44994-1.51583c0.93829-.2886.7388-0.33479,1.2597,0.21417,0.30982,0.32646.2281,1.01551,0.84218,1.30754,0.65693,0.31231,1.61694-.261,2.274-0.40052,0.95107-.202,1.504-0.70891,2.38438-0.96,0.24281-.06922.71518,0.17606,0.90221,0.07511,0.2198-.11866.34094-0.39525,0.49869-0.47458,0.73629-.37014.43476-0.68753,1.01073-0.25074a8.23252,8.23252,0,0,1,.87425,1.64349c-0.29524.24247-.82965-0.235-1.202-0.35586a2.17419,2.17419,0,0,0,.0661,1.14128c0.46687,0.69175.95774-.027,1.35493,0.26544,0.58611,0.43152.75075,2.58145,1.0651,3.32815a55.08884,55.08884,0,0,1,3.1441,8.26458,9.47936,9.47936,0,0,1,.55658,3.55512c-0.08025.49988-.23083,0.98127-0.31093,1.49463a2.46955,2.46955,0,0,1,.13848.80472c-0.33387.55147-3.35829,0.42913-4.03412,0.40953a34.43336,34.43336,0,0,0-3.637.34465c-1.229.08871-2.40723-.12852-3.57574-0.03259a9.36857,9.36857,0,0,1-2.143-.08791,7.68233,7.68233,0,0,0-1.04982-.227,4.24438,4.24438,0,0,0-.78349.22568c-3.10633.29313-6.12227-.10561-9.19445,0.05434a36.25805,36.25805,0,0,1-4.80315.26195c-1.58171-.13606-3.16633-0.3754-4.74247-0.50491a61.20144,61.20144,0,0,0-8.9483-.26759c-1.46581.09887-2.97692,0.16191-4.442,0.29515a36.50908,36.50908,0,0,1-4.3399-.13906c-1.78793-.04111-3.5709.195-5.3357,0.17361a6.56376,6.56376,0,0,1-2.4761-.18789c0.63132-.7581-0.16047-1.25639-0.25737-2.00634A5.36981,5.36981,0,0,1,93.03047,59.60469Zm48.26972,23.69864a4.00366,4.00366,0,0,0-1.64965.5043c-0.7044.38527-.807,1.125-1.33293,1.44434a13.8577,13.8577,0,0,1-2.44285.5027,12.71467,12.71467,0,0,0-1.58661.63325,6.73841,6.73841,0,0,0-2.57637,2.53728c-0.5027.85323-.70348,1.86685-1.18456,2.72364-0.26547.47275-1.17476,1.08541-1.17727,1.65195a1.1903,1.1903,0,0,0,.67252.73329,0.51248,0.51248,0,0,1-.05244.71558,2.75188,2.75188,0,0,0,1.56361,1.26307c-0.97986.934,1.5376,1.94018,2.04328,2.23943a2.81628,2.81628,0,0,1,1.75388,2.31013c0.14228,1.55767-.97735,2.01865-2.24023,2.36379a6.61487,6.61487,0,0,1-1.94661.40977,0.6354,0.6354,0,0,1-.43976-0.45976q-0.56991.1144-1.13981,0.22868c0.37914,0.30477-.95459,1.06973-1.11586,1.392-0.3029.60513,0.04175,2.85951,0.343,1.502,0.32324,0.80882-.12111,1.35392-0.23815,2.13388a2.46139,2.46139,0,0,0,.54286,2.29708,2.61465,2.61465,0,0,0,1.1728,1.17994,5.10582,5.10582,0,0,0,2.169.72679c1.80669,0.201,2.90843-.173,4.36685.91425,1.89347,1.41156,1.62521,3.45533,2.09195,5.45818a14.152,14.152,0,0,0-1.73067-.27151c-0.928.0049,0.0208,0.84558-1.10716,0.24051,0.23993,0.703-9.0915,1.21773-10.18221,1.273a41.85774,41.85774,0,0,1-4.615-.22538c-1.08667-.06512-4.93027.10359-5.16468-1.09209-0.63392.171-1.87037,0.76141-2.1533-.18237a3.41906,3.41906,0,0,1,.9465-2.078,18.28833,18.28833,0,0,1,3.03438-1.71854,23.13846,23.13846,0,0,1,3.00822-1.72221c2.69169-1.11739,5.214-2.47173,4.79663-5.83095-0.16243-1.30748-.69874-1.42118-1.53816-2.34517a16.59959,16.59959,0,0,0-.95986-1.41554c-0.19462-.14384-1.04225-0.22152-1.27265-0.341-1.78592-.92632-1.843-2.69552-0.79639-4.1186,1.11858-1.52091,2.87042-1.328,4.33923-2.59554a3.32816,3.32816,0,0,0,1.51577-3.37434,13.28637,13.28637,0,0,0-1.32623-4.73077,3.99814,3.99814,0,0,0-1.13607-1.70739c-0.618-.44726-1.52535-0.5288-2.13639-0.99781-0.996-.76447-1.48942-1.45653-2.96329-1.54223-1.38105-.08031-2.90782-0.60433-4.335-0.766a49.93916,49.93916,0,0,1-10.273-2.42377A30.85269,30.85269,0,0,0,99.7,79.33175c-0.79525-.13361-1.54508.04656-2.30161-0.13416a12.15979,12.15979,0,0,1-2.13208-1.098c-2.75528-1.33915-6.15506-2.59572-8.17655-4.91664a12.54868,12.54868,0,0,0-1.17514-1.121,2.11229,2.11229,0,0,1-.152-0.5152c-0.12828-.16277-0.58723-0.14433-0.66558-0.26569a4.31956,4.31956,0,0,0,.029-0.78756,1.89767,1.89767,0,0,1-.49112-0.40573,11.79458,11.79458,0,0,1-.86567-1.81949c-0.0925-.32921.06383-0.63558-0.05627-0.95536-0.08621-.22954-0.61775-0.62884-0.61579-0.72808,0.01048-.53321.3126-0.61236,0.8718-0.7788a7.39492,7.39492,0,0,1,1.97064.087c1.02256-.03057,2.03116-0.557,3.05914-0.5522a44.79937,44.79937,0,0,1,5.27948.75761,27.39475,27.39475,0,0,0,4.47656-.38226c1.66464-.10727,3.14616.07553,4.83952,0.11535,1.74852,0.04111,3.49729-.57523,5.25776-0.48279,3.84262,0.20179,7.71835.33013,11.59821,0.63282,3.72466,0.29062,7.485-.1417,11.21218.03982a38.69419,38.69419,0,0,0,6.4033.21545,16.74236,16.74236,0,0,1,4.07847-.19848,29.84752,29.84752,0,0,0,3.91824.4015c0.73108-.02634,1.419-0.39537,2.164-0.44849,0.84757-.06046,1.69949.18439,2.54243,0.05275,1.02415-.16,8.22081-0.99187,8.34155.38416,0.06325,0.72067-2.80441,2.3682-3.33982,2.871a9.32309,9.32309,0,0,1-4.59168,2.491c-1.374.37069-3.06789,0.2927-4.24975,0.85826-0.60112.28762-3.04724,1.85625-2.67656,2.62574-1.01815,0-1.37836,3.128-1.489,4.06205a2.18511,2.18511,0,0,0-.26832.87406q0.22068,0.34248.46929,0.665a1.25528,1.25528,0,0,1-.08754.89538,2.7759,2.7759,0,0,0,.45385,1.16C143.35057,84.40614,142.4305,83.17713,141.30019,83.30333Zm70.94454,5.52936c-0.11391.41743-1.16646,0.72643-1.51129,1.03224-0.5125.45449-1.05938,1.22778-1.63519,1.76228a9.84391,9.84391,0,0,0-1.11457,1.58952c-1.05742,1.34038-2.85914,2.39644-4.11379,3.579a33.4623,33.4623,0,0,0-3.14394,3.21035,34.53571,34.53571,0,0,1-3.84121,3.94743c-1.37337,1.19268-2.30967,2.5556-3.55108,3.80047-0.50433.50564-1.1025,0.89875-1.57252,1.43815-0.59254.68005-.84077,1.62916-1.4383,2.29439-0.87958.97919-1.997,1.64944-2.84312,2.57906a16.66138,16.66138,0,0,0-1.22631,2.07268,15.99,15.99,0,0,0-1.094,3.25256,2.45213,2.45213,0,0,1-1.41848,1.86183c-1.4939.8079-3.35594-.13937-4.86968-0.32333a42.23,42.23,0,0,0-5.10072-.01642c-2.02643-.00319-3.59056.50969-5.66879,0.03351-1.01239-.23193-2.28373-0.16816-2.709-1.29118a7.91246,7.91246,0,0,1-.02815-2.43228c0.44423-.74137,1.46314-0.35047,2.01442-0.44163,0.57845-.09569,1.018-0.73163,1.51626-0.80625,0.86763-.13006.57159,0.25515,1.33492,0.59992a3.46118,3.46118,0,0,0,1.5569-.00723c0.50151,0.031.77984,0.38159,1.3039,0.41522,0.055,0.00349.87409-.27524,1.09625-0.2908a35.63213,35.63213,0,0,1,4.15284.373c1.19669,0.05642,4.11756.16755,4.615-1.123a1.4595,1.4595,0,0,0-1.27146-1.77925,6.36107,6.36107,0,0,0-1.70776.3381c-0.51982.06065-1.14168-.196-1.52492-0.15027a13.83772,13.83772,0,0,0-1.43723.47207,9.10563,9.10563,0,0,1-2.37552-.05366,21.80521,21.80521,0,0,0-3.23433-.19211c-1.689.15168-2.44264,0.41461-4.11869-.153a8.74793,8.74793,0,0,0-2.22657-.79008c-0.55719.01813-1.10269,0.786-1.57991,0.73494-0.64333-.06886-1.83711-2.23913-2.34557-2.762-1.01484-1.04375-.93888-2.11943-1.50382-3.35891-0.4627-1.01515-1.763-1.66708-1.74712-3.03533-0.59781.12938-1.8145-.84864-1.37456-1.64423-1.23614-.07517-1.8164-1.34644-2.17741-2.34511a4.01207,4.01207,0,0,0-1.36813-1.89809c-0.48638-.48573-0.92154-1.36733-1.42017-1.95029-0.8178-.95621-1.05956-2.13419-1.80519-3.13041-0.67442-.901-1.76807-1.3699-2.49636-2.15894-0.36046-.39047-0.7211-1.19617-1.11528-1.62989a16.45381,16.45381,0,0,1-1.51622-2.16427,3.24405,3.24405,0,0,1-.75179-0.52175c-0.12163-.17128.15107-0.77776,0.01875-1.03365a0.59655,0.59655,0,0,1-.81568-0.02983c0.76563-1.40623,5.32276-.56525,6.68718-0.3955,2.0914,0.26011,4.25386.118,6.27946,0.194,2.47112,0.09256,4.94393.61432,7.40123,0.57848,0.93661-.01366,1.595.24927,2.50616,0.313a25.81478,25.81478,0,0,0,2.97977-.31518,55.86479,55.86479,0,0,1,6.0196.28529c1.92244,0.104,3.88029-.08852,5.82246.0498,3.81857,0.272,7.92008.5696,11.61763,0.5367a27.892,27.892,0,0,1,3.59.0204,17.04146,17.04146,0,0,0,2.83825.37755c1.63495-.0903,3.11423-0.31506,4.81292-0.29129,2.33283,0.03265,4.621.119,6.94558,0.048C211.34129,88.0836,212.48806,87.94086,212.24473,88.83269Zm-1.03591-6.43889,1.25878,0.14157C212.16913,82.96756,211.11138,83.19471,211.20882,82.39379Zm0.5443-4.31046c0.53989,0.44585,1.067,1.363.527,1.75413a2.02584,2.02584,0,0,0-1.15375.06371,1.9247,1.9247,0,0,0-.884.77494,0.94509,0.94509,0,0,1-1.15237-.25925,3.80623,3.80623,0,0,1-1.26074,1.65035C206.68262,80.01095,209.29513,76.05365,211.75311,78.08333Zm19.24617-23.42107q0.33292-.44144.66578-0.883C232.141,54.11606,231.33469,54.90363,230.99929,54.66226Zm1.1037-1.14373a0.51764,0.51764,0,0,1-.06245-0.01464c1.17387-.61193,1.676-2.00395,2.92377-2.52791C235.20138,52.03284,233.11384,53.734,232.103,53.51853Zm4.23784-3.74675c0.17208-.81.86429-0.775,1.3432-1.114C237.7394,49.4509,237.51176,49.63572,236.34082,49.77178Z"/><path class="cls-3" d="M106.38667,42.83546a3.24406,3.24406,0,0,0-.025.43048C106.38606,43.588,106.59046,43.02389,106.38667,42.83546Z"/><path class="cls-3" d="M209.02713,85.97164c1.45621,0.41069,1.68719-2.24111,0,0C209.91532,86.22213,209.3133,85.59153,209.02713,85.97164Z"/><path class="cls-3" d="M235.72868,50.04105c-1.01,1.542.4215,0.71915,0,0C235.51877,50.36153,235.85446,50.25566,235.72868,50.04105Z"/><path class="cls-3" d="M79.22579,101.28552l0.24585,0.78028H78.491a19.80449,19.80449,0,0,1,.67755,1.97453,9.86484,9.86484,0,0,1,.39512,2.96981c1.89129-.89283,3.87847-1.23712,5.81512-2.23172,1.86856-.95964,3.66443-1.92018,5.49148-2.9299,2.128-1.176,4.14936-2.592,6.3599-3.58114a12.184,12.184,0,0,0,2.45448-1.1593,11.35482,11.35482,0,0,1,2.63256-1.88843,12.21435,12.21435,0,0,0,2.80461-1.44071,18.00777,18.00777,0,0,1,1.91214-1.42579c0.35453-.19126.78452-0.13836,1.12938-0.36458,0.459-.30108.67389-0.96448,1.16013-1.24016a3.57578,3.57578,0,0,1,2.15608-.20262c0.94866,0.66413.10946,3.73376-.04976,4.66092-0.14947.87043-.47887,1.9854-0.721,2.84758-0.218.77631-.47831,2.26031-1.08747,2.3894,0.27251,0.15631-2.14433,4.353-2.6381,4.96947a9.54608,9.54608,0,0,0-1.36236,2.3299c-0.07265.16478-.41077,0.28193-0.52,0.465a3.88322,3.88322,0,0,1-.14379.7149c-0.53927.76929-1.42478,1.46069-1.99938,2.26192-0.78828,1.09918-.70985.90509-0.19684,1.84229,1.11738,2.04132-.04445,3.81189-1.05549,5.81686a14.99714,14.99714,0,0,1-1.42431,2.62682c-0.427.49513-1.0545,0.742-1.55383,1.23212-0.56535.555-1.20846,1.00245-1.82535,1.50785a4.24231,4.24231,0,0,1-.81681.75844c-0.52055.305-1.19264,0.36122-1.70932,0.67294a7.59392,7.59392,0,0,1-1.92645,1.22222c-0.92219.31687-1.78186,0.65539-2.65706,0.9535a33.35626,33.35626,0,0,1-5.826,1.604q-0.21114-.37415.32615-0.5324l-1.15629-.63261c0.22346,0.8434-.3781.6027-0.88989,0.7052q-0.43061.12163-.37894-0.33281-0.81445.06371-1.629,0.1262c-1.62016.08323-3.29762,0.4221-4.892,0.37205-1.78343-.056-3.59524.19159-5.46271,0.19321-2.04851.00178-4.08042-.43118-6.1223-0.45256-1.855-.01943-3.693-0.03462-5.57351-0.0543-2.043-.02138-4.0478.44547-6.08313,0.40478-3.70084-.074-7.3566-0.15556-11.01432-0.22742-1.61137-.03166-3.24091-0.00958-4.79342-0.08451-1.67571-.08087-3.33816-0.33875-5.08034-0.305a15.82809,15.82809,0,0,1-2.75486-.35115,3.21365,3.21365,0,0,0-1.3616-.0285c-1.57236.01469-3.03058-.31868-4.56233-0.404-0.70392-.03923-1.24331.33989-1.93485,0.2766-0.46936-.043-1.46937-0.51716-2.02306-0.62273a14.79234,14.79234,0,0,1-3.21789-.86333,15.9486,15.9486,0,0,1-3.93007-2.767c-0.81243-.73124-2.07155-3.14639-3.02253-3.14639,0.58713-.75689-0.49813-1.73122-0.86424-2.5769-0.25017-.57786-0.128-1.66421-0.40494-2.36326a6.854,6.854,0,0,1-.83625-1.7448,2.31422,2.31422,0,0,1,1.91708-1.94084c0.639-.00155,2.83093,1.6632,3.13038.65439-0.77624-.36054-1.98512-1.21354-2.69684-1.43921-1.08789-.345-1.73047-0.0131-2.63957-0.94525a20.45071,20.45071,0,0,0-2.602-2.42878c-0.78477-.59179-2.26074-2.04338-1.549-2.96913-1.03289-.22867-0.66829-1.00116-1.07615-1.7301,0.68207-.13944.56445-1.72739,0.79563-2.32571,0.42326-1.09545,1.032-1.307,1.74562-2.13161,1.75558-2.0288-1.74164-4.24212-2.04542-6.39355A7.09223,7.09223,0,0,1,3.51686,86.8101a8.09529,8.09529,0,0,1,2.17824-1.46056c0.47758-.22527,2.74242-0.84773,1.83983-1.30675,2.06672-.23111,3.05937,1.89073,5.22661,1.85972a14.13526,14.13526,0,0,0,3.03416-.13761c0.95226-.41841,1.25227-2.44524,1.79888-3.49217a19.311,19.311,0,0,1,2.819-4.00714c0.82941-.88018,1.52246-1.93259,2.36509-2.78439a2.43343,2.43343,0,0,0,.70956-0.22055,10.94586,10.94586,0,0,0,.42747-1.60729c0.20184-.40744.5-0.45412,0.7164-0.82714,0.48258-.83187.38625-1.19653,1.21041-1.81737,2.96445-2.23314,1.31884,2.15164,2.21665,3.53239a6.51958,6.51958,0,0,0,2.60953,2.06129,4.58868,4.58868,0,0,0,.9982-0.14708,9.12507,9.12507,0,0,1,1.43.80138,11.42037,11.42037,0,0,1,1.47953.73294c0.4212,0.359.751,1.35564,1.216,1.5951,1.26591,0.652,2.68345-1.37773,3.50655-2.22645a19.4745,19.4745,0,0,1,5.10062-3.51494c1.53488-.806,3.57051-0.92371,5.28776-1.32053a18.54428,18.54428,0,0,1,6.46933-.24418c2.06958,0.22262,4.21954-.36461,6.23842.04565a25.49165,25.49165,0,0,1,4.71522,1.176c0.9922,0.43809,1.813,1.27828,2.80083,1.783a7.33347,7.33347,0,0,1,2.19733,1.26251,11.37481,11.37481,0,0,0,1.37486,1.815,20.851,20.851,0,0,1,2.42218,2.18558,7.49571,7.49571,0,0,1,1.48067,2.12128,12.185,12.185,0,0,0,1.153,1.74c0.78467,1.20088.84455,2.94654,1.02437,4.32476,0.06965,0.53384.26588,1.08847,0.30367,1.62954a6.04071,6.04071,0,0,1-.18415,1.5971,10.35769,10.35769,0,0,0,.47585,3.2982c0.30979,1.20607.72171,2.10952,0.268,3.30953a4.583,4.583,0,0,0-.55272,2.71857H79.22579C79.31393,101.56526,79.47889,101.28552,79.22579,101.28552Zm-36.735-4.16072c-0.76775-1.32173-.33846-2.18011,1.20258-2.18011l-0.6165-.87921c0.44633-.18744,1.96255-0.50032,1.84969-1.1425-0.11362-.64657-2.09876-0.174-2.50471-0.16672-0.93013.01661-1.81363-.2381-2.70749-0.29221a10.0022,10.0022,0,0,0-2.64074.3487c-1.04906.2181-2.94694,1.28022-2.86688,2.81948a1.18375,1.18375,0,0,1,.33748.44348,3.44038,3.44038,0,0,0,.47243.88462,7.15723,7.15723,0,0,1,.61419.84772,10.01113,10.01113,0,0,0,.22654,1.03728c0.0076,0.01171.6469,0.21388,0.70369,0.25479a1.55022,1.55022,0,0,0,.444.67361c0.60106,0.12071.93-.604,1.47264-0.62135,1.66409-.05327.76607,1.8154,2.00412,2.43224a1.42821,1.42821,0,0,0,1.7575-.3698c0.15671-.16165.15865-0.69159,0.33335-0.92781a8.60078,8.60078,0,0,0,.7516-0.61917c0.35756-.74659.22293-0.16049-0.09991-0.873-0.09324-.20578-0.46774-0.34487-0.59222-0.58653a6.37693,6.37693,0,0,1-.15549-1.09955c0.48564,0.64405,2.01549-.037,2.508.98983,0.18574,0.38728-.03516.93061,0.17985,1.23755a5.77814,5.77814,0,0,0,.92157.56092c1.011,0.9783,1.45518,1.91156,3.04775,2.20908a6.58346,6.58346,0,0,0,3.3255-.44017,48.40218,48.40218,0,0,0-5.68179-6.149,1.75164,1.75164,0,0,0-1.9369-.34751c-0.45753.1924-.32746,0.67859-0.57576,0.86111-0.71439.52515-1.7741-.00647-1.77408,1.09423C42.40135,96.97073,42.49083,96.90568,42.49084,97.1248ZM29.52942,112.83865c0.62532,0.09675,5.43395.56778,5.35806-.07122-1.15782-.60565-1.82987-0.79107-2.225-1.95114-0.10732-.31506-0.24822-1.10851-0.35314-1.53246a4.53211,4.53211,0,0,1,.28259-2.4279,31.10643,31.10643,0,0,1,.99949-3.02736c0.5838-1.347,1.58608-1.83961-.32748-2.2216-0.05468.84173-.6295,3.191-2.02458,2.18867-1.436-1.03179.58744-2.47073,0.79428-3.06688a0.96851,0.96851,0,0,0,.77011.573,4.55362,4.55362,0,0,0-.77627-2.2179c-1.01707-1.29184-.88706-0.23857-1.91725-0.00468-0.78523.17828-2.56983-1.30653-2.76927-1.22072,0.24347,0.78942-.36514.85782-0.67447,1.40255a5.99709,5.99709,0,0,0-.5599,1.53723c-0.18543.96542-.34642,0.50774,0.30521,1.07909,0.64658,0.56692,1.886.6637,2.65179,1.02413,0.98307,0.46271.95321,0.66447,1.42471,1.64251,0.79473,1.64853.48954,3.28982,0.97268,5.07413,0.1676,0.619.78387,1.41177,0.62766,2.05339-0.267,1.09675-1.68369,1.05095-2.57713,1.18106a10.69505,10.69505,0,0,0-.43779-2.13q0.39511-.58849-0.08121-0.7325a0.2995,0.2995,0,0,1-.2375-0.39547c-0.05276-1.30679.42175-2.17688-.34813-3.445-0.6761-1.11369-1.29538-1.02367-2.42006-1.41979a14.93082,14.93082,0,0,1-3.13437-1.6c0.9429-.60778.37975-1.29344,0.59377-2.10577,0.158-.59968.84373-0.81638,0.95194-1.60578,0.25845-1.88546-2.42676-1.9286-3.71209-2.13134-0.36344-.05733-0.70107-0.24636-0.98744-0.30717-0.15372-.03264-0.48369.37067-0.61481,0.31347a13.73358,13.73358,0,0,1-2.03973-1.68259c-1.88214-1.66981-1.11486-3.71843-.79168-5.985-0.62582-.03216-0.98683-0.74363-1.60889-1.15423-1.26528-.83517-1.8673-0.59187-3.2494-0.6071-0.71136-.00784-2.1864-0.74532-2.64166.05817-0.23788.41984,0.26311,1.36469,0.40783,1.85249,0.57029,1.92223.88637,4.22331,1.59231,5.92822a9.87839,9.87839,0,0,0,1.27894,2.08115A7.2144,7.2144,0,0,1,13.3347,99.349a6.93706,6.93706,0,0,0,.97434,2.09918,16.54329,16.54329,0,0,1,1.90408,2.03319c0.67952,1.04475,1.33709,1.96277,2.07686,2.92a10.39919,10.39919,0,0,0,3.91638,3.34071,3.90411,3.90411,0,0,1,1.40079.48912c0.39229,0.54394-.16644,1.99689-0.61983,2.3443a15.54676,15.54676,0,0,0,6.54211.26314C29.84216,112.887,29.19479,112.91151,29.52942,112.83865ZM27.68155,126.0492c2.87983,0.68862,5.9643.56747,8.90321,1.02362a45.16306,45.16306,0,0,0,9.51277.2074c6.19935-.31973,12.54651-0.14344,18.80606-0.10562a73.97211,73.97211,0,0,0,9.4465-.11147,52.046,52.046,0,0,1,5.36264.00228,8.91,8.91,0,0,0,1.60942-.29514c0.46044-.08117,1.2335-0.3698,1.62347-0.38246a5.2854,5.2854,0,0,0,1.51514.21964,3.57578,3.57578,0,0,0,1.45956-.80538,3.33756,3.33756,0,0,1,1.82232-.64987c0.72527,0.10582.26527,0.74672,1.10768,0.76547a11.42706,11.42706,0,0,0,2.64747-1.208,9.76664,9.76664,0,0,1,1.05273-1.02094c0.53463-.30851,1.26668-0.27548,1.83117-0.53015,2.00137-.90291,4.76364-3.69213,5.02534-6.08161,0.1282-1.17057.01687-1.26508-1.00747-1.56358a9.3121,9.3121,0,0,0-1.57249-.26916c-0.10011-.00939-0.41422.01991-0.43729,0.01614-0.36065-.059-1.01185-0.4085-1.29982-0.42658a3.787,3.787,0,0,1-.57508.401,2.27074,2.27074,0,0,1-.94772-0.295l-0.19817.67508c-1.37177-1.49387-3.16131-.488-4.79235-0.5564-1.0463-.04387-1.97122-0.15794-2.923-0.21689a10.13681,10.13681,0,0,0-2.18214-.12967,7.72558,7.72558,0,0,1-2.22406.51169c-1.75926-.07239-3.53981-0.22385-5.30571-0.31151-3.76781-.187-7.45419-0.04933-11.22667-0.28267-3.73261-.23087-7.57888.5438-11.355,0.37844-7.31566-.32035-14.61478-0.25743-21.90878-0.29485-1.81425-.00931-3.62725-0.16627-5.43773-0.13908-1.90333.02858-3.62668-.34388-5.52568-0.06682a20.87072,20.87072,0,0,1-4.461.23612,28.03716,28.03716,0,0,0-5.973.10651c0.6767,0.91823.23825,2.27154,0.54819,3.29161a8.64058,8.64058,0,0,0,1.184,2.82293,8.15085,8.15085,0,0,0,2.33633,1.68851c0.54032,0.3404,1.07287.34912,1.531,0.60526,0.45181,0.25259.82131,0.90558,1.27955,1.21017a7.01249,7.01249,0,0,0,3.028.83565c0.86179,0.16611,1.82589.80614,2.73456,0.73222,0.13433-.01093,1.11065-0.44912,1.39547-0.496a6.28278,6.28278,0,0,1,1.51225-.00062c0.47174,0.0826.80555,0.41938,1.33225,0.48576a5.37194,5.37194,0,0,0,.74622.024C28.08413,126.14546,27.43236,126.0439,27.68155,126.0492ZM37.97781,87.87908a8.05623,8.05623,0,0,0-1.50263,1.46922,7.805,7.805,0,0,0,2.06659.92938,12.43554,12.43554,0,0,0,2.37492.02807c1.48782,0.02992,3.2076.49219,4.52725,0.53248,2.58735,0.079,5.19442-.25512,7.80586-0.06775,2.50259,0.17956,4.97616.7771,7.49355,0.72179a61.06507,61.06507,0,0,1,7.516.15085c1.98825,0.203,3.9077-.13088,5.80771-0.09836,2.18255,0.03736,3.34261.13763,3.34261-2.20445a17.89409,17.89409,0,0,0-.47739-2.79133c-0.1189-.84525.3425-1.23044-0.69022-1.50984,0.33724-.25522-0.47335-1.74183-0.62764-2.13881q-0.006.68764-.45358,0.45273c0.21518-1.66768-1.97559-3.56324-3.34629-4.34648-1.12186-.641-1.68928-1.69876-2.695-2.44136a21.97731,21.97731,0,0,0-2.85641-1.36644c-2.18195-1.15657-4.77887-1.1284-7.2251-1.378a33.81962,33.81962,0,0,0-6.99549.41355A19.58189,19.58189,0,0,0,45.495,75.61295a21.40861,21.40861,0,0,0-4.8186,3.38032,22.35382,22.35382,0,0,0-3.20789,4.41035,6.5534,6.5534,0,0,0-1.12382,2.14381c-0.32325,1.46213.346,1.69974,1.63316,2.33166C37.484,88.30416,37.455,87.62241,37.97781,87.87908Zm38.23351,20.54453a2.70854,2.70854,0,0,0,.06527-3.38785c-0.53156-.76577-0.73072-1.11029-1.56591-1.031-0.63626.06041-1.2563,0.94715-1.8529,0.34146a1.255,1.255,0,0,1-1.40989,1.01274c-1.15431-.17242-0.12251-0.39768-0.47268-1.129-0.74047.62353-3.01892,0.62958-3.914,0.59179-0.93465-.03945-1.82609-0.36466-2.67045-0.41805-0.45852-.029-1.49314.39837-2.0826,0.41936-0.5912.02105-1.5632,0.39137-2.02643,0.33915-0.36718-.04139-0.62658-0.49614-0.9159-0.5299q-0.61562-1.00857-1.04758.01079-0.18206.20728-.3448,0.42982a6.52535,6.52535,0,0,1-1.00311.43731c-0.31129.17828-.06342,0.70358-0.51633,0.80567-0.7399.16679-1.94868-1.42054-2.31742-1.70411-0.50307-.38686-0.19542-0.49077-0.93943-0.64476a5.90822,5.90822,0,0,1-1.48844.07818c-0.95086.40415-.15455,0.823-1.0856,1.51969a8.94553,8.94553,0,0,0,.98792.84243l-1.32952.20453,0.083-.88379c-1-.05177-1.03158-0.50149-1.74429-0.84622-0.38081-.18419-0.76715-0.12636-1.13934-0.27955a5.0218,5.0218,0,0,0-1.7827-.50011c-1.01347-.11563-1.96157-0.5441-2.996-0.63194-1.55515-.13206-3.41864-0.26708-4.6713.68826a3.17292,3.17292,0,0,1-.68138.7409,7.4119,7.4119,0,0,1-.828.00223c-0.447.23577-1.281,0.85506-.55772,1.58628-1.21389.10581-1.00842,2.30284-.2072,2.751a0.9,0.9,0,0,1,.55517-0.41041,4.68289,4.68289,0,0,1,.44451.47871c0.84426,0.609.60245,2.101,1.52347,2.468l-0.10988-1.51413c1.25857,0.509.499,0.7509,0.83139,1.91661,0.1752,0.6144.29328,1.34846,1.23453,0.88032a0.84635,0.84635,0,0,0,.10036-0.67963,1.506,1.506,0,0,0,.6312-0.38368,1.44746,1.44746,0,0,1,1.17844-.65481,1.60456,1.60456,0,0,0,1.15-.17151,4.55577,4.55577,0,0,0,.96829-0.795,0.98528,0.98528,0,0,1,1.55272.44351c1.23116,1.8299-1.29321,1.8903-2.49582,1.54677,0.05142,1.09462,1.794.72571,2.538,0.7002,0.58457-.02,1.17453-0.161,1.75415-0.16755,0.22783-.00256.339,0.92775,0.849,0.30172,0.39767-.48814-0.351-1.83654.333-2.55609,1.14666-1.20623,1.66059.84018,2.06947,0.44971-0.17373.59544,0.42816,0.601,1.02772,0.43391,0.46335-.12912-0.29889-0.54148.50472-0.55035,0.994-.011,1.46673.92861,2.23094,1.128,0.19582,0.0511.52372-.29581,0.80128-0.29926a3.86391,3.86391,0,0,0,1.0367.40746l0.445-.13955a0.64363,0.64363,0,0,1,.52754.57512c0.4718,0.18649.19194,0.84665,1.04429,0.35575-0.17673-.45715-0.44578-2.04914.14288-2.3409,0.51627-.25588.72669,0.38055,1.05637,0.60639a0.8654,0.8654,0,0,0,.29353.67814,1.03741,1.03741,0,0,0,.69451.11612c0.90536,1.11791.61,1.17459,2.4947,1.14319,1.48593-.02475,3.76169.35749,5.0475-0.39121-0.40548-.53149-0.95072-0.37593-1.17685-0.66252,0.71638-.82257,2.80005-1.16067,3.95527-0.94594,0.37082,0.06893,1.69443.34925,1.784,0.85733,0.14284,0.81024-.84022.38625-0.7722,1.00519a16.31746,16.31746,0,0,0,3.8935-.02141,6.352,6.352,0,0,1-.27235-0.99943,7.25331,7.25331,0,0,1,.42476-1.44108c0.16188-.29959.7035-0.67354,0.78124-0.88961,0.2438-.67763.10073-0.72065-0.61825-1.29342C76.38082,108.18433,76.51761,108.66762,76.21132,108.42362ZM16.78118,108.36c0.76047-1.36654-1.683-2.71468-2.31074-3.57456-0.46762-.64057-0.62781-1.49749-1.11656-2.17509-0.43024-.59648-0.89653-1.17926-1.32991-1.771a16.41437,16.41437,0,0,0-1.35183-1.35594,11.83359,11.83359,0,0,1-1.00639-2.01994C8.953,96.19014,8.941,94.836,7.53336,94.31723c0.7642-.44834.50435-0.87375,0.37708-1.52065C7.77855,92.1262,7.5047,91.41993,7.36627,90.704c-0.10049-.51966-0.58775-3.22078-1.00182-3.40927-0.97135-.44218-2.31978,1.84953-2.59391,2.39849A3.75849,3.75849,0,0,0,3.959,93.14058c0.67056,1.14925,1.90663,2.03892,2.6325,3.15837,0.703,1.08411.01623,2.31732-.86346,3.24981-0.77541.822-1.34035,0.94273-1.86236,1.99376-0.7112,1.43195-.47106,1.54272.10256,2.82836,0.47522,1.0651.395,1.47487,1.41636,2.20132a18.99054,18.99054,0,0,0,3.83968,2.5258c0.52742,0.18236,1.127-.08735,1.6418.11712a9.7093,9.7093,0,0,1,1.30051,1.12855,5.86124,5.86124,0,0,1,2.25557,1.65616c0.27975,0.3524-.07641.46212,0.42006,0.7448,0.08364,0.04762,1.48941-.036,1.509-0.03647,0.88061-.0195,4.35217.431,4.58082-0.41734,0.336-1.24658-3.12973-2.72983-3.42857-4.1591l-0.72229.22831C17.16461,107.671,17.13864,108.247,16.78118,108.36Zm85.244-10.44522c-0.459.844-3.33163,1.48643-4.35626,2.01354-1.86423.959-3.5641,2.1964-5.46516,3.09379-1.5113.7134-2.80242,1.4716-4.24028,2.3137-1.294.75786-2.74569,1.15763-4.00308,1.92826-0.91053.55805-5.78457,4.83282-4.98448,5.85326,0.261,0.33288,1.72.01879,2.0307-.00922a21.25263,21.25263,0,0,1,2.94789.09709c0.69963,0.02665,1.56508.10022,2.24782,0.06323,0.76321-.04134,1.39312-0.558,2.16851-0.54452-0.72094-.7635-0.02224-0.45809.0475-0.89707a2.23988,2.23988,0,0,1,.30512-1.07084c0.61864-.68038,1.81688-0.60752,2.61352-1.15778,1.68047-1.16074,3.06646-2.41648,4.74126-3.47575a36.90281,36.90281,0,0,0,6.2291-5.11929c1.02544-1.01707,2.37129-1.85711,3.30117-2.95577,0.39888-.47128,1.74034-2.367,1.74034-2.97755a17.71362,17.71362,0,0,0-5.32367,2.84492C101.96913,98.01794,102.42114,97.63538,102.02522,97.91481Zm-26.34213,3.64731c0.53928-.381,2.0491-1.20787,2.31006-1.76395,0.53518-1.14041-.40162-1.29093-1.07886-1.6988-0.46842-.28212-1.38162-0.59747-0.591-1.16984,0.73484-.532.71888,0.55316,1.35271,0.58984,1.2,0.06944.785-2.16168,0.25667-2.664l-0.51036.64029c-0.428-.47842-1.033-1.59565-1.65759-1.806a7.56532,7.56532,0,0,0-1.73037.07649,14.39023,14.39023,0,0,0-1.5748-.33329,0.91108,0.91108,0,0,0-.80966.60189,1.401,1.401,0,0,0-.609-0.2671c-1.026.0727-2.50675-.74747-3.46059-0.22795-0.66525.36234-1.342,2.94792-1.93328,1.51367a51.51761,51.51761,0,0,1-3.661,4.65295,5.29759,5.29759,0,0,0-1.65,1.8279c-0.40358,1.23244.2972,0.90868,1.5615,1.02066a3.68994,3.68994,0,0,0,1.70185.12053c0.47247-.26745.24389-0.66624,0.52682-0.97879a3.63446,3.63446,0,0,1,1.53742-.88932c1.45257-.36114.19306-0.53828,0.89814,0.33585,0.74636,0.92531.24392,1.64454,1.72159,1.52627,0.95276-.07626,1.42939-0.87681,2.27979.07109,0.77347-1.12789,3.87653-.74839,5.12-1.17837C76.01956,101.32443,75.48908,101.6292,75.68309,101.56212ZM25.01773,89.14673a24.27286,24.27286,0,0,0-.42391-3.98067,9.04024,9.04024,0,0,1,.25049-2.55241l-0.36512-.19024a0.39981,0.39981,0,0,1,.21821-0.53012,14.683,14.683,0,0,1,.4103-2.10844c0.19867-1.32246.3356-2.65557,0.51835-3.98045-1.11644.04373-1.59474,1.93108-2.42579,2.73928a9.40392,9.40392,0,0,0-.90683.52193,11.55632,11.55632,0,0,0-.64721,1.314c-0.49162.74332-1.23469,1.23979-1.77651,1.93218a7.58911,7.58911,0,0,0-.93086,2.1142c-0.34808.82883-1.36681,1.797-1.315,2.72082,0.0424,0.75661.84992,1.34734,0.88777,2.21551,0.038,0.87232-.34844,1.5781-0.33264,2.44884,0.03361,1.8519,1.30329,2.88293,3.06886,3.36982,1.33648,0.36856,3.56378,1.0702,4.88279.68092,0.70132-.207.62469,0.23976,0.80976-0.55377a6.075,6.075,0,0,0-.52053-2.05664,5.82679,5.82679,0,0,0-.13618-1.19027c-0.12067-.30488-0.49-0.5219-0.62885-0.87992-0.24477-.63112.31259-1.86765-0.63705-2.0346C25.01773,89.011,25.63927,89.256,25.01773,89.14673Zm9.36925-5.8175A12.123,12.123,0,0,1,33.339,81.95065c-0.13742-.33361-0.10886-0.894-0.2169-1.1204a3.47558,3.47558,0,0,0-1.18761-1.107,20.36878,20.36878,0,0,0-2.0909-.75632,12.73231,12.73231,0,0,0-1.47977-.82662c-1.18734-.20235-1.24008,1.7135-1.42271,2.667a17.00512,17.00512,0,0,0,.93837,8.71715c0.267,0.81884,1.92672,6.7666,1.61336,6.87819,1.10437,0.96731,1.67685,2.37552,1.67028.28685a1.39339,1.39339,0,0,1-.10763-0.95846,0.57312,0.57312,0,0,1,.598-0.37929c0.22755-.51935.80062-1.09722-0.11036-1.03812,0.22389-.74907.9127-1.28811,1.18463-1.97084a0.91534,0.91534,0,0,0,.17546-0.93536,2.693,2.693,0,0,1-.03946-1.46875L32.12945,90.26c0.44869-1.32969.15041-2.68985,0.60961-4.06658,0.23695-.7104.87141-2.85707,1.64792-2.86414C34.0571,82.85835,33.68892,83.33558,34.387,83.32923Zm13.89073,9.17863c0.17361,1.39983,2.36218,3.93294,3.41115,4.872a16.57072,16.57072,0,0,1,2.20592,1.95631,10.23074,10.23074,0,0,0,1.76848,2.24547c1.935,1.35276,3.03448-.92026,4.06179-2.246,1.543-1.99125,3.20954-3.76449,4.59422-5.87456a46.30066,46.30066,0,0,1-7.67677-.70337c-1.0641-.17515-2.185-0.168-3.22-0.29162a19.80836,19.80836,0,0,0-2.58108.21615,19.952,19.952,0,0,0-2.56366-.17436C48.29177,92.62122,48.39965,92.48767,48.27771,92.50785Zm47.24277,20.74727a2.34506,2.34506,0,0,1,.81511-0.50593,5.22658,5.22658,0,0,1,.9307.28358c0.78172-.19321,1.12715-1.05094,1.71919-1.51681a10.68587,10.68587,0,0,0,1.65082-1.196c0.60223-.66929,1.09179-1.316,1.73951-1.94474a21.3342,21.3342,0,0,0,3.07257-4.43977c0.95577-1.55271,2.589-3.32106,2.5109-5.25132-1.79829.59559-2.35956,2.18456-3.61134,3.42532a28.75689,28.75689,0,0,1-3.97671,3.02556,42.69416,42.69416,0,0,0-4.869,3.81254c-0.73484.68937-1.57191,1.03374-2.31974,1.69785-0.7626.67723-1.30347,1.572-2.056,2.26248,1.49955-.28638,3.08783-0.75555,4.39407.34722C96.056,112.83958,94.15881,112.10557,95.52048,113.25513Z"/><path class="cls-3" d="M143.19733,9.42153a2.52621,2.52621,0,0,0-.66544-1.58885c-0.79516-.68808-1.7216-0.284-2.7391-0.22195-0.66562.04062-1.66071-.1855-2.22534-0.11278a14.52509,14.52509,0,0,0-4.81632.28707,7.317,7.317,0,0,0-1.7224.57977,24.9889,24.9889,0,0,0-2.94325,1.62763c-0.91529.60562-.76183,0.77053-1.61078,0.31469-0.32563-.17484-0.533-0.70033-0.89679-0.91149a4.62842,4.62842,0,0,0-1.12881-.35347,3.65167,3.65167,0,0,0-2.9412.22734,6.01509,6.01509,0,0,0-3.208,5.60416,18.83093,18.83093,0,0,0,1.2464,3.76653c0.48267,1.45236,1.05325,1.8149,2.58026,1.987a7.5715,7.5715,0,0,0,6.1722-2.44165c1.70561-1.7798,1.07592-3.06418.72551-5.20823a0.72353,0.72353,0,0,0-.47786.3803,0.0866,0.0866,0,0,1-.017.03192c-1.0349-.30967,3.049-3.49429,3.73753-3.75741a7.1208,7.1208,0,0,0,1.4738-.524,17.86153,17.86153,0,0,1,5.103-.26128q0.145,0.03161.28976,0.06634a2.87981,2.87981,0,0,1,.8151,1.24861c0.37923,0.789-.13254,1.2159,1.11059,1.17877,0.73785-.02205.45268-0.17906,1.01377-0.49639C142.84563,10.40709,143.37462,10.88351,143.19733,9.42153Zm-21.59719,6.78722c-0.65849-.37908-0.64348-2.75494-0.37939-3.365a3.65518,3.65518,0,0,1,1.9191-1.76883c1.41971-.22182,1.78041,1.57948,1.052,2.33347-0.186.10537-.6942,0.04307-0.88834,0.15382a0.80564,0.80564,0,0,0-.18347.14151l-0.00116-.00018-0.00006.00129a1.543,1.543,0,0,0-.29252.6191c-0.11152.32615-.32345,0.60213-0.45048,0.92258l-0.001.00288A5.07548,5.07548,0,0,0,121.60014,16.20875Z"/><path class="cls-3" d="M128.52939,13.38949c0.00527-.01115.01143-0.0212,0.017-0.03192C128.55552,13.31794,128.45968,13.3686,128.52939,13.38949Z"/><path class="cls-3" d="M101.54335,49.49578l-1.29909.23438c-0.274-.98282.89559-3.64361,2.13562-3.18514a1.376,1.376,0,0,1-.06624-1.07561,0.89627,0.89627,0,0,1,.571.95552c0.71509-.98465,2.02-2.56278,2.5656-0.3379,0.467,1.90464-1.84469,1.17182-3.10894,1.6494,0.64686,0.88881-.04732,1.10022-0.798,1.75936C101.14219,49.56816,101.85932,49.21834,101.54335,49.49578Z"/><path class="cls-3" d="M148.04774,56.90151l-0.14013-.32465a10.4463,10.4463,0,0,1,2.4625,1.07553c0.99036,0.82893.33966,1.75893-.25973,2.73712l0.0742-.78279-0.74627.835c-0.48283-1.16654-.68318-2.57741-1.95609-3.17022l0.56553-.36994C147.99968,56.79016,147.89759,56.99973,148.04774,56.90151Z"/><path class="cls-3" d="M121.45326,62.55893c-0.616-.0997-0.72743.3786-0.66186,0.88806l-2.41763-1.18816a8.42586,8.42586,0,0,0,1.71351-.57345c0.38687-.2706-0.22666-0.8158.6797-0.92-0.8476,1.14851,1.11,1.12564.68628,1.79357C120.89678,62.46886,121.48966,62.50155,121.45326,62.55893Z"/><path class="cls-3" d="M123.10225,50.261l0.11808,0.62981c-1.51478-.23054-0.07215.18652-0.75452,0.68735a8.37008,8.37008,0,0,0-.88194.47442c-0.7854.70516-.56949,1.26115-1.82094,1.18444-0.1408-.935.90757-0.765,1.40213-1.20294,0.731-.64732.90947-1.35408,1.93719-1.77307C123.1355,50.43827,122.797,50.38539,123.10225,50.261Z"/><path class="cls-3" d="M99.01334,53.75A2.43779,2.43779,0,0,0,97.81,56.251a2.8574,2.8574,0,0,1-.068-2.75369,2.22177,2.22177,0,0,1,1.27133.25272C98.06118,54.26846,98.968,53.71385,99.01334,53.75Z"/><path class="cls-3" d="M134.283,50.803c-0.07954-.91729.702-1.05813,1.45778-1.49912,1.11637,2.48373-.47662.55938-1.45778,1.49912C134.24958,50.41707,134.78181,50.32525,134.283,50.803Z"/><path class="cls-3" d="M98.12844,56.90157c-0.95037,3.5019-2.05481-.704,0,0C98.00726,57.34809,97.31638,56.62333,98.12844,56.90157Z"/><path class="cls-3" d="M141.27316,58.81649c0.12154-.45963,1.42317-2.09606,1.82551-1.02272,0.36163,0.96473-1.42308.7736-1.82551,1.02272C141.46391,58.09512,141.807,58.486,141.27316,58.81649Z"/><path class="cls-3" d="M104.68326,61.515c-0.32338.0479-2.45431,0.846-2.524,0.35092-0.14582-1.036,2.51083-.59578,2.524-0.35092C104.22809,61.58238,104.68167,61.48532,104.68326,61.515Z"/><path class="cls-3" d="M146.42609,62.39587l1.12237-1.1759c-0.01539.498,0.56826,0.89674,0.20619,1.34063a0.8565,0.8565,0,0,1-1.32856-.16473C146.82042,61.98272,146.71043,62.773,146.42609,62.39587Z"/><path class="cls-3" d="M98.83273,59.65893a1.89053,1.89053,0,0,1-1.76389-.26513,11.65919,11.65919,0,0,1,1.70336-.34062l0.06053,0.60575C98.548,59.752,98.8092,59.42343,98.83273,59.65893Z"/><path class="cls-3" d="M106.08821,59.009c-0.82223,3.145-1.07412-.44779,0,0C105.98122,59.41828,106.025,58.98268,106.08821,59.009Z"/><path class="cls-3" d="M104.88307,50.07652l-0.30264-.89723a1.364,1.364,0,0,1,1.18272.03393c-0.19284.26021-.52064,0.97045-0.88008,0.8633C104.79418,49.813,104.94867,50.09607,104.88307,50.07652Z"/><path class="cls-3" d="M95.794,60.79123c0.78021,1.13731-1.0052,1.498,0,0C96.09839,61.23494,95.57661,61.11521,95.794,60.79123Z"/><path class="cls-3" d="M104.94783,52.74823c0,0.74214.16761,0.8766-.5302,1.26768a1.21108,1.21108,0,0,1,.5302-1.26768C104.94783,53.04631,104.52067,53.08935,104.94783,52.74823Z"/><path class="cls-3" d="M118.87205,54.42732c0.29015-.883.37626-0.92378,0.99816-0.51334Z"/><path class="cls-3" d="M106.41327,60.59l0.39881-1.19532c0.4759,0.70809.27586,0.667-.39881,1.19532C106.56964,60.12129,106.76005,60.31843,106.41327,60.59Z"/><path class="cls-3" d="M120.75176,55.08365c0.59711-.46634.66473-0.86463,1.095-0.08334-0.25955.06465-.987,0.40633-1.095,0.08334C121.00192,54.88827,120.77123,55.14193,120.75176,55.08365Z"/><path class="cls-3" d="M147.60881,59.64363c-0.75542.57586-.75542,0.57586-1.01463,0h1.01463Z"/><path class="cls-3" d="M107.49848,46.6349a0.5814,0.5814,0,0,1-.622.62368c-0.01957-.33828.22082-1.25324,0.622-0.62368C107.34668,46.84189,107.457,46.56987,107.49848,46.6349Z"/><path class="cls-3" d="M165.88443,78.64279a4.96246,4.96246,0,0,1-2.96563-2.18327c-0.58074-1.02087-.66233-2.58935.09257-4.6725a4.99008,4.99008,0,0,1,5.24748-3.44422c1.41977,0.17236,3.47459.68353,4.38659,1.7626a4.30546,4.30546,0,0,1,.55771,4.23563,8.91068,8.91068,0,0,1-2.40478,3.29064C169.38667,78.817,166.88663,78.80225,165.88443,78.64279Z"/><path class="cls-3" d="M44.91311,77.15271c1.01114,0.42614,1.5379.48405,1.4814,1.58828a1.74936,1.74936,0,0,1-1.27576,1.715c-2.51725.44865-.78212-2.48329-0.20563-3.30333C45.29045,77.31174,44.64895,77.52847,44.91311,77.15271Z"/><path class="cls-3" d="M63.01317,84.374c-0.2589.71539-.44468,1.613-1.37045,1.57532-1.13035-.046-1.40468-1.39263-1.00518-2.22449a1.23385,1.23385,0,0,1,2.37562.64917C62.89826,84.69148,63.20233,83.50839,63.01317,84.374Z"/><path class="cls-3" d="M40.45691,84.65418c-0.96712-1.05629-.85994-3.15518,1.12567-2.664,0.89007,0.22017.79944,0.44888,0.729,1.19042-0.11624,1.223-.87583,1.34592-1.85463,1.4736C40.26822,84.44809,40.77577,84.61259,40.45691,84.65418Z"/><path class="cls-3" d="M60.41,79.90241a1.99256,1.99256,0,0,1-1.50827-1.64166,5.37334,5.37334,0,0,1,1.22553-1.52588c2.12353-.37669,1.12841,3.27385.28275,3.16755C59.90929,79.88283,60.8143,79.95323,60.41,79.90241Z"/><path class="cls-3" d="M52.8146,79.495c0.06112-.81255-0.63238-1.19826-0.05078-2.02018,0.26151-.36957,1.63934-0.99281,2.07551-0.6556a3.57436,3.57436,0,0,1-.06941,2.33551,4.26186,4.26186,0,0,1-1.95533.34026C52.86211,78.86339,53.2695,79.44194,52.8146,79.495Z"/><path class="cls-3" d="M47.468,80.498c0.48233,0.59444,1.19433,1.19069.85525,2.04868a2.16726,2.16726,0,0,1-1.54736,1.11593c-2.15557-.3241.00837-2.59249,0.69211-3.16462C47.7908,80.89584,47.09271,80.812,47.468,80.498Z"/><path class="cls-3" d="M52.28154,85.74409c-0.49447-.59231-0.93718-0.89724-0.66147-1.668a1.65753,1.65753,0,0,1,1.74366-.95166c1.67761,0.758-.55374,2.20853-1.08219,2.61968C52.03007,85.44286,52.52735,85.55284,52.28154,85.74409Z"/><path class="cls-3" d="M69.79187,82.13949c0.22532-.23939.773,2.05555-0.75424,1.9906a1.63881,1.63881,0,0,1-1.05137-1.15125c-0.072-1.20546,1.05757-.94451,1.80561-0.83935C69.76487,82.16817,69.31391,82.07229,69.79187,82.13949Z"/><path class="cls-3" d="M61.14378,87.111l1.42807-.42661,0.21491,1.252c-0.97973-.47306-1.36591.01316-2.24478-0.629a0.95077,0.95077,0,0,0,.60179-0.19638C61.57592,86.98187,61.12592,87.12387,61.14378,87.111Z"/><path class="cls-3" d="M74.99359,89.56331c0.51834,0.41745.36145,1.0545-.50167,1.54617Z"/><path class="cls-3" d="M49.01591,77.972c-0.61769.23085-.6229,0.26225-0.97528-0.29185,0.44,0,.88953-0.17847.97528,0.29185C48.80324,78.05148,48.99818,77.8747,49.01591,77.972Z"/><path class="cls-3" d="M57.82453,107.66752l-0.71081,1.49989c0.68336,0.278,1.39259.24267,1.13876,1.017a0.90278,0.90278,0,0,1-1.29655.41284c-0.56195-.18308-0.6804-0.80315-1.1406-1.04631a3.87,3.87,0,0,0-2.16111-.10874c0.41279-.97449,1.08513-0.09583,1.29928-1.39752,0.53766,0.57854.815-.25424,1.24806-0.37486a2.168,2.168,0,0,1,1.623-.0023C57.59243,108.15728,57.74563,107.64266,57.82453,107.66752Zm-1.61614.94255c-0.30622.61051-.36652,0.40514,0.26446,1.05141,0.44581-.514.19219-0.55505-0.26446-1.05141C56.08025,108.86554,56.46972,108.89414,56.20838,108.61008Z"/><path class="cls-3" d="M41.81165,108.633c0.11945,0.76972.361,1.481-.28725,2.05271-0.96324.84954-1.85911-.04511-1.83313-1.13993a3.61545,3.61545,0,0,1,.57464-1.59815c0.79664-.4238.99225,0.32457,1.54574,0.68537C41.872,109.02155,41.391,108.35873,41.81165,108.633Z"/><path class="cls-3" d="M62.79664,108.35476c-0.54775.24819-1.23075,0.1829-.93018,1.03514-0.93164-.04794-1.72811-0.1758-2.55121-0.277a3.78732,3.78732,0,0,1,1.26608-1.37086c-0.32634-.1324-0.68769-0.1175-0.69036-0.45732a3.28265,3.28265,0,0,0,2.06018-.59178,1.80352,1.80352,0,0,1-.86606,1.33118c0.45008,0.68928,1.16552-.12358,1.71154.33069C62.2964,108.58142,62.23727,107.88939,62.79664,108.35476Z"/><path class="cls-3" d="M64.606,112.2101c-1.90693-.47367-1.32331-1.40019.409-1.31529,2.67978,0.13134,1.0691.841-.409,1.31529C64.22,112.11422,64.70081,112.17967,64.606,112.2101Z"/><path class="cls-3" d="M66.61552,107.65281l-1.19094.28053q-0.74566-.11665-0.67284.53981c-0.2217.06768-.39012,0.60377-0.84507,0.22083-0.97795-.82316,2.54713-1.855,2.70885-1.04118C66.022,107.79261,66.59325,107.54071,66.61552,107.65281Z"/><path class="cls-3" d="M38.91943,105.08826c-0.749-1.13575.33884-1.24062,1.328-.78353a3.03378,3.03378,0,0,0-1.328.78353C38.78773,104.88855,39.1784,104.86645,38.91943,105.08826Z"/><path class="cls-3" d="M67.03336,110.54976c-0.22218-.09523-1.02884-0.29012-1.02376-0.60552,0.81333-.19326.77719-0.18983,1.02376,0.60552C66.58917,110.35937,66.93851,110.24382,67.03336,110.54976Z"/><path class="cls-3" d="M47.71495,106.6121c0.06594-.32524.028-0.98071,0.41373-0.93477l-0.08076.97043-0.333-.03565C47.77988,106.29182,47.82594,106.624,47.71495,106.6121Z"/><path class="cls-3" d="M36.46837,97.35313c-0.91979.13512-.71136-1.72158,0.55967-1.61956,1.50764,0.121.70385,1.64019-.55967,1.61956C35.9887,97.42359,37.2928,97.36659,36.46837,97.35313Z"/><path class="cls-3" d="M41.22528,95.70071c-0.50638.70572-.82686,0.79973-1.76964,0.46992Z"/><path class="cls-3" d="M40.31379,98.68557l0.832-.63548c0.07231,0.50081-.51537,1.26109-0.832.63548C40.55186,98.50374,40.35223,98.76152,40.31379,98.68557Z"/><path class="cls-3" d="M40.27031,97.243v1.08634C39.74578,98.17066,39.72346,97.97251,40.27031,97.243Z"/><path class="cls-3" d="M46.87369,100.31711L47.1879,99.607c-0.20464-.44012-1.054.1435-0.73471-0.7106,0.81959,0.24429,2.4046.3966,2.48545,1.5696,0.10251,1.48717-1.36842.32774-2.06495-.14894C46.94845,100.14817,47.26707,100.58633,46.87369,100.31711Z"/><path class="cls-3" d="M45.70838,96.44187l-0.66538.388c0.4463,0.41017.98917,0.56578,0.85172,1.31034-0.16177-.21327-1.81925-2.22162-0.18634-1.69836C45.43472,96.60146,45.09981,96.24686,45.70838,96.44187Z"/></g></svg>