<svg id="Sub-1_Box" xmlns="http://www.w3.org/2000/svg" viewBox="0 0 244 136"><defs><style>.cls-1{fill:none;}.cls-2{fill:#ffaa96;}.cls-3{fill:#ff564d;}</style></defs><title>Illustrated-Icons_All-Icons</title><rect class="cls-1" width="244" height="136"/><g id="_06Iy3z.tif" data-name="06Iy3z.tif"><path class="cls-2" d="M97.00675,48.55715c-0.39786-.59845-0.80409-1.20058-1.20082-1.80906a2.43968,2.43968,0,0,1,.54919-2.24517,6.90992,6.90992,0,0,0,1.99341-2.02079,1.8613,1.8613,0,0,1,.63458-0.25849c0.334-.1788.65219-0.38731,0.97176-0.59158,0.04956-.03168.06955-0.15482,0.10529-0.15556,0.92131-.01911,5.49174-2.93187,6.16727-2.75551a0.89287,0.89287,0,0,1,.55788.4079,0.90661,0.90661,0,0,0,1.01759.48493,1.10962,1.10962,0,0,1,.59757.3803,1.27494,1.27494,0,0,0,1.53408.40013c0.3689-.14646.80411-0.24791,0.93636,0.35608a0.30791,0.30791,0,0,0,.19445.16773c0.636,0.19032,1.22937.624,1.79411,0.765,0.80205,0.20025,1.32935.86605,2.18408,0.9411a6.50344,6.50344,0,0,1,1.72.74008c1.00835,0.4242,2.029.81877,3.03649,1.24391a20.4627,20.4627,0,0,1,3.41538,1.53651c0.74818,0.49622,1.66059.42225,2.33858,0.99249a5.08767,5.08767,0,0,0,1.36649.88816,13.90173,13.90173,0,0,0,3.62223,1.15848c0.76181,0.06853,1.20992.83593,1.98171,0.58973,0.32384,0.64123,1.31476-.01755,1.59948.82123a1.98563,1.98563,0,0,0,.92417.2525c0.36622,0.0958.72856,0.20711,1.09714,0.29228a0.7774,0.7774,0,0,0,.37967-0.01547c1.15448-.34344,1.14859-0.34263,1.84418.67917a0.68336,0.68336,0,0,0,.38267.20785,1.47176,1.47176,0,0,1,.45344.03025c0.57718,0.591.9341,0.05691,1.2058-.14112,0.49554,0.16984.89794,0.2865,1.281,0.448a0.85491,0.85491,0,0,1,.50185.37366c0.08636,0.53512.49878,0.418,0.83084,0.5413a11.92808,11.92808,0,0,1,2.12319.96686,0.90476,0.90476,0,0,0,1.36009-.18c0.06557,0.18857.10795,0.34847,0.17523,0.49709a0.64692,0.64692,0,0,0,1.1403.20491,1.26065,1.26065,0,0,1,.12291-0.1541,3.74244,3.74244,0,0,1,2.59436.08636c0.88272,0.6075,1.019,1.47616,1.93718,2.02918,1.065,0.64141-.3181,2.99353.03179,4.16931a1.24254,1.24254,0,0,1,.30446.68369c-0.10236.345,0.03,0.53-.04685,0.87887a7.89337,7.89337,0,0,0-.29026,1.81806,3.0277,3.0277,0,0,0,.10545,1.41711,5.24315,5.24315,0,0,1,.31689,2.20151,18.02752,18.02752,0,0,1-.35512,1.7896c-0.06238.5342,0.06117,1.08983-.01412,1.6204-0.13918.9808,0.702,1.55963,0.8902,2.39071,0.11521,0.50873-.65142.72-0.599,1.23956a1.30339,1.30339,0,0,0,.41164,1.19444,0.42445,0.42445,0,0,1,.09533.40548c-0.65455.78306-1.30818,1.57039-2.02482,2.29531a1.17968,1.17968,0,0,1-.90944.26272c-0.79529-.143-0.68423.27292-1.42122,0.70172,0.3161,0.89191-.82554.50478-1.08916,1.089a4.09049,4.09049,0,0,1-1.51437,1.07322l0.20828,0.49181a1.40126,1.40126,0,0,1-.65606-0.006,1.876,1.876,0,0,1-.09214-0.75652,0.77589,0.77589,0,0,0-1.082.11006l0.63715,0.3567-0.06948.15849a2.84264,2.84264,0,0,1-.59906-0.3554c-0.34258-.33712-0.32633-0.35322-0.77139-0.18957-0.75589-.98866-0.83937-3.80037-0.17824-4.26176a1.59913,1.59913,0,0,1-.56656-0.60682,1.97586,1.97586,0,0,1,.37-0.81671,0.844,0.844,0,0,0,.156-0.384c-0.1831-1.35346-.3779-2.70642-0.594-4.05669a2.24706,2.24706,0,0,0-.29572-0.59006,5.27435,5.27435,0,0,0-.56967-3.00029l0.21045-.44418a10.851,10.851,0,0,0-.73-0.9388c-0.40587-.41834,1.19554-1.6163.47543-1.545a0.55162,0.55162,0,0,1-.35343-0.12518c-1.03554-.822-1.50159.057-2.67647,0.05218-0.58527-.9389-1.02459-1.147-1.69452-0.73861a5.21358,5.21358,0,0,0-2.44232-1.77348c-0.27545-.14046-0.41544-0.53951-0.6905-0.683a9.99064,9.99064,0,0,0-1.33659-.45744,2.014,2.014,0,0,1-.56806-0.26909,3.34717,3.34717,0,0,0-1.19454-.94759c-1.1875-.06441-2.00924-0.8577-3.01648-1.25561-1.31195-.51827-2.52029-1.2895-3.8067-1.88167-0.87089-.4009-1.806-0.66226-2.699-1.01953-0.86585-.34641-1.7132-0.73876-2.57236-1.10293a4.0347,4.0347,0,0,0-.44332-0.11223,14.04547,14.04547,0,0,1-3.3999-1.07019,17.56276,17.56276,0,0,0-2.89461-1.3517c-0.87605-.34017-1.72981-0.74323-2.61915-1.04329-0.88077-.29717-1.80949-0.4548-2.68614-0.76234a7.45218,7.45218,0,0,1-1.36457-.79625,1.59994,1.59994,0,0,0-.59344-0.39869c-1.29674.113-2.42724-.506-3.63912-0.75273a0.70074,0.70074,0,0,0-.5797.18585,0.72291,0.72291,0,0,1-.96583.16711c-0.70639-.20541-1.0142-1.215-1.74163-1.165A3.45347,3.45347,0,0,0,97.00675,48.55715Zm40.25582,8.18717a1.40929,1.40929,0,0,1-.34018-0.15331,25.039,25.039,0,0,0-2.25229-1.78053c-0.52512-.32683-0.64747-1.15325-1.436-1.10084-0.21549.01432-.42908,0.058-0.64353,0.08823a1.46589,1.46589,0,0,0,.22322.6925,18.65114,18.65114,0,0,0,1.6348,1.0148c0.44851,0.26711.92295,0.49691,1.34617,0.79807,0.32108,0.22848.56538,0.56094,0.87515,0.80841a0.63061,0.63061,0,0,0,.43331-0.00269A1.05438,1.05438,0,0,0,137.26257,56.74433ZM116.0507,49.36067c0.68836,0.4608,1.28684.89161,1.91575,1.27237,0.45795,0.27725.95279,0.4955,1.43738,0.727a9.35856,9.35856,0,0,0,1.21386.52211,1.01128,1.01128,0,0,0,.47763-0.22552,1.1932,1.1932,0,0,0-.26931-0.31395c-0.76055-.4139-1.52422-0.82371-2.30053-1.208-0.70336-.34818-1.42312-0.664-2.13981-0.9853A1.30462,1.30462,0,0,0,116.0507,49.36067Zm28.8539,14.66564a0.662,0.662,0,0,0-.01539.97926,1.16913,1.16913,0,0,1,.35457,1.1459,2.45654,2.45654,0,0,0,.81439,2.3909c0.29784-1.34985-.33683-2.5215-0.23-3.74789l-0.63817-.07906Zm5.11949-1.853-0.90894.65252c0.91652,0.42541.78143,1.24272,0.86143,1.97792,0.04893,0.44964.1179,0.8969,0.17785,1.3451l0.21114-.03078C150.57742,64.80178,150.85872,63.47906,150.02408,62.17327Zm-5.57124-3.71878,0.15221-.35392c-0.73727-.44964-1.45908-0.9279-2.21938-1.33628-0.34165-.18351-0.89644-0.44747-1.09.05482-0.1833.47563,0.406,0.57868,0.7628,0.721,0.5208,0.2077,1.04813.39924,1.57227,0.59852C143.90516,58.24293,144.17885,58.34913,144.45284,58.45449ZM146.11512,75.997a2.188,2.188,0,0,1,.32743.64585c0.09735,0.75777.46836,0.94534,1.15637,0.64372a2.462,2.462,0,0,1,.37067-0.05c0.51363-.1295,1.02507-0.26782,1.53736-0.40293l-0.0126-.21441A4.49342,4.49342,0,0,1,146.11512,75.997Z"/><path class="cls-2" d="M29.90246,37.27163c-0.31765.08918-.44-0.01051-0.42883-0.4677a8.53544,8.53544,0,0,0-.34748-1.19444c-0.11352-.808-0.15265-1.62633-0.226-2.44007-0.01419-.1573-0.05019-0.31257-0.066-0.4698-0.0242-.24137-0.03432-0.48418-0.05989-0.72538a2.6227,2.6227,0,0,1-.1017-1.22046,1.64289,1.64289,0,0,0,.30236-1.14332,3.436,3.436,0,0,1,.25149-1.37141,2.01911,2.01911,0,0,1,.38219-0.78055c0.65025-.73632.64366-1.76767,1.16951-2.53693a8.83536,8.83536,0,0,1,1.27136-1.32292,12.17075,12.17075,0,0,1,1.64277-1.45245c0.60446-.3939,1.06043-0.9514,1.62972-1.338a6.54213,6.54213,0,0,1,2.03612-.74644c0.53929-.1398,1.04334-0.64986,1.67424-0.24436a0.59846,0.59846,0,0,0,.26835-0.09258c0.56446-.18489,1.12261-0.39728,1.69884-0.53233a1.81839,1.81839,0,0,1,.539.26323c0.54241,0.16587,1.09351.30336,1.72144,0.47382a3.54412,3.54412,0,0,0,2.35954.906,3.57229,3.57229,0,0,1,1.49334.50948c0.71232,0.44981,1.33811,1.03469,2.01954,1.53662a3.74163,3.74163,0,0,0,.74493.32224A1.09832,1.09832,0,0,0,50.3613,24.4a11.80857,11.80857,0,0,1,.95421,1.55391A13,13,0,0,0,52.322,27.29568a3.46742,3.46742,0,0,1,.61228,2.00013c0.05288,0.40845.16292,0.8093,0.222,1.21722a1.91328,1.91328,0,0,1,.02337.76317,1.3141,1.3141,0,0,0,.4717,1.50655l-0.61742,1.67808a2.17942,2.17942,0,0,0-.22308.001c-0.59234.03782-.74321,0.28316-0.83793,1.08769a10.87123,10.87123,0,0,1-.35183,1.45132c-0.16349.625-.60056,1.12366-0.77236,1.76459a2.65487,2.65487,0,0,1-.846.96761,1.841,1.841,0,0,0-.97811,1.24555,0.96163,0.96163,0,0,1-.51218.45239,2.81684,2.81684,0,0,0-.8163.35632c-0.65778.834-1.76635,1.2995-2.028,2.46166a0.423,0.423,0,0,1-.27512.25361,8.09636,8.09636,0,0,1-.86524-0.4206,1.109,1.109,0,0,0-.47749-0.24529,2.07156,2.07156,0,0,0-1.07918.45273,1.85646,1.85646,0,0,1-1.31457.34333,16.3925,16.3925,0,0,1-2.31917-.25025,8.86114,8.86114,0,0,1-3.17855-1.492c-0.3775-.232-0.78212-0.42009-1.1754-0.62626a2.35325,2.35325,0,0,1-1.25367-.79028,4.00687,4.00687,0,0,0-.77719-0.26444,5.78237,5.78237,0,0,1-1.96405-1.97808c-0.13518-.26855-0.47285-0.43357-0.6147-0.70074A9.81092,9.81092,0,0,1,29.90246,37.27163Zm6.214-11.1186c0.59227,0.39506.58578,0.3923,0.30116,1.06249a1.10692,1.10692,0,0,0-.037.41861c0.00116,1.16821.01888,2.33662,0.001,3.5045-0.00454.29755-.14857,0.59134-0.16934,0.891a0.9103,0.9103,0,0,0,.18244.468,0.39272,0.39272,0,0,0,.28779-0.08495,8.02741,8.02741,0,0,0,.62264-1.76461,20.05592,20.05592,0,0,0,.10955-2.75485,6.445,6.445,0,0,0-.18805-1.061,0.69317,0.69317,0,0,1-.02829-0.40785c0.41129-.57448.06238-0.96124-0.41036-1.49944l-0.29519,1.00915Zm3.284,12.27159,0.19212,0.07461a1.65514,1.65514,0,0,0,.374-0.63441c0.022-1.07988-.00684-2.16143-0.05138-3.241a0.46708,0.46708,0,0,0-.36264-0.26938,0.56134,0.56134,0,0,0-.353.37314c-0.00776.77652,0.02616,1.5541,0.06728,2.3302C39.29094,37.51447,39.35452,37.96908,39.40039,38.42462Zm-4.931-8.11513a18.80524,18.80524,0,0,0-.17449,6.11333C34.97311,34.35821,34.60317,32.3268,34.46939,30.30949Zm5.39324-.26412-0.87413.694a5.66564,5.66564,0,0,0,.1601,1.17762,0.74947,0.74947,0,0,0,.62721.299,0.62243,0.62243,0,0,0,.40562-0.4657C40.12235,31.16287,39.97112,30.58474,39.86263,30.04536Zm-2.943,9.28973c0.25129,0.169.54532,0.38457,0.85839,0.56753a1.0945,1.0945,0,0,0,.39187.05832,1.455,1.455,0,0,0,.04215-0.39244c-0.06861-.41323-0.15029-0.82519-0.25005-1.232a5.14989,5.14989,0,0,0-.22971-0.60889c-0.11492.18789-.24456,0.36854-0.34145,0.56531C37.22723,38.62522,37.08435,38.96769,36.91965,39.33509Zm-0.58837-2.99922c0.64487-1.93955.65675-2.04954,0.27918-2.43369A2.03767,2.03767,0,0,0,36.33128,36.33587Zm2.74048-8.13279,0.27948,0.09977A2.02154,2.02154,0,0,0,39.7,27.4636a2.09181,2.09181,0,0,0-.51174-0.76542l-0.22972.10949Zm3.58-3.78667,0.16295,0.16034c0.36179-.03622.72662-0.0561,1.08283-0.12233a0.68021,0.68021,0,0,0,.166-0.31,3.64238,3.64238,0,0,0-.9766-0.2284A1.25187,1.25187,0,0,0,42.65179,24.41641Zm-2.774.74386-0.18769.05491a7.29631,7.29631,0,0,0,.01162.81729,0.61983,0.61983,0,0,0,.24157.21513,0.61128,0.61128,0,0,0,.18458-0.26345A8.19539,8.19539,0,0,0,39.87779,25.16027Z"/><path class="cls-2" d="M203.497,12.62531a6.31307,6.31307,0,0,0-.06477.71386,1.66161,1.66161,0,0,0,.11946.42273,2.22076,2.22076,0,0,0,.399-0.1745c0.6471-.44672,1.285-0.90673,1.92947-1.35733a5.46993,5.46993,0,0,0,1.459-1.04968,2.648,2.648,0,0,1,1.92361-.86574,6.7199,6.7199,0,0,1,1.80416.0518c0.11276,0.77471.58092,1.57772-.34437,2.24053L210.48,12.43119a0.26783,0.26783,0,0,0-.06706.07748,0.82859,0.82859,0,0,1-1.14129.72314,5.886,5.886,0,0,0-1.81032.08841,0.3334,0.3334,0,0,0-.16447.0721c-0.75773.58032-1.52048,1.15454-2.263,1.75377a0.76841,0.76841,0,0,0-.25962.487,3.92454,3.92454,0,0,1-1.12818,2.15926,2.61718,2.61718,0,0,1-.76121.4295V18.656l-0.11928-.09406a21.32485,21.32485,0,0,0-1.79512,2.5,12.16719,12.16719,0,0,0-.987,2.81494,23.57339,23.57339,0,0,0-.5369,3.30146,5.60617,5.60617,0,0,0,.22786,1.57063c0.28145,1.41018.57047,2.81905,0.88321,4.22249a1.313,1.313,0,0,0,.3667.45487,0.698,0.698,0,0,1,.17979.14979c-0.0371.95712,0.67907,1.6127,0.96949,2.43694a0.40778,0.40778,0,0,0,.20869.25052,0.82793,0.82793,0,0,1,.835.71633,2.50036,2.50036,0,0,0,1.39663,1.35c0.40745,0.23826.72839,0.61986,1.11841,0.89416a1.93678,1.93678,0,0,0,.92673.458c0.49148,0.00847.99461,0.39562,1.52135-.02937a3.03781,3.03781,0,0,1,.89986.53713l0.26159-.19332,2.24782,0.43658a1.12871,1.12871,0,0,1,1.42069-.55186,1.00443,1.00443,0,0,0,.86568-0.1759c0.67765-.65562,1.33773-0.21889,1.99317-0.0469a2.37036,2.37036,0,0,0,1.70333-.02534,5.345,5.345,0,0,1,1.805-.15995,0.33093,0.33093,0,0,1,.25336.13372,1.75721,1.75721,0,0,1,.42073.86607,6.8267,6.8267,0,0,1-.61858,1.92924,0.4519,0.4519,0,0,1-.782.14264l-3.21375.4073,0.0599,0.42048c-0.654.204-1.28912,0.45219-1.94739,0.59084a0.89589,0.89589,0,0,0-.922.78437,0.99429,0.99429,0,0,1-1.41827.71835,5.63076,5.63076,0,0,0-.72388-0.22123c0.24191,0.76106.23036,0.6821-.50783,0.79007a14.40913,14.40913,0,0,0-1.91937.59537,1.15731,1.15731,0,0,1-.74552.087c-0.99631-.60811-2.021-0.18146-3.03484-0.17464a2.2658,2.2658,0,0,1-.90935-0.22032c-1.00439-.45166-1.99422-0.9357-3.05766-1.43978,0.00977-.3883-0.32328-0.53508-0.7668-0.53787a2.01086,2.01086,0,0,1-1.44565-.51758c-0.72453-.6464-1.61819-1.104-2.33839-1.75426a5.99748,5.99748,0,0,1-.97345-1.495c-0.333-.57339-0.613-1.178-0.95377-1.74644a7.90632,7.90632,0,0,1-1.20992-4.184c0.00286-.69942-0.26487-1.39561-0.33279-2.10069a6.17009,6.17009,0,0,1,.0792-3.11224,17.572,17.572,0,0,0,.47433-2.00257c0.16053-.57642.39917-1.13069,0.58945-1.69937,0.14322-.428.26774-0.86241,0.39475-1.29568a9.92163,9.92163,0,0,1,.40552-1.37745,9.37016,9.37016,0,0,1,1.227-2.51576,16.97439,16.97439,0,0,0,.97162-1.66385c0.42318-.61537.91941-1.18107,1.39253-1.76134a9.07983,9.07983,0,0,1,.87578-1.00369c0.34055-.3103.79929-0.501,1.10626-0.83574,0.48846-.53263.89355-1.14164,1.3349-1.71758a0.598,0.598,0,0,1,.19449-0.22509c0.35933-.11671.76246-0.15192,0.76245-0.68846a0.59135,0.59135,0,0,1,.41987-0.175A10.34829,10.34829,0,0,1,203.497,12.62531Zm-7.96932,20.96937c-0.15412-.96393-0.29562-1.895-0.46176-2.82157a0.39373,0.39373,0,0,0-.27432-0.24914,1.369,1.369,0,0,0-.87716,1.19261c0.118,1.04146.16849,2.09043,0.26123,3.13505a2.15353,2.15353,0,0,0,.1681.49256,1.82092,1.82092,0,0,0,.44289-0.34692,10.57984,10.57984,0,0,0,.54487-0.97819C195.40591,33.87871,195.46545,33.73048,195.52769,33.59468Zm3.62,6.87959c-1.11856-1.22507-1.50222-2.86781-2.861-3.90218l-0.12574,1.05181a0.64339,0.64339,0,0,1,.67868.78348,2.27042,2.27042,0,0,1,.4831.57582,11.73342,11.73342,0,0,1,.87111,1.284C198.41231,40.70091,198.65676,40.70826,199.14768,40.47427Z"/></g><g id="TRnmEq.tif"><path class="cls-3" d="M122.03018,44.85638c-1.22722-.18872-0.97564-1.01047-1.83488-1.54213a5.39708,5.39708,0,0,0-1.1674-.10594,6.18973,6.18973,0,0,1-.74307-0.59c-0.5832-.26922-1.44823-0.30629-2.08007-0.56889-1.29448-.538-5.45431-2.37025-6.77111-2.87067-0.83436-.317-1.75672-0.61217-2.65657-0.86948a5.95184,5.95184,0,0,0-.84767.27677,1.87822,1.87822,0,0,0-.731.72816,4.69058,4.69058,0,0,1-.5651.67443c0.09413,0.02012.19475,0.04155,0.30383,0.06416a72.75023,72.75023,0,0,1,9.48271,2.85056c1.63688,0.70015,3.32218,1.62061,5.03269,2.15686,0.483,0.15138,1.09783-.07275,1.55568.1107a5.325,5.325,0,0,1,1.22008.95887c0.74115,0.51848,2.61278.37532,1.73884-1.02132C123.43888,44.26425,122.52522,44.93254,122.03018,44.85638Z"/><path class="cls-3" d="M92.5006,47.56628a1.0918,1.0918,0,0,0,.88151-0.273,4.72533,4.72533,0,0,1,1.64091.3532c0.61831,0.18214,1.29845.12721,1.905,0.32517a4.56231,4.56231,0,0,1,.7154.55092,94.11512,94.11512,0,0,1,9.65974,3.46229c4.18394,1.91722,8.60929,2.902,12.69714,4.96538a27.35286,27.35286,0,0,0,2.88714.97924c1.03731,0.39357,2.01183.94489,3.10421,1.30383,0.73763,0.24235,3.42448,1.43284,3.53867.35176,0.1425-1.34893-2.12416-1.73725-2.9658-2.08578-1.27914-.52976-2.69456-0.68968-3.93882-1.18145-1.39609-.55173-2.5396-1.43443-4.0064-1.90646-2.3664-.76158-4.39182-2.02455-6.96656-2.43784,0.27851-.60184-0.796-0.55371-1.31215-0.74264-0.6158-.22542-1.14312-0.54525-1.78482-0.7493a25.84838,25.84838,0,0,1-4.083-1.476,68.054,68.054,0,0,0-6.77242-2.59092,15.52757,15.52757,0,0,1-2.5767-1.21686,0.42131,0.42131,0,0,1-.24744.21395,9.41846,9.41846,0,0,0-1.61228,1.23182c-0.41708.261-.88925,0.43891-1.28864,0.71785A1.02094,1.02094,0,0,0,92.5006,47.56628Z"/><path class="cls-3" d="M165.33128,98.0454a38.39828,38.39828,0,0,1,.14353-4.49188c0.02509-1.392.17222-2.866,0.17494-4.28169,0.00334-1.73953.54407-3.62757,0.26421-5.33538a15.48248,15.48248,0,0,1-.30443-2.16742c-0.02292-.85017-0.03424-1.71893-0.09191-2.59077-0.14319-2.16468-.16881-4.39106-0.173-6.55429-0.00688-3.52361.05108-6.96561-.1036-10.61025a86.3547,86.3547,0,0,1-.1933-8.68842,16.7765,16.7765,0,0,1,.447-4.05776c0.05653-.18992.04267-0.6979,0.1-0.812a5.61011,5.61011,0,0,0,.14087-2.74452c-0.50466-.99827-1.5913-0.925-2.48656-1.18633a29.14152,29.14152,0,0,1-4.85858-1.9005,10.94153,10.94153,0,0,0-2.93177-1.25936,5.2115,5.2115,0,0,1-1.06324-.02152c-0.55118-.1789-1.35789-0.88236-2.0415-1.13055-0.90571-.3288-1.83561-0.59362-2.76246-0.85815a67.14978,67.14978,0,0,1-9.23677-3.16994c-3.60055-1.63279-7.58158-2.553-11.27845-4.02236-2.929-1.16417-5.965-1.96387-8.86443-3.03665-2.688-.99455-6.10086,1.77988-8.02281,3.28745-2.499,1.96018-4.96591,3.76856-7.55768,5.56773-0.71352.49527-1.31192,1.24022-1.9421,1.70506-0.52932.3905-1.3045,0.62108-1.87589,1.01833-1.3804.95962-2.89131,1.77448-4.20923,2.81807-2.37579,1.88118-5.20885,3.19012-7.76742,4.86651q-1.82809,1.19778-3.57445,2.39167c-0.62854.42957-1.41208,0.62922-2.022,1.09955-0.58019.4474-.93836,1.07137-1.50061,1.53a18.63153,18.63153,0,0,1-2.1786,1.20323c-0.70017.43-1.29531,0.95651-2.05244,1.33382a10.2754,10.2754,0,0,1-1.93451,1.02049c-0.164.03815-.72,0.5687-0.85864,0.60434-1.1245.2894-1.05719,0.72592-1.16743,1.967-0.09758,1.09847.31288,3.08907,0.26664,4.38438-0.04589,1.28555.10651,2.84931,0.1925,4.24244,0.109,1.76514-.18132,3.57985-0.151,5.35563,0.01318,0.77172-.08164,4.91767.00441,7.37828,0.086,2.4578.1181,4.2622,0.086,5.19662-0.03884,1.13085.20152,2.17817,0.16222,3.23007-0.10536,2.8195-.14214,5.60805-0.0081,8.378,0.121,2.50152.02667,5.06306-.03022,7.559-0.03464,1.51955.04865,3.02885-.01886,4.53838-0.05835,1.30461.11192,4.27959,0.09159,5.27416-0.01338.65476-.41872,2.9054,0.962,3.77348,1.38017,0.86772,7.24839,2.4806,8.6606,2.90319,2.123,0.63533,4.2589,1.30205,6.45952,1.89739,2.24416,0.60714,3.82,1.9376,6.07121,2.383,3.34354,0.66158,6.39593,1.55085,9.64914,2.51334,2.71906,0.80443,5.10066,2.28611,7.83471,2.9683a22.8712,22.8712,0,0,1,3.33605,1.38428c0.71837,0.29971,1.50074.23827,2.19225,0.47444,0.48248,0.16478,1.88563.33637,2.3413,0.53732a15.06189,15.06189,0,0,0,4.90157.69446,8.85021,8.85021,0,0,0,3.40677-1.39734c0.31221-.30916,1.39322-1.541,1.44845-1.65788a4.13309,4.13309,0,0,1,.76753-1.25963c0.88734-1.01955,2.13446-1.846,3.08088-2.83695a15.73375,15.73375,0,0,1,2.87652-2.48393c2.123-1.39453,3.68612-3.21659,5.60964-4.8658,1.71038-1.46649,3.28437-3.02322,4.95119-4.54193,1.94613-1.7732,4.23926-3.35779,6.2757-4.88335a13.46259,13.46259,0,0,0,2.62839-2.3543,5.65547,5.65547,0,0,1,1.60415-1.5257c0.55536-.28738,6.63807-5.86651,6.59616-6.1925C165.68535,99.73761,165.41855,98.916,165.33128,98.0454ZM77.74262,58.22905c0.19094-.47308,2.33771-1.38779,2.81993-1.75221a56.98109,56.98109,0,0,1,5.02729-3.75261c2.22274-1.32434,4.23783-3.14294,6.49131-4.47628,0.89244-.528,1.8301-1.0103,2.74291-1.60487a1.74071,1.74071,0,0,0,.52756-0.29267,6.77929,6.77929,0,0,1,1.94144-1.216c0.56682-.33306.97828-0.86,1.559-1.15587,0.18717-.50975.63732-0.04444,1.03887-0.31279,0.11333-.07568.63405-0.67293,0.79821-0.81266a21.453,21.453,0,0,1,2.284-1.45244c1.26562-.83213,2.64039-1.63465,3.85607-2.54754a4.88849,4.88849,0,0,1,1.45567-.9412c0.22509-.17121.48043-0.29127,0.69929-0.47748a10.22987,10.22987,0,0,0,.76612-0.8434,2.20718,2.20718,0,0,1,.639-0.46769l-0.0312-.01062c0.5681-.43465,4.06811-2.4091,4.67618-2.864,1.00949-.75508,2.12555-1.91348,3.21762-2.1214s2.47028,0.4572,3.0852.5763a36.372,36.372,0,0,1,6.81413,1.99716c0.742,0.29618,1.56969.37517,2.30023,0.725,0.44494,0.21306.97084,0.6938,1.321,0.85138a17.72421,17.72421,0,0,0,2.9623.574,39.36741,39.36741,0,0,1,6.73928,2.72615,28.24,28.24,0,0,0,2.99743.83845c1.44982,0.46421,2.8567,1.00091,4.291,1.51869,2.75926,0.99609,5.40123,2.23778,8.11435,3.33959,0.74869,0.30408,3.3903,1.258,4.06954,1.52955a17.268,17.268,0,0,1,1.54809,1.02256c-0.96565,2.018-3.07985,3.44267-4.87466,4.77166-1.45406,1.07661-3.93448,3.37145-5.22022,4.536a9.91176,9.91176,0,0,1-.58519-0.92039,5.46706,5.46706,0,0,0-1.12164-.57206c-1.04346-.46384-2.09419-0.47974-3.16617-0.88136-1.21452-.455-2.39507-0.64545-3.60382-1.06263A6.08546,6.08546,0,0,0,142.179,52.079a5.06774,5.06774,0,0,1-1.208.29793,6.9445,6.9445,0,0,1-.46932-0.88034,3.51067,3.51067,0,0,0-1.61924-.57187,13.42733,13.42733,0,0,1-2.85975-.75216c-0.51347-.21938-2.29263-0.80638-1.76061.55764,0.23133,0.59308,1.79557.84581,2.07215,0.30094a5.00746,5.00746,0,0,0,3.849,2.48148c1.32005,0.27614,4.11824,1.31468,4.88315,1.53412a28.70546,28.70546,0,0,1,4.13622,1.71586c0.67262,0.47473,1.174.57136,1.241,1.1218a26.57286,26.57286,0,0,1-2.36242,2.26463c-0.2965.19478-.746,0.17856-1.0961,0.40952-0.65138.42965-1.2,1.25472-1.86962,1.73993a4.99837,4.99837,0,0,1-1.89528,1.02273c-0.75626.16431-1.38743-.22887-2.17746,0.29117-1.08849.71651-.84007,1.18423,0.11388,1.96817-0.82068.51092-4.49606,2.69441-3.99652,3.47305a5.877,5.877,0,0,0-1.06584.418c0.66489-.31339-1.30877.94387-0.75141,0.43871a17.36158,17.36158,0,0,1-1.44115,1.23279c-0.21628.16055-.61369,0.29134-0.8547,0.46019-0.65879.4615-1.53118,1.48843-2.36861,2.05629-1.45213.9847-2.16641,1.88225-3.82912,1.426-2.32783-.63883-4.75961-0.93282-7.14928-1.80478-1.66521-.60764-3.27065-1.59345-4.94547-2.12113-0.61367-.19341-1.16963-0.16016-1.77325-0.4133a12.97236,12.97236,0,0,0-1.75876-.81486c-2.52672-.69542-4.80293-2.31356-7.32528-2.875a66.57755,66.57755,0,0,1-7.43094-2.02592c-0.68565-.24022-1.29646-0.64882-1.995-0.90428-0.50584-.15466-1.07639-0.68922-1.94-1.06372-0.86381-.37456-2.588-0.82311-4.062-1.28863-2.86161-.90386-5.95451-1.31924-8.78332-2.30082C78.90864,59.20334,77.42625,59.01294,77.74262,58.22905Zm66.27157,20.216c-0.06238-.382-0.15123-1.2584-0.19814-1.54663-0.0243-.14931.1008-1.05229,0.11054-1.2143,0.09153-1.52257.01513-3.53384-.019-5.05982-0.025-1.11936-.00085-3.08029-0.03165-3.54481a3.77667,3.77667,0,0,1,.03009-1.37454c0.12874-.20874.9784-0.62464,0.96144-0.7608a11.88612,11.88612,0,0,1,2.42392-2.13585c0.90277-.75786,2.84976-2.25257,3.79021-2.99051,0.58777,3.7984-.40506,6.92039.04441,10.76128a43.91082,43.91082,0,0,1,.74193,5.48287,11.03187,11.03187,0,0,1-3.5758,3.14455c-0.88792.385-2.633,2.2118-3.18772,2.182C143.55569,81.30534,144.15671,79.31775,144.01419,78.445ZM128.07269,104.733c-0.10081,1.57661-.33176,3.21-0.42671,4.8534a53.56586,53.56586,0,0,0,.25111,6.63338,53.69671,53.69671,0,0,1-.27882,6.00972,40.78555,40.78555,0,0,0,.05281,5.92821,10.06411,10.06411,0,0,1-.59391,3.725,12.03984,12.03984,0,0,1-2.7897.12576,22.73632,22.73632,0,0,1-3.28412-.43972c-1.44175-.26594-2.15314-0.53726-3.5525-0.8957-0.97494-.24983-1.92733-0.50774-2.87654-0.79684-0.67317-.20506-1.196-0.54435-1.80938-0.76895a1.28854,1.28854,0,0,0-.92046-0.2144,46.76521,46.76521,0,0,1-5.60317-2.04745c-3.75185-1.47941-7.9464-1.9449-11.73615-3.292-1.83523-.65229-3.64843-1.05669-5.46652-1.76049-2.0161-.78049-4.13744-0.94429-6.04813-1.97847-1.57812-.85417-3.28226-1.05647-4.784-1.98252a7.59,7.59,0,0,1-1.88787-1.05663,3.68142,3.68142,0,0,1-.41748-2.13826,50.40057,50.40057,0,0,0-.06085-10.24493c-0.22961-1.98229.16145-3.96922-.04842-5.94725a53.26661,53.26661,0,0,1-.06463-5.60989c-0.00564-1.85639-.03382-3.83341-0.17644-5.6874a35.24451,35.24451,0,0,1,.14509-4.31906,19.26933,19.26933,0,0,0-.02447-3.32041,11.65158,11.65158,0,0,1-.44248-2.30725c0.08475-1.978.37712-3.99091,0.45693-5.9689,0.05651-1.40043-.03037-3.15888.0732-4.73811,0.06284-.95829-0.0181-1.93375.05075-2.89583,0.03388-.47347.15068-1.48054,0.22366-2.3262a1.02784,1.02784,0,0,1,1.19786-1.01437c0.45645,0.07933,8.05018,2.52524,11.69433,3.49949a9.72263,9.72263,0,0,1,2.9478,1.345,6.49788,6.49788,0,0,0,1.63494.44944,40.82294,40.82294,0,0,0,4.702,1.67681c6.63074,1.58674,12.62916,5.37289,19.18142,7.24469a54.969,54.969,0,0,1,5.90872,2.13461c0.7289,0.29925,1.49357.53238,2.20739,0.86466,0.23521,0.10948,1.99686.62625,2.11044,0.7495a3.14707,3.14707,0,0,1,.22936,1.87281c0.01427,0.86342-.01937,1.42592.02758,2.22016,0.10606,1.79419.56151,3.35283,0.29947,5.12912-0.568,3.85015-.24062,7.839-0.55691,11.72385C127.46524,101.0427,128.18827,102.92538,128.07269,104.733Zm34.239-3.00423a11.41506,11.41506,0,0,1-2.11163,1.68826,32.99992,32.99992,0,0,0-2.48707,2.48826,19.64354,19.64354,0,0,0-2.21289,1.78059,36.40138,36.40138,0,0,1-5.42746,4.56408c-1.58729,1.21428-3.63006,2.73952-5.19864,4.19679-3.01,2.79644-5.67232,5.93487-9.04131,8.24515-1.37363.942-4.90215,5.60535-6.48212,6.08258-0.41428-1.15509.24848-5.24815,0.18217-6.53044-0.055-1.06282.00313-22.92637,0.0252-23.513,0.05839-1.55192-.04-3.10957-0.02472-4.66663a53.75034,53.75034,0,0,1,.28247-7.66087c0.38351-2.52514-.53125-5.08215-0.28537-7.735,0.11708-1.26321-.292-2.27924.15425-3.14265a22.22,22.22,0,0,1,3.79708-2.73176,3.7578,3.7578,0,0,0,1.42381-1.33032,10.56436,10.56436,0,0,1,2.68676-2.466c1.26964-.83631,3.95635-3.461,4.59979-3.71557l-0.23765,2.42472c0.101,1.04058-.09057,2.29345.03548,3.23762,0.05212,0.39045.313,1.23825,0.362,1.71067a20.00132,20.00132,0,0,1-.09317,2.12718c-0.00514.9956,0.11718,2.26911,0.14487,2.95113,0.02768,0.6818.2976,3.18337,0.91042,3.73673,0.61266,0.55328,2.64641-.30949,3.65115-0.81915,0.91495-.46408,1.77822-1.72811,2.58508-2.23531s1.142-1.21725,1.71635-1.33006a13.79291,13.79291,0,0,0,1.68133-1.304c0.58521-.23541.75835-1.92987,0.65764-2.55009-0.09456-.34066-0.47438-2.72538-0.50227-3.2525s-0.11513-1.3685-.189-1.97693c-0.09051-.745.17172-1.67183,0.133-2.468-0.0412-.84622-0.16752-1.70624-0.21109-2.55042-0.0697-1.35039-.10765-1.1836-0.21787-2.504-0.07216-.86455.257-1.74765,0.203-2.64983-0.04629-.77379-0.37455-1.25407.111-1.90047,0.24334-.32392,2.07846-1.38142,2.35985-1.64965,0.46793-.44607.56675-0.95528,1.08617-1.39915,2.07649-1.77446,5.15726-3.536,7.01847-5.57161,0.07965,1.87677-.38581,4.53555-0.49256,6.50555-0.05619,1.037.30881,4.26236,0.30536,4.50441a9.11067,9.11067,0,0,1,.26882,1.816c0.03207,0.85453-.24293,1.74856-0.1838,2.68382,0.06743,1.06676.31294,2.10614,0.37557,3.16922,0.12665,2.14946-.28908,4.283-0.32881,6.41716-0.03691,1.9828.33483,3.853,0.27888,5.86469-0.06529,2.34817.31966,4.67357,0.17436,7.00862-0.1349,2.16792-.17525,4.31493-0.14163,6.465,0.03357,2.14736-.05911,4.75552.01058,5.63936C163.73312,100.26638,163.01309,100.96246,162.31168,101.72873Z"/><path class="cls-3" d="M196.45317,41.5555c-1.79859-2.28944-4.67836-6.04991-4.78175-8.4788-0.14165-3.3276-.294-6.64543.69971-9.88173a18.82708,18.82708,0,0,1,5.08122-8.75857,41.1145,41.1145,0,0,1,9.20046-5.6338A11.65014,11.65014,0,0,1,209.243,7.56419a3.04524,3.04524,0,0,1,1.1932.24645c0.78732,0.56336.20619,0.28165,0.2244,1.16855,0.05143,2.50509-1.16537,2.289-2.79311,3.64835a22.72847,22.72847,0,0,0-3.34912,3.91,8.0502,8.0502,0,0,0-.83891,1.42173c-0.11192.26422,0.09048,0.63841-.01534,0.95929a4.84119,4.84119,0,0,0-.66945.63435,15.37392,15.37392,0,0,0-.46749,2.917,11.96566,11.96566,0,0,0-.07444,3.40424,18.1701,18.1701,0,0,0,.42577,2.50928,9.53108,9.53108,0,0,0,.48464,2.65431c0.69764,1.39245,1.54529,2.828,2.28884,4.21986a12.14679,12.14679,0,0,0,3.80716,4.30776,13.73691,13.73691,0,0,0,5.25439,1.16767c2.09475,0.1427,3.19155-1.25949,4.916-1.95232,1.96868-.791,3.40457-0.14917,2.71778,2.22621a2.14978,2.14978,0,0,1-1.75172,1.75433,8.54093,8.54093,0,0,1-2.51552.54954,0.67633,0.67633,0,0,1,.30124.67434l-1.71353-.53386c0.34689,0.85882-1.01954.68363-1.7578,0.87017-0.97993.2476-.118-0.23615-0.74143,0.06191-0.33442.15988-.84457,0.9594-1.15148,1.06324a5.11661,5.11661,0,0,0-1.26161-.152c-0.71365.07769-1.61475,0.39808-2.33035,0.54153-1.26352.2533-2.56719,0.8304-3.86985,0.6024-1.10049-.19262-1.86811-0.55157-3.0044-0.70611a7.82971,7.82971,0,0,1-2.901-1.32144,4.3824,4.3824,0,0,1-1.57362-1.666c-0.33221-.46176-1.05872-1.4052-1.6231-1.18947C196.04983,41.04208,196.90171,41.384,196.45317,41.5555Zm6.111-7.33423c-0.71888-.10978-1.23252-2.008-1.44111-2.60373a9.01787,9.01787,0,0,1-.242-1.66945c0.119,0.91753-.33564-1.8452-0.13634-1.09381a11.72259,11.72259,0,0,1-.59424-3.03377c-0.00673-.60523.159-1.132,0.16676-1.729a14.73441,14.73441,0,0,1-.24641-1.52859,16.30366,16.30366,0,0,1,.59062-2.275,29.397,29.397,0,0,1,1.14948-3.46708c0.93457-1.9797,2.64665-3.45244,3.64378-5.4406a19.77889,19.77889,0,0,0-5.73239,3.93185c-1.2143,1.21774-2.21723,1.94362-3.453,3.40868-2.22116,2.63339-3.44375,8.16626-2.77708,11.59216a27.959,27.959,0,0,0,1.40252,5.35944c0.78494,1.94722,2.49208,3.21137,4.0589,4.44871,0.81917,0.64691,1.52817,1.43859,2.34477,2.10064a2.95375,2.95375,0,0,0,2.10362.887c1.13452,0.16211,2.3561.11348,3.4847,0.26934,0.99591,0.13754,1.56948.78927,2.52078,0.02619a3.06479,3.06479,0,0,0-1.41517-.79538,4.25946,4.25946,0,0,1-1.11545-.92031c-0.37241-.367-1.30853-0.50462-1.554-0.80352-0.35758-.43549-0.087-1.40339-0.43606-1.87876-0.1975-.269-0.78573-0.38408-1.06874-0.6897a3.23856,3.23856,0,0,1-.564-1.14607,4.80137,4.80137,0,0,1-.69-2.94918C201.90907,34.12124,202.446,34.90455,202.56413,34.22127Z"/><path class="cls-3" d="M55.36807,34.9291c-1.11607,2.46765-1.8221,5.47917-3.69062,7.47025a9.48916,9.48916,0,0,1-2.59959,1.98706,1.18392,1.18392,0,0,1-.946.03475l-0.13371.49628c-0.46284.22182-.84091,0.35685-1.31159,0.594a14.0543,14.0543,0,0,1-3.00334,1.49267,8.1104,8.1104,0,0,1-2.99445-.23422c-1.14915-.157-2.401.39274-3.49985,0.21776-0.50981-.08118-2.366-1.75378-2.94363-1.02842-0.23595-.8919-1.79144-2.49974-2.646-3.29177a7.38813,7.38813,0,0,1-1.78948-1.8816,16.9695,16.9695,0,0,1-1.9726-3.95025c-0.39174-1.50371-1.17966-3.1731-1.05348-4.76343a14.39364,14.39364,0,0,1,2.45511-6.51767c0.32536-.523.89487-0.88058,1.20543-1.39375,0.43943-.7261.3812-1.58486,1.03408-2.21165a6.739,6.739,0,0,1,1.29727-.66607,11.56091,11.56091,0,0,0,1.648-1.25782c1.15858-.96772,2.22278-1.12687,3.51109-1.74716a5.10785,5.10785,0,0,1,2.27211-.91238,12.40434,12.40434,0,0,1,2.82869.32425,20.82513,20.82513,0,0,1,7.363,3.06215c0.98088,0.602,1.05082.09985,1.63216,1.36248a10.0301,10.0301,0,0,0,1.1284,2.22057A12.808,12.808,0,0,1,54.73972,28.356,16.55193,16.55193,0,0,1,55.886,31.709c0.11528,1.31253-.62488,1.95124-0.51793,3.2201C54.96813,35.81337,55.3251,34.41924,55.36807,34.9291Zm-4.012,4.156c-0.08365-1.35979,1.13941-1.83729,1.5757-3.09162a12.91779,12.91779,0,0,0,.70036-4.32174c-0.05194-3.05151-1.5136-7.18165-4.15273-8.87243a9.76266,9.76266,0,0,0-1.91819-1.08606,6.20961,6.20961,0,0,1-1.50574-.3166,4.39811,4.39811,0,0,0-.85731-0.90293,15.19107,15.19107,0,0,0-2.94367-.49493,11.4695,11.4695,0,0,0-3.77858-.05815c-0.75791.13875-3.52711,1.24694-3.6078,1.99624-0.0805.74746,1.1714,1.37006,0.08482,2.40735-0.64406.61484-2.19754,0.28151-2.98734,0.97288a8.51912,8.51912,0,0,0-1.48319,1.97334,9.84369,9.84369,0,0,0-1.12262,2.93147,7.76678,7.76678,0,0,0-.032,3.50288,27.75611,27.75611,0,0,0,.6737,3.15774,6.77233,6.77233,0,0,0,1.0344,1.07831,23.82409,23.82409,0,0,0,1.30341,2.18156,20.70555,20.70555,0,0,0,3.38227,2.956,7.008,7.008,0,0,0,3.512,1.19608c0.79393-.025,1.617-0.02943,2.40038-0.072a12.68991,12.68991,0,0,0,1.83921-.3819c1.05227-.19147,1.658.069,2.6652-0.47685,0.74226-.40222,1.407-0.977,2.11106-1.439A8.11765,8.11765,0,0,0,50.0806,40.7518c0.50667-.64371.16523-1.54057,1.27543-1.66672C51.33507,38.74428,50.56144,39.17537,51.356,39.08508Z"/><path class="cls-3" d="M223.30507,17.0401c0.2976,0.74941.65971,0.33352,1.128,0.56716a1.51,1.51,0,0,1,.84813.07942l0.12056,0.40156a1.37554,1.37554,0,0,0,2.03167-.76177c0.4608-.88709.2317-1.5948,0.84351-2.44352,0.68786-.95423,1.60667-2.369,2.75619-1.43372,1.75682,1.42943-.9327,4.34174.41618,5.275,0.31914,0.22081,1.03645-.17513,1.37914-0.12393a8.54565,8.54565,0,0,1,.84118.4238c0.96244-.031,2.05631-0.92439,2.68732-0.73263,1.22971,0.3737,1.2635,2.02195.78438,2.98258a0.6185,0.6185,0,0,1-.48494.11931q-0.44828-.10532-0.24417.50935a1.8329,1.8329,0,0,1-.627.47064c-0.78393.30619-1.57734-.35739-2.19743-0.29287a4.54565,4.54565,0,0,0-1.94483,1.23821c-0.52336.486-.5121-0.03224-0.6347,0.6778a4.68413,4.68413,0,0,0,.43837,1.71c0.6676,1.306.72088,0.99417,0.37736,2.36718q0.60969,0.41166-.00648.75275a0.402,0.402,0,0,1-.43648.50532,1.91913,1.91913,0,0,1-1.826.339c-0.93395-.59279-0.95112-3.0279-1.0657-3.94429-0.81886.42576-1.78952,0.83991-2.54972,1.29637a3.02764,3.02764,0,0,0-.813.76009c-0.08918.12035,0.2784,0.62073-.01171,0.786a1.90922,1.90922,0,0,1-2.263-1.09035c-0.13573-.67179.77791-1.83837,1.10648-2.31117,0.52042-.74887,1.564-1.94519,1.48374-2.909-0.09967-1.19674-1.16754-1.24825-2.10661-1.58214-2.29205-.815-3.33168-3.63615-0.03032-3.63615C223.71222,18.06537,223.06374,17.0401,223.30507,17.0401Z"/><path class="cls-3" d="M21.99639,18.55955l-0.14059.61875,0.62181-.3372c0.65677,1.16046,1.62261.37259,2.655,0.72939,1.06123,0.36675,1.35011,1.313,1.777,2.27026-1.3609-.133-1.89221,2.59692-3.36322,1.27-0.19675-.17748-0.40828-0.9927-0.66194-1.28383a5.68073,5.68073,0,0,0-1.17954-.84043c-0.84349-.58366-1.726-1.08579-2.56439-1.66814-1.62022-1.12541-3.05928-2.71343-4.77394-3.69143-0.6357-.36259-1.43839-0.4721-2.07636-0.87766-0.19017-.12089-0.60607-0.61012-0.78016-0.681a2.71532,2.71532,0,0,1-.775.156c-1.13843-.83593-0.26435-2.05044.586-2.57394,0.75189-.46291.884-0.54815,1.4674-0.1473,0.41568,0.28559,1.02545,1.07731,1.62374,1.46218a34.1789,34.1789,0,0,1,3.67959,2.71667c1.06272,0.9088,2.5145,2.87777,3.90464,2.87777C21.94356,18.79206,21.70635,18.55955,21.99639,18.55955Z"/><path class="cls-3" d="M40.99929,49.50031c0.87283-.11635,1.3695-0.39332,1.77054.38318,0.35534,0.688-.313,1.67345-0.56973,2.246-0.65993,1.47167-1.11426,2.95382-1.67462,4.4569a25.89684,25.89684,0,0,0-1.23671,5.72142,20.47385,20.47385,0,0,0-.31647,3.223,3.14214,3.14214,0,0,1-.43441,2.14371c-0.41041.82915-.37587,1.58163-1.62028,1.50441-0.92021-.0571-1.31263-0.2781-1.339-1.25009-0.02688-.99009.74361-1.79027,1.16893-2.58671a8.86483,8.86483,0,0,0,.6826-3.17313,31.57471,31.57471,0,0,1,1.629-6.73561c0.75555-2.083.65787-4.08583,1.94014-5.93305C41.41972,49.44427,40.85747,49.70461,40.99929,49.50031Z"/><path class="cls-3" d="M60.00426,41.61691c0.57665-.06945.46791,0.451,0.88776,0.83839a6.24512,6.24512,0,0,0,1.76677.82893c1.36857,0.64759,2.60978,1.93507,4.0021,2.68488,0.7912,0.42608,3.02354.78116,2.92445,2.0988-0.04383.58284-.99242,0.95826-1.47518,1.11387-1.17055.37732-1.29727,0.07635-2.0795-.7239-0.75585-.77327-1.707-0.86045-2.54581-1.59981a14.14673,14.14673,0,0,0-3.21073-2.369c-1.26086-.64249-4.11119-1.24022-3.8339-3.13949a2.0459,2.0459,0,0,1,1.447-1.42891c1.01451-.11936,1.55946,1.01407,2.117,1.69624C60.17757,41.596,59.54256,41.05206,60.00426,41.61691Z"/><path class="cls-3" d="M19.92677,59.75266c-0.18947.85323-1.48786,2.05472-2.3335,1.36475-0.94756-.77313.04885-2.90975,1.00856-2.90975-0.16391-.43842,2.11859-2.0742,2.57108-2.51795a40.9518,40.9518,0,0,0,2.71817-3.14438c0.40277-.47993,1.01252-0.72363,1.41711-1.17823,0.60227-.67673.91463-1.55879,1.55878-2.23518,0.628-.65941,2.23639-2.86646,3.19754-2.2543a1.88645,1.88645,0,0,1,.33267,2.09913c-0.34916.6521-.46518,0.40548-1.09349,0.8217a14.40329,14.40329,0,0,0-3.41116,3.02673,28.5156,28.5156,0,0,1-2.66486,2.77105,36.71592,36.71592,0,0,0-3.30089,4.15642C19.726,60.65673,20.09725,59.53668,19.92677,59.75266Z"/><path class="cls-3" d="M9.90965,41.49035c3.37859,0,6.86719-1.473,9.85405-2.95882,0.98138-.48818,2.65986-2.65309,3.97864-2.00575,1.33193,0.65379.57268,2.36549-.39638,2.65458-0.72339.21581-1.55293,0.1446-2.32709,0.41815-0.85792.30315-1.68056,0.67724-2.54833,0.95708a36.69964,36.69964,0,0,0-5.30672,1.98881c-0.77479.39578-2.67474,2.04242-3.65068,1.6403-1.02389-.42187-1.13123-2.89495.3965-2.69436C10.5576,41.49035,9.04973,41.37745,9.90965,41.49035Z"/><path class="cls-3" d="M50.68756,16.63795c0.6496-2.7499,3.41618-4.65754,4.779-7.27326,0.53073-1.01867,3.38283-7.4844,4.64055-4.36752,0.38976,0.9659-.43284,2.02489-1.16448,2.60005-0.5611.44109-.97525,0.21695-1.40891,0.96794-0.42586.73748-.332,1.44767-0.93019,2.1527a15.39877,15.39877,0,0,0-2.57425,3.65943c-0.61506,1.35756-1.96689,4.47189-3.34168,2.26066C50.84886,15.95514,50.83,16.86709,50.68756,16.63795Z"/><path class="cls-3" d="M34.88915,2.42543a27.90426,27.90426,0,0,0,.02754,4.24471,27.70717,27.70717,0,0,0,1.2653,4.43435c0.28385,0.87775,1.06817,3.17011.45224,3.9858-1.15076,1.524-1.9289-1.0438-2.03775-1.80351a9.96564,9.96564,0,0,0-.1595-2.05161c-0.14759-.40066-0.47558-0.69369-0.63878-1.08114-0.06984-.16582-0.23728-0.91209-0.29782-1.14908-0.1939-.759-0.42334-1.50964-0.61121-2.27181-0.22459-.91116-1.20976-2.84085-0.70842-3.685,0.825-1.38907,2.0275.41333,2.7084-.6227C34.88915,3.02317,34.48461,3.041,34.88915,2.42543Z"/><path class="cls-3" d="M64.50417,37.6633c-0.56217-.31585-4.33074-0.16686-4.02971-0.69291-1.55685.41282-.42386-1.18038-0.07611-1.64295,0.88789-1.181,1.36621-.79536,2.81684-0.43537a14.66866,14.66866,0,0,0,2.76585.6093,10.43657,10.43657,0,0,1,1.47747-.106,10.26362,10.26362,0,0,0,1.18357.41716c-0.0809,1.0795.19589,2.00444-1.01159,2.24564a13.17972,13.17972,0,0,1-3.12633-.39485C64.01046,37.38592,65.29857,37.75084,64.50417,37.6633Z"/><path class="cls-3" d="M28.62719,11.33081c0.73619-.09218.837,2.07774,1.22486,2.74124,0.43708,0.74769,1.61567,1.34849,1.77555,2.10082a1.63313,1.63313,0,0,1-2.97053,1.21574,20.59483,20.59483,0,0,1-.95822-2.43394c-0.4055-.80918-1.2009-1.40746-1.55923-2.21366-0.9755-2.1948,2.84568-2.523,2.48757-1.41021C28.85427,11.30237,28.82783,10.70734,28.62719,11.33081Z"/><path class="cls-3" d="M96.96716,7.06922A0.45827,0.45827,0,0,0,96.227,7.205q-0.04024.79-.846,0.32317c-0.8894.18342-1.6684,0.31615-2.56288,0.56983-1.62314.46033-2.3646-.02025-3.48769-1.03977,1.48042-1.39971,3.16659-1.6271,5.0501-1.97525,1.71738-.31744,4.15788-0.58762,2.58662,1.98624C96.35411,6.72887,97.1452,6.77759,96.96716,7.06922Z"/><path class="cls-3" d="M25.08916,31.02973c-0.54269,1.6995-2.26334,1.80124-3.96012,1.837-1.25766.02648-3.511,0.0067-2.909-2.11636,0.581-2.04892,2.57054-.804,3.79876-0.55573,0.69891,0.1413,1.69478-.37808,2.242-0.23268,0.50061,0.133.5227,0.95931,0.82841,1.06781C24.97828,31.377,25.05411,31.01729,25.08916,31.02973Z"/><path class="cls-3" d="M35.49961,51.74283c0.25638,1.17667-.53859,2.919-1.95618,2.58913-1.73691-.4042-0.4518-2.3657-0.18554-3.434,0.24941-1.00067.59325-2.739,1.80626-3.14306,2.42677-.80845.73057,3.13576,0.33546,3.98789C35.68281,52.58362,35.7312,51.24336,35.49961,51.74283Z"/><path class="cls-3" d="M155.81963,10.30836a4.53343,4.53343,0,0,1,4.15833.38951c0.9299,0.469,2.90463,1.24391,1.487,2.25237-0.747.53139-3.01089,0.19931-3.846,0.02871a2.37066,2.37066,0,0,1-1.79932-2.67059C156.19685,10.15157,155.72913,11.09629,155.81963,10.30836Z"/><path class="cls-3" d="M22.62483,43.747l-0.21077-.36108c1.43763-.26555,2.1693-1.72778,3.57153-1.89693,1.97132-.23779,1.54957,1.821.31638,2.61624a14.97956,14.97956,0,0,0-1.73795.77152c-0.52186.43308-.5232,0.91261-1.29657,1.09891-1.7687.42607-2.36193-1.77276-.64263-2.22866C22.58076,43.67147,22.33879,43.82281,22.62483,43.747Z"/><path class="cls-3" d="M80.5117,11.32058c-0.76843.72137-2.53005-.03405-3.54054-0.25127,0.84986-.36893.31477-0.53334,0.80011-1.02913A2.46268,2.46268,0,0,1,79.01456,9.279c0.95463-.397,3.26848-1.42425,4.28114-0.706,1.4987,1.06294-.40732,1.80917-1.21063,2.3166-0.60215.38036-.9227,1.0305-1.57336,0.43105C80.33423,11.48719,80.67918,11.47488,80.5117,11.32058Z"/><path class="cls-3" d="M104.70115,3.90489a5.749,5.749,0,0,1,1.85967-.21719c0.42468,0.135.47159,0.50992,0.8808,0.67,0.59695,0.23354,4.41283.63157,2.95731,2.02377-0.57893.55374-1.01014,0.05663-1.646-.01541a12.0355,12.0355,0,0,0-2.51.21434c-0.89369.09674-1.60146,0.42517-2.0433-.40268-0.38727-.7256.17962-1.65393,0.50151-2.27284C105.05724,3.86037,104.53053,4.233,104.70115,3.90489Z"/><path class="cls-3" d="M44.59808,10.95839c-0.82865-1.13631.61506-2.64666,1.61193-1.548a3.09352,3.09352,0,0,1,.47037,2.08437q-0.10005.76056-.21242,1.5194a0.66163,0.66163,0,0,1,.336.71461c-0.23958,1.32431-1.37807,2.16747-2.427,1.08821-1.0647-1.09553-.1699-2.65657.22109-3.85861C44.0957,10.26949,44.40785,11.54321,44.59808,10.95839Z"/><path class="cls-3" d="M47.76223,53.71364c-2.3031-.51433-3.5715-6.33453-0.40386-5.62295a1.65281,1.65281,0,0,1,.87091,1.307,6.41922,6.41922,0,0,1-.17593.6869,0.31784,0.31784,0,0,0,.38009.3922c0.45376,1.54526,1.09922,2.30825-.67121,3.23689C47.22683,53.59408,48.11972,53.52613,47.76223,53.71364Z"/><path class="cls-3" d="M70.62543,15.214c-0.77722-.10879-0.912.94516-1.37858,1.0765a13.34237,13.34237,0,0,1-2.37312-.39769,6.792,6.792,0,0,1,.50538-2.59411c0.49334-.59489,3.81552-1.0883,4.36918-0.62862,1.10733,0.91937-.44976,2.03225-1.12286,2.54392C70.28039,15.16566,71.206,14.77263,70.62543,15.214Z"/><path class="cls-3" d="M177.88808,19.27326c1.114-.1254,1.13785,2.28521.30063,2.66291-0.58893.26568-2.43-.513-2.90485-0.733-1.05336-.4881-1.73638-1.96833-0.86-2.90282,1.25319-1.33625,2.55553.20989,3.46419,0.9729C178.2531,19.23217,177.20571,18.70027,177.88808,19.27326Z"/><path class="cls-3" d="M54.69806,48.48466c-0.11791,1.13475-.51024,1.38055-1.60656,1.4575-1.62628.11414-1.85147-.6756-2.07452-2.07923-0.15915-1.00153-.38616-2.43372,1.10751-2.46295,1.37027-.02681,2.05155,2.09894,2.57358,3.08467C54.577,49.64983,54.52446,48.15686,54.69806,48.48466Z"/><path class="cls-3" d="M63.23554,27.57333c0.889,0.14731,2.91978.93324,1.71647,2.10075-0.507.49189-3.16378,0.64786-3.93271,0.79795-1.1323.221-2.28416-.09518-1.34659-1.5445,0.66362-1.02586,2.48774-1.15815,3.56284-1.3542C63.96967,27.695,63.08584,27.60063,63.23554,27.57333Z"/><path class="cls-3" d="M118.53734,6.04682c-0.291-.899-0.425-2.53232.8036-2.84495a10.76033,10.76033,0,0,1,4.25414,1.10406c1.70917,1.77686-4.13491,2.07609-5.05774,1.74089C118.4308,5.71773,118.74852,6.12353,118.53734,6.04682Z"/><path class="cls-3" d="M144.43411,7.257a7.9654,7.9654,0,0,1,2.30057-.25794,2.91987,2.91987,0,0,1,1.13266.374c1.00527,0.41764,1.4737,1.01483.646,2.05741a2.644,2.644,0,0,1-2.6943.61446c-1.28345-.40862-1.51821-1.51578-1.38492-2.78792C145.086,7.14042,144.39531,7.62719,144.43411,7.257Z"/><path class="cls-3" d="M60.49772,17.06263c0.57727-.49765,1.0312.9201,1.00429,1.24435-0.06961.83876-.23539,0.55011-0.87706,1.02375-0.5777.42642-1.14467,1.47841-1.75668,1.62807a1.56071,1.56071,0,0,1-1.63615-1.44805,3.78532,3.78532,0,0,1,.6628-1.641c0.6026-.79679,1.73-1.41629,2.60279-0.80716C60.7164,16.87411,60.28139,16.91165,60.49772,17.06263Z"/><path class="cls-3" d="M133.08078,4.85477c0.94354,0.05451,2.96667-.04929,3.65888.73477,0.90908,1.02969-.21355,1.61067-1.17337,1.82282a5.85441,5.85441,0,0,1-3.10562-.24154c-0.6417-.2858-0.85656-0.139-0.47906-1.09861a2.79777,2.79777,0,0,1,1.09917-1.21745C134.35922,4.92864,132.1944,5.44424,133.08078,4.85477Z"/><path class="cls-3" d="M185.5795,22.41579c1.99753,0.42352-.5716,4.60463-2.13527,3.61156-0.48617-.30876-0.63439-2.2013-0.56021-2.74473,0.19853-1.4544,1.34259-1.26364,2.66257-1.40657l0.03291,0.53974C186.24916,22.55777,185.568,22.22713,185.5795,22.41579Z"/><path class="cls-3" d="M166.75186,15.48361a1.50012,1.50012,0,0,0,.12314-0.9886,0.43,0.43,0,0,1,.21667-0.55653,10.26891,10.26891,0,0,1,1.52667-.61029,0.42574,0.42574,0,0,1,.44582.16839l0.10086,0.14108a0.42823,0.42823,0,0,0,.34836.17918h0a0.42814,0.42814,0,0,1,.42328.48748c-0.11915.88289,0.97231,1.99473-.31112,2.61562-1.16552.56385-2.19334-.79377-2.87369-1.43633C167.03358,14.53966,167.20226,15.909,166.75186,15.48361Z"/><path class="cls-3" d="M97.07119,98.3452c0.00607,0.27044.75878,0.13908,0,0a6.86535,6.86535,0,0,1,.01028,1.64669,20.84292,20.84292,0,0,0-.30775,5.6507c0.30732,1.32356.06762,2.81455,1.027,3.91252a5.97543,5.97543,0,0,0,2.32737,1.28563c0.998,0.41057,4.01674.22452,3.13734,1.92007a2.28514,2.28514,0,0,1-1.22363,1.37288,6.923,6.923,0,0,1-2.45461-.386c-0.85078-.24827-1.6278-0.53533-2.45374-0.8443-1.08842-.40716-2.09645-0.59061-3.0889-0.95673a12.16524,12.16524,0,0,0-2.10569-.80264,13.58875,13.58875,0,0,1-2.71952-.57734c-0.901-.35264-3.61061-1.36964-3.12724-2.73644,0.48369-1.36769,1.3001-1.08412,2.35843-.64212,1.05811,0.44191,1.65434.71311,1.86161-.35846a8.769,8.769,0,0,0,.23641-2.6628c-0.08715-.82761-0.03484-7.47279.03078-8.25122,0.1344-1.59424.29984-3.20641,0.38754-4.80377,0.04348-.7918-0.12545-1.59938-0.10573-2.37147,0.00341-.13356.2451-0.90293,0.34828-1.34446q0.32884-.42341-0.32245-0.46481a1.54755,1.54755,0,0,1,.39052-0.83873,1.90455,1.90455,0,0,0-.36909-2.111,4.95134,4.95134,0,0,0-1.27952-1.38882c-0.30038-.29238-0.3646-0.70217-0.6624-0.9312-0.79825-.61388-3.55186-0.67307-2.43128-2.3017,0.67-.97372,2.65327-0.529,3.67814-0.36835a25.28859,25.28859,0,0,1,4.60821,1.278,50.67652,50.67652,0,0,0,7.46656,2.24227,16.37323,16.37323,0,0,1,6.75327,2.46982,9.56015,9.56015,0,0,1,2.73431,3.042c2.554,4.73375-.141,10.79473-5.43936,11.51506a17.36074,17.36074,0,0,1-3.98264-.00312,12.48807,12.48807,0,0,1-3.4523-.43706A9.2662,9.2662,0,0,0,97.07119,98.3452Zm9.68163-4.63723c0.46321-1.09589-.047-3.31416-0.3961-4.46067-0.34932-1.14714-1.52123-1.8071-2.51733-2.62854a6.44785,6.44785,0,0,0-2.577-1.099c-0.69976-.25638-2.67645-0.64226-3.35545-0.9422-0.21628.32243,0.05661,0.57585-.04786,1.3413-0.10443.76517,0.04414,1.65982-.00007,2.47968-0.08328,1.54439-.2288,4.26565-0.19982,5.91287,0.02762,1.57,2.07607,2.19953,3.453,2.51462a3.554,3.554,0,0,0,1.33031.16959c1.62649-.36433,2.073-0.3891,2.919-1.11572A4.34636,4.34636,0,0,0,106.75282,93.708ZM93.62816,86.93889c-0.42693,1.10712-.99431,10.88609-0.544,10.92938,1.02088,0.09815.81745-4.89639,0.799-5.5575-0.03355-1.20239.631-4.75239-.255-5.37188C93.51182,87.24058,94.0655,87.24466,93.62816,86.93889Zm-0.86365,18.0092c0.50375,0.0329.84162-2.3865,0.92956-2.97884,0.04706-.317.306-3.65246-0.428-2.91426-0.5892.59257-.05086,1.98345-0.16954,2.77115a16.54348,16.54348,0,0,0-.332,3.122C92.83737,104.95284,92.75576,104.57576,92.76451,104.94808Zm17.03924-12.80215c0.46617,0.079.7122-2.07908,0.40809-2.41625-1.21594-1.34808-.43082,2.15776-0.40809,2.41625C109.90843,92.16368,109.76816,91.74132,109.80375,92.14594Zm-13.89334-3c-0.32278,1.36817-.32278,1.36817-0.074,1.67693C96.555,90.32089,95.98829,89.70593,95.91041,89.14595ZM93.97025,84.5756c-0.16149-.03143-0.47449,1.38946.033,1.42941l-0.033-1.42941C93.9208,84.566,93.98126,85.05218,93.97025,84.5756Z"/><path class="cls-3" d="M108.26547,113.35191a2.679,2.679,0,0,1-.0564-2.7951,3.68887,3.68887,0,0,1,3.31035-1.10655c1.32144,0.14263,2.18537,1.72795,3.09559,3.14678a2.70206,2.70206,0,0,1,.22191,2.78041,2.45271,2.45271,0,0,1-2.3776,1.24006,3.681,3.681,0,0,1-2.90252-1.19051A3.80464,3.80464,0,0,1,108.26547,113.35191Z"/><path class="cls-3" d="M131.205,60.65971c0.80127-.39762.89469-0.83645,1.66636-0.87359,0.50111-.02412.50395,0.50973,0.75969,0.56274,0.32841,0.06808.75278-.19528,1.12768-0.12354,0.841,0.16094,1.47034.93611,2.28221,1.23411,0.64813,0.2379,1.67874.20132,1.95783,0.93177,0.92943,2.43255-2.61323.77793-3.23826,0.59135a22.12942,22.12942,0,0,1-4.5555-2.32285C131.54583,60.49058,131.75407,60.97506,131.205,60.65971Z"/><path class="cls-3" d="M124.56058,46.41745c1.73387,0.40823,2.96709.04168,4.63476,0.52024,0.54443,0.15623,3.46535,1.1044,2.69912,2.25579-0.32764.49233-2.48644,0.07972-2.90474-.13248a2.69693,2.69693,0,0,1-.84594-0.71473,0.708,0.708,0,0,0-.71462-0.09571c-0.42747-.3115-0.65389-0.76968-1.07-1.0448-0.40869-.27018-1.959-0.203-1.79854-0.78832C125.1043,46.54546,124.53964,46.49386,124.56058,46.41745Z"/><path class="cls-3" d="M133.91265,49.98586l-1.24008-.35519c0.17691-.55991,1.10777-0.00459,1.24008.35519C133.46621,49.858,133.656,49.2879,133.91265,49.98586Z"/></g></svg>