<svg id="Quality-3_Veg" xmlns="http://www.w3.org/2000/svg" viewBox="0 0 62 56"><defs><style>.cls-1{fill:none;}.cls-2{fill:#ff4338;}</style></defs><title>Quality-</title><rect class="cls-1" width="62" height="56"/><path class="cls-2" d="M50.44019,16.80555a15.35862,15.35862,0,0,1-5.09411,4.17206c-4.17966,2.10639-8.18283,1.66-10.83768,4.31161-0.92966.92857-2.01842,1.92394-2.01842,2.92093,0,0.99754,1.27394,1.8642,3.25,2.49737,4.001,1.28154,10.40761,2.83024,10.40761,8.6531,0,4.61082-3.464,6.31321-9.25042,9.32265-2.5571,1.32987-4.28609,4.40013-5.17991,6.37783a0.78546,0.78546,0,0,1-1.43359,0c-0.89382-1.9777-2.6228-5.048-5.17991-6.37783-5.78647-3.00944-9.25151-4.71183-9.25151-9.32265,0-5.82285,6.40769-7.37156,10.40869-8.6531,1.96521-.62991,3.24186-1.533,3.24186-2.48217s-1.08876-2.00485-2.02331-2.94048c-2.65159-2.65431-6.65531-2.21282-10.83334-4.32356a15.36134,15.36134,0,0,1-5.08868-4.178c-0.95138-1.48083-1.59486-3.19679,1.38688-4.19867,2.14386-.71951,6.81658.22047,9.56592,1.97227,2.02222,1.28859,4.89265,3.62958,6.90184,9.46112,0.17268,0.49252.78141,0.21232,0.78032-.21178,0-3.97874-.71082-6.967-1.85931-8.9105a12.15773,12.15773,0,0,1-1.90493-5.6909c0-4.24048,2.15689-8.73021,4.59019-8.73021,2.66625,0,4.683,5.05068,4.683,8.73021a11.00606,11.00606,0,0,1-1.71487,5.99988c-1.79306,3.23263-1.75288,5.31079-1.88321,8.0612a0.35291,0.35291,0,0,0,.68258.15693c2.00159-5.39713,4.74929-7.61375,6.70364-8.85619,2.75151-1.74854,7.42532-2.68363,9.56809-1.96141,2.9812,1.00514,2.33555,2.72055,1.38254,4.2003"/></svg>