<svg id="Quality-2_Sea" xmlns="http://www.w3.org/2000/svg" viewBox="0 0 62 56"><defs><style>.cls-1{fill:none;}.cls-2{fill:#ff4338;}</style></defs><title>Quality-</title><rect class="cls-1" width="62" height="56"/><path class="cls-2" d="M61.79551,28.73328C61.586,25.81633,53.91862,19.247,45.17375,17.99993c-2.40615-2.80571-6.71594-6.02455-8.92964-6.68117-3.057-.90677-3.39119-0.18038-3.074,1.03608,1.01856,1.09556,2.03187,4.04438,2.698,6.30172-7.18016,1.81893-12.84631,5.84651-19.79877,5.84651-8.72249,0-11.68822-6.09186-15.0159-6.09186a0.87477,0.87477,0,0,0-.85089,1.018c0,1.67947,5.24364,7.84469,5.37426,9.36781C5.44616,30.32012.20251,36.486,0.20251,38.16542a0.87475,0.87475,0,0,0,.85089,1.018c3.32768,0,6.29341-6.09245,15.0159-6.09245,6.793,0,12.36026,3.843,19.30978,5.716a65.67219,65.67219,0,0,1-1.81712,6.6042c-0.283.78772-.53961,3.14786,1.986,1.80991a20.56434,20.56434,0,0,0,7.60035-7.44358C52.69817,39.374,61.57014,32.002,61.79551,28.86137c0,0,.00245-0.04451.00189-0.06433C61.798,28.77718,61.79551,28.73328,61.79551,28.73328ZM53.19768,27.977a1.29937,1.29937,0,1,1,1.27107-1.2993A1.28543,1.28543,0,0,1,53.19768,27.977Z"/></svg>