<svg id="HIW-2_Preportioned" xmlns="http://www.w3.org/2000/svg" viewBox="0 0 244 136"><defs><style>.cls-1{fill:none;}.cls-2{fill:#ffaa96;}.cls-3{fill:#ff564d;}</style></defs><title>Illustrated-Icons_All-Icons</title><rect class="cls-1" width="244" height="136"/><g id="nANy8S.tif"><path class="cls-2" d="M100.98715,115.909c0.15272,0.80457,3.68994.75329,4.46186,0.86858,2.13067,0.31823,4.23928.48125,6.3548,0.5873,3.62909,0.18193,7.54445.98923,11.26976,1.3776a5.48767,5.48767,0,0,0,1.97674,5.60836c-1.799.23957-3.5452,0.70835-5.31769,1.02427-0.9938.17713-1.94854,0.575-2.95393,0.69117-0.86118.09946-2.33478-.482-2.7513,0.58545-0.43467-.783-1.97922-0.0888-2.74739.02627-1.8519.27741-3.73964,0.20155-5.5892,0.50272-1.625.26461-3.17127,0.68986-4.75195,1.04449-1.26231.2832-2.73914,0.0626-4.03386,0.36429a71.21591,71.21591,0,0,1-8.36445,1.67373c-1.43708.15447-2.85861,0.22427-4.3007,0.35852-1.70452.15868-3.3789,0.83512-5.07843,1.07879-1.5108.21662-3.03333,0.19943-4.52644,0.35338a12.639,12.639,0,0,0-1.58111.44562c-0.94339.22778-1.50748-.13331-2.37522-0.0328a1.534,1.534,0,0,1-.58794.535,7.06919,7.06919,0,0,1-.77888-0.17638,7.86764,7.86764,0,0,1-2.06587-.12893c-1.20836-.39022-1.71281-1.71223-2.84476-2.18066a3.45526,3.45526,0,0,1-1.56605-.5836,7.43447,7.43447,0,0,1-1.02433-1.66561,6.85956,6.85956,0,0,1-.529-3.56007,22.02118,22.02118,0,0,1-.12278-2.35624,10.2959,10.2959,0,0,1,.85375-2.2224c0.09626-.29553-0.18992-0.63788-0.08745-0.91741a5.86193,5.86193,0,0,1,1.21453-1.89759c0.47618-.45974,1.58132-0.58256,1.89424-1.0679a1.80227,1.80227,0,0,0-.712-1.97c-0.83818-.59926-2.60694,1.70379-3.27219,2.58458-1.03539,1.37084-1.04355,3.22234-1.99958,4.61315-1.05851,1.53988-1.97849.52213-2.52054-.9578-1.63349,1.11244-1.52588,1.69336-2.80039-.215a1.09453,1.09453,0,0,1-1.63774.50871c-1.07688-.56908-0.2561-1.42932-0.8337-2.09731-0.74511-.86172-1.64962,3.75166-2.03059,4.38017-0.45038.743-.69146,1.042-1.41133,0.36018a2.49757,2.49757,0,0,1-.60312-1.75159c-0.0356-1.12824.604-2.21862,0.19582-3.30052-0.13728-.3639-0.53131-0.56741-0.68345-0.97223a8.16493,8.16493,0,0,1-.113-1.42662,1.373,1.373,0,0,1-1.53837.30739c-0.21242.95518-.184,2.29131-0.72815,3.13223-0.64338.99423-1.20951,0.36136-1.99363,0.81391-0.43693.25217-.23962,1.09065-1.17714,1.11837-0.632.01869-.46425-0.18327-0.95333-0.50075-0.357-.23174-1.321-1.28279-1.79155-1.05345-0.61234.29842-.18436,2.26452-1.7131,1.52039-1.424-.69314-0.04532-2.60183-0.75581-3.59863a4.39721,4.39721,0,0,0-1.75605-.81925,2.50572,2.50572,0,0,0-.83614-0.587c-0.658-.04436-0.106.1735-0.683,0.37137-1.14214.39164-3.00977,0.74959-3.44328-.96521-0.18729-.74085.6467-1.96089,0.05839-2.6827-0.7854-.96363-0.571.2538-1.32391,0.50072-2.20609.72356-1.77119-2.385-1.87794-3.455-1.04154,1.0996-1.8265,1.51859-2.18444.043a6.025,6.025,0,0,1-.04659-2.57657,5.43009,5.43009,0,0,0,.522-1.62232c-0.78969.09893-1.67881,0.7104-2.32982,0.20829-1.02666-.79183-0.16382-3.95738-0.72027-4.28921a1.83046,1.83046,0,0,1-1.06928.74053c-1.15523.229-.95881-0.30211-1.16848-0.92949a36.31626,36.31626,0,0,1-1.27548-4.81259c-0.187-1.06312-.80269-3.64666.883-3.63447,0.86056,0.00622.80034,0.59968,1.14657,1.08265a1.607,1.607,0,0,0,1.072,1.04981c0.46117-1.684,1.12939-1.78039,2.63121-.65789,0.02727-.25352.3-0.99471,0.29787-1.10416-0.01688-.85458-0.47289-1.52508-0.36079-2.4447,0.10746-.88153.67765-1.6384,0.35766-2.21671-0.06059-.1095-0.76089-0.56033-0.88365-0.6846a1.355,1.355,0,0,1-.12335-0.55728q0.0927-.55659-0.5095-0.32493c-0.12062-.1359-0.45966-0.24117-0.6257-0.39553-0.23191-.2156.09421-0.81714-0.039-0.94818-0.457-.44949-1.52.00247-2.04558-0.605-0.61857-.71492-0.49058-2.4887-0.62518-3.40047-0.168-1.13808-.38325-2.25656-0.60965-3.384l-0.36543.172,0.29294-.76171q0.2729-.39849-0.28339-0.63979l-0.4046-.44149a0.9393,0.9393,0,0,0,.31729-0.76975c-0.01468-.91541-0.34631-1.93206.54177-2.63315,0.913-.72075,2.56341-0.30669,3.389.305a24.367,24.367,0,0,1,2.27576,1.74267c0.65015,0.65294.0849,0.17839,0.44806,0.89295q-0.58523.58217,0.10184,0.70067,0.50824,0.24364,1.01554.48924c1.03314,0.53307,1.99744,1.15175,3.05188,1.64859a4.8539,4.8539,0,0,0,3.14262.75861l0.15192-.43842q1.02505-.19716.76691,0.44116-0.24985.59682,0.68642,0.44431,0.542,0.13869,1.08425.2768a4.62682,4.62682,0,0,0,2.715-.717,9.72508,9.72508,0,0,1,1.46121-.54906,2.07874,2.07874,0,0,1,.86146.24087,1.01045,1.01045,0,0,1,.40223-0.73913c1.14459-.61969,1.61874-0.6515,1.22592-1.9967-0.34488-1.181-1.23335-2.04251-1.57188-3.11732-0.50094-1.59046-.186-0.60583-1.17227-1.63656a6.82037,6.82037,0,0,1-1.09942-2.40594,7.84062,7.84062,0,0,1,1.53795-6.27621c0.23842,1.13848.88937,0.49346,1.61835,0.44453-0.41952,1.50931.46373,1.404,1.42921,2.1894,1.06,0.86232,1.5244,2.15106,2.49422,3.02624,1.012,0.91326.991,0.40868,2.06259,0.17251a1.96582,1.96582,0,0,1,1.43042.19664,2.779,2.779,0,0,1,.82076.794q0.12423,0.8607.73894,0.48131A12.97018,12.97018,0,0,0,50.989,72.0809c1.10855,0.68816,2.65993.58754,3.69539,1.23021,0.64264,0.39886.84444,2.40142,1.78125,1.70417,0.29073-.21638-0.01811-0.68814.155-0.92129,0.20981-.28257.639-0.16231,0.72578-0.50309a2.25983,2.25983,0,0,0-1.52008-2.59237c0.1482-.59082-0.39736-0.92725-0.37143-1.68222,0.03453-1.00555,1.05294-1.927.92488-2.96343-0.16325-1.32119-1.36227-.68585-2.01868-2.15214-0.688-1.53689-.70561-3.53767-1.27838-5.15934a18.80841,18.80841,0,0,1-1.23161-6.13767,8.60294,8.60294,0,0,1,1.017-4.54787A16.76085,16.76085,0,0,0,55.33272,44.03c0.23642-.74409.88584-3.90883,1.75737-4.06869a2.97105,2.97105,0,0,1,1.13778.77908c0.29435,0.47224-.15135.3716,0.05325,0.87235,0.30717,0.75177,1.1238.93943,0.62455,1.91126,1.34073-.22854-0.19889.81673-0.39048,1.29742a2.58883,2.58883,0,0,0-.00894,1.61119c0.18993,1.288.5973,2.25079,0.78515,3.60691A8.0049,8.0049,0,0,0,63.9,55.79c1.31619,0.63669,2.72388,1.29936,3.93543,2.00189,1.249,0.72422,2.43849,1.728,3.66839,2.52477a5.28005,5.28005,0,0,1,2.22243,2.95077c0.19511,0.53641,1.20845,2.46277.69453,2.78967,0.90894,0.32164.5913,1.0286,1,1.91351a9.348,9.348,0,0,0,1.73867,2.60991,13.16215,13.16215,0,0,1,1.37653,1.09507c0.51173,0.63124.75674,1.45373,1.32787,2.08606a23.97453,23.97453,0,0,1,2.74037,4.16225c0.81354,1.37443,1.77475,2.68182,2.45265,4.12176a12.28006,12.28006,0,0,0,.70585,1.695,0.97421,0.97421,0,0,0,.445.60043q0.74246-.04011.33581,0.61271c0.59775,1.04154,1.01453,2.32891,1.61711,3.49558a44.94134,44.94134,0,0,1,2.54577,5.60933c0.529,1.48081.81815,3.44147,1.66858,4.76915,0.49626,0.77476.92638,0.76467,0.90717,1.57888a1.94083,1.94083,0,0,0-.60212.69881,2.92657,2.92657,0,0,0,.07261,1.09929,11.92194,11.92194,0,0,0,1.01057,4.20341,0.56961,0.56961,0,0,1,.61745.32246,2.051,2.051,0,0,1,.03708.6356,4.91528,4.91528,0,0,1,.42536,1.713c-0.028.69152-.58086,1.14968-0.4616,1.84693,0.12829,0.75.971,1.18794,0.63768,2.09035-0.43057,1.16584-3.45237.76054-4.46956,0.48575q-0.85154.33393-.77867-0.46609a0.39659,0.39659,0,0,0-.65657-0.16728,2.60971,2.60971,0,0,0-1.9329-.25426,9.23088,9.23088,0,0,1-2.12224.25315A9.21975,9.21975,0,0,0,83.4455,112.52c-1.14313.10139-1.45558,1.37629-2.38745,2.00277,3.02339,0.972,6.14845.18087,9.281,0.73361a5.39583,5.39583,0,0,0,2.461.07825A11.52031,11.52031,0,0,1,95.994,115.145c1.579,0.15848,3.55755,1.33245,4.9932.76408C101.0867,116.43349,100.29909,116.18144,100.98715,115.909ZM68.2754,114.84576c0.36928,1.06907,2.91662-.35031,3.42546-0.46044,1.12683-.24388,2.3582.3486,3.505,0.31,0.75935-.02558,1.44374-0.26665,2.21836-0.25287a5.91942,5.91942,0,0,0,1.68787.16277c1.24548-.45348.0867-0.92417-0.84106-0.96385-1.32026-.05647-2.59909.09437-3.91276,0.01161a14.25391,14.25391,0,0,1-1.65047-.03482,0.8853,0.8853,0,0,0-1.31009-.003l-0.53219.14651c-1.12915-.02784-1.771-1.74014-3.01216-0.9811a21.877,21.877,0,0,0-2.19876,2.68968c0.18086,0.27262,2.35262-.27267,2.62079-0.62447C68.29742,114.90951,68.02947,115.16839,68.2754,114.84576Zm-8.51488-1.65309a2.01533,2.01533,0,0,0,1.327-1.164c0.1251-.74744-0.31678-0.63076-0.39-1.23308a12.62171,12.62171,0,0,1,.37747-4.06286c0.32256-1.308,1.06265-2.50974,1.27254-3.85654,0.15608-1.00152.21866-1.93472,0.42977-2.94807-0.83817-.32035-1.667,4.55514-1.8804,5.23357-0.665,2.11441-1.94253,4.04171-2.488,6.20064,0.58286-.19443,1.17112,1.44442,1.35171,1.83036C60.25386,112.9068,59.55826,112.7604,59.76052,113.19268ZM38.32556,83.0873c-0.47234-.17573-3.09008,5.35161-3.33419,6.2-0.21261.739-1.93038,8.17335-1.76235,8.19478,0.627,0.08,2.32583-6.62554,2.58255-7.37106,0.48216-1.40015,1.04211-2.70882,1.64544-4.02243,0.336-.73161,1.03244-2.24781.86854-3.00134C38.26247,83.06382,38.35089,83.20377,38.32556,83.0873ZM56.30175,46.74962c-2.1338.07093,0.308,3.162,0.345,3.74426,0.05,0.78722-.70022,2.12716-0.29946,2.84583,0.47431,0.85057.56137,0.13815,1.4093,0.61431,0.30508,0.17132.66583,1.36572,1.14523,0.81227,0.27286-.315-0.66325-2.091-0.695-2.39922a6.2178,6.2178,0,0,0,.013-1.36718,3.243,3.243,0,0,0-.64045-0.89893,20.91635,20.91635,0,0,1-1.27757-3.35134C55.93147,46.76193,56.5912,47.5813,56.30175,46.74962Zm20.03558,70.05547c-2.20858-1.2506-2.89756,1.10889-4.24264,2.19714-1.05724.85537-4.37884,2.60586-4.19448,4.17233a12.78391,12.78391,0,0,0,3.49829-2.41071c1.39642-1.12079,4.07422-2.44976,4.93883-3.95876C76.164,116.70693,76.23149,116.98981,76.33733,116.80509ZM45.17444,86.33783c-1.53925-.66757-1.59683,7.30116-1.48819,8.34774,0.81052-.61606.747-3.30553,1.06791-4.26306,0.26982-.80517,1.49989-2.49486.53024-3.34061-0.1551.35872-.42411,1.56118-0.88773,1.37922l0.77778-2.12329C45.10436,86.30744,44.91518,87.0456,45.17444,86.33783ZM24.98677,90.33521c0.911,0.33941,3.75366-6.102,2.32849-7.35975a19.98953,19.98953,0,0,0-2.32849,7.35975C25.08117,90.37038,25.01587,90.12176,24.98677,90.33521Zm30.54191,19.1689c-0.49623-.05086-1.19966,3.76827-1.472,4.53637a7.61175,7.61175,0,0,0-.61,3.0148c-0.00008.58826-.20366,2.63394,0.84191,2.20561,0.98842-.40492.00048-0.93233-0.12632-1.29919a4.04882,4.04882,0,0,1,.23951-2.65972c0.4542-1.57354,1.76411-4.17837,1.12691-5.79786C55.43572,109.49459,55.578,109.62957,55.52868,109.50411Zm-15.70815-9.24623L41.044,96.01515c0.29969-1.03925.59607-2.73285-.5824-1.12406A12.18173,12.18173,0,0,0,39.311,98.22635c-0.42984,1.37452-1.22346,2.27707.50952,2.03153C40.39417,98.26868,39.44962,100.31043,39.82053,100.25788Zm-13.27108,1.78705c0.6454-.558.71-2.68275,0.84555-3.44246,0.1519-.85157.79658-2.73852,0.39841-3.58052a3.681,3.681,0,0,0-1.33825,2.59347c-0.23511,1.06353-.80879,3.70088.0943,4.42951C26.91166,101.73177,25.72488,101.37964,26.54945,102.04493Zm16.32747,5.537a3.79673,3.79673,0,0,0-.57407-2.41978c-0.65389.84957-.35708,2.1422-0.44339,3.20061-0.0864,1.05953-.85553,3.5648-0.10136,4.38444,0.80806-1.25957.85106-3.69484,1.11881-5.16527C42.80888,106.82768,42.75464,108.25346,42.87693,107.58189ZM59.99522,55.82328a12.408,12.408,0,0,0,.69429,4.51228c0.2119,0.797,1.13652,2.57651,1.01152.51474a16.46677,16.46677,0,0,0-.57156-1.56867,3.483,3.483,0,0,1,.2194-1.68659c0.11337-.48531.58606,0.00754,0.2216-0.78727a3.29847,3.29847,0,0,0-1.57525-.98449C59.96859,55.99047,60.36255,55.99681,59.99522,55.82328ZM54.51128,93.22189c-1.42222-.62574-1.8627,7.05335-1.86928,8.11449,0.59253,0.05864,1.58728-7.0798,1.86928-8.11449C54.42005,93.18176,54.25991,94.14419,54.51128,93.22189ZM28.31475,105.48117c0.11355,1.11544,1.279.08128,1.44809-.466,0.16493-.53384-0.07936-3.96059-0.41052-4.28432-0.58008-.56705-0.42737.03848-0.744,0.73606a4.12121,4.12121,0,0,0-.42331,1.59921c0.028,1.0086,1.4275,1.75589.12969,2.415C28.36234,105.9486,29.143,105.06054,28.31475,105.48117ZM70.9876,79.81557c-0.93665.64995-1.23862,3.63349-1.387,4.75114a10.57176,10.57176,0,0,0-.16177,2.37993c0.01385,0.11931.56979,1.45418,0.56366,1.13271A18.48352,18.48352,0,0,1,70.49,83.85306c0.20936-1.015,1.03552-3.01548.49756-4.03749C70.86691,79.89932,71.28016,80.37136,70.9876,79.81557ZM54.548,103.9902c1.44306,0.27078,1.454-.37223,1.60068-1.73234,0.09531-.88371.68206-3.12453-0.11376-3.69735-0.109.35635-.14534,0.703-0.28373,1.04674-0.39127.972-.05257,0.47776-0.17467,1.53745-0.02641.22925-.55687,1.04378-0.65679,1.35339a3.86956,3.86956,0,0,1-.37173,1.49212C55.80074,104.22526,55.22143,103.10787,54.548,103.9902Zm-32.03073-2.77a4.483,4.483,0,0,0,.52962,2.10057,3.1808,3.1808,0,0,0,.80932-2.40337c-0.166-.64682-0.77746-0.83883-0.83488-1.58958-0.04054-.53.42389-0.94522,0.374-1.42954-0.05271-.51143-0.11761-1.01694-0.57441-0.58741-0.39759.37385-.26806,3.41337-0.30361,3.90932C22.5821,101.74378,22.60855,99.94759,22.51731,101.22018Zm28.72328,7.99366c-0.50049-.03755-1.92234,5.77131-1.15882,6.25466,0.81866,0.51825,1.40236-5.47872,1.15882-6.25466C51.13606,109.206,51.29309,109.38112,51.24059,109.21384Zm14.699-49.53618c-0.68428.74115,0.38337,0.60008,0.68268,1.096,0.32186,0.53331.05771,1.11622,0.323,1.66453,0.17038,0.3521.77832,1.19325,1.30081,1.01533L68.763,62.21283q0.27221,0.42155.77241-.10373c-0.59281-.66562-1.03205-0.4659-1.79766-0.91353a20.64134,20.64134,0,0,1-1.7982-1.51791C65.84142,59.784,66.22276,59.89237,65.93957,59.67766ZM36.12214,92.89794c-0.54516-.04719-1.61375,4.2004-1.61667,4.66942,1.23294-.41056,1.46146-0.46331,1.65329-1.8066a13.10462,13.10462,0,0,0-.03662-2.86282C36.02914,92.88989,36.17259,93.61587,36.12214,92.89794Zm14.82328,2.10315c-0.54444,1.88605-1.37163,3.77908-.73713,5.607a7.02216,7.02216,0,0,0,.73713-5.607C50.7504,95.67667,51.509,96.37612,50.94542,95.00109Zm2.84314-15.71377c-0.55763.197-.97835,6.76694-0.69441,6.8593,0.7689-1.78948,1.60922-4.97674.69441-6.8593C53.746,79.30236,53.85793,79.43007,53.78856,79.28732Zm-18.68539,3.544c-0.20717.45663-1.39044,2.82272-.88383,2.96132,0.30064-1.2028.55992-1.17542,1.51112-1.69156a4.97051,4.97051,0,0,0,1.94391-2.17218c-0.306-.35253-2.12592.70819-2.57119,0.90242C34.91852,83.23836,35.915,82.47724,35.10317,82.83136ZM40.742,106.98563c-0.74364.38792-1.32519,3.97484-.88228,4.80778,0.60449,1.13681.58721-.24132,0.69112-1.03073a15.53413,15.53413,0,0,0,.19116-3.777C40.569,107.0759,40.8519,108.02992,40.742,106.98563Zm4.81082-.30694c-0.901.88173-1.60667,4.32448-.6834,5.368,0.44272-1.82357.99542-3.49623,0.6834-5.368C44.63253,107.57933,45.63311,107.16032,45.55283,106.6787ZM57.72158,63.81914c0.50894-.09979-0.419-5.62-1.04512-6.27142-0.88461,1.29861.59031,4.90865,1.04512,6.27142C57.80176,63.80342,57.4793,63.09317,57.72158,63.81914Zm19.22809,47.88273c0.77747,0.36252,2.52078.29083,2.513-.7074A2.11038,2.11038,0,0,0,78.32,109.93534c-0.47316.0415-1.13331,1.43513-1.37031,1.76654C76.94027,111.69749,77.27733,111.2437,76.94967,111.70187ZM47.66841,78.12554c0.5055-.6855.12817-3.075-0.26443-3.75092-0.67771.91442-1.4276,3.424,0.26443,3.75092C47.713,78.0651,46.97722,77.992,47.66841,78.12554Zm1.05734,3.99854c0.65015,0.06124.33861-2.1936,1.304-2.59481-0.88979-.37328-0.56419-0.99589-0.5872-1.72672-0.01287-.40882.11249-2.4154-0.35828-1.16148-0.57879,1.54164-.34838,3.84336-0.35856,5.483C48.82593,82.13352,48.72968,81.49216,48.72575,82.12408ZM56.21089,95.722c-0.4116-3.00037-1.01613-.24538-1.06278,1.23624-0.00712.226-.23312,1.31509,0.24594,1.35965,0.50484,0.047.754-2.30116,0.81684-2.5959C56.141,95.21288,56.06144,96.42251,56.21089,95.722ZM45.87315,94.40547c-0.588-.10287-1.92105,5.84832-1.73357,6.54254,0.59026-.78569.64633-2.16881,0.93019-3.11918a15.394,15.394,0,0,0,.80339-3.42336C45.80573,94.39368,45.84754,94.78235,45.87315,94.40547Zm27.80931,34.30245c-0.94863-.21117-0.93574.30083-1.52528,0.74207l-0.20739.38587a0.57678,0.57678,0,0,1-.91344.31491c0.16227-.08582-1.0002-0.06373-0.663.35555,0.45773,0.5691,2.098.09955,2.69131,0.04406a1.63358,1.63358,0,0,1,.61777-1.84245C72.56775,128.45977,73.09128,129.21264,73.68246,128.70792ZM52.67438,114.88727a1.4762,1.4762,0,0,0-1.546,2.13091c0.84711,1.46991,1.39515-1.57226,1.546-2.13091C52.41494,114.8403,52.468,115.65131,52.67438,114.88727Zm28.68-9.34382c0.54876,0.08707.11091-4.52661-.33534-5.106-0.605,1.30468-.04388,3.80059.33534,5.106C81.42461,105.55458,81.19157,104.98282,81.35443,105.54345ZM58.65184,86.60318c0.79758,0.02278,1.16147-3.69356.37565-4.35408a7.6206,7.6206,0,0,0-.37565,4.35408C58.72439,86.60525,58.60481,86.34635,58.65184,86.60318ZM83.425,82.15512c-0.84109.30368,0.86338,4.494,1.84833,4.46166,0.70807-.02327-0.604-1.30584-0.74023-1.55231-0.48663-.88054-0.70718-1.97317-1.1081-2.90936C83.35442,82.1806,83.67383,82.73618,83.425,82.15512ZM68.68376,125.91676l-0.15869-1.68887-2.30738,1.66569a2.89047,2.89047,0,0,0,2.46607.02318C68.63771,125.42674,68.27839,126.06178,68.68376,125.91676ZM39.1761,92.25974c-1.00161.31872-1.81707,3.9445-1.27283,4.87082,0.79215-1.51981.87356-3.23559,1.27283-4.87082C38.55119,92.4586,38.77378,93.90749,39.1761,92.25974ZM63.05876,57.8881c-0.02153.39219,0.07319,4.13709,0.88,2.92608a2.31384,2.31384,0,0,0,.00332-1.08c-0.1151-1.17116.20731-.997-0.88335-1.84606C63.03337,58.35068,63.51914,58.24649,63.05876,57.8881Zm27.43992,63.00961c-0.93792-1.01415-2.72877.97292-2.65859,1.858a16.57515,16.57515,0,0,0,2.65859-1.858C90.06362,120.4273,89.85371,121.3415,90.49868,120.89772Zm10.39585,3.05743c0.99125,0.65368,3.87572-1.13711,3.40161-1.81749l-3.40161,1.81749C101.67029,124.46673,102.08184,123.32077,100.89453,123.95515Zm-28.35262-18.995c-0.44824-.61874-1.43161-1.14482-1.82321.1296-0.49618,1.61476,1.39318.32077,1.82321-.1296C72.31792,104.65092,72.18645,105.33238,72.54191,104.96012ZM69.56482,80.101q0.57948-.12913-0.28407-0.39391c-0.55749.84231-1.09926,2.51925-.62363,3.51364,0.71545-.233.79887-2.58158,0.9077-3.11973C69.63522,80.07341,69.42061,80.81415,69.56482,80.101Zm-30.484,28.36816c0.57364-.38438,1.09418-2.99945.81313-3.53061-0.918.6606-1.01729,2.5146-.81313,3.53061C39.27886,108.33642,39.00666,108.10029,39.08077,108.46915Zm8.19256,4.43742c0.05946-.15613.6322-3.933-0.325-3.199-0.49949.383-.01279,2.76052,0.325,3.199C47.67406,111.8543,47.11042,112.69512,47.27333,112.90657ZM41.82493,98.93787c-0.42169.3551-1.09244,1.71041-.62556,2.27136,0.79991,0.96108,1.00669-1.70913.62556-2.27136C41.2154,99.45115,42.32442,99.67471,41.82493,98.93787ZM29.17318,86.0297c-0.55656.39614-1.15179,3.10262-.8147,3.55425A5.78793,5.78793,0,0,0,29.17318,86.0297ZM63.7863,121.65821a3.80352,3.80352,0,0,0,1.53589-2.85,3.92192,3.92192,0,0,0-1.53589,2.85C64.63242,120.89459,63.76565,121.04945,63.7863,121.65821ZM67.14975,95.047c0.78775-.61422,1.3471-2.94632.7573-3.852-0.15269-.23445-0.70663,3.41592-0.7573,3.852C67.6517,94.65559,67.30381,93.72119,67.14975,95.047ZM33.03028,82.46015c-1.00919.19054-1.37529,2.36871-.73547,3.03322l0.73547-3.03322C32.72748,82.51733,32.784,83.47569,33.03028,82.46015Zm6.95107,33.69332c-0.97465-2.73082-1.49076-.50209-0.35145.676l0.35145-.676C39.79921,115.64315,39.85722,116.39224,39.98135,116.15347Zm43.83283-13.976c0.84159-.08237-0.09392-2.68716-0.5489-3.05353-0.48143.80853,0.12252,2.30742,0.5489,3.05353C83.89177,102.16988,83.69516,101.96922,83.81417,102.17747Zm-49.95082,4.72531,0.27178,0.64288a3.6146,3.6146,0,0,0,.52773-2.988,4.47739,4.47739,0,0,0-.79952,2.34513C33.94734,107.10143,34.03188,106.1726,33.86336,106.90278Zm0.1618-7.78947a2.25345,2.25345,0,0,0-.78054,2.88722A6.19893,6.19893,0,0,0,34.02516,99.11331Zm43.52871,26.34421c0.87186,0.39834.78592-1.18612,0.6674-1.68512a6.53637,6.53637,0,0,0-1.45933,1.46824,0.74256,0.74256,0,0,0,.79193.21688C78.2119,125.75817,77.37128,125.47069,77.55387,125.45752ZM67.439,76.96021c0.04073-.29986.826-2.49135-0.11311-2.36845-0.55594.07275-.76566,2.20713,0.11311,2.36845C67.50739,76.45636,67.32561,76.93941,67.439,76.96021ZM35.72936,106.80769c-0.77259-.14965-1.167,2.36865-0.49117,2.78463l0.49117-2.78463C35.65541,106.79337,35.568,107.72242,35.72936,106.80769ZM43.4082,71.638a5.82991,5.82991,0,0,0,1.40247-.66167,1.64046,1.64046,0,0,0-1.29247-.68453l-0.11,1.3462C43.75017,71.51949,43.451,71.11418,43.4082,71.638Zm18.54851,2.50981c0.40429,0.05136,1.16238-1.98266.76716-2.2721-0.67848-.49689-0.74582,1.98743-0.76716,2.2721C62.07467,74.16275,61.99166,73.68154,61.95671,74.14777ZM48.88986,120.9527c0.27307-.36362.95065-2.3279,0.42031-2.45574-0.86994-.20971-0.57816,2.03907-0.42031,2.45574C49.04768,120.74255,48.77464,120.64854,48.88986,120.9527Zm-6.7137-3.38349a7.58908,7.58908,0,0,0,.41332-2.96155A5.10172,5.10172,0,0,0,42.17617,117.56921ZM21.00769,98.33635c-0.5615-.48581-1.41046-0.09994-0.96785.7102,0.64535,1.18123.72467-.56753,0.96785-0.7102C20.81311,98.168,20.50074,98.63375,21.00769,98.33635Zm50.77487,10.61213c2.90447-1.9313-.67039-1.27895,0,0C72.1388,108.71161,71.48324,108.37745,71.78256,108.94848ZM65.97319,96.57186a3.64928,3.64928,0,0,0-.30607,2.44358C65.95912,98.22315,66.40368,97.45336,65.97319,96.57186ZM51.22782,90.13309c1.34257-.934-1.52931-2.47675,0,0C51.84877,89.70112,51.00118,89.766,51.22782,90.13309Zm11.64005,16.099c-1.21021,1.92161-.0221,3.55929,0,0C62.66606,106.55254,62.86445,106.78414,62.86788,106.23209Zm52.35428,13.68651a2.35783,2.35783,0,0,0-1.73949-.66634l0.891,1.32185,0.84853-.65551C115.21809,119.83278,114.93748,120.13852,115.22216,119.9186Zm-89.55944-25.709,0.35445-1.80346C25.10627,92.88,24.94776,93.68307,25.66272,94.20956ZM42.30459,81.1c0.50238,0.19724.48963-1.03475,0.45153-1.32891-1.04457.2306-.81422,0.50989-0.45153,1.32891C42.3644,81.12343,42.178,80.81407,42.30459,81.1Zm23.92764-.77712c1.45154-.07757-0.708-2.91107,0,0C66.28516,80.32,66.16054,80.028,66.23223,80.32283Zm-36.949,12.54548c-0.7067-.941-1.97331,3.224,0,0C29.19326,92.7485,29.00754,93.31876,29.28325,92.86831Zm51.43662,17.27437,0.6764,0.89919c0.42619-.66.32788-1.32088-0.6764-0.89919C80.94533,110.4424,81.34556,109.88,80.71986,110.14268ZM45.6687,73.18358a1.62162,1.62162,0,0,0-.25954,2.13593Zm39.276,43.91584c-0.05566-.43691-1.224-0.10178-1.44638-0.03744,0.33014,0.88271.68732,0.37092,1.44638,0.03744C84.93863,117.05169,84.56154,117.26776,84.94471,117.09942ZM58.14813,101.09966c-0.89138-.25518-0.68941,1.1264-0.43965,1.538l0.43965-1.538C58.07033,101.07739,58.01677,101.5592,58.14813,101.09966ZM45.62638,113.52082c0.41077,0.05948.38472-1.05875,0.42985-1.3545-0.64675.48971-.96608,0.66279-0.42985,1.3545C45.69915,113.53136,45.12371,112.87241,45.62638,113.52082Zm8.167-25.358c-0.96645-.26012-0.49977,2.85679,0,0C53.72847,88.14538,53.72889,88.53132,53.79335,88.16285Zm15.976-22.39914c-0.82822-.62483-1.00958-0.17968-0.55218.6589l0.55218-.6589C69.51817,65.57419,69.52555,66.05466,69.76938,65.76371ZM43.441,111.70084l-0.37625-.40466c-0.33589.45713-.71212,0.65918-0.38519,1.15928l0.76144-.75462C43.26247,111.50883,43.15073,111.98852,43.441,111.70084ZM56.17713,57.14135c0.90062-.11663-0.72065-2.9954,0,0C56.28642,57.1272,56.08377,56.75328,56.17713,57.14135ZM39.5705,118.30324c0.47762-1.03-2.32818-1.13407,0,0C39.59969,118.2403,39.26212,118.153,39.5705,118.30324Zm-11.33919-7.34608c-0.61888-.62134-1.21034-0.62425-0.58183.46326l0.58183-.46326C27.9885,110.71339,27.9755,111.16085,28.23131,110.95717Zm48.57913-7.41309c0.25468,0.75561,1.00179-.06192.903-0.682l-0.903.682C76.83666,103.62185,77.07383,103.34516,76.81044,103.54408ZM74.744,120.64056a1.94327,1.94327,0,0,0,1.33341-1.02728C75.44653,119.83231,74.89687,119.84729,74.744,120.64056ZM45.04668,77.00017c0.38344,0.01413.20856-1.13731,0.21021-1.40306a1.01676,1.01676,0,0,0-.21021,1.40306C45.11383,77.00264,44.74729,76.55259,45.04668,77.00017ZM58.14959,89.00726c0.45806,0.111.55213-.79991,0.68085-1.17272a0.88214,0.88214,0,0,0-.68085,1.17272C58.23447,89.02783,57.77783,88.42577,58.14959,89.00726Zm5.21841,16.4282c0.33958-.42158.544-0.76616,0.15469-1.20369C62.95085,104.53741,63.09216,104.92854,63.368,105.43546Zm-24.77853,6.71478c0.2718-2.51509-.88512-0.56244,0,0C38.63733,111.70744,37.89349,111.708,38.58948,112.15025Zm42.14776,9.26964c-0.65748.03215-1.07177,0.59953-.49489,0.9935l0.49489-.9935C80.01355,121.45527,80.53507,121.82572,80.73723,121.41988ZM52.55547,91.888c-0.37544-.00487-0.37915,1.41513-0.00884,1.42385L52.55547,91.888C52.48709,91.88714,52.55252,92.36265,52.55547,91.888Zm36.67045,27.89542c-0.66052-.19773-1.24962.12948-0.795,0.7185l0.795-.7185C88.59717,119.59523,88.89857,120.07929,89.22592,119.78345ZM77.46283,74.7702c0.9796,0.22161.0945-.89178-0.24-1.084l0.24,1.084C77.54856,74.7896,77.39739,74.47466,77.46283,74.7702Zm-39.158,38.39264-0.32113-.01158-0.00788,1.26926c0.46768,0.00966.30786-.87131,0.329-1.25768C38.1978,113.159,38.2818,113.58386,38.30484,113.16284ZM25.27667,82.7078c-0.41494-.06555-0.33819.50811-0.401,0.86638a0.49791,0.49791,0,0,0,.401-0.86638C25.19589,82.695,25.5273,83.01088,25.27667,82.7078Zm25.67514,19.54307-0.00592.95323c0.60975-.07766.64822-0.7119,0.00592-0.95323C50.94984,102.56861,51.60465,102.49616,50.95181,102.25086ZM30.25925,84.1461q-0.69476-.505-0.65984.60911c0.50584,0.14013.28467,0.17615,0.65984-.60911C30.12989,84.094,30.14787,84.37922,30.25925,84.1461ZM88.36,91.86965l-0.40884-.60031c-0.27944.50251-.241,0.508,0.14608,0.93816L88.36,91.86965C88.203,91.6391,88.24838,92.01316,88.36,91.86965ZM45.7345,80.86973c-0.49717.75581,1.02239,1.42572,0,0C45.58641,81.09487,45.95361,81.17528,45.7345,80.86973ZM89.264,127.94621l0.016,0.31568,1.00546-.13177c-0.033-.32615-0.754-0.18224-1.02144-0.1839C89.26929,128.05143,89.59844,127.94828,89.264,127.94621ZM74.6761,74.60627c0.27223-.21059-0.255-0.69972-0.41315-0.92794-0.3501.59619-.02661,0.69688,0.41315,0.92794C74.726,74.56768,74.35823,74.43926,74.6761,74.60627Zm6.97878,34.41759q0.70811-.06149-0.00792-0.929c-0.3438.30945-.43812,0.6778,0.00792,0.929C81.73474,109.00245,81.262,108.80261,81.65488,109.02386ZM23.97673,79.9822l0.3095,0.13455c0.24586-.74008.31878-0.57418-0.13279-0.84l-0.17671.70541C24.0799,80.02705,24.03564,79.74707,23.97673,79.9822Zm62.65657,42.84121c-0.04683.59805,0.77538,0.42137,0.869-.07645l-0.869.07645C86.62766,122.89546,86.923,122.79792,86.63331,122.82341ZM71.40951,94.81754c-0.42259-.27135-0.31248-0.3409-0.78875.04448,0.35637,0.41535.35968,0.29816,0.78875-.04448C71.21108,94.69013,71.18851,94.994,71.40951,94.81754Z"/><path class="cls-2" d="M126.2698,65.66292q0.24332-.143.48709-0.28515l-0.58381,1.82682c0.52516-.21836,1.12122,1.33867,1.13682,1.97573a2.65352,2.65352,0,0,1-1.28229,2.01181c-0.75953.60961-1.63721,1.07486-2.392,1.691-0.31507.25718-.69375,0.79327-0.9282,0.95042-0.64152.43-1.546,0.56722-2.22777,0.97508a26.027,26.027,0,0,0-2.34716,1.7807,47.10833,47.10833,0,0,1-4.34906,2.63212,41.872,41.872,0,0,0-4.51932,3.8511c-1.66441,1.38238-3.51158,2.46483-5.12089,3.99488a24.68225,24.68225,0,0,0-3.83652,4.02622,3.51674,3.51674,0,0,1-1.8009,1.55177,3.62692,3.62692,0,0,1-1.0486.16824c-0.54457-.025-0.0086-0.81727-0.91523-0.36673,0.463-1.20059-.29209-1.07888-0.36652-2.24683a13.69373,13.69373,0,0,1,.39483-1.5525,10.3817,10.3817,0,0,0-.2821-1.842,11.64661,11.64661,0,0,0-.15531-2.11155,11.5942,11.5942,0,0,1-.59391-1.49377c-0.20492-1.2801.47683-2.354,0.81765-3.54539a22.87447,22.87447,0,0,0,.365-7.48744c-0.149-2.6667-.80157-5.92639,1.15194-7.92271A140.149,140.149,0,0,1,111.41893,52.3618a47.89262,47.89262,0,0,0,4.133-3.58623,21.198,21.198,0,0,0,3.94832-4.62495c0.45148,0.37469.52834-.3692,0.92719-0.69775,0.307-.25288.74693-0.26346,1.03114-0.48413,0.25845-.20067.31868-0.56268,0.53487-0.7337,0.2028-.16043.64337-0.098,0.75644-0.2108,0.34787-.34718.6-0.921,1.06769-1.3308,0.7903-.6925,1.1659-0.42426,1.84686-1.27652,0.0931,0.97253.87176,0.54848,1.2366,1.44533,0.448,1.10126-.4745,2.5474-0.66393,3.6174-0.249,1.40638.13018,2.78224-.086,4.142a9.89094,9.89094,0,0,0-.04432,3.46679,18.16167,18.16167,0,0,1,.09481,3.32792,15.41668,15.41668,0,0,1,.21707,1.68319c-0.03567.351-.33158,0.53223-0.3844,0.93158-0.15358,1.1613.031,2.47339-.05849,3.66207a8.129,8.129,0,0,0,.294,3.96977C126.38306,65.59622,125.64295,64.21817,126.2698,65.66292Zm-16.94031,4.41224c-0.86911-.61123-1.48787-2.254-2.77377-2.08352-0.7031.09321-3.15672,2.74685-2.014,2.63263,0.69826-.06979,1.30083-2.75157,2.55237-1.44251,1.2099,1.2655-2.37767,2.80513-1.92343,4.00254l1.07355-.398-0.10156-.39681a4.21073,4.21073,0,0,1,.96232-0.81637c1.31763-.64259,1.39572-0.14281,2.22448-1.498C108.67086,69.612,109.16129,70.35019,109.32949,70.07516Zm3.8-13.21627c-1.59124-1.25922-4.11161,7.85427-4.32341,8.80742,0.9129-.08423,2.17392-3.384,2.40076-4.32071a4.627,4.627,0,0,1,.52673-1.76658,14.27868,14.27868,0,0,0,1.39592-2.72013C113.0706,56.81227,112.9829,57.26129,113.12951,56.85889Zm2.0422,12.01406c-1.85367-.09862-4.12872,2.66-5.46424,3.82638a0.52261,0.52261,0,0,0,.09066.20286c2.02289-.63829,3.92485-2.52784,5.37358-4.02924C114.76745,68.85145,114.671,69.39183,115.17172,68.873ZM104.936,66.02847c0.69736,0.20376,1.95158-4.29755,2.11556-4.98824-1.25411-.19616-2.10953,4.01705-2.11556,4.98824C105.00207,66.04779,104.93734,65.80574,104.936,66.02847ZM121.9633,44.92933a4.22361,4.22361,0,0,0-2.0507,3.20176c0.86526-.24468,2.60412-2.20891,2.0507-3.20176C121.13513,45.33587,122.34253,45.60968,121.9633,44.92933ZM101.65407,72.04527c0.34416-.72371,2.56583-3.1414.56067-2.73184-0.99365.203-1.13756,1.9738-.56067,2.73184C101.87328,71.58431,101.14326,71.37407,101.65407,72.04527Zm22.33707-6.93239c-0.31739-.06286-2.104-0.5898-2.31519-0.30191-0.37947.51728,0.21085,0.33917,0.36637,0.707,0.51822,1.22582,1.878,1.158,1.94883-.40514C123.70424,65.05606,123.95578,65.8937,123.99114,65.11288Zm-1.942-13.21086c-0.66582-.1265-1.1201,2.30262-0.98733,2.98025,0.94459-.565.92773-1.94889,0.98733-2.98025C121.95067,51.8833,122.0323,52.19387,122.04917,51.902Zm-1.088,5.94494c-0.35485-.351-1.493-0.46747-1.14807.42763,0.27342,0.70947,1.17936.2213,1.14807-.42763C120.82074,57.70811,120.99413,58.53146,120.96112,57.847Zm-12.3325-1.49491c-2.40809,1.927.15407,1.2735,0,0C108.24025,56.66282,108.71378,57.056,108.62862,56.35205Zm8.82722,16.28828-0.72729.32371a0.89689,0.89689,0,0,0,1.32629.49588l-0.599-.81959C117.21822,72.7461,117.69042,72.96132,117.45584,72.64033Zm-3.36673,2.05227q-0.34421-.69783-0.8251.21287c0.37977,0.32384.18035,0.27259,0.8251-.21287C114.00963,74.598,113.89885,74.83586,114.08911,74.69261Z"/><path class="cls-2" d="M212.28867,103.99567l0.51435,0.28792c0.13354-1.34335,1.13877-.15113,1.547-0.02911,0.75282,0.225,1.56149.01024,2.23283,0.44417,1.92657,1.24526-.64348,3.28668.79166,4.53375-1.19562.00151-1.23808,5.26371-1.37771,6.33344a5.58434,5.58434,0,0,1-.59969,2.643c-0.39552.57188-1.66444,0.97506-1.36067,1.61916-1.52468-.4712-3.773.57406-5.34707,1.043a13.00495,13.00495,0,0,1-3.8827.06873c-1.21435-.00759-2.45824.49553-3.66861,0.05755-0.63444-.22958-1.016-0.83056-1.63321-1.03786-0.41954-.14092-0.87239.08541-1.292-0.01352a3.3826,3.3826,0,0,1-1.9452-1.63952c-0.29218-.40718-0.865-1.23253-1.14831-1.59868-0.72439-.93608-0.555-1.069-0.60352-2.27225-0.04441-1.10138-.32128-2.27626-0.32279-3.4299-0.001-.79524-0.23474-3.15464.07522-3.623,0.89573-1.35338,3.163-1.48362,4.58227-1.65924a47.12988,47.12988,0,0,1,7.825-.32808c1.69523,0.08935,4.6997.45333,5.6132-1.39962C212.43563,104.07793,212.19114,104.1935,212.28867,103.99567Zm-13.57652,4.11084a19.042,19.042,0,0,0-1.44342,1.91376c0.62272,0.5697,2.85234-1.7152,3.29885-2.15857-0.30612-.32023-1.42665.14775-1.85543,0.24481C198.4269,108.44,199.22373,107.9907,198.71215,108.10651Zm16.16408,2.68259c-0.46889-.15-2.31332,3.443-0.67018,2.96564,0.65181-.18937.33829-0.1597,0.47852-0.82034a1.028,1.028,0,0,1-.039-1.17065q0.13916-.48169.23067-0.97465C214.7989,110.76436,214.80142,111.11468,214.87623,110.7891Zm-5.64513,5.15164c0.49821,0.24037,3.34283-2.79075,2.73757-3.6305-0.72793.86659-2.61551,2.63559-2.73757,3.6305C209.32567,115.98637,209.25567,115.74044,209.2311,115.94074Zm-0.90475-8.84737c-0.0398,1.10863,3.38192.021,0,0C208.323,107.18555,208.79608,107.09628,208.32635,107.09336Zm4.95488,9.42829c0.24236,0.77813.82423-.20947,0.92984-0.44954a0.99335,0.99335,0,0,0-.92984.44954C213.30036,116.58309,213.528,116.33416,213.28122,116.52165Zm-11.71039,1.63961q0.13294-.69706-0.75583-0.33244-0.164.77525,0.75583,0.33244C201.566,118.052,201.324,118.18023,201.57084,118.16126Zm9.63875-7.28738c-0.31536-.36872-1.03515.19273-0.68162,0.60844l0.68162-.60844C211.147,110.80068,210.98238,111.0767,211.20958,110.87388Z"/><path class="cls-2" d="M171.99862,108.10889c1.44974-.22153.26579-1.48048,0.88275-2.5117,0.68964-1.15269,2.86353-.97065,3.90389-0.86581,1.5796,0.15919,3.1285.1861,4.71632,0.22767,1.38357,0.03622,2.96313-.43933,4.24294-0.1122-0.15707-.53784,1.77255-0.80073,2.27144-0.49992a6.1688,6.1688,0,0,1,1.38707,2.7771c0.12115,0.78516-1.27415,3.239.09066,3.24013-0.9857.88993-1.07237,2.13689-1.32878,3.39642a4.9147,4.9147,0,0,1-1.648,2.94535c-1.12666,1.04428-1.05382,1.28811-2.58616,1.096-0.93771-.11758-1.22045.31484-2.05057,0.438a16.11975,16.11975,0,0,1-1.67617-.13746,6.36949,6.36949,0,0,1-2.14059-.66709c-0.77059-.27688-1.58323-0.16887-2.34377-0.40872a3.23869,3.23869,0,0,1-2.08305-2.63425c-0.0587-.33063.07522-0.77142,0.03553-1.16431-0.06762-.66935-0.4095-1.30931-0.48116-1.979-0.15975-1.493.13455-2.10723-1.19236-3.14019C172.35724,108.05409,172.2815,108.3291,171.99862,108.10889Zm9.31243,7.21768c0.15339-.84479-2.07106-0.8109-2.14546-0.46188-0.14494.67993,2.26755,1.59218,2.14546,0.46188C181.40565,114.80551,181.37018,115.87406,181.311,115.32656Zm-5.085-.5724a2.43618,2.43618,0,0,0,.35-1.20835c-0.64427.11309-.81256,0.61691-0.35,1.20835C176.37876,114.40659,175.89709,114.33353,176.22608,114.75416Zm3.21821-2.01353q0.43721,0.58734.72449-.30536c-0.43985-.25907-0.27954-0.29332-0.72449.30536C179.53886,112.817,179.57044,112.5709,179.44429,112.74063Z"/></g><g id="yEcSCe.tif"><path class="cls-3" d="M97.21949,59.46092c0.002,0.00009.01188-.39957,0.01574-0.5752C97.23011,59.07746,97.22429,59.26911,97.21949,59.46092Z"/><path class="cls-3" d="M23.48433,108.56742c0.14116,0.31368,0-1.16845,0,0h0Z"/><path class="cls-3" d="M38.08812,68.11441c0.09051,0.27034.063,0.1915,0,0h0Z"/><path class="cls-3" d="M79.33778,114.5574c0.07877-.06386-1.71312-0.212,0,0h0Z"/><path class="cls-3" d="M97.56989,91.77432c-0.73157,1.947,1.60119,1.45558,0,0C97.414,92.18911,97.94426,92.11465,97.56989,91.77432Z"/><path class="cls-3" d="M204.83965,92.00452c2.00738-.29274,6.90487-0.57214,7.73722,1.27055,0.1099,0.24331.30393,1.56727,0.44449,2.2812s0.07108,2.25953.14764,2.825a17.25262,17.25262,0,0,1,1.57493.8027,2.34755,2.34755,0,0,1,1.04584,1.56676,8.15853,8.15853,0,0,1,.39392,1.9265c0.06942,1.79391.699,3.70442,0.90122,5.51636a13.39317,13.39317,0,0,1-.59276,4.81849,9.38025,9.38025,0,0,0-.14435,1.19607,9.08247,9.08247,0,0,1-.27526,1.33951,5.98283,5.98283,0,0,0-.28872,2.095,9.69831,9.69831,0,0,1-.20161,1.921,1.43465,1.43465,0,0,1-1.06671,1.07239c-0.63374.15124-1.58129,0.38486-2.28293,0.5138s-1.81107.35786-2.7828,0.53615a11.86671,11.86671,0,0,1-3.03276.18584c-0.82458-.0912-1.69464-0.00893-2.53766-0.125-1.07671-.14827-2.17437.08349-3.25724,0.01a11.32035,11.32035,0,0,1-2.51311-.52671,6.85068,6.85068,0,0,1-2.11594-.98035,2.50271,2.50271,0,0,1-.7275-0.79567c-0.08074-.14914-0.36495-1.40953-0.36542-1.415-0.08014-.94581-0.16933-1.9189-0.25012-2.89382-0.16344-1.97237-.76068-3.2483-0.42548-5.19486,0.31181-1.81074.00124-3.66107,0.53218-5.46314a7.26843,7.26843,0,0,1,2.4873-3.67355,10.74221,10.74221,0,0,1,1.64755-.77229c0.8428-.52542.34957-0.19009,0.67877-1.18369,0.55714-1.68158.20163-3.49943,1.085-4.97864C201.70254,92.12569,202.83227,92.29727,204.83965,92.00452Zm-4.84288,9.41105c-1.59747.16583-2.34447,2.3261-2.7821,3.30865a12.86826,12.86826,0,0,0-.42418,2.2224,6.42831,6.42831,0,0,0-.46206,2.1938c0.07589,1.178.63785,1.82091,0.53343,3.08143a9.52381,9.52381,0,0,0,.33947,2.91808c0.27381,1.45354-.17165,2.18632,1.39883,3.18923,1.20929,0.77225,2.63215.49781,4.03084,0.9005a6.29133,6.29133,0,0,0,1.70619.325c0.61,0.002,1.2115-.11845,1.82268-0.11515,0.54915,0.003,1.06115-.15275,1.6086-0.18407a14.71952,14.71952,0,0,1,1.76173.05072,8.35435,8.35435,0,0,0,2.35514-.13967,2.718,2.718,0,0,0,1.97484-1.15855c0.51223-1.20645.35917-3.94672,0.6933-5.17259a12.92557,12.92557,0,0,0,.44415-1.90021,6.519,6.519,0,0,0,.12459-1.35c-0.01223-.36613-1.8671-0.20978-2.2094-0.16508-1.83352.08983-2.59085,0.53327-2.57231-.8381s0.71109-1.23286,2.67431-1.17175a7.68094,7.68094,0,0,0,2.0098-.09134,10.62171,10.62171,0,0,0-.41152-1.87919,22.56389,22.56389,0,0,0-1.00455-3.53407c-0.673-1.59795-1.46332-1.4142-2.356-1.43382s-3.02507.14109-4.88629,0.16529S201.59423,101.24975,199.99677,101.41557Zm8.85406-2.82712a8.5198,8.5198,0,0,1,1.77531-.26474c-0.32276-1.09417.10919-3.19011-.35034-3.8137a2.87314,2.87314,0,0,0-1.94-.74925,20.81923,20.81923,0,0,0-5.352.66409c-0.75058.21838-.88812,2.269-0.96438,3.09346-0.04669.50475-.02358,0.88472-0.04717,1.51393,1.36184-.16919,3.324-0.15976,3.86934-0.18538S207.66491,98.75367,208.85083,98.58846Z"/><path class="cls-3" d="M160.06027,92.18091a10.81539,10.81539,0,0,0,.71034,2.88212c0.96248,1.70145.34921,3.35718,0.23694,5.04675a3.94739,3.94739,0,0,0,.30466,1.22014,13.0557,13.0557,0,0,1-.54816,2.32956c-0.032.08745-.185,1.18517-0.20982,1.48783-0.12672,1.543-.2185,3.09095-0.417,4.62494a16.84151,16.84151,0,0,1-.60467,2.22128,0.25479,0.25479,0,0,0,.05177.194,0.65982,0.65982,0,0,1-.12849,1.00693c-0.34306.28592-.782,0.63914-1.19075,0.16285a1.59051,1.59051,0,0,1-.39833-1.04774,5.16548,5.16548,0,0,1,.49975-2.06812,2.98673,2.98673,0,0,0,.45432-1.591c-0.03794-1.02444.24856-2.007,0.24859-3.01992a2.91908,2.91908,0,0,1,.21956-0.77034,9.367,9.367,0,0,0,.50393-1.76714,29.78093,29.78093,0,0,0,.10039-3.52947c-0.03729-1.22956-.14583-2.4613-0.30442-3.68153-0.13165-1.01288-.38107-2.01045-0.57886-3.0147a0.82618,0.82618,0,0,1-.04062-0.18072c0.00818-.19432-0.1335-0.10582-0.21346-0.10858a2.60673,2.60673,0,0,1-1.29874-.20211,3.63028,3.63028,0,0,1-1.10295-1.559,2.40615,2.40615,0,0,0-1.10691-.89651,10.66664,10.66664,0,0,0-1.71489-.60789,0.49952,0.49952,0,0,0-.2195.32588c0.48209,1.38391-.48413,2.1856-1.18923,3.1157-0.33555.44261-.89411,0.77562-0.60974,1.56895,0.31753,0.88577-.90263,2.00815-1.83118,1.79044a0.8637,0.8637,0,0,1-.53813-1.17259c0.30134-.8402.56692-1.69344,0.83518-2.54509a1.10529,1.10529,0,0,0-.012-0.36051c-0.12617.01947-.25227,0.03928-0.3785,0.05835a3.252,3.252,0,0,1-1.145.14086,2.3917,2.3917,0,0,1-.81279-0.6646c-0.2149-.195-0.41931-0.40179-0.62484-0.6069a1.61093,1.61093,0,0,1-.23856-1.72595,0.14838,0.14838,0,0,1,.13476-0.04495,3.80665,3.80665,0,0,1,.29619.25926,4.78014,4.78014,0,0,1,.08821-0.471,0.3146,0.3146,0,0,1,.14116-0.18548c0.66982-.30951,1.34641-0.60432,2.01657-0.91313a0.97963,0.97963,0,0,1,1.06873.14209c0.41934,0.271,1.09321.16144,1.49295,0.44655,0.65376,0.46631.99248,0.08322,1.44861-.24209a1.04953,1.04953,0,0,1,.64115-0.0013c0.56738,0.08208,1.13232.18206,1.69621,0.28588a0.26382,0.26382,0,0,1,.18652.14076,1.31532,1.31532,0,0,0,1.1471,1.0506,3.51645,3.51645,0,0,1,.49341.34853c0.12463,0.08323.25968,0.15085,0.39009,0.22542a1.35157,1.35157,0,0,0,.02355-0.464c-0.22916-.71809-0.483-1.42832-0.73051-2.14052a5.17954,5.17954,0,0,0-.39611-1.0677c-0.25409-.40479-0.09244-1.15042-0.88194-1.15457a0.25529,0.25529,0,0,1-.11319-0.2023,2.57207,2.57207,0,0,0-.86536-1.86451,17.05891,17.05891,0,0,0-1.12157-1.29091c-0.38551-.41091-0.8064-0.78866-1.19164-1.19981a0.63,0.63,0,0,1-.05189-0.36108c-0.00407-.1431.01087-0.28674,0.01757-0.43015a2.29083,2.29083,0,0,0-.52938.043,0.67453,0.67453,0,0,0-.26123.26,1.2191,1.2191,0,0,1-1.3539.50994,1.37281,1.37281,0,0,0-.88615.27775,0.9143,0.9143,0,0,1-1.28881.02529,0.84336,0.84336,0,0,1-.22069-1.2877,0.49668,0.49668,0,0,0-.22077-0.85814c-1.022-.06847-0.62213-0.83326-0.70587-1.3118-0.04933-.282-0.0942-0.76322.55834-0.717a1.66126,1.66126,0,0,0,.63-0.7615,0.71119,0.71119,0,0,0-.26971-0.313,1.33708,1.33708,0,0,1-.95212-0.75651,0.71853,0.71853,0,0,0-.6684-0.62784,0.43423,0.43423,0,0,1-.29287-0.70913c0.10347-.188.54632-0.56065,0.04245-0.89845a2.198,2.198,0,0,1,.06543-0.60621c-0.01214-.45982.42893-0.19088,0.49076-0.29,0.34215-.54882.90112-0.32135,1.353-0.41986a1.37612,1.37612,0,0,1,.64236.25112c0.25581,0.11308.50489,0.24235,0.76421,0.34639,0.43911,0.17618.38315-.1948,0.48567-0.42862a1.46258,1.46258,0,0,1,1.448-.71772,0.56421,0.56421,0,0,0,.3514-0.01587c0.39991-.2617.77948-0.55429,1.175-0.82306a0.23916,0.23916,0,0,1,.22895.00959,4.57922,4.57922,0,0,1,.61349.75209,1.25233,1.25233,0,0,1,.05275.5721,1.90841,1.90841,0,0,0-.03734.36963c0.19006,0.80845.4246,1.6075,0.58553,2.42131a2.91751,2.91751,0,0,1,.0361,1.32074,1.1668,1.1668,0,0,1-.74019.61724c-0.46527-.27092-0.50645.11114-0.49682,0.30742a1.05083,1.05083,0,0,0,.34957.58842c0.10419,0.10355.34684,0.063,0.46,0.16317a0.83305,0.83305,0,0,1,.29348,1.18241c-0.35923.57919-.28707,0.71933,0.37154,0.90966,0.3873,0.11193.36317,0.10132,0.21878,0.4301a0.60627,0.60627,0,0,0,.218.368c0.44771-.15723.46222,0.23887,0.596,0.4544,0.43974,0.70832.88535,1.41445,1.287,2.14434a9.90549,9.90549,0,0,1,.47354,1.18716,0.47261,0.47261,0,0,0,.0738.16954,3.32607,3.32607,0,0,1,.73519,2.139,1.15854,1.15854,0,0,0,.17064.305,9.24919,9.24919,0,0,1,.54709,1.073c0.36672,1.00035.7243,2.006,1.02657,3.02707a7.43738,7.43738,0,0,1,.15067,1.35317Zm-7.79652-18.24515,0.04486-.00606a3.66151,3.66151,0,0,0-.04045-0.62192,1.61079,1.61079,0,0,0-.22506-0.40368c-0.28926.17326-.58292,0.34013-0.85971,0.53143a0.69537,0.69537,0,0,0,.10819.29951,3.0367,3.0367,0,0,1,.55733,2.217,1.21591,1.21591,0,0,0,.05026.393,0.90354,0.90354,0,0,0,.4166-0.192,1.23331,1.23331,0,0,0,.13672-0.63992C152.41562,74.98552,152.32989,74.46133,152.26376,73.93577Z"/><path class="cls-3" d="M168.291,75.25892a3.22657,3.22657,0,0,1,.39343-0.11863,0.54429,0.54429,0,0,1,.8425.634,7.60069,7.60069,0,0,1-.1802,1.05664,0.26228,0.26228,0,0,0,.05238.21152,1.10053,1.10053,0,0,0,.28815.00056,9.82307,9.82307,0,0,1,1.34007.08c0.28123,0.0515.48359,0.2586,0.20871,0.5891a0.88667,0.88667,0,0,0-.09094.34071c0.12612-.01589.25445-0.02193,0.37793-0.04957,0.3367-.07537.675-0.14725,1.006-0.24342a1.61767,1.61767,0,0,1,1.70368,1.31926,2.111,2.111,0,0,1-1.37853,1.35339,5.79973,5.79973,0,0,0-.85291.31241c-0.36375.11574-.7464,0.17879-1.09913,0.31926a0.6009,0.6009,0,0,0-.36136.39211,0.62664,0.62664,0,0,0,.37121.40874c0.45034,0.16856,1.0591.13447,0.91923,0.89939a0.13389,0.13389,0,0,0,.07076.09638c0.30338,0.15026.71549,0.31547,0.3133,0.69417-0.20682.19473-.05637,0.74907-0.59985,0.6252a0.95637,0.95637,0,0,0-.2193.38628,3.77707,3.77707,0,0,1-.33143.92208c-0.19484.26368-.382,0.59692-0.87394,0.09912-0.52989-.5362-1.12733-1.03457-1.67757-1.56823-0.11188-.10852-0.1432-0.303-0.25883-0.40376a0.442,0.442,0,0,0-.36125-0.07444,1.11514,1.11514,0,0,1-1.09546.19747,0.97073,0.97073,0,0,1-.407-0.41176,1.58915,1.58915,0,0,1-.15461-0.29806c-0.0837.07831-.16323,0.16171-0.25178,0.23408a8.97156,8.97156,0,0,0-1.34663,1.12838,3.70784,3.70784,0,0,0-.60017,1.35964c-0.32618,1.19238-.61116,2.39667-0.88483,3.6025-0.13663.602-.1898,1.22286-0.323,1.82585a9.59376,9.59376,0,0,1-.40348,1.28164,0.9859,0.9859,0,0,1-.34882.57134c-0.23555.53391-.06647,1.19488-0.73022,1.33434a0.92826,0.92826,0,0,1-.2121.41129,1.16536,1.16536,0,0,1-.19086-0.39659,3.62241,3.62241,0,0,1,.04973-0.9395c0.11918-.543.28354-1.07695,0.44533-1.60972,0.33013-1.08713.68786-2.16612,1.00216-3.2577,0.2421-.84092.42558-1.69855,0.65454-2.54349a8.13157,8.13157,0,0,1,.3873-1.0961c0.05048-.11674,1.01847-1.74019,1.31373-2.18667,0.67544-1.02142,1.813-1.85068,1.80148-3.18693a9.78553,9.78553,0,0,1,.74575-3.24219,4.763,4.763,0,0,1,.5531-1.022,0.78484,0.78484,0,0,1,.35638-0.14612Z"/></g><path class="cls-3" d="M190.69008,88.15248a7.47741,7.47741,0,0,0-1.87887-1.38844,1.14372,1.14372,0,0,1-1.01339-1.34624,19.86355,19.86355,0,0,0-.12117-2.93463c-0.05481-.20627-0.07427-0.41977-0.12282-0.62729-0.06261-.26762-0.11355-0.53978-0.18625-0.80489a5.09237,5.09237,0,0,0-.70088-1.69921,1.39381,1.39381,0,0,0-1.37174-.58311c-1.1247-.00291-2.25285-0.60783-3.37278-0.33014a8.93512,8.93512,0,0,1-1.17736-.03123c-0.29254.03659-.58971,0.053-0.88332,0.08283-0.27519.02791-.55218,0.05249-0.82551,0.09567-0.02512.004-.04235-1.76278-0.16322-2.50465-0.205-1.25842-.71054-2.45171-0.94435-3.70812a12.51291,12.51291,0,0,0-1.12149-3.65777c-0.73549-1.33535-1.60958-2.58659-2.45992-3.84968a60.546,60.546,0,0,1-3.68138-6.0758c-0.78576-1.52765-2.054-3.45389-2.36156-5.45288-0.053-1.60531.44511-1.68832,0.86016-1.85434a3.09417,3.09417,0,0,0,1.54039-1.609,7.71979,7.71979,0,0,0-.73357-5.97208c-0.86787-1.079-2.45768-1.33675-3.753-1.45057-1.88584-.16571-3.78649.18491-5.68175,0.10213a12.14042,12.14042,0,0,0-1.77876.27429,7.72616,7.72616,0,0,1-1.73206-.17038,4.98982,4.98982,0,0,0-2.104.3833,6.32367,6.32367,0,0,1-2.56159.10936,8.26221,8.26221,0,0,0-1.71036.314c-1.67348.25028-3.24594-.283-4.92748,0.0423-1.19856.23184-2.37387,0.61717-3.56085,0.89866-1.09913.26066-2.19468,0.16938-3.19984,0.77862a12.07641,12.07641,0,0,0-2.57024,2.21861,3.91076,3.91076,0,0,0-1.18331,2.33672,9.0817,9.0817,0,0,0,.26422,1.99758,2.60226,2.60226,0,0,0,1.11607,2.02309c0.69564,0.62636.71739,0.089,0.66737,0.96519-0.05327.93269-.96151,2.20035-1.28656,3.0953a33.35891,33.35891,0,0,1-2.45434,5.16134c-0.884,1.52915-2.03936,2.98693-3.00917,4.473-0.5651.86595-2.08775,4.167-2.41562,1.60037-0.19851-1.55408.06-3.55488-.08074-5.22147-0.1616-1.914-.47115-3.79153-0.52326-5.71039-0.0865-3.18569-.12359-6.59643-0.12451-9.86393-0.00061-2.28884.11015-4.498-.00325-6.78915a14.24205,14.24205,0,0,1-.02539-2.52059c0.17358-1.41959.21074-.56448-0.37721-2.04227-0.70768-1.77873-.59481-4.61291-0.7611-6.52941-0.15095-1.73961.11373-3.99032-.33-5.63859a3.53164,3.53164,0,0,0-.23968-0.78508,3.31711,3.31711,0,0,1-.93964-1.5294c-0.07847-1.39873.234-2.68236,0.25294-3.93383,0.01369-.90281.14957-1.90877,0.21928-2.917,0.06068-.87789,1.73777-4.22631-0.397-3.60416-1.30353.37988-.99769,2.68788-1.04927,3.7458a33.95989,33.95989,0,0,1-.8189,6.93206,0.39188,0.39188,0,0,1-.417.02689,41.17059,41.17059,0,0,1,.20234-6.38916,23.20787,23.20787,0,0,0-.09434-5.37319c-0.18666-1.09911-1.375-1.64134-1.92768-.54793a7.416,7.416,0,0,0,.06766,1.44586,22.95108,22.95108,0,0,1,.3653,2.77759c0.00655,0.15073.32483,0.92741,0.32192,0.9615-0.0393.45864-.46558,1.20579-0.536,1.77476-0.17821,1.43931.01783,3.70422-.60335,5.25062a4.01414,4.01414,0,0,1-1.42933-.05471,14.43827,14.43827,0,0,1-.149-1.6053,10.30743,10.30743,0,0,1-.06892-3.65975c0.15836-1.53676.11612-3.03834,0.22627-4.56083,0.07232-.99944.63806-3.29081-0.17723-4.00686a4.676,4.676,0,0,0-1.77741-.43022c-0.34863.1668-.13471,1.5762-0.11529,1.86561,0.10022,1.4923.46451,2.96411,0.50855,4.462a47.44793,47.44793,0,0,1,.007,7.81033,2.71643,2.71643,0,0,1-2.28124.24409,19.07023,19.07023,0,0,1-.8091-5.27179c-0.06331-2.73512.197-5.57236-.00153-8.34958-0.05847-.81793.60957-2.80481-0.06745-3.33853-1.4886-1.17347-1.39012,1.64123-1.40164,2.19409-0.03094,1.48716.30857,2.86086,0.38374,4.26316,0.07351,1.37118-.35764,2.8695-0.27794,4.28561a34.17013,34.17013,0,0,1,.06775,4.35209c-0.024.48157,0.35626,1.61259,0.09256,1.94621s-1.23642.13015-1.757,0.13015a17.15493,17.15493,0,0,1,.0042-3.537c0.07664-1.385-.35464-2.7501-0.40505-4.17663a74.54408,74.54408,0,0,0-.48659-7.73294c-0.17585-1.29271.22881-7.35852-1.51426-7.22934-1.62754.12062-.5337,2.59391-0.40263,3.45891,0.25282,1.66851.39629,3.32411,0.52,5.00222,0.24844,3.36931.35687,6.75792,0.64817,10.11768a13.48419,13.48419,0,0,1-.05575,4.032c-0.17539.59637-3.18431,0.36873-4.03455,0.13015-0.7158-.97609-0.22182-2.49145-0.073-3.843,0.12862-1.16822-.10852-2.29069.01412-3.44369,0.27334-2.56938.32165-5.30034,0.58583-7.94218-0.44313-.03271.71522-1.972-0.76033-1.84888-1.59093.13268-1.10465,2.82059-1.12731,3.76152-0.07241,3.009-.233,6.028-0.35859,9.04293a18.50666,18.50666,0,0,1-.29794,4.07808c-0.18078.48938-.911,0.19521-0.911,0.19521-0.911,0-.42855-1.36923-0.523-2.56693-0.21827-2.76756-.92981-3.9752-0.83259-6.43351,0.09912-2.50576.03841-5.0436-.0994-7.52266-0.03369-.606,1.1883-5.25727-1.4462-4.07648-0.92938.41654,0.138,5.32372,0.13741,6.55236-0.00064,1.507-.08889,3.0237-0.04711,4.53067,0.0389,1.404.66023,4.17963,0.14289,5.541-0.8363-1.02754-1.21161-4.51895-1.71924-5.77235a17.11837,17.11837,0,0,1-.94457-2.4516c-0.106-.46673-0.30664-2.25853-0.84951-2.529-1.81-.90175-1.58363,1.02974-1.393,1.58188,0.70062,2.02968,1.70662,3.99348,2.37554,5.99858,0.673,2.0174.58657,5.15431,1.94514,7.21315-0.99226.176-3.08455,0.64127-3.51635,1.5603-0.38291.81495,0.08071,1.9796,0.23965,2.80683a21.63758,21.63758,0,0,1,.13361,3.863c0.03495,1.77122.33433,3.31336,0.29665,5.12688-0.03844,1.85016-.47484,3.67715-0.49664,5.52281-0.08079,6.8377-.17649,13.77446-0.74477,20.605-0.34851,4.18877.37161,8.57069,0.30751,12.77628-0.05126,3.36218.244,6.861,0.35095,10.22972,0.09624,3.03058-.55866,6.2806-0.64973,9.24229-0.04573,1.48768.456,2.74744,0.23587,4.25233-0.26855,1.83628-.00446,3.56251-0.13941,5.35887-0.21515,2.86337-.51266,5.36332-0.7656,8.28136-0.03991.46043-.08213,2.3879-0.44239,2.76392-0.35081.36618-.63049,0.0627-1.13327,0.15033-0.87252.152-3.49953,0.89293-4.092-.281,1.71344-.81293,1.58775-2.09106,1.6721-3.81836,0.03172-.64976.69278-2.42043-0.47273-2.101-0.40775.11174-.90708,1.417-1.20805,1.32515-0.30831-.094-1.13162-2.32333-1.25339-2.67748a12.875,12.875,0,0,1-.38847-3.69036,21.57487,21.57487,0,0,0-.595-6.02771,14.79633,14.79633,0,0,1-.63406-1.38485,3.945,3.945,0,0,1,.102-1.11782,7.487,7.487,0,0,1-.79635-0.39957c-0.90252-1.50743-1.20122-1.50361-2.83636-1.82106-0.52512-.10194-1.26288-0.64342-1.78421-0.716,0.00573,0.0008-1.38124-.22856-1.15568-0.03872-0.98153-.8261-1.1041-3.40491-0.98692-4.52978,0.113-1.085.50985-1.62377,0.20095-2.71644-0.20207-.71472-0.52935-1.83346-0.81175-2.605-0.61-1.66659-2.4205-2.5628-4.11743-2.847a8.50975,8.50975,0,0,0-2.90878.20118c-2.0717.24081-2.33128-1.77235-2.58771-3.62389-0.5237-3.78117-1.12335-8.12156-6.06394-7.85095-1.715.09394-2.53482,1.02274-3.58036,1.87766-0.54692.4472-.009,1.44807-1.22285,0.703a3.61285,3.61285,0,0,1-.62112-1.11834,9.32894,9.32894,0,0,1-.20945-5.06191,5.91577,5.91577,0,0,0-.1654-3.03747,3.23743,3.23743,0,0,1-.47189-0.65086,6.90252,6.90252,0,0,0-2.17222-.939c-1.94535-.8034-1.64123-2.09737-1.6028-3.95987,0.01933-.93612-0.39259-2.01329-0.34816-3.12581a10.87113,10.87113,0,0,1,.31255-2.39415c0.39678-.89137.98347-0.73666,1.67356-1.28148a6.79006,6.79006,0,0,0,2.57974-3.98637c0.37309-1.26408.59718-4.54966,1.63358-5.18033,2.95623-1.79894,2.24049,6.57226,2.28088,7.63837a15.43764,15.43764,0,0,0,4.393,9.81756C66.18,59.54053,67.546,59.72915,69.2833,60.50167a21.26825,21.26825,0,0,1,2.88048,1.96385c2.46835,1.62077.62559,5.02161,2.22657,7.12526a35.53451,35.53451,0,0,0,3.16747,3.03266,17.29964,17.29964,0,0,0,2.23267,1.80991,5.448,5.448,0,0,1,.98476.91753c1.90293,1.956,3.38706,5.09757,4.7404,7.62042,1.07167,1.99776,1.41968,4.07434,2.228,6.15174,0.367,0.94316.391,1.83974,0.72367,2.7928a14.638,14.638,0,0,1,.9245,2.69184c0.36427,2.2398,1.84408,3.78246,1.95128,6.10138a16.50143,16.50143,0,0,1-.07507,2.82879c-0.094.73326-.78517,2.268-0.592,2.967,0.62963,2.27763,1.959-1.2241,2.04478-2.1156,0.11808-1.22754.514-3.70717-.95131-4.31582,2.40023-1.01662-.31246-3.95993-0.45132-5.61739a5.42631,5.42631,0,0,0-1.05291-3.31829,8.95686,8.95686,0,0,1-.87172-3.29382c-0.04215-.24617-0.31912-1.37631-0.38712-1.55188a6.99554,6.99554,0,0,0-.55926-0.4691c-0.05406-.42411.229-0.89094,0.17609-1.25167a3.66784,3.66784,0,0,0-.62525-1.27244c-1.0804-2.32339-2.36889-4.434-3.54569-6.66145a5.35038,5.35038,0,0,0-1.351-1.84728A12.7115,12.7115,0,0,0,81.48056,72.79a13.36283,13.36283,0,0,1-2.50313-1.96462,2.65277,2.65277,0,0,0-.38746-0.9386,1.45943,1.45943,0,0,0-.9282-0.43369c-0.31748-.28-0.591-0.49593-0.90469-0.79847-1.07088-1.03276-.85247-1.19063-0.86731-2.33525a13.09176,13.09176,0,0,0-.18787-3.31379A4.51622,4.51622,0,0,0,73.64548,60.606a16.44509,16.44509,0,0,0-5.41306-3.00825,3.38052,3.38052,0,0,1-1.65135-.69886c-1.19579-.85507-0.61769-1.07677-1.3124-2.14687a10.00231,10.00231,0,0,1-1.06709-.601,8.70326,8.70326,0,0,1-.25438-1.03622c-0.19614-.39645-0.6889-1.10967-0.90953-1.489a2.81985,2.81985,0,0,1-.70546-2.18782,28.77844,28.77844,0,0,0-.07365-3.28815c-0.16378-2.33427,1.06965-5.09689-.851-6.9865C60.19659,37.972,57.291,37.319,55.85628,38.47838c-1.03518.83654-.64182,1.80078-0.60432,2.83118a5.37914,5.37914,0,0,1-.75779,2.87915c-0.96105,1.649-2.4989,3.15114-3.60257,4.71028-1.49861,2.117-.95036,6.06784-0.79531,8.53182a7.4475,7.4475,0,0,0,.62528,3.34613c0.61943,1.00311.99963,0.789,2.02135,1.09537,1.80311,0.54071,1.96935,1.32834,1.74859,3.17718a14.13277,14.13277,0,0,0-.2776,3.49215,15.68427,15.68427,0,0,0,.35738,3.24472c0.31727,0.96026.88855,0.94013,1.42533,1.67645-2.53581.257-4.94959-2.1001-6.47043-3.66947-1.03795-1.07111-2.34082-1.84391-3.40713-2.82288-0.29224-.26829-0.01388-0.608-0.42-0.9224-0.09635-.07458-1.13039-0.412-1.29754-0.4956-0.7497-.3747-1.40709-0.98485-2.1677-1.324-0.68612-.30587-1.37413-0.19141-2.02625-0.44129-1.36216-.522-1.61205-1.91524-2.9208-0.39884a10.27279,10.27279,0,0,0-1.45279,3.81667c-0.36278,1.44029.20853,1.814,0.9311,2.9684,0.90224,1.4414,1.41481,3.13935,2.61873,4.36281A33.75441,33.75441,0,0,1,42.648,77.96995c0.61568,0.81188,2.94474,2.39292,3.02223,3.3514,0.13346,1.65106-.81518.41577-1.38833,0.02726-2.47316-1.67645-6.34537-.54344-9.16757-0.88276-2.8004-.33672-4.86055-2.14629-6.67276-4.19627-1.18294-1.33817-1.9732-3.44914-3.48933-4.27a6.64453,6.64453,0,0,0-4.44616-.526c-1.16015.147-1.35581-.19652-2.46725-0.55637,0.194,0.86074-1.66066,1.744-1.70595,2.85789-0.04581,1.12652.61,2.25748,0.51567,3.50541a14.88793,14.88793,0,0,0-.106,2.476,13.06754,13.06754,0,0,0,2.30227,5.69225,9.672,9.672,0,0,0,2.81568,3.29979c1.17635,0.84585,2.87593,2.007,2.92089,3.70053,0.06276,2.36248-2.017.50188-2.91687-.17061a21.67354,21.67354,0,0,1-2.38827-1.88311c-0.42891-.41957-0.082-0.65371-0.78743-0.79522-1.187-.23818-1.65908,1.6751-2.13027,2.622A6.07189,6.07189,0,0,0,16.432,98.208c0.90362,1.5101,2.64161,2.60586,3.75649,3.98925,1.31751,1.63479,1.03717,3.92547,1.25486,5.93221a7.82,7.82,0,0,0,2.88821,5.16578c1.28337,1.10106,2.6191,2.203,3.90552,3.28788,1.5182,1.28034,3.42862,1.71884,4.89558,3.049,1.551,1.40632,1.87922,2.07722-.86466,2.03633a29.49439,29.49439,0,0,0-5.794.29145,13.17369,13.17369,0,0,0-5.36408,1.98306c-0.63081.46846-.86313,0.08338-1.17928,1.14581a1.972,1.972,0,0,0,.48768,2.23778c0.69312,0.48867,2.358.28762,3.193-.026a8.20547,8.20547,0,0,1,1.7854-.66045c0.2603-.04647,2.63144-0.53584,2.55255-0.19585-0.05229.2255-1.31541,0.823-1.5722,1.12918a2.4464,2.4464,0,0,0-.2175.93269,0.81309,0.81309,0,0,1-.47278.06022c-0.45123.84855,2.25141,2.13425,2.69941,2.4815,1.3571,1.0519,2.18647,1.60475,3.88475.6497,0.43182-.24287.75554-0.90812,1.1991-1.19684a15.52955,15.52955,0,0,0,1.71206-.83905c0.46881-.39093.46737-1.03738,0.99782-1.42859,0.5641-.416,1.477-0.14892,1.98468-0.43268a8.95247,8.95247,0,0,1,.61006-0.81629,4.765,4.765,0,0,1,1.22891.08047c1.538-.23545,2.707-0.87893,4.33883-0.82711,1.253,0.03979,7.06482-.202,4.6383,1.99053-1.8344,1.65749-5.73,3.29875-4.10117,6.54883,1.55255,3.09785,4.706-2.042,5.72979-3.26006a12.85935,12.85935,0,0,0,1.2125-1.63406,4.86168,4.86168,0,0,1,2.48976-1.86,3.6811,3.6811,0,0,1,1.30286-.50451c1.73695-.264,1.1699-0.07428,1.82959-1.31756a5.085,5.085,0,0,0,.77208.67619,2.07993,2.07993,0,0,1,.75479-0.00475,16.88514,16.88514,0,0,1,1.76944,2.24835c1.97788,2.13584,4.03377,1.712,6.552,1.89962,2.11321,0.15744,4.0251.19027,6.10081,0.20927,1.43081,0.01311,3.799-.5552,4.58414.05682-0.08076-.06295,3.95315-0.58969,4.33109-0.5832a29.81715,29.81715,0,0,0,5.28478.00533,34.636,34.636,0,0,0,3.9426-.36407,11.23179,11.23179,0,0,1,3.426-.52123c0.098,0.00548.855,0.14084,0.95817,0.129,0.3003-.03446.38683-0.322,0.71257-0.37317,0.833-.13085,1.72082-0.27445,2.51769-0.36582,0.91581-.105,1.91255-0.11318,2.97741-0.19665,1.05282-.08252,2.1567-0.198,3.22472-0.36309,1.17007-.1809,2.366-0.40343,3.53347-0.61279,0.73577-.132,1.7118-0.12739,2.34266-0.28137a59.43156,59.43156,0,0,0,6.02428-2.05449,12.2767,12.2767,0,0,0,1.92119-.801,11.2827,11.2827,0,0,1,1.80158-1.06924c0.09845-.03235.512-0.22146,0.51927-0.22118,0.48117,0.01865,1.6876.10117,2.16935,0.08938a3.31718,3.31718,0,0,1,1.15629.17563A11.295,11.295,0,0,1,127.006,125.116a12.52472,12.52472,0,0,0,2.15383.85383c0.736,0.28582,1.43163.75286,2.1883,0.97592,0.72482,0.21367,1.50127-.04243,2.22662.18479,1.50544,0.47159,3.30935,1.36894,4.94149,1.28248,0.62229-.033,1.22035-0.24865,1.84823-0.23289a4.617,4.617,0,0,1,.87143-0.05789c1.40213,0.34257,2.574-.39336,3.81633-0.68468,1.189-.27883,2.47146-0.80864,3.66444-1.15856a12.21748,12.21748,0,0,1,2.39188-.4518,17.858,17.858,0,0,0,2.97627-.82833c0.80367-.25487,5.16587-1.3454,5.59865-1.52615,1.61982-.67644,9.13417-2.85467,9.77933-3.21323,0.49232-.27362,1.96281-1.23326,1.93632-1.20236,0.16017-.18672.9775-1.65544,1.18133-1.34787s1.00511,1.42469,1.225,1.645a6.471,6.471,0,0,0,1.07356.77415c1.7499,1.14293,3.47469.55643,5.52918,0.65809a15.47175,15.47175,0,0,0,5.828-.46106c2.75669-1.00366,3.7402-2.78688,3.97124-5.41816,0.144-1.63957-.08007-3.03683.20862-4.74691,0.25451-1.50756.24826-3.12351,0.40864-4.66289a32.8266,32.8266,0,0,0,.1458-4.48242c-0.03924-1.73545.66045-3.5595,0.75614-5.2725a22.80015,22.80015,0,0,1-.03106-2.53027,8.35054,8.35054,0,0,0-.11307-2.19052C191.39438,89.51621,191.575,88.90069,190.69008,88.15248ZM29.71937,127.93216a6.09745,6.09745,0,0,1,1.06464,1.22545C30.7017,129.0173,28.84094,129.33812,29.71937,127.93216Zm2.95125-2.0324c-0.13629.01574-.21625,0.02674-0.25824,0.03406a4.93047,4.93047,0,0,1-2.25525.04006,3.52384,3.52384,0,0,1,3.16742-.34174Q32.87433,126.3567,32.67062,125.89976Zm147.186-45.21317a15.37239,15.37239,0,0,1,2.13488-.02754c0.57743-.02463,1.15559-0.04926,1.73314-0.02793a2.01622,2.01622,0,0,1,1.87555,2.51975c-0.03774.34921,0.27047,2.16056-.05194,2.4124a4.92612,4.92612,0,0,1-2.34489.20856c-0.77763-.11512-4.18809.29692-4.5015,0.21056s-0.4266-.948-0.34922-1.68679-0.26819-2.02616.21853-2.67825A2.30243,2.30243,0,0,1,179.85665,80.68659ZM137.82385,48.949a4.89767,4.89767,0,0,1,1.7261-1.6083,5.5183,5.5183,0,0,1,.87461-0.45915,1.15233,1.15233,0,0,1,.291-0.09,0.69582,0.69582,0,0,1,.13434.01734l0.00144,0.00429a5.81618,5.81618,0,0,1,1.62833-.81786A6.912,6.912,0,0,1,143.327,45.781a6.83635,6.83635,0,0,0,.674-0.1145,8.5946,8.5946,0,0,1,1.0485-.37476,7.01928,7.01928,0,0,1,1.14624-.07039c0.69736-.00545,1.39226.06255,2.087,0.11238a23.52169,23.52169,0,0,0,4.61266-.29442c3.44127-.42714,7.32009-1.24968,10.80743-0.8245,2.21974,0.27062,4.95076.44644,4.613,3.10085-0.3826,3.00675-2.62023,2.38943-5.11637,2.68951a149.27182,149.27182,0,0,1-17.41813,1.05536c-1.38625.00315-2.74972,0.32475-4.15428,0.32281C140.4361,51.38175,136.69482,50.957,137.82385,48.949ZM97.23523,58.88571c0.21818-8.15455.73629-16.27,0.99637-24.4144,0.02429-.76141.30189-1.67186,0.24829-2.4091-0.0525-.72232-0.43728-1.01089-0.48653-1.75033-0.04693-.70465-0.28266-3.49466.04058-4.07838a2.784,2.784,0,0,1,1.87714-.61971c1.00326,0.01985,2.26737.0064,3.26365,0.03406a45.18152,45.18152,0,0,0,4.99575-.18884,24.01388,24.01388,0,0,1,4.12705-.17977,14.56629,14.56629,0,0,0,3.47065-.25487,24.44335,24.44335,0,0,1,3.54606.13171c0.76961,0.01326,3.71027-.59465,4.35855.16638,1.49671,1.757.21864,4.00122,0.78609,6.42879a17.40556,17.40556,0,0,1,.47826,2.85066c0.0737,1.22475.44855,2.798-.1273,3.84317a1.78834,1.78834,0,0,1-.47446-0.593c-0.42692-.06334-1.38871,1.49448-1.70717,1.95249a4.4054,4.4054,0,0,1-1.72791,1.42446c-3.26723,1.9142-5.65632,5.24242-8.67294,7.54054-1.676,1.27679-3.2732,2.805-4.98666,4.01764-0.58041.41078-1.24215,0.607-1.79628,1.0013-0.84245.59943-1.35646,1.66567-2.172,2.30942-1.24356.98161-2.74839,1.567-3.96312,2.6421-0.1908.16886-1.89885,2.0696-2.15618,1.9151A6.91919,6.91919,0,0,1,97.23523,58.88571Zm16.81227-8.998c-0.00971.01728-.01859,0.03112-0.027,0.04319a4.86942,4.86942,0,0,1-2.653,1.92707C111.61785,51.19019,113.36383,49.61929,114.0475,49.88773Zm-4.2334,3.20912q-0.45412.34606-.90831,0.69209C108.69781,53.44539,109.45144,52.85782,109.8141,53.09685Zm-1.86134,1.69664c-0.2655-.48509-0.3169-0.33868.08552-0.895C108.43513,54.2872,108.40584,54.10266,107.95276,54.79349Zm-3.08471,2.9605c-0.47112-.60066-0.54739-0.39828.07158-1.12275C105.3163,57.06294,105.09895,57.2224,104.86806,57.754ZM37.84357,67.287c0.00648-.0484.0102-0.07327,0.01213-0.0839,0.19551-1.319.59346-.78934,1.3-0.24639a2.889,2.889,0,0,0-1.09243,1.08192A5.9834,5.9834,0,0,1,37.84357,67.287Zm6.09254,9.19987c-0.48364-.49848-0.86049-1.35952-1.27209-1.78194-1.182-1.21311-2.52606-2.00046-3.37517-3.54477-0.215-.391-1.20553-2.0415-0.86527-2.45954,0.16206-.19913,1.78522,1.2956,1.924,1.43839,0.16695,0.17171.08555,0.48249,0.26668,0.6523,0.354,0.33191.8109,0.59637,1.20135,0.93061,0.81219,0.69531,1.473,1.50936,2.32849,2.18323,1.78119,1.40308,3.44925,2.86941,5.10212,4.4143a18.04,18.04,0,0,0,4.09091,3.14551,12.34544,12.34544,0,0,1,2.24045,1.2336c0.63824,0.51152,1.05086,1.31593,1.712,1.80317a37.85317,37.85317,0,0,0,4.03109,2.37372,48.09471,48.09471,0,0,1,4.29919,3.31109c3.75843,2.68137,7.89729,5.10213,10.81644,8.73322,1.2956,1.61158,1.8987,3.90039,3.04029,5.62477,0.62032,0.937,2.34874,4.14779,3.49981,4.45731,2.34315,0.63-.55113-3.21363-0.87962-3.74025-0.82133-1.31664-1.35846-2.79816-2.29321-4.06386-1.69226-2.29148-3.04319-4.68008-5.4541-6.70084a14.3225,14.3225,0,0,1-1.47691-1.16557c-0.25688-.26419-0.45509-0.53192-0.69475-0.77461a1.42352,1.42352,0,0,0-.65014-0.2062l0.03587-.43075c-1.00253-.90711-2.26415-1.37324-3.17923-2.07994-1.61548-1.24763-3.29892-2.09719-4.83847-3.46691a34.30554,34.30554,0,0,0-3.53569-2.44018c-1.61193-1.11858-3.12739-2.7675-4.82473-3.87141-0.94137-.61227-2.06751-0.8888-3.00237-1.51433a21.36147,21.36147,0,0,1-2.161-1.9532c-1.897-1.65994-3.76439-3.17911-5.55569-4.944C43.2622,70.46331,41.855,69.783,41.1323,68.191c-0.26209-.57741-0.48059-1.328-0.09973-1.57543,0.4769-.30979,2.44147,1.00675,2.886,1.30282a28.77356,28.77356,0,0,1,4.297,4.09c1.2457,1.25832,3.20419,2.04833,4.7369,3.03634a4.23964,4.23964,0,0,0,2.892.98822,6.76036,6.76036,0,0,0,1.61982-.72382c1.56781,0.554,2.844-1.83554,3.77416-3.11923a3.40076,3.40076,0,0,0-.71644.149,1.1882,1.1882,0,0,1,.60583-0.97661c0.18893,0.84833,1.48593.05783,2.145,0.14225,0.21827,0.028.65141-.122,0.83339-0.07324,0.5437,0.14559-.11826.3633,0.2361,0.55977,1.19842,0.66455,2.02107,1.20943,1.69314,2.96644,0.39663,1.44578.123,2.48515,0.49357,3.73407,0.373,1.25715,1.12067,3.39854,2.16493,4.23665,1.56778,1.25826,2.49068.05853,4.022,0.0313,0.806-.01433,2.29049,1.4156,2.55666.37877,1.119,0.57076,1.4258,2.95655,1.42263,4.04138-0.00463,1.579-.28535,2.98283.223,4.48647,0.59453,1.75863,1.17084,3.00516,2.90625,3.65222,0.13909,0.05186,2.70249.97934,2.69255,0.98825a0.59046,0.59046,0,0,1,.1934-0.51483c3.99865,2.44346,1.94321,7.53693,2.61735,11.1647,0.19014,1.02314,1.845,4.16417.07171,3.22193-0.46437-.24676.002-1.07046-0.87186-0.92522-1.08832.18087-.54923,1.46137-0.42035,2.33439-1.87065-.06178-4.62327.16767-6.06556-1.13154a0.29563,0.29563,0,0,1-.16988.43918,0.54345,0.54345,0,0,1-.23988-0.60982,6.05124,6.05124,0,0,0-.64334-0.17554,9.81191,9.81191,0,0,1-.88462-0.55845c-0.865-.817-0.85685-2.1329-1.27253-3.16949-0.41754-1.04118-.8039-1.97945-1.2032-3.00354a4.5253,4.5253,0,0,0-1.5877-2.1828c-0.84948-.41535-2.484.24244-3.36073,0.54016a10.781,10.781,0,0,1-1.4039.53462l-0.19609.36787-0.62066-.23493a2.26608,2.26608,0,0,1-2.86323-.97811c-0.59289-.91744-0.20807-1.92624-0.204-2.84588a9.71037,9.71037,0,0,0-.63022-2.74918c-0.376-1.36356-.52837-1.94149-2.05241-2.286a13.39515,13.39515,0,0,0-4.136-.21613,16.56071,16.56071,0,0,1-2.66147.23245c-1.08873.00548-1.49232,0.49648-2.59369,0.3732a4.74219,4.74219,0,0,1-3.363-2.42089c-1.25078-1.99785.87282-2.91789,1.37526-4.54534,0.52359-1.696-.73764-2.9514-1.29584-4.4714-0.58335-1.58845-.81939-3.20505-2.01462-4.49085C45.42169,77.56149,44.56189,77.13184,43.93611,76.48686Zm-22.95131-3.024c3.598-.55845,5.60758,3.49019,7.779,5.5788,1.06471,1.02406,1.98039,2.27739,3.40932,2.87186a10.43552,10.43552,0,0,0,5.42568.9114,10.12408,10.12408,0,0,1,2.04536-.48607,1.9562,1.9562,0,0,1,.57418.51453,12.24653,12.24653,0,0,1,1.8278-.03247,5.69643,5.69643,0,0,1,2.53661,1.9339c-0.17986-.19125-0.34084.75016-0.22844,0.97851,0.36326,0.738,1.67074,1.10324,1.93394,1.66922,0.20645,0.444-.41559.63974-0.447,1.05846-0.05863.78162-.14362,1.5105-0.14307,2.29785,0.001,1.5135.06154,2.34885,1.104,3.42164a14.81756,14.81756,0,0,0,2.68967,2.23263c2.93126,1.52823,5.67818-.57459,8.64361-0.481a6.11964,6.11964,0,0,1,2.67376.6277c0.82963,0.82867.13819,3.89423,0.2684,4.97339A4.218,4.218,0,0,0,64.212,105.1634c1.93175,0.51563,4.56174-1.111,6.04772-.55869,1.92076,0.71387,2.12846,4.143,2.93177,5.63219,1.28461,2.38147,4.48748,2.53171,6.52346,4.01473l-0.37713.30578a16.3229,16.3229,0,0,0-3.86417-.03694,4.23013,4.23013,0,0,1-1.95408.15018,3.428,3.428,0,0,1-.69708-0.29806c-0.01044-.00809.33316-1.02718,0.04209-1.12924a8.87711,8.87711,0,0,0-1.97133-.24425,6.38742,6.38742,0,0,1-2.496-.567c-0.88684-.30973-1.89564-0.11572-2.79517-0.33963a18.8129,18.8129,0,0,1-3.02934-1.33765,53.7913,53.7913,0,0,0-5.7203-2.06288c-2.25812-.73724-4.12847-2.10292-6.27986-2.98519-2.27278-.932-4.46755-3.13981-6.15089-4.8422-2.1541-2.17848-4.65364-3.982-6.77811-6.2168a32.38037,32.38037,0,0,0-3.7214-3.93754,33.47472,33.47472,0,0,1-2.79353-3.00632c-1.37824-1.33618-2.30694-3.179-3.75722-4.40052a25.86624,25.86624,0,0,1-3.10463-2.86484c-1.1596-1.344-1.792-2.66532-3.1724-3.7817C19.77314,75.58836,18.37563,73.86783,20.9848,73.46287Zm22.54177,48.85877c-0.83712.07912-3.41683-1.27437-2.1819-1.55981-0.04448.01029,1.75139,1.164,2.16038,1.486a0.26838,0.26838,0,0,1,.0765.06723A0.39813,0.39813,0,0,1,43.52657,122.32163Zm14.46364-1.48342c-0.29728,1.69305-2.09221,1.3756-3.52812,2.05887-0.644.30642-.21755,0.56262-1.14231,0.648a7.72257,7.72257,0,0,1-1.61055-.54326c-1.21167-.38266-2.23317-0.24519-3.3966-0.509-1.22867-.27861-1.481-1.1596-2.42187-1.70619-0.70376-.40885-1.70164-0.28789-2.40669-0.74-0.65467-.41985-1.01841-0.80539-1.664-1.19375-0.63827-.384-1.31872-0.483-1.96191-0.92154-1.1832-.80668-3.22779-2.64308-4.66763-1.91687-1.56023.78692-.60515,1.583-2.40433,0.72339-0.73378-.35056-1.25432-0.745-1.90538-1.07331a15.47549,15.47549,0,0,1-7.39653-7.097c0-2.33653.24815-5.65381-1.175-7.4858a30.00865,30.00865,0,0,0-2.29013-1.99834c-0.989-1.026-2.131-1.851-2.56748-3.27189-0.339-1.10342-.36251-3.042.986-3.532,1.18716-.4313,1.62623.63824,2.32338,1.26677,0.7577,0.68311,1.83311.94853,2.46146,1.46281,1.19925,0.98158.443,1.62545,0.74678,2.93422,0.39453,1.69955,2.29792,3.07668,3.44662,4.239,1.84455,1.86639,3.62173,2.41041,5.97626,3.44179,1.84149,0.80662,3.92315.23205,3.968,2.59891,0.007,0.36732-.24457.89066-0.25178,1.30546a1.74721,1.74721,0,0,1,.44144.47605c-0.07292.86947-.40179,1.53868,0.02659,2.38049-0.19805-.44521,1.09217.83452,0.77334,0.61542a8.16377,8.16377,0,0,0,1.69056.9,10.52242,10.52242,0,0,0,2.81969.87431c0.96917,0.11652,1.90569.16957,2.88526,0.32949,0.98533,0.16087,2.28762.81807,3.308,0.788a12.63586,12.63586,0,0,1,1.21784-.38505,6.01623,6.01623,0,0,1,1.39026.42377c1.07585,0.3777,2.13042.733,3.23346,1.04648C56.57116,117.45382,58.32441,118.935,57.99021,120.83821Zm-0.89474-5.51595c-0.74316-.23879-1.48664-0.95566-2.20749-1.15966a11.11548,11.11548,0,0,0-1.42839-.01038c-0.56137-.094-0.09975-0.1458-1.06481-0.395a23.36764,23.36764,0,0,0-3.55924-.48846,41.68792,41.68792,0,0,1-4.61586-.94032c-1.06913-.23083-2.27478-0.0925-3.18851-0.90286-0.31667-.28085-1.38262-2.061-1.104-2.19554,0-.38226.527-1.84167,0.46368-2.06843a6.72988,6.72988,0,0,0-.931-0.76275c-0.416-.57487-0.40729-1.329-1.07356-1.86158a6.23511,6.23511,0,0,0-2.79877-.923,18.31314,18.31314,0,0,1-4.77822-1.4863,7.51192,7.51192,0,0,1-2.10138-1.8511c-0.41528-.395-1.249-0.77105-1.62126-1.20227-0.93718-1.08553-.12638-2.06827.04446-3.1754a10.44153,10.44153,0,0,0-.67575-4.67077,5.67184,5.67184,0,0,0-2.91719-3.61825,9.04139,9.04139,0,0,1-3.75748-4.43354c-0.29648-.66192-2.46026-5.63648-1.2965-5.96407,0.88895-.25025,3.68573,3.03686,4.37519,3.75339,1.40311,1.45818,2.6457,2.90953,4.124,4.36621,1.20214,1.1845,2.064,2.87976,3.148,4.02619,1.37249,1.45166,2.987,2.61508,4.45505,3.99617,1.33237,1.25342,2.14463,2.94191,3.42341,4.20571,1.3422,1.32644,3.01468,2.163,4.404,3.498,1.19084,1.14434,2.34635,2.27209,3.50634,3.429a22.05558,22.05558,0,0,0,9.41159,5.34065c2.18546,0.64636,3.99206,2.0158,6.15875,2.65276,1.50619,0.44279,3.78938.79176,4.7913,2.12748-0.7165.46221-1.73829,0.16381-2.55439,0.365-0.50269.12393-1.12865,0.3981-1.71745,0.534-0.39135.09033-.87967,0.31163-1.25605,0.42953a2.09321,2.09321,0,0,0-1.3855.5662A3.8434,3.8434,0,0,0,57.09547,115.32227Zm62.271,6.59517c-0.22611.7686-2.07036,1.17914-2.7203,1.48734-2.17582,1.03181-4.588,1.01122-6.8022,1.87239-0.44469.17294-1.97752,1.36865-2.54191,0.97039-0.6723-.47434-0.0434-0.9386-0.098-1.67667-0.084-1.13718-.58691-1.82-1.90771-1.49083-0.36024.08978-1.83894,1.24726-1.14327,1.37459-0.44809,1.95381,1.41064,2.36744-1.10587,2.43118-2.078.05262-4.11841,0.57217-6.19453,0.637-1.41505.0442-4.84444,1.38191-6.09985,0.51722A3.26825,3.26825,0,0,1,89.6007,126.041c0.62555,0.32165,1.46513-3.12109-.22775-3.26852-0.6278-.05467-1.377.96528-1.50177,1.73538a3.28933,3.28933,0,0,0,.30027,1.35646,4.42928,4.42928,0,0,0-.65821,3.044c-0.53027.02475-.91872-0.34284-1.38785-0.35145-0.68034-.0125-1.40675.35629-2.09936,0.37957-1.26846.04264-2.57669-.33347-3.83049-0.37681a13.26878,13.26878,0,0,0-2.906.26079,6.37786,6.37786,0,0,1-2.98586-.02631c-0.68241-.10359-1.53693.47651-2.2908,0.18455-0.742-.28737-0.95007-1.48244-0.87581-2.37163,0.073-.87431.85516-1.70028,0.10178-2.61925a2.07289,2.07289,0,0,0-1.74506-.43382c-0.3993.21809,0.13735,0.60559,0.06973,0.75087a7.63441,7.63441,0,0,0-.63042,1.38586,18.93812,18.93812,0,0,1-.43493,2.52629c-0.59507,1.305-.5103.534-1.77871,0.8159,0.35912-.64213-2.17408-0.43158-2.74157-0.72756a5.24292,5.24292,0,0,1-1.85712-2.32486,27.22728,27.22728,0,0,1-1.42908-2.73865c-0.63882-1.56937-.37649-1.70518.36242-3.03845,0.56209-1.01426.42483-1.36994,1.47866-2.16981a10.31012,10.31012,0,0,1,1.62455-1.19439,11.37415,11.37415,0,0,1,4.25266-1.0629,7.61107,7.61107,0,0,1,1.91233.19113,14.96054,14.96054,0,0,0,1.41087.60556,4.361,4.361,0,0,1,.83732-0.75865c0.53811-.14568,1.6517.39819,2.27161,0.46919,0.40329,0.04619.78449,0.29442,1.15122,0.29258,0.68613-.0034.81969-0.71678,1.6495-0.40325,1.42089,0.53682-.16978,2.4468.10442,3.74776,0.16159,0.76673.67667,1.71719,1.54977,1.4107,1.01153-.35507,1.13019-2.52975,1.21678-3.41955,0.121-1.24328-.245-1.69262,1.08106-1.97381,1.15944-.24584,2.19151.19165,3.30223-0.03017-0.52,1.55124,2.41914.65987,2.826,0.63892a3.87078,3.87078,0,0,0,.64411.47774,10.86756,10.86756,0,0,0,1.65438.05654,8.44768,8.44768,0,0,1,2.37133.43467c1.46284,0.3452,2.861-.15288,4.24738.33163,1.28333,0.44852.86486-.19233,1.13989,1.25495,0.10623,0.55909-.22495.20433,0.35552,0.54644-0.51425.49391,0.749,0.565-.18776,1.31936,1.03882,0.08436,1.22845,1.34944,2.21545-.11474,0.42064-.62406.05017-2.1526,0.6191-2.51315,0.44481-.28189,2.03369.22173,2.5224,0.26085,0.30005,0.024.516,0.17649,0.86463,0.19787a11.54781,11.54781,0,0,0,1.31514-.1469,4.92178,4.92178,0,0,1,1.96434-.13055,7.04565,7.04565,0,0,1,.65723.58651,10.99659,10.99659,0,0,0,1.93417-.16167,8.48562,8.48562,0,0,1,2.05054.71114,4.52506,4.52506,0,0,0,1.73036.1084,11.90033,11.90033,0,0,1,2.61714.49627C117.30076,120.41365,119.88383,120.159,119.36643,121.91744Zm4.38306-17.65a50.75182,50.75182,0,0,1-.51949,5.99283c-0.20914,1.30861.20243,2.16712-.00236,3.6427a17.90173,17.90173,0,0,0-.33289,5.26175,7.38737,7.38737,0,0,0,.27981,2.42064c-0.44282.5092-1.02513-.00852-1.21773-0.50926-0.29938-.638-0.17511-1.56453-0.92987-2.03688a4.15623,4.15623,0,0,0-2.38134-.46806,12.88627,12.88627,0,0,1-1.501-.15033c-0.989-.15168-1.96536-0.37507-2.95361-0.53125a18.71425,18.71425,0,0,1-2.92846-.32293,9.59126,9.59126,0,0,0-1.655-.75773c-1.029-.18773-2.23806.36747-3.29605,0.28275-0.92718-.07422-1.75839-0.21147-2.694-0.25772-0.957-.04729-2.03559.02475-2.974-0.111a18.01487,18.01487,0,0,1-3.3492-.68973c-0.74618-.64418-0.47927-2.99395-0.56889-4.05743a39.49226,39.49226,0,0,1,.09854-5.98061c0.0623-.88873-0.33483-5.1632-0.0858-6.15932,0.741-.90091,2.20489-1.513,2.5942-2.29985a6.29028,6.29028,0,0,1,2.03118-1.65143c1.18217-.807,2.11664-1.78127,3.2559-2.60066,0.92209-.66317,2.06478-1.40868,3.13886-2.18,1.81349-1.30221,3.73-2.23092,5.60511-3.40559,1.533-.96038,2.44267-2.62467,3.99356-3.53515,0.73378-.43078,1.63286-0.40518,2.339-0.83394,0.73641-.44714.65622-0.92194,1.19341-1.42507,0.19346-.18118,2.15846-2.16156,2.495-2.03224-0.04151,1.07913.1759,6.626-.04133,8.72542a36.957,36.957,0,0,0,.13413,5.57669c0.03385,0.86791-.14935,1.80185-0.10267,2.62369,0.02322,0.40858.25328,1.404,0.24274,2.02888C123.5865,100.64351,123.81589,102.45624,123.74949,104.26743Zm0.36217-34.249c-0.27984.37317-.81179,1.31979-0.96228,1.44a31.62942,31.62942,0,0,1-3.52474,2.91186c-0.59511.35424-1.58517,0.43026-2.08959,0.7784-0.72012.497-1.16211,1.20291-1.877,1.75569-1.24212.96035-2.80064,1.473-3.74564,2.25907A65.76027,65.76027,0,0,1,104.264,84.65c-1.652,1.0085-3.02277,2.522-4.51431,3.59044,0.00793-.00567-2.42771,1.17784-2.43059,1.17765a5.92893,5.92893,0,0,1,.0415-1.90923c0.0415-.99612.14692-1.97365,0.14343-2.82551-0.0045-1.10183-.05078-2.20341-0.11707-3.30313-0.05415-.89872-0.532-2.11407-0.4986-2.97585,0.02665-.68737.34459-1.292,0.40873-2.01066,0.0823-.92267-0.06549-2.12157-0.07226-3.06363-0.00432-.60446-0.07176-1.4271-0.07011-2.339,0.62093-.54076,1.20585-0.84738,1.48621-1.1671a30.32691,30.32691,0,0,1,3.33474-3.54226c0.77672-.64014,1.87062-0.94249,2.541-1.41355,0.29938-.21037.834-0.96448,1.16578-1.28258,0.57049-.547,1.0701-1.1736,1.65832-1.70181,1.342-1.20518,3.0357-1.65507,4.34814-2.81007,0.8729-.76817,1.62744-1.71946,2.67248-2.57542a9.87229,9.87229,0,0,1,2.40471-1.59329,7.675,7.675,0,0,0,1.09129-.25849,2.52494,2.52494,0,0,0,.37758-0.77072,14.06322,14.06322,0,0,1,1.10612-1.17154c0.66213-.47939,1.60812-0.756,2.34606-1.25063,1.36565-.91532,2.49045-2.17753,3.88348-3.01744,0.37458,0.858-.09673,1.66895-0.06258,2.58464,0.03639,0.97609.49063,1.79426,0.44071,2.77758-0.086,1.69357-.146,3.43919-0.11355,5.12774,0.03547,1.84415.16908,3.96489,0.3328,5.77067a16.13306,16.13306,0,0,1,.12159,3.8443A19.59769,19.59769,0,0,0,124.11166,70.01847ZM141.50786,94.677c-0.08221.32309-.27013,2.26446-0.28042,2.43035-0.06147.99233,0.0873,2.23184,0.03642,3.3019-0.0249.52338,0.00606,0.89688-.03287,1.25357-0.41326,3.78721-.73454,7.11257-0.85036,10.96251-0.06451,2.14454-.13918,4.1677-0.24045,6.3187-0.06778,1.4401.21142,5.09753-.402,6.59337-0.26032.62587-2.91609,0.34074-3.40494,0.18778-0.74188-.23213-1.391-0.64873-2.16282-0.81-0.62259-.13012-1.46057-0.16056-1.92817-0.268a10.933,10.933,0,0,1-1.52967-1.01551c-1.0353-.52868-4.09641-0.9466-5.004-1.75667-1.12063-.62257-0.50081-6.77653-0.41774-6.96883a6.2329,6.2329,0,0,1-.07985-1.48875,9.924,9.924,0,0,0,.1874-2.32832,21.68572,21.68572,0,0,1,.13021-2.86674c0.05265-1.21835-.22253-2.5564-0.069-3.65146a48.6372,48.6372,0,0,0,.59759-5.64971c0.02781-1.5063-.49848-3.095-0.61487-4.59508a28.25619,28.25619,0,0,1-.23784-2.91232c0.02058-.5137.20182-0.66057,0.22872-1.18588,0.01614-.315-0.1023-1.035-0.09391-1.44121,0.01709-.82766-0.05014-1.71759-0.02836-2.53765,0.10423-3.92155-.08252-7.46439,1.93938-11.05309,1.42976-2.53765,3.39389-4.51575,5.10152-6.92346,1.08872-1.53509,1.79358-3.45267,3.01233-4.89357,0.07446-.12592.15569-0.25144,0.24213-0.37893a9.23942,9.23942,0,0,0,1.06259-2.47841,0.37061,0.37061,0,0,1,.021-0.05189c0.01213-.0396.02355-0.07939,0.0359-0.11891a0.31466,0.31466,0,0,1,.21236-0.2168c0.06536-.088.14476-0.19027,0.23527-0.31068v0.13529q-0.1433,1.00707-.21659,2.02089c-0.17208.64069-.33626,1.28356-0.51382,1.92281-0.09152.83914-.33252,1.90213-0.39795,2.43568-0.43329,3.53417-2.44135,6.67484-3.30491,10.05194,3.90924-.59217,4.71481-9.59423,5.817-12.39206,0.97867,1.01576,1.03671,4.7293,1.27357,6.09994,0.05651,0.327.27953,1.22208,0.27821,1.51736,0.01737,0.2799.5261,1.97274,0.55082,2.17833a10.72338,10.72338,0,0,1,1.243,2.2021,2.53343,2.53343,0,0,0,.05066,1.29266c0.34912,0.181.40214,5.39958,0.28553,6.92493-0.18835,2.46346-.63337,4.96944-0.69947,7.47416C141.51319,92.68453,141.57733,93.69536,141.50786,94.677Zm30.61558-4.35221a6.49387,6.49387,0,0,0-1.04008,2.7671,22.21378,22.21378,0,0,0-.51526,4.54282,27.47764,27.47764,0,0,0-.02861,4.26041c0.094,0.64078.63227,6.10794,0.57527,6.0944a24.87331,24.87331,0,0,0,.01044,2.88362c0.00456,0.28259.18234,1.92035,0.367,3.1718a7.67907,7.67907,0,0,0,.30694,1.4553,16.59027,16.59027,0,0,1-2.25852,2.07286,8.06628,8.06628,0,0,1-1.6166,1.1486c-1.53987.95045-3.54489,1.21311-5.28169,1.7681-4.45565,1.42375-9.05545,2.18439-13.47633,3.48235-0.85991.25245-1.75067,0.68073-2.68507,0.89039-1.5082.33843-2.9855,1.21146-4.404,0.78975a7.4059,7.4059,0,0,1,.08779-3.30188,9.66905,9.66905,0,0,0,.23463-2.03629c-0.0246-.679-0.14166-1.38822-0.15441-2.04512-0.01473-.76033.30655-1.48829,0.27016-2.25055a15.58737,15.58737,0,0,1-.17652-2.349c0.1768-1.71048.25668-3.37067,0.42006-5.06473,0.07492-.7766-0.02107-1.69725.033-2.35451,0.06282-.76327.28523-1.74405,0.35488-2.607,0.0223-.27656.01535-1.18683,0.01691-1.438,0.00337-.553-0.03832-0.73911-0.04411-1.2786-0.02077-1.931.26679-3.9841,0.39495-6.067,0.13823-2.24626.06239-4.61906,0.29818-6.86358,0.17723-1.68708.6467-3.44106,0.80343-5.1251a8.86885,8.86885,0,0,0-.11836-2.01443,5.33973,5.33973,0,0,1,.09743-1.8221,18.69946,18.69946,0,0,0-.21-2.08193,10.96739,10.96739,0,0,0-.64954-2.69521c-0.61487-1.62484-1.85423-3.12186-2.39939-4.77335a25.52275,25.52275,0,0,1-.42723-3.36035c-0.02052-.13079-0.20565-0.82224-0.25843-1.15194a10.9149,10.9149,0,0,0-.44171-1.65026,23.024,23.024,0,0,1-.60268-7.75743c-0.03366.52522-.02407-0.41863,0.0044-1.04485a2.41341,2.41341,0,0,1,1.56556-.62622,17.68214,17.68214,0,0,1,3.55809-.74008c2.39326-.046,4.77242.34537,7.1413-0.05665a12.62032,12.62032,0,0,1,2.85026-.46919c1.47365,0.04212,2.92451-.14335,4.42248-0.19974,2.05375-.07731,3.88265-0.06328,5.90853-0.11569a4.89831,4.89831,0,0,0,.786,1.18626,7.41948,7.41948,0,0,0,.76012,1.22594,37.1949,37.1949,0,0,1,1.65864,3.49718c0.25609,0.51474.487,1.07278,0.78606,1.56206a10.91543,10.91543,0,0,1,1.053,1.486c0.24408,0.59717.316,1.25148,0.59454,1.8367,0.41646,0.875,1.18017,1.5307,1.63063,2.39129,0.27286,0.5213.673,0.95775,0.971,1.46246,0.53168,0.90063.85644,1.90626,1.332,2.8357a13.45583,13.45583,0,0,1,1.09227,3.20084,17.0853,17.0853,0,0,1,.40678,2.34433c0.07,0.85907.43528,1.22021,0.48254,2.07963a4.42856,4.42856,0,0,0,.2749,1.28129c0.14694,0.373.28873,0.65418,0.02909,0.88428a5.78916,5.78916,0,0,0-.80993,1.59027,2.78566,2.78566,0,0,0,.058.99951,10.93311,10.93311,0,0,1,.19407,2.2335,2.66307,2.66307,0,0,0,.3762,1.81774c0.40771,0.61157-.78346,1.14215-1.1335,1.54132-0.14626.16675-1.29977,0.61629-1.5574,0.78264A5.35771,5.35771,0,0,0,172.12344,90.32482Zm12.71175,5.7585a2.22491,2.22491,0,0,0-.66279.67614,1.48647,1.48647,0,0,0,.204,1.89822,0.75217,0.75217,0,0,0,.574.16167c0.8314-.05565,1.6083-0.37268,2.42716-0.49565a5.09744,5.09744,0,0,1,1.80044-.0043,20.63748,20.63748,0,0,1-.08555,3.30623c0.022,0.73779.18038,1.34662,0.15388,2.26127s-0.05763.97776-.6171,1.08212-2.32476.31489-3.41259,0.43083a1.434,1.434,0,0,0-.95571.19764,1.9386,1.9386,0,0,0-.33382,1.171c-0.03154,1.24513,1.025,1.3794,2.01674,1.33911a9.44184,9.44184,0,0,0,1.32463-.16708,8.319,8.319,0,0,0,1.42858-.23243,7.71753,7.71753,0,0,1-.20036,1.667c-0.045.67815-.1862,1.36858-0.18364,2.04807a15.45554,15.45554,0,0,1-.5608,4.41863c-0.54451,1.39514-1.8202,1.611-3.11721,2.071a7.14157,7.14157,0,0,1-3.48167.31733c-1.11518-.06932-3.17816.21061-4.16785-0.2013a10.57849,10.57849,0,0,1-1.86489-1.4516c-0.87388-.76131-0.98338-2.58807-1.22224-3.75741-0.53091-2.59912-.08353-5.30267-0.51866-7.86373a36.93194,36.93194,0,0,1-.66915-5.71468,33.22945,33.22945,0,0,1,.18264-3.36518,8.92149,8.92149,0,0,1,.4133-2.9582,6.99762,6.99762,0,0,1,2.48826-3.1444,14.417,14.417,0,0,1,2.24452-.89468,11.76517,11.76517,0,0,1,3.297-.39418,19.674,19.674,0,0,1,4.7677-.08838c0.99914,0.16151,2.79316.59169,2.99669,1.79821,0.18186,1.07808.13934,3.86878,0.35738,5.14452a20.92743,20.92743,0,0,0-3.3647.27258A3.25635,3.25635,0,0,0,184.83519,96.08332Z"/></svg>