<svg id="HIW-3_Steps" xmlns="http://www.w3.org/2000/svg" viewBox="0 0 244 136"><defs><style>.cls-1{fill:none;}.cls-2{fill:#ffaa96;}.cls-3{fill:#ff564d;}</style></defs><title>Illustrated-Icons_All-Icons</title><rect class="cls-1" y="0.17178" width="244" height="136"/><g id="eg92Ns.tif"><path class="cls-2" d="M35.90661,101.8737c-0.61931,1.225.12046,0.5983,0.2955,1.58542,0.08641,0.48729-.31128,1.077.16781,1.59853a8.46869,8.46869,0,0,0,1.94962.9452,20.94628,20.94628,0,0,1,2.11228.69017,7.44374,7.44374,0,0,0,1.83973,1.12881,17.92772,17.92772,0,0,0,3.69751.42176c0.64086,0.02635,1.63088-.546,2.08662-0.48952,0.7791,0.09651,1.2092.9927,2.09724,1.18218a38.06081,38.06081,0,0,0,6.5072.62458c2.28816,0.06986,4.51473.45735,6.78092,0.73533a41.78881,41.78881,0,0,0,6.47593.34815c2.33138-.07865,4.62651.35038,6.95019,0.20881,9.3514-.56973,18.74931-0.47,28.09088-1.14472,4.56728-.32987,9.29557-0.46413,13.83994-1.08885,3.88735-.5344,7.71317-1.39448,11.58171-1.99495,4.703-.73,10.03643-2.06374,14.08064-4.61933,1.331-.84106,2.70089-1.74128,3.06945-3.12924a7.84859,7.84859,0,0,0-.03308-1.13649,7.76381,7.76381,0,0,0,.26609-0.88368c-0.00312-.41051-0.761-2.1653-1.32124-1.64358a2.05588,2.05588,0,0,0-1.47558-1.35095,11.317,11.317,0,0,0-1.46375-.05178,7.78535,7.78535,0,0,0-1.79564-.49316c0.72567-1.515.83126-2.85149,2.76154-2.66334,0.75779,0.07386,1.27343.45186,2.00028,0.58882a12.27366,12.27366,0,0,0,2.53374-.09281c1.42106-.065,2.61532-0.37076,3.984-0.334,1.65087,0.04433,3.31147.2276,4.98712,0.22011,2.95056-.01317,5.88469-0.36109,8.83453-0.47514,3.50137-.13538,6.91512-0.00234,10.42267.08013,6.03267,0.14183,11.94517-.07691,17.92721.3628,2.906,0.2136,5.88194.306,8.764,0.39745,2.311,0.07335,4.54915.5813,6.89135,0.495,2.14806-.07913,4.133-0.193,6.28029-0.1996a13.45276,13.45276,0,0,0,1.505.21121c0.465-.07034.66653-0.47856,1.17973-0.52419a14.92406,14.92406,0,0,1,3.73233.71863,5.31848,5.31848,0,0,1,2.79122,1.20315A8.83342,8.83342,0,0,1,228.07,95.44933a15.05205,15.05205,0,0,1,1.35572,3.33271c0.16195,1.02434-.62174,2.8052-1.0718,3.7245a4.34016,4.34016,0,0,1-1.09449,1.33228l-0.30518.33465a0.651,0.651,0,0,1-.97757.05749,7.0169,7.0169,0,0,1-2.34722.89342c-1.04554.06266-2.14855-.0681-3.29469-0.01614-1.76549.08-3.08535,0.525-4.821,0.07885a31.39573,31.39573,0,0,0-8.3215-.78014c-2.39356.03405-4.80933,0.28268-7.12943,0.199-1.17045-.04223-2.49353-0.32907-3.7572-0.34461-1.61373-.01985-3.25449-0.098-4.86676-0.016-0.71241.03624-1.43042,0.2666-2.12594,0.29607a8.72936,8.72936,0,0,1-1.21964-.11762c-1.65024-.0513-3.20242-0.25858-4.85122-0.198-3.11673.11455-6.25841-.5176-9.377-0.46407-2.44628.042-4.77181-.72485-7.28467-0.87636-2.62109-.158-6.36686-0.40182-8.69832.983a15.53548,15.53548,0,0,0-5.44615,5.55969,63.80112,63.80112,0,0,1-3.73891,5.997,14.52519,14.52519,0,0,0-2.05085,2.543,8.53578,8.53578,0,0,1-.27222,1.176,17.88153,17.88153,0,0,1-2.0544,1.86226,14.117,14.117,0,0,1-5.43952,3.90062,39.257,39.257,0,0,1-8.60591,2.415q-3.96958.42649-7.94474,0.77734c-1.21638.10638-2.387,0.28664-3.62763,0.4333-1.32425.15654-2.53075-.193-3.90009-0.12205-2.70029.13992-5.32161,0.134-8.00975,0.15055-1.67081.01026-3.34688-.15085-5.01436-0.13046-1.6376.02-3.17269,0.389-4.82248,0.30682-5.6153-.27967-11.36917-0.69313-17.07127-0.40986-7.07207.35133-14.00876-.82658-21.10667-0.73708-3.48036.04388-4.89867-2.69669-8.38777-2.8069-2.44445-.07721-6.87531.62682-8.88818-0.86935-0.73549-.54669-1.30506-0.72176-1.96264-1.281a9.60753,9.60753,0,0,1-.72985-1.28422c-0.25872-.418-0.58635-0.86417-0.86344-1.33115,0.49422,0.83292-1.57123-1.43444-.4941-0.73292-0.5171-.33678-0.75007-0.01821-1.25687-0.20158-1.4127-.51115-1.15521-1.9968-1.34589-3.44513-0.44543-3.38335-3.51133-3.508-2.88079-6.92977,0.25415-1.37922,1.09125-9.50425,3.93893-6.83484C35.75709,102.16945,35.02827,101.05034,35.90661,101.8737ZM91.45228,119.389c0.12087,0.57158,4.70943-.16311,5.48347-0.28771,1.50744-.24265,3.09667.00052,3.12633-1.89812a52.44016,52.44016,0,0,0-8.6098,2.18582C91.462,119.43517,92.26142,119.1097,91.45228,119.389Zm90.64258-19.8705c0.07683,0.91435,5.65858.11377,6.54445,0.04476,1.273-.09916,5.09783.48316,5.84108-0.731-1.56551-.83065-4.5609.05315-6.29346,0.18935-2.05575.1616-4.03126,0.363-6.09207,0.49685C182.10441,99.63225,182.93058,99.46423,182.09486,99.51851ZM53.26945,122.385a16.02408,16.02408,0,0,0,5.22239-1.065c0.51332-.17749,4.0314-1.3048,3.23826-1.63969-0.76526-.32312-3.767,1.0932-4.68269,1.2834-0.71434.14837-1.61961-.10655-2.24116,0.041a2.74779,2.74779,0,0,0-1.5368,1.38025C53.64124,122.385,53.712,121.82282,53.26945,122.385Zm-8.439.22149c0.74144,0.16421,5.202,1.34843,5.43549.40227-1.37854.1124-2.73715,1.65665-2.35111,1.14733-0.74247-.70576-2.29861-2.03654-3.08438-1.5496C45.32076,122.7151,46.4018,121.63272,44.83041,122.6065Zm107.6978-19.94114c-0.50636-.73669-2.9304,1.36461-3.48859,1.69683-1.24419.74049-2.07518-.35445-3.04433,0.80352,2.54864,1.84889,4.56817-1.08307,6.53293-2.50035C152.4779,102.59215,152.12353,102.95728,152.52822,102.66536ZM46.72334,115.58047c1.26775-.31483,2.62762-0.52326,3.858-0.96239,0.83589-.29832,1.50267-0.444.57713-1.09811-0.78853-.5573-5.61649,1.26821-4.43517,2.0605C48.262,115.19838,46.549,115.46353,46.72334,115.58047ZM174.82993,97.117c0.07335,0.44935,4.55382-.50434,2.35554-1.14208-0.78613-.22807-2.27412.4058-3.07151,0.54667-0.97731.17265-2.4664,0.11414-3.24007,0.77443a12.50466,12.50466,0,0,0,3.956-.179C174.84023,97.18019,173.67514,97.22034,174.82993,97.117ZM58.9463,122.168c0.21224,0.513,3.93737-.87737,4.65124-1.06674,1.1283-.29931,4.03327-0.85134,4.80371-1.74945,0.67545-.78737-0.96506-0.02-1.31279.09232-1.00435.32431-2.01366,0.6351-3.02354,0.9417-1.58956.48259-3.83329,0.67079-5.11862,1.78216C58.98642,122.26494,59.05854,122.07092,58.9463,122.168ZM209.03193,94.40113a8.676,8.676,0,0,0,4.96888-.99036,4.58584,4.58584,0,0,0-2.10092-.07954c-1.0852.04693-2.36484-.31524-3.383,0.07391q0.234,0.51.515,0.996C210.57784,94.496,208.9078,94.17275,209.03193,94.40113ZM58.26052,114.7433c0.42424,1.67718,4.63285.35023,4.9142-.58757a11.27442,11.27442,0,0,0-4.9142.58757C58.43318,115.4259,59.07108,114.48286,58.26052,114.7433Zm-5.94721,11.587c0.07265,0.68788,6.3755-1.20938.92406-.77543-0.3961.03153-1.8953-2.81278-2.08227-2.3971-0.35208.78277,0.8812,3.19127,1.15821,3.17253C52.31392,126.33606,51.54695,126.38216,52.31331,126.33034Zm71.75576-17.03545a52.965,52.965,0,0,0-8.51494,1.20881C116.23515,110.93079,123.37143,109.929,124.06907,109.29488Zm-22.66332,4.40043c-1.20439-.65336-6.03694.03558-7.0501,0.96878a14.14714,14.14714,0,0,0,7.0501-.96878C100.617,113.26743,101.197,113.81163,101.40576,113.69531Zm33.75072-2.114c1.59776-.72288,3.83328-1.1729,4.8177-2.74822-0.8737-.11769-1.6074.62117-2.434,0.95512-1.05868.4277-2.1654,0.69045-3.222,1.13187l0.83829,0.66124C135.87143,111.25782,134.917,111.39235,135.15647,111.58129Zm33.373-10.44563c-0.03372.64073,3.05755,0.89161,3.8085,0.94116,0.88968,0.0587,2.72145.489,2.80534-.67346l-6.61384-.2677C168.52286,101.26165,170.73372,101.22488,168.5295,101.13566Zm36.98583-1.97273c1.103,1.442,5.81183-.9818,5.50192-1.52324l-5.50192,1.52324C206.28973,100.17533,207.34929,98.65518,205.51533,99.16293Zm-95.63639,27.60246c0.08754,1.08716,7.727-.23308,8.6346-0.40677a45.22463,45.22463,0,0,0-8.6346.40677C109.88467,126.83671,110.54783,126.69753,109.87893,126.76539Zm-65.73039-7.27861c-1.65406-.8836-2.73784-0.72353-3.11126,1.61259A6.14965,6.14965,0,0,0,44.14854,119.48679Zm47.31278-3.41164c0.03709-.49106-5.55141.36791-6.28445,0.75254,0.50226,1.09258,5.23824-.60154,6.28445-0.75254C91.46649,116.00671,89.39722,116.37306,91.46132,116.07514ZM226.50339,95.90966c-0.48855-1.17606-3.8901-3.63842-4.02208-1.08681,1.013-.21426,1.65063-0.55453,2.58453.12642,0.58955,0.42987.57046,1.30226,1.43755,0.96039C226.43239,95.73874,226.34623,95.97162,226.50339,95.90966ZM118.15693,114.90012c0.45623,1.05384,5.08817-.6891,5.87988-1.13232-1.55455-.48175-4.494.32588-5.87988,1.13232C118.18186,114.95771,118.35414,114.78537,118.15693,114.90012ZM77.0803,122.21891c0.16151,1.12286,5.87349-1.50787,6.50932-1.75939-0.21635-.48527-5.63973,1.49208-6.50932,1.75939C77.09424,122.31586,79.21849,121.56163,77.0803,122.21891Zm54.1741-14.3194c0.26834,1.26361,4.49909-.14739,5.0059-0.98814l-5.0059.98814C131.2714,107.97957,132.923,107.57014,131.2544,107.89951Zm-35.221,19.00758c-0.02589.72953,2.81963,0.07536,3.28455,0.02267,0.82187-.09316,2.77919.42831,2.59693-0.78039-1.9536.30069-3.97069,0.18826-5.88148,0.75772C96.03094,126.97613,97.94494,126.3374,96.03339,126.90709Zm-28.705-4.5988a5.32472,5.32472,0,0,0-3.99,1.68986,8.85135,8.85135,0,0,0,2.818-.30627c0.31391-.18.83824-1.08766,1.172-1.38359C66.00518,122.22934,67.13349,122.4811,67.32839,122.30829ZM192.19288,95.745c-0.46789-.30387-6.23713.29073-6.58226,0.64546A21.09663,21.09663,0,0,0,192.19288,95.745Zm-88.68912,25.15768a27.90562,27.90562,0,0,0,4.37917-1.688C106.64113,118.87315,103.95354,119.87154,103.50376,120.90267Zm26.03993-.98235c-0.23989-.49449-5.7307,2.07945-5.90361,2.91838,1.59239,0.29157,4.51917-2.133,5.90361-2.91838C129.51521,119.86164,128.98119,120.23944,129.54368,119.92032Zm35.46925-23.85489c-0.44275-1.19314-3.00529.05086-3.52177,0.836a5.96949,5.96949,0,0,0,3.52177-.836C164.97316,95.95825,164.73613,96.213,165.01294,96.06543ZM128.80085,125.353l0.86012-.16024c-0.31865-.63952-0.76479-2.24344-1.73528-1.1285-0.516.59274,0.25044,2.1383,0.87516,1.28874C129.17883,125.28259,128.46447,125.81045,128.80085,125.353Zm-17.56857-14.01766c0.398,0,2.17667.11171,2.00131-.68989-0.15661-.71587-2.77073-0.20618-3.119.00627l1.11766,0.68362C111.55808,111.33535,110.88238,111.12134,111.23227,111.33535Zm26.48053,12.03535a2.85973,2.85973,0,0,0,2.419-1.32434c-1.46912-.58961-1.73137.12876-2.419,1.32434C137.89477,123.39645,138.02262,122.832,137.71281,123.3707Zm-88.1342-12.60708c-0.04839-.49522-2.94351-0.566-3.2701-0.19908-1.09678,1.23237,3.04835.23889,3.2701,0.19908C49.56921,110.6675,48.50908,110.95561,49.57861,110.76362Zm141.84316-7.98742c-0.474-.40387-4.24622-0.49668-4.78223-0.1656A13.00818,13.00818,0,0,0,191.42176,102.7762ZM52.28935,121.67828c-0.58462-.29586-3.04689.36247-3.31591,0.89883,1.41715,0.49067,2.20926-.30007,3.31591-0.89883C52.08538,121.57506,51.67583,122.01023,52.28935,121.67828Zm65.39149-5.05246c-0.16118-.71847-3.50433-0.1906-3.68538,1.00833l3.68538-1.00833C117.66163,116.54018,116.483,116.95355,117.68084,116.62582Zm-22.78145,5.27132c-0.091-1.29872-2.76012-.59888-3.25231-0.00148,0.06185,0.37081,2.78847.02983,3.25231,0.00148C94.8535,121.24217,93.79292,121.96478,94.89939,121.89714Zm-25.4532-9.80125c-0.14721-.66919-3.496-0.33072-4.13629-0.09988,0.88718,0.70587,3.141.40993,4.13629,0.09988C69.42233,111.98745,69.15409,112.18688,69.44619,112.09588Zm-27.53087,8.72834c0.65367,1.066,1.09581.02267,1.53877-.583,1.36979-1.87291-.99667-0.155-1.53877.583C41.95017,120.88106,42.13819,120.52082,41.91532,120.82422ZM142.96939,105.978c-0.50446-.19976-3.16793,1.0919-3.52246,1.7948A9.06646,9.06646,0,0,0,142.96939,105.978ZM79.60586,126.82944c0.11521,0.6809,2.75447.25045,2.96616-.30308,0.34387-.89913-2.69321.215-2.96616,0.30308C79.62065,126.91685,80.25072,126.62128,79.60586,126.82944Zm-43.31313-7.87188c1.22664,2.87724,5.3652-7.15844,1.57379,1.96866,0.31372-.75522-0.90256-1.03735-0.7142-2.09426l-0.85959.1256C36.58184,119.6357,36.48872,118.92892,36.29273,118.95756ZM150.30616,94.90909c-0.13079.702,2.8936,0.39247,3.07926-.03759,0.34445-.79786-2.6301-0.0309-3.07926.03759C150.29394,94.97465,151.27284,94.76167,150.30616,94.90909Zm-106.297,22.862c0.27963,0.126,2.74079.82723,2.13-.42345-0.3445-.70546-1.72609.24308-2.13,0.42345C44.70138,118.08306,44.655,117.48276,44.00918,117.77113Zm17.09118-6.3476a3.87927,3.87927,0,0,0-3.16551-.6102A6.12689,6.12689,0,0,0,61.10037,111.42353ZM72.4698,124.363c-0.05715.69338,2.703,0.33081,3.1594,0.15879-0.68566-.67036-2.28233-0.21852-3.1594-0.15879C72.46282,124.44757,72.945,124.33062,72.4698,124.363Zm55.5064-15.74566c0.51478,0.567,2.10541.30819,2.789-.44925C129.71744,107.99546,128.90046,108.62885,127.9762,108.61733ZM109.6709,122.6134a1.16245,1.16245,0,0,0,2.00911-.58852C110.89034,121.78489,110.41025,122.4204,109.6709,122.6134Zm-37.31351-1.69473c0.86375-.29347,1.89948.0712,2.633-0.72058C74.10388,120.4044,73.06949,120.04486,72.35739,120.91867Zm-31.76479-5.21139c0.50368-.87585,1.45972-1.11621,2.31865-1.59788C42.19983,113.71193,41.31012,114.32089,40.59259,115.70728Zm-1.86131-5.03341c-0.01223-.08495-1.61583-0.23909-2.01978-0.36546,0.05162,1.47282,1.37019.7654,2.01978,0.36546C38.72066,110.60006,38.37261,110.8947,38.73129,110.67387Zm-0.50978-3.18856c-0.13858.90208,0.60391,1.0824,1.14187,0.62415l-0.93644-.92159-0.20543.29744C38.10075,108.2714,38.2203,107.48706,38.22151,107.48531Zm79.94219,15.10876q0.11664,0.46481.59158-.13094a1.03343,1.03343,0,0,0-1.71367.21166,1.08537,1.08537,0,0,0,1.12209-.08073C118.18659,122.64514,117.92971,122.66364,118.16369,122.59407ZM53.797,110.69171a2.90734,2.90734,0,0,0,2.39761-.09542A3.56888,3.56888,0,0,0,53.797,110.69171Zm-19.38435-5.22255a2.43405,2.43405,0,0,0-.688,1.28033c0.38858,0.147,1.13912-.568,1.42559-0.76306l-0.73759-.51727C34.20257,105.72417,34.6137,105.61015,34.41265,105.46915Zm0.62133,6.8564c0.16767,1.28709.34751,1.65862,1.12328,0.36806l-1.12328-.36806C35.09065,112.76051,35.517,112.48381,35.034,112.32555Zm97.94607,2.90031c-0.9534-.29308-1.39978.03752-1.44722,0.94851C132.262,116.26245,132.41525,115.54279,132.98005,115.22587Zm60.03745-14.651c0.66976,0.52528,1.27284.04879,1.90151-.08721A2.30356,2.30356,0,0,0,193.0175,100.57483Zm-82.18332,17.14552c-1.11569-.0106-1.64552.07844-1.71322,0.77006C109.95886,118.78466,110.12166,117.65545,110.83419,117.72035Zm4.254,3.23972a1.7152,1.7152,0,0,0-1.96915.71238Zm-37.20067-9.09565a2.22518,2.22518,0,0,0-1.73169.24553A1.49061,1.49061,0,0,0,77.88751,111.86442ZM196.24426,92.56636c0.8423,0.95873,3.19205-.24833,0,0C196.80666,93.2065,196.83141,92.52069,196.24426,92.56636ZM42.38122,111.6882c1.93881-.34687.38552-1.405,0,0C42.73476,111.62495,42.64034,110.74384,42.38122,111.6882ZM218.96475,96.69371a1.1382,1.1382,0,0,0-1.69509.46839Zm-37.74682-.02162,0.06553,0.39531c0.49347-.09682,1.58813-0.169,1.74308-0.49056,0.11686-.2425-1.827.09772-1.80861,0.09525C181.23977,96.80387,181.81266,96.59242,181.21793,96.6721ZM61.94837,123.24915l-0.48537.55042c0.98556,0.43769,1.48384.35,0.48537-.55042C61.7239,123.5037,62.23489,123.50753,61.94837,123.24915ZM185.10568,96.60874c-0.09036-.72281-1.51576-0.28337-1.72532.19987l1.72532-.19987C185.09887,96.55423,184.55732,96.67227,185.10568,96.60874Zm-28.32655-2.09782c-0.1147-.83993-1.272-0.32755-1.4124.21636l1.4124-.21636C156.7709,94.4507,156.32629,94.58029,156.77913,94.51093ZM75.43544,119.98935c0.11712,0.69262,3.84582-.91011,0,0C75.448,120.06389,75.95744,119.86582,75.43544,119.98935Zm15.86843-8.26087c-0.02421-.39706-1.24093-0.20839-1.53735-0.20839,0.01163,0.39731,1.24459.20839,1.53735,0.20839C91.29963,111.659,90.79344,111.72848,91.30386,111.72848ZM197.6981,95.61176c0.107-.68317-1.10414-0.61992-1.39438-0.07321l1.39438,0.07321C197.71227,95.52127,197.26282,95.5889,197.6981,95.61176Zm-12.52194,7.08478,1.21472,0.18709A0.65846,0.65846,0,0,0,185.17616,102.69653Zm-68.95729,18.06212q0.0984-.82969-0.86892-0.28459c0.1187,0.5456-.02581.3787,0.86892,0.28459C116.203,120.62774,115.95588,120.78632,116.21887,120.75866Zm34.95977-21.22895c-0.52121-.26409-0.40213-0.34613-0.95129.08106,0.44205,0.39671.458,0.26406,0.95129-.08106C150.92036,99.39884,150.90127,99.72375,151.17864,99.52971Z"/><path class="cls-2" d="M61.75762,108.97489c-0.09365-1.7349-2.66587-.72712-3.424-0.6225a2.441,2.441,0,0,1-.85744.1444,0.36276,0.36276,0,0,1-.15273-0.51771,0.44169,0.44169,0,0,0-.05175-0.37,5.95119,5.95119,0,0,0-1.225.05666,15.90974,15.90974,0,0,1-1.63323.06307q-1.04214.39252-.90889-0.59266c-0.44471-.208-0.84705-0.26179-1.32817-0.44816-1.95783-.75842-0.09689-1.35746-0.99284-2.16534a19.68666,19.68666,0,0,0,3.34573-1.89922c1.02375-.57668,2.03178-2.02073,3.24548-1.26067a3.95317,3.95317,0,0,1,.56522.86744,2.66616,2.66616,0,0,0,1.73384.5256c1.54136,0.09438,3.16994-.57841,4.71188-0.68a19.705,19.705,0,0,1,4.16685-.03216,16.0022,16.0022,0,0,0,1.568.43627,7.8363,7.8363,0,0,0,1.33245-.54911,11.22018,11.22018,0,0,1,4.1664-.11776c1.40473,0.29786,1.80755-.09632,3.21676-0.86958,0,1.05317.00579,0.59947,1.04456,0.53993a14.855,14.855,0,0,0,3.33127-.89226,13.09129,13.09129,0,0,0,3.13912-1.71105,4.76868,4.76868,0,0,1,2.71441-.75948,5.10225,5.10225,0,0,1,2.08239.03359c0.431,0.15334.866,0.72725,1.28672,0.91323,3.00405,1.328,5.80306-.10914,8.83389-1.07107,1.70566-.54134,3.47607-0.32034,5.28614-0.44873,1.01444-.072,3.25858-0.58958,3.28866,1.21723,0.88993-.26816.71364,0.16343,1.42813,0.29726a11.55545,11.55545,0,0,0,3.1254-.348c1.16692-.15484,2.4778-0.22343,3.61232-0.4902,0.8024-.18868,1.49552-0.82719,2.329-0.88453a12.73622,12.73622,0,0,1,5.0091,1.38117c0.27395,0.13665.90553,0.81953,1.13258,0.86273a1.97056,1.97056,0,0,0,.7179-0.27779,3.92455,3.92455,0,0,0,2.46911-.72332l0.56987,0.93877a1.26355,1.26355,0,0,1,.49755-0.70129c0.476,0.62079.71413,2.22189,1.881,1.3088,0.0586,1.42015,2.728,1.31,2.533,2.66391-0.10737.74529-2.85809,1.39928-3.47728,1.7288-0.59482.31655-.92914,0.68738-1.54535,0.958a7.21218,7.21218,0,0,1-2.37761.3017c-0.803.0707-4.12458,0.351-4.17139,1.27313-1.29185-.676-2.36816-0.198-3.75382.10222a30.51981,30.51981,0,0,1-5.26247.75851,26.435,26.435,0,0,1-3.534.37931c-1.71116-.14679-3.40172-0.05679-5.11716-0.08946-1.82313-.03473-3.55892-0.24179-5.38948-0.097-1.47736.11689-2.922,0.5411-4.388,0.62712-2.353.13806-4.53168,0.02345-6.7942,0.01063-0.493-.00279-1.015.06465-1.56639,0.03343a13.15846,13.15846,0,0,1-1.82312-.60982,2.85361,2.85361,0,0,0-1.42366.18278,1.25308,1.25308,0,0,0-.76074.18386l-0.06429.48368c-1.07.51755-1.40163,0.10363-2.44136-.08389-1.51737-.27367-3.35793.22287-4.8952,0.28578-1.18124.04834-2.04345-.55682-3.15851-0.73379a24.21763,24.21763,0,0,0-4.8888.11226,46.8529,46.8529,0,0,0-6.95771.37515C61.72106,108.29758,62.23,108.87717,61.75762,108.97489Zm56.0986-4.84708c0.11978,0.45615,4.27514-.23561,4.464-0.68007,0.27545-.64838-3.983.535-4.464,0.68007C117.86959,104.17873,118.34648,103.97994,117.85622,104.12781Zm-0.15449-3.43294a2.95252,2.95252,0,0,0,1.85209-.7366c-0.28852-.562-2.48172.15195-2.7,0.676a0.85879,0.85879,0,0,0,.84794.06056C117.7127,100.73294,117.54077,100.72341,117.70173,100.69487Zm-3.43093.37214c2.35577,0.3162.7607-1.10847,0,0C114.65795,101.119,114.49184,100.74493,114.2708,101.067Zm-20.13446.25793c-0.0265.88395,0.7382,0.55716,0.888-.068l-0.888.068C94.13215,101.46482,94.43234,101.30229,94.13634,101.32494Z"/><path class="cls-2" d="M152.10991,8.316a3.52058,3.52058,0,0,1,2.7573.68825c0.79422,0.70327.53466,1.14015,1.648,0.79159-0.55848,1.239,1.25121,2.17824,1.81842,3.02155,0.43242,0.64291.625,1.37625,1.09636,2.00337a10.60855,10.60855,0,0,1,1.43529,1.71789,7.32551,7.32551,0,0,1,.364,2.50661,8.33122,8.33122,0,0,0,.67007,2.069c0.62118,2.07475-.011,2.67363-1.05368,4.164-0.6062.86649-1.15706,1.83126-1.72115,2.73355a20.196,20.196,0,0,1-1.25005,2.37119c-0.72953.8044-1.49766,0.158-2.21563,0.389-0.80815.26-1.22367,1.30526-1.80109,1.89961-1.33294,1.372-3.01974,2.02838-4.49911,3.1394-0.78949.59292-1.60369,1.48707-2.32159,1.5322,0.4904,0.99507-1.11085.424-1.52927,0.23559a10.03227,10.03227,0,0,0-.9872-0.6746l-0.46252.40419-0.61533-.29293c-1.55239-.59774-1.13112-3.2059-0.66637-4.47707,0.31947-.87381.87957-1.32332,1.14164-2.16677a8.78591,8.78591,0,0,0,.15793-3.11982,17.75953,17.75953,0,0,0-.81551-5.54936,8.6254,8.6254,0,0,1-.59274-1.87428c-0.02939-.18693.29086-0.45309,0.24127-0.61039a2.08723,2.08723,0,0,0-.37373-0.36618c-0.29021-.64219-0.79619-0.6549-0.366-1.679a8.04922,8.04922,0,0,1,1.90479-2.0705c1.53757-1.58832,2.08047-3.20887,4.075-4.37122a21.25982,21.25982,0,0,0,2.20727-1.67734,9.704,9.704,0,0,1,1.75359-.73755C152.59729,8.316,152.11142,8.34814,152.10991,8.316ZM145.961,23.74948c-0.36106.02932-.04067,2.45517-0.01123,2.89571,0.8796-.61726.63606-2.20774,0.01123-2.89571C145.89317,23.755,146.68555,24.5472,145.961,23.74948Zm5.8773,4.24448a1.34346,1.34346,0,0,0-.56932-0.88221l-0.42341.8101,0.99273,0.07211C151.65049,27.574,151.39564,27.9618,151.83834,27.994Zm-5.20015-9.83467c2.119,1.13125.94457-.66306,0,0C147.01636,18.36118,147.22376,17.74824,146.63819,18.15929Zm4.49511,10.32977c-0.47032-.46993-1.16249.49726-0.84518,0.80348l0.84518-.80348C151.07075,28.42657,150.85157,28.75689,151.1333,28.48906Z"/><path class="cls-2" d="M43.51273,58.0785c-0.96446.09349-.71394-3.40956-0.68957-4.15945,0.02359-.72584.05029-1.609,0.14468-2.32089a6.32338,6.32338,0,0,1,1.03692-2.28685,9.24683,9.24683,0,0,1,2.36014-3.37471,11.53094,11.53094,0,0,1,4.02927-2.93535c1.40176-.51708,3.541-1.74226,5.06581-1.52629,1.31387,0.18609.60525-.04,1.14708,0.753a10.09331,10.09331,0,0,1,1.04176,1.66789c0.56451,1.59007-.9918,1.81452-1.31827,3.0436-0.16318.61435,0.52943,1.444,0.04656,2.23213,0.48722-.03449,1.672.61307,1.62966,1.12419a1.90161,1.90161,0,0,1-.41362.18863c0.085-.43858,2.90851,1.1079,3.03856,1.571a8.65445,8.65445,0,0,1-.41858,2.50219,3.59536,3.59536,0,0,1-1.84729,1.38672,3.62884,3.62884,0,0,1-3.80662.03187c-0.86514-.43033-1.815-0.64537-2.69123-1.0442a6.11966,6.11966,0,0,0-1.52218-.81978,1.52642,1.52642,0,0,1,.04041,1.25691c-0.28418.15561-.241-0.59817-0.79385-0.16695a3.21254,3.21254,0,0,0-.59753,1.09337,3.01512,3.01512,0,0,1-2.07155,1.986c-0.70164.29821-3.651,1.62878-3.41056-.203C42.93679,58.13433,43.48274,58.307,43.51273,58.0785Z"/><path class="cls-2" d="M61.299,72.12866a12.7248,12.7248,0,0,1-.99511,3.17217,8.11388,8.11388,0,0,1-1.70755,1.3278c-1.30733,1.029-2.794,2.33947-3.02175,4.0594,1.69708-.61965,3.21656,2.148,2.73469,3.47016a2.423,2.423,0,0,1-1.57042,1.56189,7.40788,7.40788,0,0,1-1.61974.55121,3.96751,3.96751,0,0,1-1.48454-.06348c-3.96733-.19627-9.0794-1.86657-10.38-6.07827-0.71165-2.30451-1.96119-4.64365.66246-6.24439a10.50928,10.50928,0,0,1,3.47244-1.26343c1.7207-.02176,1.746,1.21707,2.54877,2.16625,1.75473,2.07486,3.77147-.52342,5.0319-1.61146,0.93632-.80826,1.08165-1.48654,2.42874-1.65528a7.83046,7.83046,0,0,1,3.90011.60743C60.99672,73.10541,61.13562,72.0505,61.299,72.12866Z"/><path class="cls-2" d="M85.017,70.94678c-0.4357.01448-.65695-0.60638-1.11661-0.82624-1.08575-.51932-1.30642.031-1.99005,0.83844a23.85382,23.85382,0,0,0-1.99381,2.08257c-0.48132.74877-.423,1.62321-1.00646,2.31273a6.83642,6.83642,0,0,1-2.1256,1.39467c-1.0111.50245-.98827,0.38972-1.87144-0.21874-0.75448-.5198-1.54073-0.86005-1.48656-1.75992a2.147,2.147,0,0,1,1.48691-1.696c-0.52857-.83243.54945-0.72619,1.0867-1.29667,0.141-.14967.09573-0.62043,0.29257-0.85316,0.59781-.70679,1.78248-1.49548,2.02157-2.433,0.60178-2.35968-2.72861-1.02776-3.80678-1.97291a2.2793,2.2793,0,0,1-.62658-1.68766,5.08329,5.08329,0,0,1,1.06784-1.5841c1.53258-1.32715,3.14006-2.9396,5.219-3.362a7.95574,7.95574,0,0,1,3.98468.16631,2.95047,2.95047,0,0,1,.97341.407c0.27121,0.15812.72558,0.61433,1.059,0.82327,2.22838,1.39625,3.53554,2.0823,4.29492,4.706l0.40638,0.362q-0.09681.53768-.1867,1.07656a4.9,4.9,0,0,1-.17867,1.50524A23.13123,23.13123,0,0,1,89.02055,71.102c-1.24686,2.09-2.59869,1.57709-4.00354-.15525C84.79857,70.954,85.423,71.44742,85.017,70.94678ZM81.6439,61.27227c-0.19891-.64745-1.25229-0.06855-1.34535.39306l1.34535-.39306C81.62789,61.22017,81.21453,61.39772,81.6439,61.27227Z"/></g><g id="dz0cib.tif"><path class="cls-3" d="M232.68154,98.00941c-0.69766-.9-0.99367-1.9909-1.9156-2.65121a11.15221,11.15221,0,0,0-2.55176-1.59377c-1.56427-.59326-2.93157-1.50952-4.55483-2.02956-1.52518-.48861-3.07-0.841-4.63465-1.17857-0.3657-.07889-0.7416-0.17856-1.11169-0.24-0.666-.11052-1.33864.12017-1.92321,0.032-1.31722-.19859-2.5977-0.40673-3.962-0.53941-2.86256-.27838-5.73523-0.54882-8.609-0.85957-3.06481-.33139-5.97415.26026-8.99271,0.4163-2.85487.14758-5.55768,0.304-8.31152,0.67572-5.52367.74559-11.38174,1.45712-17.05548,1.65333-3.24384.11218-6.43526,0.29261-9.669,0.35926-3.44827.07108-7.19244,0.60415-10.59917,0.27176a4.79438,4.79438,0,0,1-2.88668-.9671c-0.26232-.21047-0.1235-0.46158-0.33972-0.60984a3.08993,3.08993,0,0,0-1.54575-.06755,10.1201,10.1201,0,0,1-3.33879.33024c-1.25183-.10312-2.51073-0.18113-3.76651-0.22993a7.81574,7.81574,0,0,1-1.90314-.102,2.42789,2.42789,0,0,0-1.11779-.43437,4.34142,4.34142,0,0,0-.58239.342c-0.25256.04963-.531-0.08483-0.75134-0.04518-0.2994.05388-.60153,0.12657-0.90224,0.17226-1.05479.16027-2.55125,0.79439-3.56646,0.16013-0.18147-.11338-0.14809-0.55432-0.35775-0.66928a2.55242,2.55242,0,0,0-1.7267-.05459c-1.16044.32-2.14631,1.81587-1.35214,2.96576,0.67516,0.97757,2.19157.736,3.16594,0.581,2.20985-.35146,4.59246.189,6.90919,0.19383a10.898,10.898,0,0,1,2.75247.53053c0.703,0.17123,1.25221.05046,1.96328,0.16454,1.51655,0.2433,2.98684.88557,4.502,1.08234a15.74478,15.74478,0,0,1,2.95667.897c0.07741,0.02574.2891-.3146,0.36548-0.292a5.34763,5.34763,0,0,1,1.13647.79,6.72269,6.72269,0,0,1,1.59012.97023c0.448,0.6168.67808,2.14752,0.24392,2.59769-0.94177.97651-3.5483,1.68577-4.8505,2.03437-1.77127.47418-3.33983,0.95464-5.12311,1.34377-1.72579.37658-3.40454,1.27254-5.1871,1.42773a2.05389,2.05389,0,0,0,.87513-2.31233c-0.731-1.34742-1.87587-.34663-2.85935-0.40922a3.04185,3.04185,0,0,1-1.08088-.52084,0.633,0.633,0,0,0-.19982-0.61548,1.374,1.374,0,0,0-.69945-0.30291,1.13493,1.13493,0,0,1-.30193-0.84272,2.89119,2.89119,0,0,1-.76819.155,1.82407,1.82407,0,0,1-.29455-0.41605c-0.70863-.1928-1.511-0.00125-2.22363-0.135a2.06552,2.06552,0,0,1,.23879-0.518,2.556,2.556,0,0,1-1.0905-.42781c-0.25417-.21463-0.04377-0.638-0.27088-0.83185-0.456-.3893-2.0184-0.89453-2.51236-0.51921-0.30526-.85465-1.51132-2.0739-2.46181-1.55687-1.15365.62753-.52163,2.59875-1.66243,3.10977-0.75688.339-2.01672-.39906-2.67707-0.71737-1.1864-.57187-2.4134-1.061-3.64028-0.18372l-0.3498-3.90461c-0.598.51471-1.09823-.219-1.77689,0.03348-1.59844.59469-1.49563,3.75158-1.49442,5.03532a6.92141,6.92141,0,0,0-3.06862-.96269,0.63468,0.63468,0,0,1-1.01755-.16728,1.9817,1.9817,0,0,0-1.05075-.25664c-1.2759-.44712-0.00634.4372-0.746-0.52086-0.784-1.0155-.95134-1.76981-2.31125-0.72587-0.74093.56878-1.95835,2.33263-1.12229,3.17317a7.10844,7.10844,0,0,1-2.85976.42172c-0.7819-.16774-0.57007-0.51008-1.09793-0.81318a1.20571,1.20571,0,0,0-.53968.02635c-0.84-.48857-1.24348-1.23306-2.365-1.05049,0.53911-1.55112-.17471-2.567-0.882-3.92936-1.00363,2.03261-2.25953,4.51987-4.0574,5.63963-0.94811.59051-2.98559,0.55713-4.04771,0.45215-1.19265-.11788-3.03427-1.26449-3.93268-0.23026,0.04876-1.66343-2.71808-.47236-3.38479-0.1558a9.03135,9.03135,0,0,1-3.45064,1.15667,4.48746,4.48746,0,0,0-.46638-0.1719,1.34691,1.34691,0,0,1-.59514.15082,8.23117,8.23117,0,0,0-1.12523-.741,3.21744,3.21744,0,0,1-.45516-0.05526,0.82115,0.82115,0,0,0-.012-0.48641,2.28256,2.28256,0,0,0-2.44584-.16291c-0.54742.22231-1.02613,0.61672-1.5922,0.80086-0.29394.09562-.89011,0.05285-1.13136,0.17645-1.93509.99143-3.67808,3.11836-5.99629,1.28635a8.56941,8.56941,0,0,0-.83841-1.10857,4.70678,4.70678,0,0,0-1.80289.17153,9.14376,9.14376,0,0,0-3.60174.995c-2.42254,1.25015-4.14483,3.5482-6.599,4.73359-1.11115.5367-2.21509-.02487-3.3801-0.356-1.0743-.30539-2.21121-0.44875-3.26983-0.77519a6.09385,6.09385,0,0,1-2.65993-1.59133,11.60953,11.60953,0,0,1-.7709-1.32418c-0.20963-.43417.31321-0.86763-0.50969-1.00369a3.44459,3.44459,0,0,1,2.24542-2.28166c0.62861-.25217,1.38413-0.27152,1.9831-0.55472,0.46215-.21852.72948-0.59655,1.12894-0.81571a30.88036,30.88036,0,0,1,6.65327-2.20348c2.617-.71,5.40967-0.81875,8.0281-1.43092,2.95177-.69011,5.86362-0.27657,8.80051-0.75825,2.82934-.464,5.73844-0.58473,8.56269-1.08953,1.47205-.26311,2.88248-0.11839,4.35454-0.2872a37.07909,37.07909,0,0,1,4.34878-.60668c0.8634,0.00242,1.7221.20013,2.58379,0.138,0.6891-.04968,1.33791-0.35748,2.015-0.45518,1.17709-.16985,2.61985-0.0612,3.48293-1.07678,1.50172-1.76707-.54229-2.11011-1.85124-2.7686,0.064,0.63926-.44051.82114-0.7176,0.3498-0.64892,1.38034-2.81049.67546-4.02956,0.961a21.44729,21.44729,0,0,1-2.98856.77039c-0.866.08519-1.73514,0.143-2.60271,0.20976-1.034.07952-1.99761,0.33986-3.013,0.4668a28.63429,28.63429,0,0,1-3.055.04543c-1.61577.03745-3.367,0.42635-5.00918,0.58253-0.95946.09125-1.90069-.05777-2.85729,0.03436-1.07184.10322-2.13383,0.41431-3.20146,0.56792-2.21429.3186-4.42447,0.567-6.55467,1.01164-0.79713.16637-1.6626,0.33306-2.4276,0.48328-0.49692.09758-1.028-.0371-1.56773,0.02329-0.19873.02224-.43982-0.08559-0.63988-0.05129a3.25422,3.25422,0,0,1-.30166.40371,0.82324,0.82324,0,0,1-.76807-0.40579c-0.04839,1.37837-4.127,1.53776-5.3574,1.86887a10.37172,10.37172,0,0,0-2.47638.635,5.1065,5.1065,0,0,1-.92868.60552c-0.76532.281-1.6051,0.21633-2.36843,0.52838-2.29133.93668-4.5894,1.84407-6.17051,3.8507-0.49038.62236-.99176,1.23068-1.53045,1.8439a4.40968,4.40968,0,0,0-.9781,1.34656,9.41377,9.41377,0,0,1-.25257,1.77516c-0.65373,1.25715-.89128.42462-0.14458,1.63837,0.61073,0.99274.0283,1.68622,0.33608,2.73058,0.17475,0.593.70085,0.69455,0.92051,1.18471,0.23583,0.52625.12517,1.1987,0.31939,1.7708a8.6654,8.6654,0,0,0,1.87435,3.06265c2.91944,3.20286,4.89084,7.11882,9.35346,7.96468,2.73947,0.51925,4.82416,2.38384,7.59925,2.53793a23.9301,23.9301,0,0,1,5.02934.41519c0.6906,0.18433,2.10891.00326,2.08126,0.94267,0.84486-.40625,2.41867-0.02687,3.35894.11931,1.73542,0.26979,3.47876.54368,5.21629,0.76958,3.829,0.4978,7.69956.71526,11.56633,1.09521,2.74944,0.27017,5.54192.2428,8.27285,0.25043,0.68388,0.00191,1.32514.275,2.016,0.2692,0.7749-.00649,1.59954-0.35944,2.419-0.31652,1.75491,0.09191,3.55763.49135,5.28942,0.568a49.41264,49.41264,0,0,0,5.49189-.54527c1.94212-.14037,3.94357.20625,5.84361-0.09542,0.47254-.075.53211-0.09342,1.08335-0.14854,0.37388-.03738.75752-0.04649,1.1344-0.08324,0.92553-.09026,1.73758-0.01055,2.65257-0.03737a46.40169,46.40169,0,0,0,5.98527-.85955c1.823-.30331,3.6563-0.37591,5.47126-0.7204,1.9395-.36813,3.76668-0.89083,5.67758-1.37129,3.53546-.88895,7.11723-1.70921,10.55461-2.91256a12.26829,12.26829,0,0,0,3.37049-1.84071c1.29344-.936,1.695-2.34651,2.86588-3.44408a41.06617,41.06617,0,0,0,4.64923-5.03959c0.25478-.33608.40582-0.67784,0.67394-1.0007,0.21661-.26084.42861-0.06841,0.6034-0.30218,0.35248-.47144.44354-1.331,0.7611-1.87114a9.4413,9.4413,0,0,1,1.52434-1.63553c0.83665-.89953,1.56294-2.01907,2.41525-2.96488a7.12256,7.12256,0,0,1,3.774-2.04619,31.24759,31.24759,0,0,1,7.0983-1.17969c3.45458-.10821,6.78027-0.26918,10.29338-0.07953,3.37968,0.18245,6.7474.62021,10.13208,0.78908a56.54091,56.54091,0,0,1,5.59614.83167c1.64256,0.24675,3.3197.2039,4.9567,0.48432,7.4556,1.27719,15.67174,2.716,23.213,1.26721,2.96072-.56881,6.369-0.90129,8.44871-3.13063,0.84517-.906,1.72287-1.03978,2.38812-1.95861,0.53914-.74465,1.43154-1.64589.7168-2.24446C232.47909,98.58272,232.874,98.41572,232.68154,98.00941Zm-38.153,4.48071c-1.64149-.64529-4.00146-0.41923-5.76944-0.78677-1.74146-.362-3.39491-0.35559-5.16813-0.73214a17.52661,17.52661,0,0,0-3.79506-.2351,22.64017,22.64017,0,0,1-2.51292-.28617c-2.01608-.21922-4.03405.02744-6.01906-0.107a13.587,13.587,0,0,0-3.393-.22928,15.819,15.819,0,0,1-2.87576.45806,29.48373,29.48373,0,0,0-4.69382.12609,13.69043,13.69043,0,0,0-5.38244,1.80406,15.05607,15.05607,0,0,0-2.59812,2.184c-0.39045.45777-.82928,1.95694-1.54633,1.23968a3.91851,3.91851,0,0,1-.07866,1.52307c-0.046.09621-.675,0.57346-0.81344,0.71917A15.90746,15.90746,0,0,0,148.6429,109.74c-0.86846,1.18771-1.77381,2.74091-2.63549,3.73949-1.69648,1.966-3.45615,3.70785-5.185,5.69325a9.12548,9.12548,0,0,1-4.74976,3.1775,59.5587,59.5587,0,0,0-5.94053,1.81589c-2.01467.79235-4.27524,0.601-6.36361,1.511a15.97263,15.97263,0,0,1-4.47937.88982c-1.71869.21106-3.40373,0.61307-5.09905,0.95908-1.42167.29015-2.64161,0.09343-4.04773,0.28149-1.62864.21783-3.25616,0.51292-4.89816,0.61092-1.31763.07864-2.59238-.1546-3.90376-0.1725a36.67975,36.67975,0,0,0-4.67615.49333c-2.78311.32748-5.55534-.20093-8.34531-0.0422-2.75869.15695-5.57694-.63738-8.31472-0.42158-2.8928.228-5.75878-.44531-8.65767-0.50076-2.7681-.053-5.522-0.74322-8.26982-0.99364a27.24837,27.24837,0,0,1-3.28533-.56133,24.631,24.631,0,0,0-3.73241-.502c-1.069-.08144-2.05562-0.57993-3.14209-0.64878a16.196,16.196,0,0,1-3.70015-.51067,79.26311,79.26311,0,0,1-7.76616-2.66675c-1.193-.50028-1.46507-1.13113-2.34738-1.93779a8.25215,8.25215,0,0,0-1.25722-.6865,4.49592,4.49592,0,0,1-.73032-0.24919c-0.06725-.0711.03722-0.4423-0.04985-0.54364-1.49589-1.741-3.3836-3.86694-4.22508-5.87669a15.201,15.201,0,0,1-1.59344-5.31009,4.17745,4.17745,0,0,1,.91094-2.96227,12.58783,12.58783,0,0,1,1.44746-1.91328c0.215,2.255,1.12456,3.16054,2.97044,4.27117a27.95034,27.95034,0,0,0,6.87217,2.50929A46.79483,46.79483,0,0,0,56.59677,111.043c4.26912-.04446,8.22658.76184,12.37927,1.22276,5.11874,0.56815,10.21575.04315,15.3165,0.40438a21.19432,21.19432,0,0,0,2.62608.25911c1.28689-.06387,2.5434-0.4054,3.79573-0.50263,0.65344-.05073,1.19372.12354,1.83,0.09914a21.76636,21.76636,0,0,0,2.20143-.125c2.21118-.33519,4.61541-0.10445,6.89994-0.36048,2.50617-.28087,4.95464-0.7212,7.5007-0.89311,2.319-.15659,4.62926-0.37878,6.9495-0.54234,1.74255-.12283,3.47025-0.55516,5.20291-0.73365,1.53314-.15794,3.5595-0.47443,5.27065-0.61561a50.27727,50.27727,0,0,0,5.94614-1.12086c1.55387-.30956,3.03841-0.61407,4.59457-0.8538,0.78387-.12076,1.57279-0.11883,2.286-0.19429a21.37068,21.37068,0,0,0,2.896-.85608,19.08645,19.08645,0,0,0,2.66615-.78818,6.326,6.326,0,0,1,1.34907-.72c0.654-.15056,1.34026-0.09714,1.99784-0.26041a13.12194,13.12194,0,0,0,3.08481-1.62514c1.90009-1.07959,1.6775-3.10855,1.62389-5.07824a2.0753,2.0753,0,0,1-.53909.14274c0.45139-1.58334-4.06744-2.5423-5.00387-3.3295,1.6841-.01814,3.21342.07486,4.89475,0.10008,2.05161,0.03078,4.13419-.648,6.18694-0.47859a36.09049,36.09049,0,0,0,5.29934.14241c1.82733-.12393,3.54723-0.7309,5.40341-0.69935,2.29184,0.039,4.6407-.03784,6.868-0.22288,1.01068-.084,1.96725-0.42629,2.96981-0.51534,1.24075-.1102,2.4.24593,3.64072-0.02092a58.80373,58.80373,0,0,1,12.67264-1.399c2.21183,0.01856,4.19925-.56508,6.45321-0.32589a27.83035,27.83035,0,0,0,2.94075.09978c0.815-.00022,1.51745.23481,2.29337,0.27183a24.19441,24.19441,0,0,1,2.70535.09388,27.979,27.979,0,0,0,3.26909.377,22.07436,22.07436,0,0,1,2.78046.12425,6.50024,6.50024,0,0,1,1.911.34071c0.19189,0.09112.46574,0.43831,0.62008,0.48034,1.55749,0.42413,3.30772.46928,4.93828,1.05037,0.86676,0.30889,1.54184.84125,2.36016,1.21375,0.69886,0.31812,1.96349.36167,2.47913,1.00425a5.49358,5.49358,0,0,1,.8244,2.15,2.44014,2.44014,0,0,1-1.071,2.06313,10.63832,10.63832,0,0,1-1.45706,1.575,10.44566,10.44566,0,0,1-2.96692,1.253c-2.56019.77224-5.01838,1.62152-7.72359,1.45714-2.429-.14759-4.878-0.05045-7.31577-0.16273-0.80948-.03728-1.60965-0.16909-2.40613-0.20478a4.08178,4.08178,0,0,1-1.09448.02c-0.79631-.15623-1.52557-0.67618-2.35377-0.828-1.32163-.24234-2.67128-0.21674-3.998-0.48684-1.20062-.24444-2.98729-0.13064-4.06671-0.55441C194.40765,102.44258,194.62438,102.52773,194.52857,102.49012ZM81.28215,103.332a2.659,2.659,0,0,1,1.20447.51876,2.82639,2.82639,0,0,0,1.72958.08287c0.91066-.12786,1.843.03742,2.68015-0.0343,0.6022-.05159,1.35358-0.28629,1.92572-0.36321a7.76855,7.76855,0,0,0,1.76865-.644c2.15906-1.02328,3.555-1.07185,5.5579.02638a2.278,2.278,0,0,0,2.24909.26024c0.49257-.13188.94936-0.2287,1.44841-0.31448a12.00819,12.00819,0,0,0,1.791-.67472,17.39582,17.39582,0,0,1,2.30325-.4494,4.24043,4.24043,0,0,1,.53335-0.24345,2.73068,2.73068,0,0,0,.41544.33641c0.50931,0.00167.98855-.213,1.5004-0.21574,1.0245-.00557,2.26319,1.00283,3.17826,1.39663,0.98069,0.422,1.15247.32292,2.12207-.20466a27.64762,27.64762,0,0,1,2.78829-1.79938c1.11632-.42847,2.43886.50631,3.58568,0.85835a4.64977,4.64977,0,0,0,3.19381-.11164,3.20494,3.20494,0,0,1,1.18668-.51179,9.58558,9.58558,0,0,1,.87633.49582c0.676,0.03638.86142-.58848,1.674-0.1635a13.37865,13.37865,0,0,0,1.07487.87783,3.72366,3.72366,0,0,0,1.42968.05694c1.58648-.0388,1.08422.43486,1.85809,1.3957,0.412,0.51158,1.62761.5486,0.84337,1.34258a1.68758,1.68758,0,0,1,.70266-0.19383c0.044,0.01881.53916,0.25885,0.53325,0.25764,0.14607,0.02983.48631,0.327,0.71585,0.38669a6.37128,6.37128,0,0,0,1.58138-.08552c-5.15658,1.23575-10.34748,1.67715-15.54873,2.48144-2.80316.43347-5.56151,0.5933-8.36938,0.79978-2.705.19892-5.40844,0.81319-8.07007,0.835-5.60182.046-11.17878,0.6678-16.77928,0.79483a143.68808,143.68808,0,0,1-17.64921-.85335,25.41034,25.41034,0,0,0-3.288-.32762,31.71056,31.71056,0,0,1-3.70145-.3519c-1.38357-.11778-2.76878-0.07622-4.14987-0.14a22.59179,22.59179,0,0,1-5.81839-.60832c0.762,0.01905,1.68423-1.0731,2.17082-1.56986a3.71888,3.71888,0,0,1,1.27875-.947,8.02177,8.02177,0,0,1,1.7866-.99885c1.00036-.31251,1.52559.26181,2.49416,0.39648a5.92769,5.92769,0,0,1,2.47418.6311c1.33419,0.70579,1.86814.3511,3.13273-.21833,0.81727-.368,1.75919-0.31782,2.615-0.65024,0.54585-.212.48153-1.00109,1.17982-0.17408a1.76473,1.76473,0,0,1,1.85668-1.47662c0.46913,0.078.77341,0.68747,1.30692,0.81138a17.41532,17.41532,0,0,0,2.28306.25614,11.3371,11.3371,0,0,0,4.01041-.44013c0.6519-.32469,1.20852-0.84517,1.94973-1.15865a1.61533,1.61533,0,0,0,1.18306-.81464c0.51647,0.52612.12588,1.51715,1.2007,1.44023C81.544,103.31284,80.498,103.38807,81.28215,103.332Z"/><path class="cls-3" d="M123.86655,45.14746a7.8399,7.8399,0,0,1,.98213-1.27007c0.34544-.26235,1.39186-0.14124,1.39582-0.63-0.94747-.22436-0.644-0.40932-1.1201-0.94524a1.43848,1.43848,0,0,0-1.1-.75686c-0.60095-.22316-1.149-0.20742-1.33713-0.99191-0.10514-.43841.41165-2.40635,0.78723-1.208,0.32821-.21754-0.24167-1.57406-0.23441-2.03032a17.69629,17.69629,0,0,1,.20393-2.84117c0.22287-1.07308,1.02828-1.39389,1.69263-2.04422,0.77246-.75616.77315-1.59855,1.42317-2.52175a23.25141,23.25141,0,0,1,1.77865-1.98189c0.78812-.88673,1.68459-0.79863,2.7478-1.03046a9.70534,9.70534,0,0,1,1.33727-.41815c0.51864-.03447,1.02425.37687,1.52684,0.33526a4.35319,4.35319,0,0,0,1.81371-.78531,8.594,8.594,0,0,0,1.16079-2.27705c0.43319-.9759.932-1.88957,1.42081-2.84667,1.07882-2.11234,2.6857-3.56892,4.24821-5.30795,1.54685-1.72161,2.60438-3.90031,4.68835-5.138,0.72518-.43069,1.48942-1.28486,2.19622-1.62219,1.03812-.49546,1.78569.03582,2.75367-1.01852,0.34589,0.74282.99022,0.55667,1.60348,0.83951,0.24641,0.11365.52423,0.10261,0.77783,0.23407a1.62739,1.62739,0,0,0,.26211.58319,17.98787,17.98787,0,0,1,2.16667.67764,17.24317,17.24317,0,0,0,2.13783,1.68344,3.79674,3.79674,0,0,1,1.93105,1.17291c0.20055,0.31843.12443,0.85642,0.30444,1.134a4.44322,4.44322,0,0,0,.45083.45231c0.52024,0.826,1.27128,1.75417,1.771,2.647a17.25,17.25,0,0,1,1.23638,3.206c0.43491,1.34531,1.18662,2.74725,1.11657,4.3101A9.99277,9.99277,0,0,1,165.439,26.376a7.04592,7.04592,0,0,0-.62578.51787c-0.18233.3501-.305,0.98865-0.41218,1.18305,0.01529-.02772-0.47105.50872-0.44718,0.479a7.39963,7.39963,0,0,1-.725.806c-0.64809.59192-1.41,1.02088-2.07656,1.57455a10.73081,10.73081,0,0,1-3.258,2.12457,8.96263,8.96263,0,0,0-1.74565.85378c-0.17629.1365-.32364,0.46589-0.50214,0.58179,0.0033-.00214-0.7938.4563-0.65072,0.35159-2.53641,1.85606-5.45984,2.79355-8.18545,4.26459a13.52455,13.52455,0,0,1-2.01617,1.05834c-1.11311.34656-1.23725-.21237-1.89033,0.8685A11.505,11.505,0,0,1,141.914,42.886a23.37907,23.37907,0,0,1-1.79788,1.81343,9.50338,9.50338,0,0,1-2.36405,1.28734c-0.78025.43293-1.40675,1.51312-2.27671,1.76058-0.95663.27211-1.43449-.43751-2.2829,0.36-0.85033.79934-.99636,2.39635-1.91848,3.1462-1.79612,1.46057-1.702-.91065-1.596-2.07875,0.02945-.32467.79452-2.26381,0.42269-2.53507-0.47545-.34686-1.78218,1.43986-2.04833,1.73266-0.3534.38878-1.08926,1.44537-1.76523,0.82451-0.79683-.73186.70874-2.42119,0.27392-2.977-0.53244-.6806-0.58792.46157-0.828,0.61907a3.47289,3.47289,0,0,1-2.192.17055c0.02-.26171.13555-2.05551,0.32558-1.86211C124.17138,44.75327,123.83779,45.11819,123.86655,45.14746Zm38.80217-20.67922c-0.3985-1.68606-.109-3.14606-1.122-4.85661-0.44976-.75943-0.6654-1.49421-1.0331-2.22675-0.14322-.28532-0.50913-0.30534-0.67582-0.64064-0.23436-.47143-0.0127-1.08951-0.29893-1.59759-0.5601,1.07024-.50732-0.36651-0.68963-0.5727a4.45524,4.45524,0,0,0-1.2104-.78292,19.18868,19.18868,0,0,0-3.94607-1.89726,8.13613,8.13613,0,0,0-4.44675.2643c-1.75261.55938-2.56307,1.82822-3.9618,2.86673a22.26042,22.26042,0,0,0-3.75893,4.27312,15.69484,15.69484,0,0,0-2.27608,3.18112,3.741,3.741,0,0,0,.20813.73328c-0.05812.19989-.13719-0.28416-0.27694,0.20445a14.32966,14.32966,0,0,1-1.10056,1.92407c-0.2676.60616-.34658,1.17913-0.65452,1.798-0.0826.166-.374,0.7878-0.40966,0.902a1.78764,1.78764,0,0,0-.48446.53358c1.59216-.41257,2.58136,1.4446,3.32879,2.53489,0.87776,1.28041,1.63863,2.04772,2.4026,3.306,0.74541,1.22768.08333,3.02805,2.16373,2.79133a10.78144,10.78144,0,0,0,5.13157-1.9461c1.21459-.84386,2.72583-1.49343,3.74572-2.204,1.10518-.77,2.58946-1.35863,3.7695-2.15359,1.50231-1.012,3.11935-1.62477,4.473-3.05114a5.3567,5.3567,0,0,0,1.24988-1.65757c0.10242-.65865-0.89951-1.028-0.12725-1.726C162.61583,24.24443,162.24739,24.84908,162.66872,24.46824ZM125.853,37.42853a4.24681,4.24681,0,0,0,1.31354,2.99431c1.95823,1.84763,4.4307,4.89817,7.42942,4.67316,1.85932-.13952,1.74149-1.934,1.31128-3.35726-0.9584-3.17072-3.14533-4.81171-5.8873-6.14432-0.91293-.44369-1.82528-1.38021-2.80915-1.17376a1.93108,1.93108,0,0,0-1.216,1.516A4.19493,4.19493,0,0,0,125.853,37.42853Zm5.15645-4.39318c0.474,0.35486.93351,0.73609,1.39665,1.074,1.39462,1.0175,2.92556,2.11277,3.591,3.7664a34.69177,34.69177,0,0,1,1.639,3.88047c0.41716,1.56359.683,1.73515,1.798,0.24552a3.52428,3.52428,0,0,0,.63426-3.92916,19.31934,19.31934,0,0,0-1.57794-3.33665c-1.52232-2.32572-3.1309-4.19269-5.88636-5.00989a2.39972,2.39972,0,0,0-1.72422.36322c-0.58654.27827-1.28192,0.27257-1.83918,0.59594-0.9716.56382,0.148,1.25861,0.70073,1.53671A8.59507,8.59507,0,0,1,131.00941,33.03535Z"/><path class="cls-3" d="M81.09808,31.2008c-0.26656-1.97144,4.43169-.91772,5.42409-1.31381-1.53176-2.31394-1.69683-5.17749.61317-6.85034,0.796-.57646,1.65777-1.23166,2.65976-0.79771,1.13115,0.48989.53037,2.11779,1.53215,2.31093-0.235.45577,0.49679,1.66714,0.64308,2.42524a10.74684,10.74684,0,0,1,.08573,3.2314c2.00632-1.78536,4.62608-5.25781,7.49362-5.14475a2.0526,2.0526,0,0,1,2.04328,1.90172,2.1039,2.1039,0,0,1-1.77761,1.75843c0.27856,0.66234-1.04126,1.09551-1.62939,1.39746a11.22311,11.22311,0,0,0-3.39044,2.19514c1.52719-.15154,5.75867-2.30586,5.0657,1.11772-0.39619,1.95732-3.85544,3.00646-5.49171,2.44854-1.37046-.46729-1.49153-0.341-2.89115.12968-1.3798.464,0.06323-.5984-0.992,0.30176a6.4379,6.4379,0,0,0-.768,1.55032c-0.67192,1.04815-1.68834,1.70656-2.35238,2.7739-0.94262,1.51511-2.17266,2.84442-3.242,4.26072-0.64954.86027-.93041,2.68177-1.886,3.22589-1.52559.8687-1.23863-1.62139-.77984-2.53157a25.52934,25.52934,0,0,1,1.9301-2.716c0.52851-.75879,1.097-1.48966,1.66725-2.21748a1.35766,1.35766,0,0,0,.419-0.949,1.92285,1.92285,0,0,0,1.01087-.58181,8.437,8.437,0,0,0,1.0359-1.68574c0.36493-.57319,1.85175-1.92321,1.85307-2.58826,0.00227-1.13531-1.86618-.78247-2.89519-0.72535-3.33074.18487-6.2786,0.9304-6.0404-3.37887l0.6594,0.4518C80.98421,30.35859,80.87049,31.04486,81.09808,31.2008ZM84.28326,32.185c-0.03514.3052,2.10545,0.22319,2.34176-.11334,0.76563-1.09032-2.20424.04135-2.34176,0.11334C84.27715,32.23809,84.62284,32.00726,84.28326,32.185Z"/><path class="cls-3" d="M60.301,45.27226a10.49785,10.49785,0,0,0-1.55035,2.21266,10.14036,10.14036,0,0,0,2.21058,1.51172,7.53331,7.53331,0,0,1,2.63013,1.88606c0.73932,0.90507.52,1.29664,0.23027,2.59825a4.62851,4.62851,0,0,1-4.02972,3.359,12.2843,12.2843,0,0,1-3.0412-.41347c0.752,0.13354-.75627-0.48281-1.6833-1.28246-1.47014,0-1.97832-.08684-3.11147.65633a4.84918,4.84918,0,0,0-1.6,1.57808c-0.23262.43611-.13415,1.1123-0.38371,1.48371-1.09912,1.63576-3.2661.87788-4.78281,0.36572-1.84059-.62153-2.02661-1.59514-2.44156-3.3937a23.88728,23.88728,0,0,1-.86-3.462,8.7751,8.7751,0,0,1-.08513-2.22026c0.11244-.46639.49879-1.08723,0.80374-1.89162a7.38039,7.38039,0,0,1,.84868-1.4766A20.61982,20.61982,0,0,1,44.968,44.47843c-0.02827.02941,0.95224-.39517,1.09962-0.47672a12.869,12.869,0,0,1,1.21543-.84818,26.13169,26.13169,0,0,1,3.53047-1.31c0.46214-.123,2.42265.12242,2.68956,0.00847,1.07252-.03627,2.1582-0.05013,3.2745-0.14834a2.886,2.886,0,0,1,1.957.29792c0.90034,0.64725,1.32775,2.26436,1.56646,3.27068C60.18169,45.37357,60.1974,44.83549,60.301,45.27226Zm-14.591,1.64821a13.16289,13.16289,0,0,1-.97375,1.5435,8.26033,8.26033,0,0,0-.58809,1.97736,6.10684,6.10684,0,0,0,1.22046,5.56087c1.5966,1.72232,2.883.64008,3.93074-.67965,0.12368-.15579.5456-0.35087,0.63617-0.50185,0.1457-.24288.18395-0.67306,0.33563-0.93,0.33149-.56145,1.02638-1.21887.35957-1.7371,1.1828,0,2.59391-.65239,3.70615-0.47634,0.77335,0.1224,1.65481,1.37145,2.49463,1.70868a6.12631,6.12631,0,0,0,1.55053.56243c0.34907-.0359.90053,0.18115,1.35407,0.12446s0.70124-.36116,1.13-0.44448c0.79461-.15442,1.06608-0.18227,1.01308-1.11a2.48037,2.48037,0,0,0-1.86937-1.92524c-0.84576-.29451-1.92409.19633-2.63759-0.08269a3.98756,3.98756,0,0,1-.64391-0.79414,4.922,4.922,0,0,1-.77107-2.85532c0.05066-1.56312,1.88675-2.67933-.02569-3.1962-0.93206-.25191-0.9018.02538-1.65961,0.21326-0.79485.19706-1.39569-.17993-2.47285-0.06655A14.39872,14.39872,0,0,0,47.61908,44.982l-1.909,1.9385C45.67338,47.02478,46.40094,46.21891,45.71005,46.92046Z"/><path class="cls-3" d="M79.95968,61.34646c0.47444-.86416,3.80635-0.97521,4.69187-0.85343a21.42408,21.42408,0,0,1,2.24639.71822A4.84877,4.84877,0,0,1,89.07834,62.231c2.45817,2.03847,2.90133,4.54834,2.311,7.43727-0.12417.6076-.3888,1.07113-0.50266,1.58629a2.24415,2.24415,0,0,1,.01413.9052,0.80719,0.80719,0,0,1-.41843.48494,3.73631,3.73631,0,0,1-.28355,1.4233q-0.567-.32728-0.56928.42711a2.1706,2.1706,0,0,1-.77212.78864c-2.14552,1.28387-1.925-1.1658-3.01565-2.04984-0.85543-.69337-2.90812-0.05481-3.6229.75232-1.4174,1.60052-2.89834,8.29436-6.19879,6.22362-0.66062-.41448-0.7932-0.79167-1.40571-1.2232-0.56694-.39942-1.76867-0.50134-1.912-1.36933-0.01509-.09139.5623-1.57311,0.61294-1.68863a9.52579,9.52579,0,0,1,.89882-1.66083A11.39048,11.39048,0,0,0,76.02051,70.399c0.4346-1.681-.48231-2.91138-1.26047-4.39281-0.8554-1.62848-.2521-2.32413,1.41221-3.07421,0.53193-.23973,3.5104-2.00876,3.78744-1.58549C80.44549,60.46159,79.92517,61.29373,79.95968,61.34646Zm6.62209,2.58315c-0.45995-1.04759-3.581-1.38642-4.52909-1.17916a12.3594,12.3594,0,0,0-4.78908,2.502c0.81221,0.24646.53947,0.787,0.72465,1.39533,0.22518,0.73974.96565,1.60107,0.9255,2.39306a3.28543,3.28543,0,0,1-.24505.90476c-0.08557.27931-.38006,0.91944-0.52952,1.31343A10.826,10.826,0,0,1,76.9848,73.671c-0.531.77918-2.70121,3.16484-.29,3.26384,1.631,0.067,2.9866-3.19127,3.70818-4.35286,0.99684-1.60471,1.7305-2.479,3.77455-2.29649a2.51855,2.51855,0,0,1,1.43977.61464,3.20674,3.20674,0,0,0,1.74577.537c2.28916-.66519,2.07366-5.92806-0.00364-6.55025,0.418-.7992-0.02605-0.6634-0.77768-0.95724C86.3387,63.376,86.99357,64.09059,86.58177,63.9296Z"/><path class="cls-3" d="M65.24275,18.51556c0-3.53374,1.09-6.95265,1.802-10.36578,0.26947-1.29171.30807-2.15813,1.26335-2.86923,0.68814-.51225.39536-0.70875,1.29477-0.46064,0.89423,0.24667.79549,0.29707,0.76976,1.15679-0.02771.92578-.94611,1.96073-1.2448,2.82969-0.18237.53056-.3772,1.28358-0.51527,1.8158-0.3715,1.432-1.44717,3.40026-1.37989,4.86391,0.08856,1.92675,1.5698,2.5818,2.96776,1.62829a1.34433,1.34433,0,0,0,.68248-0.72574,1.55987,1.55987,0,0,1,.708-0.1103c0.5072-.37325.9128-0.02876,0.8676-0.92078,0.36921,0.0341,1.91252.23482,1.49836-.60431,1.47281,0.09878,4.73385,1.26906,3.65982,3.29115-0.75738,1.42592-4.21021,2.812-5.93188,2.92935-1.17534.08013-3.38681-.52067-3.8901,1.01353-0.27424.836,0.42346,1.19537,0.74985,1.61661a3.16955,3.16955,0,0,1,.59214,2.306c0.06879,1.43494-.04546,4.5392-1.82787,5.073a2.77315,2.77315,0,0,1-2.54051-.99935c-0.61537-.73594-0.41853-1.58724-0.4184-2.55549,0.00008-.658.39187-2.80288-0.00694-3.32451-0.38711-.50632-1.93086-0.00454-2.395.18989a8.14244,8.14244,0,0,1-.76089.69857,4.0939,4.0939,0,0,1-1.59831.13825c-1.28259-.195-1.34013-1.186-1.83592-2.397,1.29654,0.25972,2.02679-1.6725,3.17246-2.38231a31.44755,31.44755,0,0,1,4.31749-1.83538C65.24275,18.21335,65.03258,18.60471,65.24275,18.51556Zm-1.34139,2.46c-0.33361-.309-0.89964.21283-1.12688,0.43719a0.45121,0.45121,0,0,0,.10951.24618c0.82132-.149.72658-0.134,1.01737-0.68337C63.8561,20.93365,63.81351,21.14156,63.90136,20.97558Z"/><path class="cls-3" d="M46.17591,87.02964c-1.17466.1395-2.664-2.29172-3.45237-2.97914a7.79031,7.79031,0,0,1-2.33133-2.32961,7.24,7.24,0,0,1-1.01733-1.74723,2.14693,2.14693,0,0,0-.34844-0.7046,0.3904,0.3904,0,0,1,.398-0.51231c-0.15327-.99005-0.58725-1.31651-0.311-2.45737a3.29674,3.29674,0,0,1,1.131-1.93752c3.23536-2.65746,6.74066,2.94384,10.12957,1.9589,3.00432-.87316,4.58332-5.14391,8.163-4.61914,1.33836,0.1962,2.46092,1.924,2.52491,3.28052a2.40413,2.40413,0,0,1-1.10337,2.34775q-0.26464.34972-.54945,0.68332a3.127,3.127,0,0,1-.84854-0.10237c-0.09733.06587-.60693,0.88622-0.76579,1.05572q-0.62639.41954-1.25422,0.83691-0.02843.57045,0.56507,0.41179a8.65378,8.65378,0,0,1,.85062.7467,4.82508,4.82508,0,0,1,1.393,1.69577c1.08737,2.67567-1.29481,3.82146-3.25315,4.53557a22.88828,22.88828,0,0,1-5.54079,1.28885c-0.77826.05951-4.38126-.293-4.37942-1.45255C45.99459,87.05117,46.17583,87.079,46.17591,87.02964Zm7.24629-9.31881c-1.96088-.2904-3.67878,1.85563-5.43033.607A29.55837,29.55837,0,0,0,45.198,76.07645a6.0742,6.0742,0,0,0-1.916-.61059q-0.90087-.63751-1.06007.429a2.19173,2.19173,0,0,1-.49072.851c-0.8835,2.38734.47809,3.86768,2.29656,5.32628,0.72755,0.58357,1.59846,1.13392,2.27231,1.764,0.21626,0.20221.71939,0.96745,0.84835,1.04794a3.59351,3.59351,0,0,0,1.04023.07544,9.44035,9.44035,0,0,0,1.73384.956c1.778,0.348,3.20912-.27989,4.80394-0.82007,0.763-.25844,2.39786-0.19888,2.5258-1.283,0.09816-.83176-0.941-1.62455-1.61638-1.90864-1.116-.4694-2.131-0.08984-2.14041-1.5588-0.00944-1.47707,1.75785-2.52261,2.74929-3.40342,0.41385-.36767,3.11809-2.55677,1.30857-2.78641-0.45247-.05742-2.16747,1.15645-2.557,1.437a7.12737,7.12737,0,0,1-.48682.78721c-0.31672.398-.73243,0.89351-1.08731,1.3315C53.258,77.68651,53.85385,77.17807,53.42219,77.71083Z"/><path class="cls-3" d="M163.76078,59.72475a5.9003,5.9003,0,0,1-1.44293.88024c-1.44211.57957-2.1511-.52147-2.38248-1.79283a32.43057,32.43057,0,0,0-.36869-3.37738,7.57261,7.57261,0,0,1-.03822-3.2525c0.38-4.76677,4.903-8.79556,9.75379-7.97528a8.59239,8.59239,0,0,0,2.34-.03109c1.24052-.11221,1.8459.77839,2.64267,1.561a7.40032,7.40032,0,0,1,1.7988,2.9708,2.14741,2.14741,0,0,1-.06229,1.79258,5.0141,5.0141,0,0,1-.72427.67259c-0.59821.55861-4.32547,2.60335-4.68566,2.9291-0.77247.69863-1.55253,1.319-2.39825,1.97354-0.34849.26972-.823,0.31312-1.11726,0.53312-0.46962.35117-.76082,0.88223-1.20641,1.25C165.18521,58.42364,164.503,59.13581,163.76078,59.72475ZM163.985,48.23438A6.16815,6.16815,0,0,0,162.4577,50.68c-0.44787,1.23664-1.14764,5.75032.9352,5.9621,0.80613,0.082,1.39732-.99974,1.954-1.42852,0.69607-.53617,1.47364-0.83975,2.14076-1.41183,0.87738-.75238,1.729-1.5573,2.65634-2.29613a12.73714,12.73714,0,0,0,2.5031-2.195,1.91263,1.91263,0,0,0-.7466-2.7407c-1.29982-.61771-2.81119-0.23716-4.15438-0.00291A6.99316,6.99316,0,0,0,163.985,48.23438Z"/><path class="cls-3" d="M134.89832,75.76034a10.19348,10.19348,0,0,1-.53572-2.63969c0.05858-.666,1.16673-2.19652,1.962-2.15,0.18682,0.01092.91669,0.75407,1.16868,0.851a5.02319,5.02319,0,0,0,2.29521.077,14.71889,14.71889,0,0,0,4.47709-1.59771c1.49125-.76052,3.30164-3.36222,5.22058-2.33777,1.12032,0.5981,1.43939,2.23,1.58721,3.36227,0.12049,0.923.49614,1.98757,0.53411,2.87116a8.06163,8.06163,0,0,1-.1783,2.23392,9.12683,9.12683,0,0,1-1.46021,2.10279,12.96791,12.96791,0,0,1-2.25394,2.51185,5.20229,5.20229,0,0,1-1.97127.61685,16.618,16.618,0,0,1-2.4111.64254c-0.84563.03193-.7128-0.24851-1.44257-0.53192a6.941,6.941,0,0,0-1.68691-.23458,5.26178,5.26178,0,0,1-2.36252-.60159A10.07988,10.07988,0,0,1,134.89832,75.76034Zm12.535-4.83946c-0.90931-.04684-2.36591.94165-3.16346,1.36743-1.17048.62489-3.54861,1.709-4.72468,1.668s-1.97321-.56589-2.28176.46c-0.2696.89642,0.71055,2.12081,1.2247,2.75427,0.9979,1.22946,2.97978,2.97386,4.71307,2.70509,0.7805-.121,1.26476-0.40328,1.58367-0.42094a3.80327,3.80327,0,0,0,2.76777-1.332,7.91233,7.91233,0,0,0,.90778-1.53686,8.64732,8.64732,0,0,0,.53336-0.89925C149.2454,74.98785,148.94067,70.99853,147.43335,70.92088Z"/><path class="cls-3" d="M116.03407,77.01148c1.22667,0.06037.3912,3.07933,0.20024,3.69265-0.2636.84663-.7042,2.37107-1.90281,1.53391-0.66335-.46331-0.55117-2.07361-0.46387-2.74279a3.75285,3.75285,0,0,1,1.642-2.253,0.83467,0.83467,0,0,1,.48755-0.23154C116.00951,77.01064,116.02164,77.01088,116.03407,77.01148Z"/><path class="cls-3" d="M126.63676,60.47266a0.83829,0.83829,0,0,1-.16679-0.03252c-1.63274-.49724.11343-4.86011,1.35649-5.04275a1.22429,1.22429,0,0,1,1.4702,1.71684,5.23314,5.23314,0,0,1-1.976,3.19017A1.18451,1.18451,0,0,1,126.63676,60.47266Z"/><path class="cls-3" d="M115.55237,63.65542a4.85218,4.85218,0,0,1-.71815.9677,1.88348,1.88348,0,0,1-1.27016.58461c-1.56886.01785-.45-2.07784-0.18755-2.78074a2.39636,2.39636,0,0,1,1.91036-1.81012C116.98079,60.48009,116.30916,62.38979,115.55237,63.65542Z"/><path class="cls-3" d="M125.35524,63.77933a1.42886,1.42886,0,0,1,1.17325-.54611,0.9078,0.9078,0,0,1,.76024.50558c0.55971,0.99937-.36916,5.54575-2.175,4.35866C124.02558,67.382,124.35068,64.89561,125.35524,63.77933Z"/><path class="cls-3" d="M122.42371,43.51572a1.19954,1.19954,0,0,1-.0268,1.82433c-0.50182.38034-.99942,0.76963-1.52839,1.109a1.11312,1.11312,0,0,1-.70661.15261c-1.197-.18-1.53722-1.29107-0.733-2.30612a5.77143,5.77143,0,0,0,.51542-0.7658C120.5664,42.41563,121.787,42.77584,122.42371,43.51572Z"/><path class="cls-3" d="M108.22946,81.126c-0.93813.35609-1.62092,0.90227-1.96585-.41009a2.85665,2.85665,0,0,1,1.36121-2.9294c0.8687-.51454,1.56738-0.48435,1.96628.58071,0.434,1.15869-.52919,2.0989-1.36164,2.75877C107.90926,81.24757,108.32627,81.04929,108.22946,81.126Z"/><path class="cls-3" d="M119.03666,66.418a3.29686,3.29686,0,0,1-.11345-1.641,2.90885,2.90885,0,0,1,.2825-1.68651,2.867,2.867,0,0,1,1.65754-1.51643c1.359-.22426.71651,2.74272,0.40756,3.36023a3.21734,3.21734,0,0,1-1.69317,1.62516A0.51369,0.51369,0,0,1,119.03666,66.418Z"/><path class="cls-3" d="M104.37695,70.95678a0.77626,0.77626,0,0,1,.24644.359c0.292,0.80047-.31506,1.88449-0.70576,2.55158a1.33929,1.33929,0,0,1-2.15673.5461c-1.17723-.93554-0.17145-2.16921.67517-2.91341C102.85823,71.12907,103.85072,70.54853,104.37695,70.95678Z"/><path class="cls-3" d="M126.70513,74.38609q-0.01738.04683-.03826,0.08971a0.10734,0.10734,0,0,1,.01729-0.17742c-0.04726.95086-.47608,3.10341-1.85852,2.81188-1.00242-.21139-0.78559-1.96157-0.67172-2.56623,0.133-.70648.40122-2.07107,1.25642-2.34C126.50908,71.85854,127.0111,73.5619,126.70513,74.38609Z"/><path class="cls-3" d="M95.80983,89.33691c-2.29613-.4166-0.6738-3.86523.95684-4.03986,1.08564-.11626,1.44812.85065,1.21777,1.92742a3.19241,3.19241,0,0,1-2.17461,2.11244C95.26117,89.23736,96.23147,89.14862,95.80983,89.33691Z"/><path class="cls-3" d="M118.70919,49.4828c-0.17338.98811-2.554,3.96531-3.62939,2.20316-0.45717-.74912.841-2.83338,1.5283-3.21334,0.82227-.45458,2.21052-0.24474,2.10109,1.01018C118.62448,49.96556,118.7624,48.87255,118.70919,49.4828Z"/><path class="cls-3" d="M114.37928,87.27674c0,0.25666-.07843-0.056,0,0a3.76387,3.76387,0,0,1-.72356,2.65391,1.723,1.723,0,0,1-1.29571.91152C110.743,90.60887,111.132,84.95688,114.37928,87.27674Z"/><path class="cls-3" d="M113.20629,53.84827a0.62543,0.62543,0,0,1,.65075.396,1.93238,1.93238,0,0,1,.18035,1.27675c-0.17757.97409-.91068,2.17821-1.99225,2.22037-1.427.05544-.91721-1.23986-0.44556-2.02953a6.32062,6.32062,0,0,1,1.128-1.61623A0.99421,0.99421,0,0,1,113.20629,53.84827Z"/><path class="cls-3" d="M118.99376,70.62189a0.87717,0.87717,0,0,1,.23961.245,2.78465,2.78465,0,0,1-.394,2.89975c-0.36048.43827-1.667,1.02282-2.23994,0.59614-0.48008-.35752-0.10228-2.0183.081-2.46852a2.1695,2.1695,0,0,1,.99013-1.17588A1.33965,1.33965,0,0,1,118.99376,70.62189Z"/><path class="cls-3" d="M105.4843,68.94234c-1.25432-1.068-.67277-4.35036,1.337-3.96356,0.77241,0.14866,1.17394,1.41792,1.02406,2.09719-0.24579,1.114-1.45138,1.48365-2.3611,1.86637C105.35045,68.82837,105.93067,68.75455,105.4843,68.94234Z"/><path class="cls-3" d="M117.99769,56.09476a0.47473,0.47473,0,0,1-.18216-0.20995c-0.34963-.81332.62294-1.611,0.983-2.22653,0.32184-.55028,1.3023-2.497,2.24354-1.75387,0.73852,0.58306-.14329,2.61584-0.5336,3.07052a2.6509,2.6509,0,0,1-2.41808,1.14667,0.13451,0.13451,0,0,1,.2265.00574A0.32884,0.32884,0,0,1,117.99769,56.09476Z"/><path class="cls-3" d="M108.7959,60.17311c0.52839-.53329,1.23393-1.67224,2.06949-1.22215,0.88562,0.47706.70338,1.91532,0.238,2.571a2.60705,2.60705,0,0,1-1.91488,1.04718c-1.37055-.11848-0.667-1.3639-0.39264-2.396C109.01179,59.95521,108.67676,60.62127,108.7959,60.17311Z"/><path class="cls-3" d="M99.807,78.53316q0.04026,0.00225.08176,0.00857c0.91032,0.1393.97544,1.73761,0.63569,2.3733-0.34728.64972-1.15071,1.60378-1.91063,1.53824-1.20063-.10376-0.80478-1.28524-0.427-2.01582C98.49692,79.83782,98.93728,78.48453,99.807,78.53316Z"/><path class="cls-3" d="M124.63585,56.40735c-0.31138.90785-.5721,2.02981-1.72694,2.14075-1.26581.1216-1.25195-.67-0.91714-1.71041,0.20012-.62183.77-1.936,1.55686-2.02738,0.85753-.09958.84193,0.91643,1.08722,1.597C124.45762,56.927,124.52424,56.09764,124.63585,56.40735Z"/><path class="cls-3" d="M121.99921,92.80077a1.438,1.438,0,0,1-.35735-1.81225c0.25322-.7652.85974-2.05107,1.81033-1.43168a2.37645,2.37645,0,0,1,.44,2.04055c-0.23853,1.13039-.79467,1.30739-1.893,1.20339C121.77273,92.48754,122.15,92.815,121.99921,92.80077Z"/><path class="cls-3" d="M125.34722,81.32706a1.81248,1.81248,0,0,1-.03162.594,3.40617,3.40617,0,0,1-.254,1.38182c-0.496.77823-2.09068,0.93246-2.46319,0.04637-0.26057-.61982.61282-1.86767,1.03244-2.25358,0.40079-.36825,1.47992-0.55133,1.69023.12135A0.83,0.83,0,0,1,125.34722,81.32706Z"/><path class="cls-3" d="M109.631,71.51894a2.179,2.179,0,0,1,1.39883-2.30451c0.92227-.35821,1.17758.439,1.10871,1.23178a2.38871,2.38871,0,0,1-.80132,1.74394,1.19442,1.19442,0,0,1-1.57521-.39725A1.17019,1.17019,0,0,1,109.631,71.51894Z"/><path class="cls-3" d="M105.48529,89.57856a0.25808,0.25808,0,0,1,.10376.2214,0.40508,0.40508,0,0,1-.06906-0.14358c0.63385,1.24594-.73727,3.73789-2.13567,2.30562a1.7518,1.7518,0,0,1,.31246-2.32865,1.48736,1.48736,0,0,1,1.71054-.10661A0.4813,0.4813,0,0,1,105.48529,89.57856Z"/><path class="cls-3" d="M211.71028,99.61107a2.38961,2.38961,0,0,0-.00812-0.62348c-0.21017-.73287-0.25974-1.36874.70688-1.56374a0.208,0.208,0,0,0,.11774-0.13609c0.23694-.94384,1.00514-0.84709,1.703-0.85914,0.38795-.0067.77706,0.038,1.16528,0.06481a9.00569,9.00569,0,0,0,1.80128.108,3.23661,3.23661,0,0,1,2.0749.73888,3.758,3.758,0,0,0,.93163.41341,0.73684,0.73684,0,0,1,.64232,1.02556,6.25043,6.25043,0,0,0-.14993.77017A18.20125,18.20125,0,0,1,211.71028,99.61107Z"/></g></svg>