<svg id="HIW-1_Recipes" xmlns="http://www.w3.org/2000/svg" viewBox="0 0 244 136"><defs><style>.cls-1{fill:none;}.cls-2{fill:#ffaa96;}.cls-3{fill:#ff564d;}</style></defs><title>Illustrated-Icons_All-Icons</title><rect class="cls-1" width="244" height="136"/><g id="_62bmKF.tif" data-name="62bmKF.tif"><path class="cls-2" d="M95.091,122.97416c-1.40613.1349-.53694-1.51546-0.88274-2.36331a16.33834,16.33834,0,0,0-1.09021-1.263q-0.20032-.85763-0.3808-1.71965a0.48023,0.48023,0,0,1-.54063-0.44076,17.101,17.101,0,0,0-1.52239-3.11071,36.97312,36.97312,0,0,0-2.36382-3.16253c2.26447-.40015,4.2204-1.32736,6.42457-1.89719a16.435,16.435,0,0,0,5.03326-1.88743,51.40869,51.40869,0,0,1,11.227-4.91215c2.75418-.9288,5.33713-2.59856,8.24353-3.60815,3.206-1.11366,5.9016-3.48578,9.00792-4.93114v12.77221a4.8169,4.8169,0,0,1,1.82733-2.01711,3.724,3.724,0,0,1,1.23955-.42685l0.20281,0.37171a47.4273,47.4273,0,0,1,5.06282-.43808c2.35434-.04216,1.79.20128,1.63367,1.97161-0.11981,1.35706.00313,2.72171,1.24752,3.56826-0.40528-1.55276-.85744-2.84514-0.261-4.44381,0.49788-1.33438.12559-1.09308,2.09-1.10862a4.16307,4.16307,0,0,1,1.92255.13251c0.43408,0.21568.57488,0.91,1.02668,1.12877,1.43949,0.69691.78343-.39965-0.00138-1.13184,0.18457-.52355,5.48389-0.171,6.27645-0.17528,2.53027-.01353,5.8836-0.553,8.313.18427,0.37015,0.11233,3.08588,1.734,3.31648,1.416,0.55152-.76059-1.77-1.09682-1.68032-1.65085h43.3786c1.34885,0,5.03616-.78133,5.84158.38836,0.49315-1.27916,1.25814.33018,1.73774,0.9127,0.7449,0.90476-.26532,1.82119-0.10009,2.934,1.614-1.55933,1.20145,6.06105,1.21924,6.431,0.116,2.41252.86379,4.73963-1.71468,5.99517-4.6494,2.26393-9.14657,1.55573-14.04884,1.47971-1.38376-.02146-2.77215-0.31077-4.11134-0.4016-0.28642-.01943-0.68479-0.05981-0.98263-0.09341-0.45979-.05188-1.63941-0.46792-1.97665-0.4724-0.15558-.00207-0.44294.53611-0.654,0.55811-0.69948.07293-1.36956,0.14334-2.07409,0.1589a28.91877,28.91877,0,0,1-3.96743-.40276c-2.63125-.2978-5.20381-0.33084-7.87966-0.57581-2.33785-.214-4.60159-0.81377-6.89861-0.86494-2.45251-.05463-4.7819-0.62826-7.278-0.77374-2.72509-.15882-5.45514-0.37307-8.17774-0.3589-2.65677.01382-5.34652-.28808-7.98444-0.21648a2.38725,2.38725,0,0,0-2.30627.97619c-1.07416,1.14218-.44262,1.04366-2.46767.91795-1.92251-.11935-4.0056-0.03186-5.71043-0.00464-2.24779.03588-4.49453,0.69814-5.87481-1.75568-0.96782-1.72056-.42851-4.5522-0.1065-6.39289,0.14759-.84366.77448-2.11994,0.01443-2.45606-0.38712-.1712-3.64375,1.94649-4.25648,2.27893a54.137,54.137,0,0,1-6.68811,3.40537,22.152,22.152,0,0,0-3.50848,1.921c-0.77746.4537-2.45934,0.87443-2.91446,1.16243-0.50366.31872-.76542,0.98853-1.292,1.276-0.51606.28175-1.3483,0.41534-1.93962,0.71767a23.10545,23.10545,0,0,0-2.80419,1.94778c-1.06367.74937-2.36589,1.3162-3.383,2.06344-0.56586.41573-1.325,1.79088-1.7413,1.33448a5.54392,5.54392,0,0,1-.096,1.12112,4.36434,4.36434,0,0,1-.63023.07884,1.70891,1.70891,0,0,1-2.15292-1.03558c-0.16393-.41508.25578-2.37337-0.00641-2.58115-0.47834-.37906-1.93508.81718-1.83648-0.53C94.86846,122.99551,95.05525,123.46285,95.091,122.97416Zm5.67686-5.899c2.97062-.853,5.49857-2.59969,8.36161-3.65341a46.77406,46.77406,0,0,0,4.816-2.1057c1.43715-.71824,3.43748-1.192,4.33937-2.57057-1.275-.10613-3.35155,1.25866-4.50868,1.7729-1.43769.63893-2.94067,1.05382-4.3425,1.8088-1.535.82668-3.16152,1.45841-4.6953,2.29372-0.98545.53669-3.48417,1.47161-3.97053,2.45426C101.166,116.96079,100.89585,116.81656,100.76788,117.07511Zm72.00614-5.45068c-0.03585.27924,14.70814,1.607,15.92028,0.01477-1.16812-.53251-2.9781-0.05812-4.265-0.07617-1.4095-.01977-2.81628.04164-4.21606,0.0041a73.16561,73.16561,0,0,0-7.43919.05731C172.76426,111.70045,173.64909,111.55809,172.774,111.62444Zm7.84079-3.13c1.06728,1.84212,3.81545,1.09031,5.69278,1.06709,1.11043-.01373,2.21637-0.06218,3.32815-0.044,1.04194,0.017,3.24983.46676,4.13457-.19022-0.91034-.83888-4.80607-0.43625-6.13211-0.49964q-3.51163-.16787-7.02338-0.33323C180.83739,108.87859,185.0468,108.70419,180.61481,108.49443Zm4.37147,6.09611c-0.08682-.6168-6.21549-0.75061-7.00559-0.79209a32.0432,32.0432,0,0,0-7.642.092c0.73145,1.38917,6.44954.68751,7.88793,0.77156,1.816,0.10612,5.15946.75728,6.75968-.07145C184.97671,114.52258,184.838,114.66733,184.98628,114.59054Zm-13.30856,3.85622c0.03591,0.76814,2.65711.39893,3.46026,0.45429,1.53389,0.10573,3.051.35706,4.588,0.48141a42.89353,42.89353,0,0,0,4.28586.459c0.69453-.01217,2.81786.25651,3.28381-0.15359-1.83361-1.08672-4.93-.78861-7.03754-0.96856a79.00047,79.00047,0,0,0-8.58042-.27253C171.68348,118.57012,172.1659,118.43492,171.67772,118.44676Zm-20.60886-8.601a6.27575,6.27575,0,0,1-1.5557.55242c1.18811,1.7358,4.04473,2.29881,5.99857,1.60784a36.21234,36.21234,0,0,0-4.44287-2.16026C151.04505,109.88184,151.81664,110.217,151.06886,109.84573Zm-43.657-2.25156c0.89271-.20375,6.63931-1.52724,5.19859-2.89033-1.006,1.29452-1.66128.21726-3.201,0.607-1.43216.36248-1.47616,0.86406-1.99756,2.28337C108.02389,107.45448,107.62339,107.01837,107.41187,107.59417Zm26.42256,10.70813c-0.237-.06361-0.95482-0.13612-1.158-0.22861-0.84582-.385-0.22919-0.3385-0.88136-0.82706-0.82817-.6204-2.09139-1.76022-2.42412-0.37212-0.55526,2.31648,3.00742,2.52317,4.46352,1.42779C133.4855,118.20866,133.59406,118.48312,133.83442,118.3023Zm-39.62257-4.55776a2.72081,2.72081,0,0,0,.77021,3.40464c0.90529-1.53563.97862-1.88521,0.52314-3.71051a2.30174,2.30174,0,0,1-1.29335.30587C94.03706,114.1293,94.36062,113.73491,94.21185,113.74454Zm20.48626,0.31169c0.03194-1.15272-2.92315,1.03547-3.3253,1.25974-0.92014.51313-3.43326,0.80981-3.6043,2.14936,2.51547-.68039,4.6298-2.25306,6.9296-3.40909C114.69983,113.99412,112.418,115.20237,114.69811,114.05624Zm16.26829-1.821c0.39053,0.64144,2.67354,3.10993,2.95519,1.86047,0.11915-.52859-1.02361-1.72519-1.39746-2.01213-0.93256-.71575-0.79242-0.8874-1.55773.15166C131.10339,112.46025,131.1828,111.94145,130.9664,112.23525Zm8.9734-1.76665c0.417,0.74853,2.85286,3.32793,2.87629,1.74052a3.09616,3.09616,0,0,0-1.3134-1.80227c-0.91572-.70186-0.72313-1.02789-1.56289.06174C140.06971,110.70182,140.15659,110.1873,139.9398,110.4686Zm19.1724,1.68026a7.48327,7.48327,0,0,1,.968-0.49013,9.89347,9.89347,0,0,0-4.97424-1.54879c0.65918,1.22332,2.84339,1.50121,4.00623,2.03893C159.12854,112.114,158.81663,112.01219,159.1122,112.14887Zm41.04263,3.329c0.5772-.10431.26488-1.97112,0.202-2.4098-0.02288-.15951-1.04063-3.29532-1.39956-1.77644a6.22851,6.22851,0,0,0,.51727,1.767,14.07459,14.07459,0,0,0,.68034,2.41923C200.21547,115.46688,200.0624,115.26944,200.15483,115.47784ZM167.47161,111.638c-0.72632-1.17507-2.2389-.80568-3.17885-1.6391,0.14812,1.47227,1.79465,2.10568,3.17885,1.6391C166.69658,110.38413,166.33992,112.01947,167.47161,111.638Zm25.792,8.19029c-0.00755-.87419-5.6046-0.42585-5.46995-0.076,0.29241,0.75973,4.777.16287,5.46995,0.076C193.263,119.7558,193.00413,119.86082,193.26359,119.82829Zm-38.93391-11.21748c0.07682-.11941-2.03534-2.18542-2.50972-1.93194-1.67456.89481,2.31007,1.89452,2.50972,1.93194C154.36586,108.55458,153.62667,108.47906,154.32969,108.61081Zm17.0022,9.7949a9.59,9.59,0,0,0-3.45025-.38213c0.2136,0.77948,3.07748,1.26433,3.45025.38213C170.78521,118.29814,171.13731,118.86619,171.33189,118.40571Zm38.88161-11.33478c-0.18621.37272-.04422,2.30041,0.66239,2.35,0.42885,0.03008.31039-2.3371-.66239-2.35C210.17627,107.14546,210.78225,107.07846,210.2135,107.07093Zm-12.34109,11.70819c1.44447,0,2.21451-.16607.81121-1.28109l-0.81121,1.28109C198.30693,118.77912,198.22253,118.22621,197.87242,118.77912Zm-96.37532-8.87583c0.359-.26057,1.08761-1.62922.75186-2.10622-0.63108-.8966-0.80462,1.90753-0.75186,2.10622C101.96434,109.56414,101.281,109.08938,101.4971,109.90329Zm0.80591,11.28224c-0.40249-.03021-1.70719.67207-1.41935,1.21385,0.206,0.38767,1.78278-.32216,1.41935-1.21385C101.61372,121.1338,102.60329,121.92229,102.303,121.18554Zm3.03293-14.52361-0.34969-.40967a2.238,2.238,0,0,0-.57368,2.152c0.58788-.28063.71266-1.16666,0.92336-1.7423C105.18669,106.4871,105.135,107.211,105.33593,106.66193Zm52.29355,7.83145c0.06888,0.533,1.73316.295,1.96348-.19946,0.36916-.79257-1.95563.19668-1.96348,0.19946C157.64079,114.5809,158.18073,114.29784,157.62948,114.49338Zm53.68318-2.50893a7.16224,7.16224,0,0,0-.41218-3.09849C211.78938,106.84688,211.69785,112.85292,211.31265,111.98445Zm-108.36939,5.97508a1.7459,1.7459,0,0,0-1.96138.8165A2.771,2.771,0,0,0,102.94326,117.95954ZM119.142,106.0181c0.0009,0.16509,1.76465.12277,1.58789-.4717-0.24984-.84025-1.35646.271-1.58789,0.4717C119.14222,106.06173,119.43145,105.767,119.142,106.0181Zm0.24-5.48141c0.53071,0.911,1.0377-.10358,1.13886-0.69778a1.29347,1.29347,0,0,0-1.13886.69778C119.7214,101.11931,119.58255,100.32529,119.382,100.53669Zm-21.37631,9.13178a0.99175,0.99175,0,0,0-.4355,1.52865,2.15737,2.15737,0,0,0,.4355-1.52865C97.34392,109.85418,97.94564,110.13014,98.00568,109.66847Zm93.4073,2.196c-0.05337.52789,1.25193,0.437,1.5607,0.27354,0.27739-.14682-1.10617-0.57429-1.5607-0.27354C191.40505,111.94285,191.841,111.58126,191.413,111.86444Zm1.70912,1.59341a1.27817,1.27817,0,0,0,1.012.76982c0.25194-.80365-0.248-0.8685-1.012-0.76982C193.28648,113.66638,193.36456,113.42654,193.1221,113.45785ZM95.698,117.97643c-0.35258.57528,0.35155,1.23631,0.8932,0.32538l-0.8932-.32538C95.62971,118.0878,95.9957,118.08489,95.698,117.97643Zm33.89254-8.7476c-0.63324,1.18555,1.20547,1.6488,0,0C129.43084,109.52776,129.86261,109.601,129.59051,109.22884Zm37.9358,0.776,0.51549-.41985c-0.88308-.49863-0.62986-0.536-1.21568-0.21089l0.70019,0.63074C167.76272,109.81229,167.261,109.76586,167.52631,110.00484Zm-10.8818,2.3762-0.67947.48247c0.81539,0.43962,1.39453.46925,0.67947-.48247C156.338,112.5987,156.826,112.62265,156.6445,112.381Zm-5.02737-3.89787c-0.45853.83682,2.66871,0.87831,0,0C151.56838,108.57215,151.95154,108.59323,151.61714,108.48318Zm-25.4004-10.25641c0.35113-.43463.82536-0.66754,0.4369-1.14026-0.73461.83848-.76668,0.52215-0.4369,1.14026C126.4849,97.89484,126.10256,98.01277,126.21674,98.22676Zm-21.29642,20.572,1.21714-.50819C105.413,117.87274,105.154,117.97327,104.92032,118.79874Zm72.03491-9.431q0.44141-.6258-0.58011-0.80947c-0.07059.64189-.0392,0.61509,0.58011,0.80947C176.99956,109.25914,176.73963,109.3,176.95523,109.36769Zm34.28022,9.26409-0.33121-.40552c-0.44631.75632,0.33481,0.31239,0.63231,0.81621,0.16944-.21258-0.47054-0.19811-0.3011-0.41069C211.08212,118.44405,211.04341,118.87272,211.23546,118.63179Zm-40.62553-11.75313c0.13486-.818-0.02226-0.98315-0.69593-0.83292Zm-37.39821,3.50441c0.62872-.453-1.10367-1.65966,0,0C133.307,110.31441,133.05718,110.15067,133.21172,110.38306Zm63.8636,4.02651c-0.51322.281-.54159,0.43926-0.12173,0.87138a0.51067,0.51067,0,0,0,.12173-0.87138C196.98318,114.46,197.14333,114.57466,197.07532,114.40957Zm-55.02147-6.63813c-0.6255.35177,0.02723,0.78869,0.482,0.83l-0.482-.83C141.97735,107.81446,142.19421,108.01311,142.05385,107.77144Zm12.08521,6.952c-0.87763-.711-0.91656.4659,0,0C153.91281,114.54015,153.9008,114.84456,154.13906,114.72345Z"/><path class="cls-2" d="M45.81318,112.554c-0.1612.42552-2.98071,1.47212-3.4273,1.52643-1.51387.18411-1.48558-.72584-2.51426-1.68534,1.58062-.38761,1.28456-5.84843,1.24059-7.017a15.426,15.426,0,0,0-.47329-3.58259c-0.23863-.888-1.14185-2.75926-0.62036-3.46673-0.31963.02453-.63042-2.01976-0.714-2.37315a10.17241,10.17241,0,0,1,2.24119-.24421c0.51492,0.31179-.06923,1.67438.82339,1.48209-0.11275-1.11536-.37311-1.40577.47785-1.88168,0.97191-.54356,2.76415-0.31857,3.851-0.52811,2.29971-.44337,4.59346-0.838,6.88994-1.24863,4.35876-.77945,8.80631-1.39016,13.1836-1.9189,1.02465-.12377,2.09282-0.73024,3.09474-0.76858,0.5992-.02293,1.02932.22784,1.605,0.20079,1.02424-.04814,2.1992-1.00864,3.22463-0.84843,0.65785,0.10278.57581,0.50723,1.22855,0.4214,0.60139-.07908,1.62969-0.686,2.34251-0.86624a16.07081,16.07081,0,0,1,3.42779-.63723c2.99592-.105.78825,1.99919-0.41191,2.86729a8.949,8.949,0,0,1,2.82535,2.06954c0.81845,1.15525.70854,2.59253,1.01271,3.91493,0.524,2.278,2.51867,4.05513.911,6.46226-1.63488,2.44789-4.43137,1.5018-6.82858,2.174-1.07487.30139-2.15562,0.35-3.23909,0.60939-0.85746.20527-1.75667,0.70852-2.6272,0.83215-0.46165.06556-.96894-0.1444-1.40012-0.04608a9.42549,9.42549,0,0,1-2.07792.51582,34.586,34.586,0,0,0-4.13845.71667,7.14839,7.14839,0,0,1-1.80542.2303,6.7376,6.7376,0,0,0-.86841-0.41068c-0.078.006-.80125,0.54921-0.94066,0.59592a12.09832,12.09832,0,0,1-1.731.18961c-2.3734.35765-4.71778,0.92085-7.099,1.29212-2.37123.36972-5.05012,1.80477-7.463,1.42292C45.63214,113.03195,46.08645,112.59727,45.81318,112.554ZM79.36937,90.985c-0.90531.26879-4.44966,3.46713-1.64571,3.13509,0.83307-.09865,2.74776-2.45625,1.64571-3.13509C79.16006,91.04711,79.51851,91.07683,79.36937,90.985ZM61.72854,108.30085c-0.027-.68659-7.03572.36873-7.78048,0.88687,1.52988,0.81371,6.21935-.20983,7.78048-0.88687C61.72541,108.22131,61.64209,108.33834,61.72854,108.30085Zm-15.57026-4.14591c0.75578-.86455.01541-6.06974-0.80388-6.87366-0.36074,2.23666.45157,4.63356,0.80388,6.87366C46.614,103.63365,46.09207,103.734,46.15827,104.15495ZM65.752,96.93585c-0.32619.75916-.14833,2.84443,1.29869,2.62393,0.62351-.095.33769-0.09685,0.21375-0.99072-0.1659-1.19652-.57067-1.19862-1.51244-1.6332C65.65967,97.15083,66.32013,97.198,65.752,96.93585ZM48.48966,110.2367c0.18269,0.65993,4.11645.1935,3.57864-.444-0.52188-.6186-2.96182-0.0765-3.57864.444C48.51154,110.31574,48.6327,110.116,48.48966,110.2367ZM81.65947,98.9858c0.46359-.31836,1.80278-2.01042.45466-2.00655-0.7441.00213-1.61554,1.74263-.45466,2.00655C81.95685,98.78158,80.97618,98.83046,81.65947,98.9858Zm-2.30615-3.92957c0.47038,0.18033,2.36448-1.929,1.44009-2.01216-0.68832-.06193-1.53444,1.51008-1.44009,2.01216C79.436,95.08792,79.32425,94.9015,79.35332,95.05623ZM61.66371,96.72889c-0.17471-.29913-1.6632-2.48624-2.15416-1.00747-0.24238.73,1.77043,0.91051,2.15416,1.00747C61.399,96.2756,60.94491,96.54727,61.66371,96.72889Zm13.36754,6.409c0.43906,0.05224,1.18207-1.35506,1.43659-1.70711-1.51235.19168-1.89835,0.15066-1.43659,1.70711C75.09337,103.14525,74.99712,103.02281,75.03126,103.13786Zm-23.89974,4.96438c0.56988-.52409.52771-0.26355-0.046-1.21393l-0.91939.5773,0.96539,0.63664C51.32351,107.92567,50.76772,107.86233,51.13151,108.10225Zm-1.3053-6.11141a2.01439,2.01439,0,0,0,.55391,2.091A2.84454,2.84454,0,0,0,49.82621,101.99083Zm23.42185-8.99411L72.58233,92.17c-0.36987.64777-.2371,0.97366,0.66573,0.82676C72.97519,92.65784,72.713,93.08378,73.24806,92.99672Zm7.34581,3.29565c-0.25426-.49958-0.8399.59185-0.81437,0.92618a1.12259,1.12259,0,0,0,.81437-0.92618C80.57076,96.247,80.462,96.53408,80.59387,96.29237Z"/></g><g id="_2yMdnJ.tif" data-name="2yMdnJ.tif"><path class="cls-3" d="M92.56253,82.79488c0.10216-.15908.22324,1.46288,0,0,0.42564-.6628-0.00557-1.32544.26785-2.02891a11.29141,11.29141,0,0,1,1.55861-2.1982,12.31355,12.31355,0,0,0,1.903-3.7025A6.14281,6.14281,0,0,1,97.13009,72.77c0.37244-.56165.79328-1.107,1.12792-1.725a16.09324,16.09324,0,0,1,2.47626-3.95277c0.65369-.63033,1.54069-0.75837,2.17448-1.40714,0.471-.48217.60763-0.96008,1.13067-1.43471a18.85,18.85,0,0,1,5.23422-3.52269c3.91371-1.386,7.75076-2.53165,11.96677-1.97823,1.53917,0.202,4.52027,1.35751,5.598,1.30994a9.87788,9.87788,0,0,0,2.34289-.48616c0.11808-.84344-0.27486-2.539,1.41186-2.7199a45.11736,45.11736,0,0,1,7.0602.187c1.51608,0.09346,3.15931.90861,4.19541-.36942,0.629-.77585.60175-1.8658,0.89231-2.78049,0.20928-.65883.76388-1.38013,0.92194-2.03068a1.08018,1.08018,0,0,0,.01936-1.27691,0.6518,0.6518,0,0,1,.44136-0.6921,20.94486,20.94486,0,0,1,.77812-2.0941c0.50463-1.46947.34251-3.32809,2.28889-3.03963,2.52861,0.37475,1.687,2.80486,1.495,4.66583,1.01321-.65715.19221,0.58,0.16643,0.91822a22.17569,22.17569,0,0,0,.11294,2.4942c0.033,0.77121-.13194,1.58746-0.03881,2.35187-0.00283-.02321.27144,2.14493,0.29194,2.17054,0.7455,0.9317,3.1665.4173,4.27567,0.40544,1.02551-.011,6.42879.723,7.08894-0.03181,0.34117-.39008-0.14831-1.27431-0.17706-1.74744a5.46426,5.46426,0,0,0-.33521-2.00115c-0.62189-1.83185-.97405-3.72722-1.7298-5.51444a18.05409,18.05409,0,0,1-1.27821-3.72021A24.09171,24.09171,0,0,0,155.19,39.76631a37.48738,37.48738,0,0,0-1.44993-3.83422c-0.53143-.94477-2.84139.8272-3.83189,1.0681-0.64723.15741-1.209,0.1246-1.80511,0.26713-2.96855.70973-6.05328,2.22995-8.77458,3.25255-3.68363,1.38423-7.60279,2.46051-11.35352,3.79056-1.71957.60978-3.15439,1.56053-4.951,2.01422a38.77325,38.77325,0,0,0-6.70579,2.36789c-3.48348,1.60017-6.89069,2.91785-10.418,4.3686-3.91957,1.61211-7.68159,3.63256-11.61132,5.244-3.748,1.53687-7.09761,3.81581-10.88254,5.26559a30.53984,30.53984,0,0,0-7.09067,4.05138,35.96151,35.96151,0,0,0,2.20885,6.60861c0.73092,1.6008,1.19014,3.31364,2.004,4.9157a19.91542,19.91542,0,0,1,1.29268,4.914,40.91218,40.91218,0,0,0,1.7912,5.12615c0.26367,0.72967.15008,1.58614,0.338,2.33906a20.80356,20.80356,0,0,0,1.07057,2.60507c0.62246,1.55568,1.06025,3.20438,1.63986,4.72531,0.45781,1.20131.78027,2.34075,1.23762,3.66677,0.703,2.0384,2.17164,3.74587,2.91435,5.756a28.02848,28.02848,0,0,1,1.56866,4.08267,31.63619,31.63619,0,0,0,1.59557,4.843c0.87238,2.33987,5.73139,9.36922,3.5567,10.476-1.60468.81669-1.12005,0.664-1.79787-1.0987a20.60838,20.60838,0,0,1-1.20855-2.43111c-0.22289-.86565-1.79357-4.45834-2.12836-5.28133-0.83573-2.05441-1.78729-3.49262-2.178-5.7156-0.47869-2.72328-1.83775-4.6317-2.94911-7.09643-1.42483,1.1343-1.92667.91152-3.59683,1.0886a4.846,4.846,0,0,1-1.91261.10179,7.00981,7.00981,0,0,0-2.90727.57777c-2.03111.52714-4.04988,0.10538-6.03425,0.15324a31.0099,31.0099,0,0,0-4.78614.78831c-7.74781,1.54287-15.92975.9051-23.23906,4.038-2.59245,1.11119-5.18807.72241-5.45623-.63034-0.25672-1.29505-1.16451-4.32119-1.07375-5.72017a9.82308,9.82308,0,0,0-.228-3.01675c-0.21866-.84589-0.60937-1.39269-0.82958-2.29021-0.42451-1.73015-.11591-3.69654-0.3661-5.45115-0.24382-1.70991-.61665-3.26353-0.83771-5.01693-0.46586-3.695-1.93444-7.01918-2.44375-10.63639-0.27154-1.9285-.38827-3.84321-0.76612-5.727-0.42372-2.11243.1774-4.24193-.30927-6.36394-0.86288-3.7624-.84906-7.43324-1.5757-11.22338-0.51673-2.69526-1.5075-5.8225-1.24213-7.8128A8.90355,8.90355,0,0,1,33.912,47.76843,34.21185,34.21185,0,0,0,40.52439,46.627C48.89473,44.9468,57.196,42.998,65.53229,41.09569c1.85819-.424,3.65848-0.44424,5.49834-0.95742,2.151-.6,4.3473-0.99585,6.46383-1.71219,2.81659-.95327,5.88046-1.40689,8.6495-2.27136,8.723-2.72322,18.3201-2.43857,27.00519-5.02274,0.88737-.264,1.79011-0.57738,2.71237-0.75555a6.20149,6.20149,0,0,0,1.60455-.69231,2.44808,2.44808,0,0,1,2.76535.22355,2.38779,2.38779,0,0,1,.96483,1.53679,11.76984,11.76984,0,0,1,.0508,1.79148,16.022,16.022,0,0,0,.77563,2.5172,14.52112,14.52112,0,0,1,.04936,2.6845,9.501,9.501,0,0,0,.833,3.36173c0.25764,0.641.46515,1.679,0.664,2.41264,0.53611-.23555,1.86119-0.63346,2.40609-0.84108q1.06114-.40433,2.12495-0.80164,2.05-.7654,4.1106-1.50216,4.16132-1.48685,8.36552-2.84957a72.34662,72.34662,0,0,0,8.90452-3.49312,18.31577,18.31577,0,0,0,1.713-.69865c1.03181-.63182.75983-0.95054,2.11582-0.80992,2.55127,0.26457,2.71163,3.95548,3.68691,6.04821a12.21579,12.21579,0,0,1,1.38566,4.1516,12.08946,12.08946,0,0,0,.91042,3.61353c0.639,1.38554,1.38218,2.193,1.59,3.82379a4.422,4.422,0,0,0,.83247,2.52251,9.84728,9.84728,0,0,1,.95362,2.34577,10.507,10.507,0,0,1,.53325,2.04909c8.44752-.40121,16.23294.42321,24.63858,0.98143,4.02527,0.26732,8.03439.34148,12.01333,0.80332,2.03854,0.23662,4.10605.34352,6.157,0.41674a14.94546,14.94546,0,0,0,2.71936-.06243c1.08682-.15913.97938,0.5386,1.9968,0.20313a2.55219,2.55219,0,0,1,1.74562-.00907c1.58823,0.64759,1.22656.698,1.15058,1.79607-0.05677.82041,0.29348,1.82584,0.27428,2.73682a32.56733,32.56733,0,0,0,.05693,5.09038,28.52973,28.52973,0,0,1-.2558,6.1581c-0.42733,4.14955-1.14439,8.2196-1.58823,12.35592-0.21,1.95695.03809,3.92237-.18858,5.872a26.85156,26.85156,0,0,0-.31586,5.54278c0.01019,0.105.26775,0.94074,0.32939,1.22843,0.22393,1.04509.01555,2.18869,0.33795,3.21948,0.45762,1.46314-.0404,2.90223.27411,4.48441,0.32086,1.61412-.219,3.81935-0.32982,5.477a13.44462,13.44462,0,0,0-.02707,2.44555c0.05695,0.49091.02224,0.97978,0.04708,1.47389,0.03891,0.774.033,1.54745,0.073,2.31607a8.71618,8.71618,0,0,1-.00538,1.35807,2.49161,2.49161,0,0,1-.35162,1.45762,3.95611,3.95611,0,0,1-1.77128.11592c-0.89572-.03038-0.81859-0.27721-1.7749-0.34538a17.989,17.989,0,0,0-3.09136.03529,23.17166,23.17166,0,0,1-5.57758.38874c-0.69326-.0854-1.39062-0.122-2.08774-0.16006a6.7509,6.7509,0,0,1-1.23737-.05161,17.51068,17.51068,0,0,0-3.54238-.07241c-1.15666-.05261-2.24509-0.55858-3.41608-0.53117-2.05.048-4.1363-.18559-6.19465-0.1245-1.57035.0466-3.13751,0.2877-4.71072,0.2203-1.08614-.04654-2.24058-0.23562-3.35336-0.3353a19.70383,19.70383,0,0,0-3.33778.19029,50.02742,50.02742,0,0,1-6.23785-.35555,22.63645,22.63645,0,0,1-3.73245-.335,9.208,9.208,0,0,0-4.33189-.17746,8.48462,8.48462,0,0,1-2.476.15324c-1.90352-.14787-3.77963-0.716-5.68428-0.23517a10.88648,10.88648,0,0,1-3.43654.123,47.4899,47.4899,0,0,0-6.68283.54374c-2.52267.2162-5.09474-.1468-7.59867,0.26789a18.51563,18.51563,0,0,1-2.49554-.075c-1.95128.07629-2.19708,0.40143-2.62352-1.96764a16.21018,16.21018,0,0,1-.33909-4.931c-0.03223.07814-1.642,0.35636-1.8502,0.43314a12.198,12.198,0,0,0-1.70576.81059c-1.037.57774-2.07505,1.15851-3.15979,1.64325-1.10453.49358-2.28575,0.75775-3.4234,1.15956-2.36846.83653-4.39767,2.23163-6.86573,2.83a12.50136,12.50136,0,0,0-3.43881,1.44781c-1.01426.60691-5.56078,2.87161-6.55405,3.495-0.70845.44466-2.18882,1.21672-2.5166,0.73958-1.54326-2.24647-.88552-2.14131.47689-2.76367,1.903-.86933,7.49487-2.90721,9.42133-3.75283,2.32418-1.0202,4.61089-2.15331,6.92681-3.1723a48.878,48.878,0,0,0,5.8827-2.63472c2.10173-1.26957,5.7309-1.94115,6.9946-3.91292,0.45916-.71644-0.02028-1.7461-0.11269-2.83818a16.03529,16.03529,0,0,0-.06414-1.87595c-0.06014-.24168-0.95754.29307-1.55115,0.43487a15.26774,15.26774,0,0,0-2.99757,1.294c-1.50841.76675-3.22829,2.28879-4.89178,2.51506-2.35605.32048-2.09276-1.76938-.49531-2.66926a43.16161,43.16161,0,0,1,6.53928-2.83848,15.22178,15.22178,0,0,0,3.56049-1.23675,6.56542,6.56542,0,0,0,.246-2.29558c-0.956.24833-4.72019,1.857-5.65972,2.20078-1.23961.45361-3.11233,1.93982-4.39436,2.01339-1.64154.0942-2.29987-.85868-0.827-1.93821a12.12834,12.12834,0,0,1,2.45865-1.263,37.67449,37.67449,0,0,0,3.851-1.67038c1.28474-.763,3.48437-1.32729,4.58687-2.12107a6.57273,6.57273,0,0,0,.16167-2.69767c-0.07434-1.4016-.416-2.76415-0.55157-4.12585-0.28894-2.90281.21214-6.07048-.352-8.9766-0.7689.88589-3.1241,1.46212-4.22958,1.87155a29.89436,29.89436,0,0,1-4.88651,1.46141c-1.52318.26913-3.0302,0.57423-4.55927,0.82605-1.99088.32787-3.75359-.22379-5.71365,0.02476-1.97616.25059-1.89189,0.43-3.83441-.46324a13.80934,13.80934,0,0,0-3.98717-.87662C96.68907,86.18668,92.96552,85.43568,92.56253,82.79488ZM205.95143,120.858c1.25193,0.02087,3.07615-.24451,4.127-0.18532a19.09993,19.09993,0,0,1,.16442-3.75789c0.12184-.95594.084-1.47988,0.24387-2.49112a22.18122,22.18122,0,0,0,.36332-7.07807c-0.409-2.40459-.88118-4.74363-1.14176-7.18546-0.23869-2.23667.675-4.07942,0.56569-6.18344a34.21864,34.21864,0,0,1-.1422-5.545c0.2796-2.2069,1.03283-4.06483,1.101-6.367,0.13189-4.45132,1.09591-8.91484,1.08908-13.35244-0.00218-1.41821.4456-5.49858-.66716-6.61374-0.62262-.624-5.10143-0.7778-6.001-0.706a8.22761,8.22761,0,0,1-2.40481.23136c-1.20527-.14734-2.407-0.322-3.61526-0.44522-2.58565-.26366-5.17938-0.09676-7.741-0.56453a44.85573,44.85573,0,0,0-7.16545-.57344c-2.38368-.04733-4.70242-0.4217-7.082-0.56353-5.22973-.31169-10.50516-0.05588-15.738-0.04591-5.15745.00983-10.39726,0.4169-15.53761,0.286-1.81981-.04635-3.83494-0.4753-5.76-0.46255-1.18227.00783-2.25773-.01367-3.44933-0.10476-1.07691-.08233-4.12876-0.62715-5.10106-0.22413-1.53707.63711-1.01036,3.07-1.4351,4.60443a8.00711,8.00711,0,0,0-.70491,2.71478,29.25591,29.25591,0,0,1,.05564,3.99643c-0.20082,2.41128-.7454,4.73469-0.95953,7.16233-0.21507,2.43829-1.036,4.981-.99576,7.32805a76.56966,76.56966,0,0,0,.64008,11.799,35.0628,35.0628,0,0,1-.0941,8.268c-0.18931,2.47149.09312,4.69874,0.08154,7.15492-0.01026,2.17766-.43059,4.9534-0.16469,6.95119,0.10469,0.7866,1.4561,1.38735,2.93317,1.36049,2.25458-.041,4.69587-0.11629,6.86155-0.24855,2.40189-.14668,4.80872-0.47141,7.21454-0.51624,1.28706-.024,2.74774-0.22622,4.00939-0.17431a37.87311,37.87311,0,0,0,4.09924.4476,22.35368,22.35368,0,0,1,4.24691-.29606,10.56724,10.56724,0,0,0,3.364.06306c1.3204-.16351,2.50566.34533,3.79776,0.42535,1.058,0.06552,1.746-.22434,2.84188-0.09281,3.28421,0.39421,6.39344.25525,9.67746,0.43386,2.871,0.15614,5.68535.15907,8.55871,0.18778,1.43747,0.01436,2.81283.30667,4.24553,0.38306a43.18244,43.18244,0,0,1,4.362.01846,25.93905,25.93905,0,0,0,3.0216.40806,20.40129,20.40129,0,0,0,3.259-.07829C203.71737,120.89868,203.19782,120.70295,205.95143,120.858ZM98.94193,52.97347c0.04366,0.05424.17872-.16552,0,0,0.21668,0.2692,5.02778-1.09479,5.67065-1.30773,2.05143-.67952,4.20113-1.63031,6.2214-2.47083,2.13517-.88832,4.24435-1.837,6.4071-2.65735,0.97014-.368,2.90016-0.819,3.694-1.53872a1.18641,1.18641,0,0,0,.3741-1.18263c-0.27635-1.43154-.57509-2.85942-0.80009-4.30029-0.22631-1.44922-.29378-2.92075-0.55686-4.36391-0.02861-.15527-0.445-2.72915-0.66259-2.72915-2.40224-.63047-9.17734,1.86576-11.96416,2.02144-2.05086.11457-4.04816,0.91215-6.08278,1.06784a44.2581,44.2581,0,0,0-5.32087.73612c-3.17877.63763-7.094,0.8471-10.38948,2.05141a29.49565,29.49565,0,0,1-5.54658,1.42422A40.27836,40.27836,0,0,0,73.201,41.53916a31.05824,31.05824,0,0,1-5.16453.90293c-1.925.29756-3.85179,0.4882-5.709,0.86023-1.94263.38915-3.9698,1.39027-5.80216,1.88221-2.39743.64365-5.1257,1.05448-7.65835,1.642-3.81212.88436-7.64414,1.68115-11.44871,2.5984-0.90973.21933-2.38816,0.39652-3.29353,0.63323q-0.65751.17191-1.31285,0.352a2.48315,2.48315,0,0,0-1.139.38759,0.41142,0.41142,0,0,0-.04991.14764,4.11257,4.11257,0,0,0,.199,1.40559c0.1026,0.5329.18991,1.06863,0.26787,1.60565,0.25138,1.7315.57958,3.44927,0.79652,5.16084,0.2117,1.67021.52362,3.32137,0.63056,4.95586,0.10242,1.56536.35238,3.04591,0.51319,4.676,0.17625,1.78658.63655,3.55462,0.75072,5.345a29.29314,29.29314,0,0,0,1.07473,5.956,74.40109,74.40109,0,0,1,2.21474,10.19734c0.25883,2.08224.24472,4.22195,0.58414,6.287,0.31779,1.93343,1.173,3.80523,1.2629,5.7733a9.95564,9.95564,0,0,0,.78134,3.93464,10.82048,10.82048,0,0,1,.35338,2.00412c0.203,0.88718.15092,2.57879,0.64283,2.5737,0.41195-.00426,4.95189-0.88309,6.26628-1.18264a41.31723,41.31723,0,0,1,5.31763-1.02711c3.60591-.36321,7.18323-1.1068,10.80529-1.51325,3.88261-.43569,7.56212-0.60451,11.31-1.19926,1.92336-.30521,3.8108-0.86,5.72133-1.239a24.34066,24.34066,0,0,0,2.81393-.5098c0.78216-.25588,1.6767-1.14034,2.54312-0.89455,0.07444-1.47142-.57955-1.46572-1.7245-1.50971a41.93335,41.93335,0,0,0-4.59687.13111c-3.75539.278-7.53284,0.01847-11.25459,0.513-1.65278.21962-6.67688,3.45093-6.95249,0.52077-0.354-3.764,5.922-2.89989,8.18376-2.94963,3.51629-.07734,6.956-0.479,10.44135-0.76769,0.665-.05509,3.08818-0.50876,3.51216-1.02016a1.80092,1.80092,0,0,0-.068-1.6786c-0.46526-1.33741-.43593-1.11141-1.52163-1.37566-2.63814-.6421-6.14212.74968-8.66939,1.30388-2.89627.63512-5.86468,0.41966-8.70065,1.08672-1.54825.36417-3.57689,1.58924-5.18208,1.37927-1.64926-.21573-2.04519-1.67467-0.80343-2.77883,1.14532-1.01839.30146-.2928,1.49118-0.35279a12.73809,12.73809,0,0,0,2.25525-.05141c1.80734-.396,3.597-0.93192,5.45692-1.21444,1.6213-.24626,3.32818-0.19213,4.96474-0.32878a25.96058,25.96058,0,0,0,5.1417-1.33267c0.83772-.24311,3.30058-0.73371,3.58169-1.73648,0.3684-1.31414-1.52889-3.871-1.8607-5.17806-0.655-2.58-.68448-5.08045-1.91746-7.55622a34.02491,34.02491,0,0,1-1.27694-3.45616c-0.78122-2.0806-1.675-.51388-3.34521.42169-1.27256.71283-2.44946,1.514-3.69681,2.25576-1.12733.67038-2.701,1.057-3.67693,1.93076-0.52845.47317-.61554,1.134-1.37638,1.3865-0.60406.20045-1.237-.01776-1.87958,0.16989a14.37729,14.37729,0,0,0-4.21074,2.06571c-1.4501,1.02664-3.07563,1.54327-4.61164,2.4381-1.02.59422-3.1272,2.59266-4.36688,1.70833-1.59755-1.13962.35527-3.19571,1.18667-4.04777,1.21974-1.25005,2.12611-3.18225,3.46212-4.23889,1.29289-1.02254,3.03483-1.852,4.44842-2.78946,1.73089-1.1479,2.90964-2.74307,4.52574-3.99278,0.53476-.41353,1.1982-0.48375,1.70028-0.8287a19.02747,19.02747,0,0,0,2.08305-2.30695,7.59448,7.59448,0,0,1,1.75425-1.53428c0.83719-.1418.523,0.36836,1.15792,0.74281,0.78937-.79374-0.25831-0.45313-0.16929-1.35a2.13893,2.13893,0,0,1,1.04526-1.50951,29.56132,29.56132,0,0,1,2.67735-2.248c2.09165-1.49135,3.958-3.08091,5.98869-4.681,0.8904-.70158,1.506-1.60087,2.32644-2.27724a7.23462,7.23462,0,0,1,2.5355-.86139c0.79688-.25614.61993-0.49691,1.64937-0.29451,1.06483,0.20936,2.0397.77983,3.06932,0.51654,0.15311-.03915.60358-0.6755,0.8704-0.80708,0.407-.20073.93256-0.09836,1.34909-0.29942a2.874,2.874,0,0,0,1.27482-1.514c1.54107-2.49966.32275-2.62513-.22813-5.26706-0.338-1.62122,1.1676-4.98072,3.31124-3.9582,1.024,0.48847,1.40787,2.39066,1.41265,3.36055,0.005,1.00707-.20967,2.02917-0.26541,3.03662,1.66323-1.34458,4.81007-7.20069,7.16952-3.84628C106.49907,49.6318,100.65975,51.38252,98.94193,52.97347Zm6.76344,19.31234c-1.29565.60535-2.98491,1.02572-2.97228,2.76058,0.011,1.51582,1.48918,2.29692,2.85527,2.27932,2.8692-.037,3.17016-4.90732.117-5.0399C105.17247,72.53479,107.41205,72.35992,105.70537,72.28581Zm20.16709-7.55351c-0.56131-.24908-1.92028.55395-2.30588,0.61444-0.75159.1179-2.47541-.59833-3.25256-0.05556a5.46755,5.46755,0,0,0,3.09839.7928,4.91536,4.91536,0,0,0,2.46-1.35167C124.80072,64.25672,125.12185,65.29947,125.87246,64.7323Zm-1.95688,3.43463c0.54584-.12771,4.8936-1.93314,3.86288-2.56339-0.82142-.50227-4.03142,1.64794-3.86288,2.56339C124.00468,68.14607,123.77175,67.3857,123.91558,68.16692Zm-2.30314,3.14161c0.79187,0.24976,3.739-.08624,3.68835-1.1673-0.09993-2.13122-3.0457.701-3.68835,1.1673C121.91443,71.40378,122.329,70.78867,121.61243,71.30853Zm-43.6056-8.7679c-0.62938,0-3.75518,1.89565-3.41794,2.57477,0.68923,1.38794,3.1894-2.19435,3.41794-2.57477C77.92286,62.54063,77.6213,63.18236,78.00684,62.54063ZM67.23712,70.8041c-0.962.56847-1.56,0.61255-1.52312,1.55109a3.44555,3.44555,0,0,0,.818.90335,8.41079,8.41079,0,0,1,.33721,1.4835,9.09909,9.09909,0,0,0,.36788-3.93794C66.56793,71.19955,67.46,72.19741,67.23712,70.8041Zm50.54322-6.99637c-1.91347-.82425-1.90483-0.89549-3.71735.37918a3.36094,3.36094,0,0,0,3.71735-.37918C117.13861,63.5313,117.11225,64.59632,117.78033,63.80773Zm-6.30854,11.30846c0.53357-.325,3.05321-1.5056,1.06582-2.043-0.89336-.24156-1.27083.70675-1.86176,1.40559l0.79594,0.6374C112.02565,74.77882,111.13376,74.84549,111.47179,75.11619Zm10.01056-2.088c0.30861,1.06354,2.20641,1.03113,2.59865.00351,0.52433-1.37367-2.13912-.14748-2.59865-0.00351C121.50581,73.1091,122.24294,72.78993,121.48234,73.02823ZM81.877,61.35266c-1.2334-1.35143-2.20328,1.21942-3.12135,2.29979,0.34257,0.35735,2.67144-1.91672,3.12135-2.29979C81.72674,61.188,80.85976,62.21882,81.877,61.35266Zm29.63521,5.10881c0.36411,0.34564,2.35337,1.17306,2.52722.14046,0.21207-1.25965-2.197-.21781-2.52722-0.14046C112.28439,67.19444,112.36283,66.26221,111.51225,66.46148Zm3.186,9.12936a2.20237,2.20237,0,0,0,2.398-1.17041A3.00773,3.00773,0,0,0,114.69826,75.59084Zm4.78663,5.71187c1.018,0.29242,3.59525-.47388,4.06655-1.24285Zm-47.94034-8.366c-0.44377,1.62056.02588,1.44925,1.506,1.07274l-1.506-1.07274C71.3949,73.48323,72.03613,73.28684,71.54456,72.9367Zm55.06737-10.89c0.80721-.95694-2.02958-1.13557-2.36684-1.17611l0.3841,0.983c0.76416-.89217,1.20328.21719,1.98274,0.19307C126.67064,61.97712,125.9513,62.06717,126.61193,62.04673ZM63.85247,76.17142c-1.00727,1.74667,1.42449,3.44637,0,0C63.43585,76.89387,64.12781,76.83758,63.85247,76.17142Zm51.93548-4.45966c-0.46853-.26995-0.63616-0.208-2.03708.753C114.34543,73.18423,114.90295,72.69565,115.78795,71.71176ZM60.685,77.49925c0.95773,0.1198.83,0.853,1.07875,1.548,0.08224-.78054.3426-1.58425-0.21758-2.27557l-0.86117.72754C61.742,77.63148,61.04449,77.19555,60.685,77.49925Zm57.73907-15.089c-0.3733,1.06342,3.73719,1.59235,0,0C118.40128,62.47519,118.95585,62.63682,118.42408,62.41024Zm-12.6,21.87395,2.74-.42677A2.42806,2.42806,0,0,0,105.82405,84.28419ZM128.09684,65.316c0.39966-.89679.04641-1.38252-0.92921-1.28059a1.9858,1.9858,0,0,0,.92921,1.28059C128.4665,64.48655,127.79048,65.02938,128.09684,65.316Zm-15.6085,17.8499c1.19566-.84147-0.17215-1.05183-0.96338-0.63235l0.96338,0.63235C112.75458,82.97857,112.13753,82.93567,112.48834,83.16594ZM85.16778,60.106c-0.76175-.6509-0.77322-0.40071-1.56116.21683,0.606,0.50714.86486,0.13847,1.56116-.21683C84.84128,59.827,84.68769,60.35093,85.16778,60.106ZM54.77868,83.06432c-0.07893-1.13812-2.29889.53331-2.121,1.00885l2.121-1.00885C54.77249,82.97495,54.0717,83.4006,54.77868,83.06432Zm58.105-17.916,2.307,0.27181c0.10452-1.05-1.88972-.44286-2.307-0.27181C113.65266,65.239,113.70105,64.81333,112.88365,65.14837Zm-4.77908,14.27824c3.39849-.41737.69446-1.17124,0,0C108.718,79.35127,108.43685,78.86621,108.10457,79.42661Zm-33.07868-7.8051-0.411-1.48952c-0.5919.7286-.63392,1.61731,0.411,1.48952C74.85829,71.014,74.79019,71.65034,75.02589,71.62152Zm39.14835-8.661a1.87785,1.87785,0,0,0-2.02769.83517Zm7.21913,7.021c-0.338-.4449-1.22508.257-1.50267,0.60151,0.65873,0.171.95165-.21816,1.50267-0.60151C121.34313,69.91543,121.04735,70.22227,121.39336,69.98155Zm-20.68759,4.12486c-0.32223.36518,0.07422,0.8932,0.23945,1.31761,0.50821-.792.50366-0.73828-0.23945-1.31761C100.6425,74.17811,100.94681,74.29434,100.70577,74.10641Zm20.38715-.75414c-0.31211-.44146-1.6341.42813-1.26486,0.94464l1.26486-.94464C121.0331,73.26767,120.6713,73.66716,121.09292,73.35228ZM99.06131,80.08175l-0.30779.0888L99.17317,81.585c0.50468-.14729.00127-1.09039-0.11186-1.50324C98.95872,80.11135,99.19121,80.55581,99.06131,80.08175Zm-12.628-22.00349c-0.17752.32575,0.72763,0.61066,0.9797,0.74444,0.30317-.55648-0.59356-0.687-0.9797-0.74444C86.40165,58.13631,86.86268,58.14208,86.43328,58.07827Zm38.34739,21.18582c0.46073,0.39527.74588-.29036,1.10189-0.68749-0.35951-.34427-0.803.39438-1.10189,0.68749C124.87216,79.34258,125.08038,78.97021,124.78067,79.26409Zm-4.778-.1532c0.55245,0.42432.92317,0.248,1.31221-.30982Z"/><path class="cls-3" d="M110.17041,110.40715c0.10434,2.38661-.32133,3.44619-2.39436,4.40675-2.01855.93531-4.92909,1.23419-5.94923-1.26207a3.95077,3.95077,0,0,1,2.90466-5.395c0.91928-.24629,3.06837-0.73035,3.90206-0.13229,0.84844,0.60863.67256,1.7406,1.53687,2.38265C110.20154,111.11921,109.96911,110.25761,110.17041,110.40715Z"/><path class="cls-3" d="M177.55492,77.32661c0.69724-.69931.852,0.4158,1.53325,0.499a6.30775,6.30775,0,0,0,1.44844-.73374c1.16394-.20786,2.38072.96016,3.53181,1.20628,2.73894,0.58564,6.26941-1.17755,7.392-1.77072s3.28563-3.00416,5.30743-4.26322c1.95726-1.21887,4.14956.55216,4.108,2.80407a7.67691,7.67691,0,0,1-.55362,2.87959c-0.35369.75-1.33283,1.52651-1.3512,2.03806-0.02827.78677,1.78424,1.39609,2.22321,1.93453a3.19083,3.19083,0,0,1,.433,3.51794c-2.18225,4.206-9.0614-.05669-12.23188-0.71113a13.4834,13.4834,0,0,0-4.71893.15982,5.92948,5.92948,0,0,0-1.51048.24256c-0.52549.30629-.50422,0.8818-0.94067,1.20479-0.88763.65689-2.177,0.635-3.22233,1.06232-1.5316.626-3.03126,1.3335-4.54949,1.9915-5.12775,2.22235-10.22719,4.35868-15.73054,5.33523-5.24668.931-9.23974-.78652-13.60971-3.306-4.15512-2.3956-3.699-9.694-1.69033-13.33615,1.38923-2.519,3.63-3.07153,6.23929-3.68208,3.40075-.79575,5.874-1.6195,9.327-0.95142,3.02017,0.58432,6.2815.59442,9.21776,1.23166a52.5604,52.5604,0,0,1,9.348,2.64709C177.89953,76.981,177.25857,77.19607,177.55492,77.32661Zm5.19728,5.82865c2.4695-.32028,4.89976-0.85556,7.38-0.22006,2.17138,0.55637,4.16056,2.47987,6.51578,2.46712,0.76008-.00412,2.44821-0.18423,2.81292-1.14528s-0.59358-1.55473-1.27917-1.81872a2.19158,2.19158,0,0,1-.9768-3.54982,10.08479,10.08479,0,0,0,1.23886-1.88212c0.30972-.71473.68868-1.85124-0.14295-2.5492-0.94526-.79333-2.08778.6842-2.779,1.41668a10.87934,10.87934,0,0,1-3.27927,2.46723,15.23756,15.23756,0,0,1-5.39755,1.65407c-2.9569.17656-3.71626,0.08223-4.09276,3.1601C183.12192,83.1073,182.81994,82.60141,182.7522,83.15525Zm-36.94495,2.01163c0,1.36865.3008,0.88265,1.0896,1.737a25.78146,25.78146,0,0,1,1.72229,2.61766,2.51251,2.51251,0,0,0-.23472-2.88588c-0.13465-.1347.02993-0.3935-0.1-0.45782-0.26734-.13239-0.59053.4221-0.89209,0.30206a3.65478,3.65478,0,0,1-1.58512-1.313C145.80725,85.52018,146.86586,86.32164,145.80725,85.16688Zm9.71046-3.148-3.98547,3.75672c1.82444,0.0536,3.85291-1.9802,5.26206-2.92167l-1.27658-.835C154.25836,83.206,156.03026,82.35418,155.51771,82.01891Zm5.7059,4.04093c-0.86423-.48609-5.93193,1.98374-6.062,3.00354C157.3672,88.2825,159.18734,86.9571,161.22361,86.05984ZM148.2328,78.67392c-1.42674.36576-3.18207,3.45847-2.46817,5.40943ZM169.7434,84.347c-0.29838-.37141-2.27612,1.70554-2.5521,2.35673,2.02179,0.29826,2.06962-.59115,2.5521-2.35673C169.6891,84.2794,169.552,85.04736,169.7434,84.347Zm-12.64789-.41412c1.01891-.155,2.87745-0.02637,3.25329-1.27592-1.46214-.43865-2.90648-0.29364-3.25329,1.27592C157.72566,83.837,157.38589,82.6187,157.09552,83.93287Zm12.40859-6.72273c-0.31863,1.24832,5.37535,2.0465,6.299,2.0465-0.00283-.48129-5.587-1.82823-6.299-2.0465C169.38052,77.69431,171.64726,77.86715,169.5041,77.21014Zm-1.90165-.62255-4.83-.55291C164.438,77.24535,167.27424,77.49974,167.60245,76.58759Zm4.32912,8.17988a9.58591,9.58591,0,0,0,4.504-2.31433c-1.2837-.24895-3.41754,1.68652-4.504,2.31433C173.71861,84.48529,172.24861,84.58428,171.93157,84.76747Zm-10.834-5.167c0.78635,0.78639,4.13486.52485,4.96407-.11293a2.134,2.134,0,0,1-1.16707-.15263,0.96564,0.96564,0,0,0-1.13949.35453c-0.86683.1216-1.77467-.12864-2.65751-0.089C161.6822,80.185,161.31,79.59089,161.09762,79.60043ZM171.81415,81.975a13.31848,13.31848,0,0,0-2.94524,1.47845,2.7094,2.7094,0,0,0,2.94524-1.47845C171.40489,82.13734,171.72115,82.30129,171.81415,81.975Zm-23.33606,1.16906c0.63707,0.51767,2.8706-2.23132,2.09907-2.81227l-2.09907,2.81227C148.5593,83.21,149.17778,82.20663,148.47809,83.14405Zm0.39-2.92692c0.35056,0.34491,1.228-.86114,1.48541-1.11833-0.62607-.61876-1.11489.822-1.48541,1.11833C148.92958,80.27762,149.35052,79.83137,148.8681,80.21714Z"/><path class="cls-3" d="M152.97506,108.52027c7.67751,0.971,15.60737-.43786,23.32853-0.0216,3.726,0.20088,7.45106.33051,11.17646,0.556,1.78978,0.10834,3.56913-.11325,5.35566.03163,0.92909,0.07535,1.86365.38282,2.789,0.3978a11.14974,11.14974,0,0,0,2.67587-.71667c1.25251-.26242,2.95358.34585,2.64286,1.98436-0.359,1.89325-2.828,1.51016-4.1545,1.24142-3.91444-.793-7.90345-0.64385-11.92428-0.9102-6.03438-.39972-12.006-0.4306-17.92671-0.4579a94.14239,94.14239,0,0,0-12.6953.559c-0.98358.13361-3.12794,1.0006-3.73873-.2956-0.79942-1.69648,2.37054-2.75858,2.47114-2.36824C153.693,108.61106,152.9648,108.48046,152.97506,108.52027Z"/><path class="cls-3" d="M169.94758,115.22957c-2.56315,0-5.08627-.00143-7.63956.24979-1.2774.12569-2.56666,0.13854-3.83259,0.24049-0.89266.07189-1.69994,0.302-2.59813,0.34712-1.75657.08832-3.58694-1.25642-1.67772-2.70852,1.37049-1.04236,3.604-.42354,5.2087-0.47247,8.75609-.267,17.46111.5596,26.20407,0.856,1.903,0.06452,3.6598-.07445,5.52714-0.07982,1.36591-.00392,2.61342.53169,3.99567,0.302,1.3036-.21662,3.34961-1.39574,3.292.89983-0.06329,2.52-3.27962,1.61612-4.90357,1.58-2.14974-.04776-4.30386-0.07028-6.44819-0.2605-2.23815-.19854-4.521-0.24477-6.74288-0.47557-0.90257-.09376-10.40468-0.66337-10.38492-0.47843C168.38983,115.22957,169.95,115.25237,169.94758,115.22957Z"/><path class="cls-3" d="M142.26825,106.94468c0.12491,0.547,1.32189.66964,1.69911,1.63939a7.24545,7.24545,0,0,1,.35554,3.108c-0.53689,1.60188-4.9275,3.71131-6.49786,3.59088a3.77322,3.77322,0,0,1-3.45837-2.84868,7.30329,7.30329,0,0,1,.10674-3.19966c0.59519-1.46926,2.35821-2.09964,3.72946-2.45277a6.98323,6.98323,0,0,1,2.44612-.42985c0.497,0.07186,1.04294,1.16926,1.61926.59267C142.303,107.097,142.214,106.999,142.26825,106.94468Z"/><path class="cls-3" d="M47.94709,101.935c-0.32953-1.89771-.91155-4.43057,1.01652-5.54578,1.819-1.0521,5.46506-2.01724,7.03791-.21046a7.565,7.565,0,0,1,1.21718,3.83626c-0.1,1.28945-1.34888,1.77384-2.55865,2.402a7.71269,7.71269,0,0,1-4.1486.93192c-1.08184-.139-1.64466-0.9274-2.56436-1.414C47.87276,101.507,48.07573,102.00311,47.94709,101.935Z"/></g></svg>