<?xml version="1.0" encoding="UTF-8" standalone="no"?>
<svg width="121px" height="29px" viewBox="0 0 121 29" version="1.1" xmlns="http://www.w3.org/2000/svg" xmlns:xlink="http://www.w3.org/1999/xlink" xmlns:sketch="http://www.bohemiancoding.com/sketch/ns">
    <!-- Generator: Sketch 3.4.1 (15681) - http://www.bohemiancoding.com/sketch -->
    <title>Fill 3</title>
    <desc>Created with Sketch.</desc>
    <defs></defs>
    <g id="Page-1" stroke="none" stroke-width="1" fill="none" fill-rule="evenodd" sketch:type="MSPage">
        <g id="Nav-Closed---Desktop-1024-Copy-6" sketch:type="MSArtboardGroup" transform="translate(-452.000000, -15.000000)" fill="#FF4338">
            <path d="M562.607,39.172 L562.613,15 L553.614,18.018 L553.614,18.094 C555.387,18.961 555.878,19.678 555.878,22.206 L555.878,28.431 C555.085,25.941 553.123,24.205 550.03,24.205 C545.352,24.205 541.579,28.091 541.579,34.127 C541.579,39.937 545.163,43.634 549.54,43.634 C551.96,43.634 553.796,42.449 554.921,40.711 L554.788,40.542 C554.135,41.509 548.709,42.364 548.709,34.127 C548.709,28.846 549.841,26.054 552.256,26.054 C554.18,26.054 555.898,28.242 555.898,31.637 L555.898,43.257 L564.406,43.257 L564.406,43.182 C562.794,42.133 562.607,41.533 562.607,39.172 L562.607,39.172 Z M485.009,35.863 L485.001,15 L476.022,18.003 L476.022,18.078 C477.796,18.946 478.248,19.663 478.248,22.19 L478.241,35.863 C478.241,39.952 478.487,41.757 476.146,43.182 L476.146,43.257 L487.104,43.257 L487.104,43.182 C484.762,41.757 485.009,39.952 485.009,35.863 L485.009,35.863 Z M463.235,31.345 L461.16,31.345 L461.155,17.875 L463.286,17.875 C466.607,17.875 468.687,20.417 468.687,24.603 C468.687,28.905 466.487,31.345 463.235,31.345 L463.235,31.345 Z M465.873,16.849 L452,16.849 L452,16.924 C454.341,18.349 454.095,20.154 454.095,24.243 L454.095,35.863 C454.095,39.952 454.341,41.757 452,43.182 L452,43.257 L464.074,43.257 L464.074,43.182 C461.44,41.845 461.162,41.525 461.162,35.863 L461.161,32.357 L465.779,32.357 C469.413,32.357 476.216,31.19 476.216,24.629 C476.216,19.828 472.31,16.849 465.873,16.849 L465.873,16.849 Z M568.77,36.178 C566.619,36.178 564.997,37.875 564.997,39.988 C564.997,42.101 566.619,43.798 568.77,43.798 C570.92,43.798 572.542,42.101 572.542,39.988 C572.542,37.875 570.92,36.178 568.77,36.178 L568.77,36.178 Z M506.026,38.403 C506.026,35.687 506.102,33.109 506.102,30.807 C506.102,26.091 502.895,24.205 496.708,24.205 C491.992,24.205 488.747,26.091 488.747,28.996 C488.747,30.958 490.37,32.166 492.331,32.166 C494.18,32.166 495.519,30.99 495.519,29.344 C495.519,27.698 494.208,27.677 494.208,26.541 C494.208,25.405 495.4,24.884 496.519,24.884 C498.67,24.884 499.386,26.771 499.386,28.695 L499.386,32.354 L496.519,32.882 C491.992,33.712 487.804,34.542 487.804,38.805 C487.804,42.012 490.445,43.521 493.388,43.521 C495.568,43.521 497.31,42.718 498.393,41.411 L498.307,41.271 C497.846,41.8 494.369,41.827 494.369,37.787 C494.369,35.335 495.387,33.901 497.802,33.411 L499.386,33.053 C499.386,33.053 499.347,37.79 499.347,39.089 C499.347,42.058 501.424,43.597 504.479,43.597 C506.906,43.597 508.703,42.472 509.243,41.573 L509.189,41.525 C509.121,41.6 506.026,42.883 506.026,38.403 L506.026,38.403 Z M528.247,32.279 C528.322,27.827 529.303,24.846 531.265,24.846 C533.415,24.846 533.717,28.053 533.717,32.279 L528.247,32.279 Z M531.265,24.205 C525.87,24.205 521.38,28.016 521.38,33.939 C521.38,40.088 525.832,43.634 531.227,43.634 C535.528,43.634 538.923,41.333 540.017,37.296 L539.753,37.183 C538.584,39.522 536.584,40.541 534.283,40.541 C530.661,40.541 528.209,37.749 528.209,33.071 L540.206,33.071 C540.206,28.091 537.339,24.205 531.265,24.205 L531.265,24.205 Z M516.638,37.409 L516.638,25.526 L522.109,25.526 L522.297,24.582 L516.638,24.582 L516.638,18.018 L516.261,18.018 C514.903,21.828 511.809,24.281 507.923,25.111 L507.923,25.526 L509.923,25.526 L509.923,37.259 C509.923,41.347 512.413,43.635 515.884,43.635 C519.601,43.635 521.255,41.563 522.027,40.344 L521.905,40.243 C521.342,41.13 516.638,43.121 516.638,37.409 L516.638,37.409 Z" id="Fill-3" sketch:type="MSShapeGroup"></path>
        </g>
    </g>
</svg>