<?xml version="1.0" encoding="utf-8"?>
<!-- Generator: Adobe Illustrator 18.1.1, SVG Export Plug-In . SVG Version: 6.00 Build 0)  -->
<svg version="1.1" xmlns="http://www.w3.org/2000/svg" xmlns:xlink="http://www.w3.org/1999/xlink" x="0px" y="0px"
	 viewBox="0 0 1170 800" enable-background="new 0 0 1170 800" xml:space="preserve">
<g id="Layer_2">
	<path fill="#FFFFFF" d="M147,312l426-92l13,70l151-53l41,116l243,14l1.8,51.8c-11.8,66.8-11.4,108.2-11.2,118
		c0.8,44.5,2.5,123,2.5,123l-273-7.2L611,654l-3-36l-143,64l-42-107l-226,36L147,312z"/>
	<title>Illustrated-Icons_All-Icons</title>
	<g id="_62bmKF.tif">
		<path fill="#FFAA96" d="M456,663.6c-6.7,0.6-2.6-7.3-4.2-11.3c-1.6-2.1-3.4-4.1-5.2-6.1c-0.6-2.7-1.2-5.5-1.8-8.2
			c-1.3,0.2-2.4-0.7-2.6-2c0,0,0-0.1,0-0.1c-1.9-5.2-4.4-10.2-7.3-14.9c-3.5-5.3-7.3-10.3-11.3-15.2c10.9-1.9,20.2-6.4,30.8-9.1
			c8.5-1.7,16.6-4.7,24.1-9.1c16.9-10,35-17.9,53.8-23.6c13.2-4.5,25.6-12.5,39.5-17.3c15.4-5.3,28.3-16.7,43.2-23.6v61.2
			c1.9-4,5-7.4,8.8-9.7c1.8-1,3.9-1.7,5.9-2l1,1.8c8-1.1,16.2-1.8,24.3-2.1c11.3-0.2,8.6,1,7.8,9.5c-0.6,6.5,0,13.1,6,17.1
			c-1.9-7.4-4.1-13.6-1.3-21.3c2.4-6.4,0.6-5.2,10-5.3c3.1-0.5,6.2-0.3,9.2,0.6c2.1,1,2.8,4.4,4.9,5.4c6.9,3.3,3.8-1.9,0-5.4
			c0.9-2.5,26.3-0.8,30.1-0.8c12.1-0.1,28.2-2.7,39.9,0.9c1.8,0.5,14.8,8.3,15.9,6.8c2.6-3.6-8.5-5.3-8.1-7.9h208
			c6.5,0,24.1-3.7,28,1.9c2.4-6.1,6,1.6,8.3,4.4c3.6,4.3-1.3,8.7-0.5,14.1c7.7-7.5,5.8,29.1,5.8,30.8c0.6,11.6,4.1,22.7-8.2,28.7
			c-22.3,10.9-43.9,7.5-67.4,7.1c-6.6-0.1-13.3-1.5-19.7-1.9c-1.4-0.1-3.3-0.3-4.7-0.4c-2.2-0.2-7.9-2.2-9.5-2.3
			c-0.7,0-2.1,2.6-3.1,2.7c-3.4,0.3-6.6,0.7-9.9,0.8c-6.4-0.2-12.7-0.9-19-1.9c-12.6-1.4-25-1.6-37.8-2.8c-11.2-1-22.1-3.9-33.1-4.1
			c-11.8-0.3-22.9-3-34.9-3.7c-13.1-0.8-26.2-1.8-39.2-1.7c-12.7,0.1-25.6-1.4-38.3-1c-4.3-0.7-8.6,1.2-11.1,4.7
			c-5.2,5.5-2.1,5-11.8,4.4c-9.2-0.6-19.2-0.2-27.4,0c-10.8,0.2-21.6,3.3-28.2-8.4c-4.6-8.3-2.1-21.8-0.5-30.7
			c0.7-4,3.7-10.2,0.1-11.8c-1.9-0.8-17.5,9.3-20.4,10.9c-10.3,6.2-21,11.6-32.1,16.3c-5.9,2.6-11.5,5.6-16.8,9.2
			c-3.7,2.2-11.8,4.2-14,5.6c-2.4,1.5-3.7,4.7-6.2,6.1c-2.5,1.4-6.5,2-9.3,3.4c-4.7,2.8-9.2,5.9-13.4,9.3
			c-5.1,3.6-11.3,6.3-16.2,9.9c-2.7,2-6.4,8.6-8.3,6.4c0,1.8-0.1,3.6-0.5,5.4c-1,0.2-2,0.3-3,0.4c-4.2,1.4-8.8-0.8-10.3-5
			c-0.8-2,1.2-11.4,0-12.4C462.5,664.3,455.5,670.1,456,663.6C454.9,663.7,455.8,665.9,456,663.6z M483.2,635.3
			c14.2-4.1,26.4-12.5,40.1-17.5c7.9-2.9,15.6-6.3,23.1-10.1c6.9-3.4,16.5-5.7,20.8-12.3c-6.1-0.5-16.1,6-21.6,8.5
			c-6.9,3.1-14.1,5.1-20.8,8.7c-7.4,4-15.2,7-22.5,11C497.5,626.1,485.5,630.6,483.2,635.3C485.1,634.8,483.8,634.1,483.2,635.3
			L483.2,635.3z M828.5,609.2c-0.2,1.3,70.5,7.7,76.3,0.1c-5.6-2.6-14.3-0.3-20.5-0.4c-6.8-0.1-13.5,0.2-20.2,0
			C852.2,608.4,840.3,608.5,828.5,609.2C828.4,609.5,832.7,608.9,828.5,609.2L828.5,609.2z M866.1,594.2c5.1,8.8,18.3,5.2,27.3,5.1
			c5.3-0.1,10.6-0.3,16-0.2c5,0.1,15.6,2.2,19.8-0.9c-4.4-4-23-2.1-29.4-2.4C888.5,595.2,877.3,594.7,866.1,594.2
			C867.1,596,887.3,595.2,866.1,594.2L866.1,594.2z M887,623.4c-0.4-3-29.8-3.6-33.6-3.8c-12.2-1.3-24.5-1.2-36.6,0.4
			c3.5,6.7,30.9,3.3,37.8,3.7C863.3,624.3,879.4,627.4,887,623.4C887,623.1,886.3,623.8,887,623.4L887,623.4z M823.2,641.9
			c0.2,3.7,12.7,1.9,16.6,2.2c7.4,0.5,14.6,1.7,22,2.3c6.8,1.1,13.7,1.8,20.6,2.2c3.3-0.1,13.5,1.2,15.7-0.7
			c-8.8-5.2-23.6-3.8-33.7-4.6C850.7,642,836.9,641.6,823.2,641.9C823.2,642.5,825.5,641.8,823.2,641.9L823.2,641.9z M724.4,600.7
			c-2.4,1.2-4.9,2.1-7.5,2.6c5.7,8.3,19.4,11,28.8,7.7C738.8,607.1,731.7,603.6,724.4,600.7C724.3,600.8,728,602.4,724.4,600.7
			L724.4,600.7z M515,589.9c4.3-1,31.8-7.3,24.9-13.9c-4.8,6.2-8,1-15.3,2.9C517.8,580.6,517.5,583.1,515,589.9
			C518,589.2,516.1,587.1,515,589.9L515,589.9z M641.7,641.2c-1.1-0.3-4.6-0.7-5.6-1.1c-4.1-1.8-1.1-1.6-4.2-4c-4-3-10-8.4-11.6-1.8
			C617.7,645.5,634.8,646.5,641.7,641.2C640.1,640.8,640.6,642.1,641.7,641.2L641.7,641.2z M451.8,619.3c-2.9,5.6-1.3,12.5,3.7,16.3
			c4.3-7.4,4.7-9,2.5-17.8C456.1,619,453.9,619.5,451.8,619.3C450.9,621.2,452.5,619.3,451.8,619.3L451.8,619.3z M550,620.8
			c0.2-5.5-14,5-15.9,6c-4.4,2.5-16.5,3.9-17.3,10.3C528.8,633.9,539,626.4,550,620.8C550,620.5,539.1,626.3,550,620.8L550,620.8z
			 M628,612.1c1.9,3.1,12.8,14.9,14.2,8.9c0.6-2.5-4.9-8.3-6.7-9.6C631,608,631.7,607.1,628,612.1C628.7,613.2,629,610.7,628,612.1
			L628,612.1z M671,603.6c2,3.6,13.7,16,13.8,8.3c-1-3.6-3.2-6.6-6.3-8.6C674.1,600,675,598.4,671,603.6
			C671.6,604.8,672.1,602.3,671,603.6L671,603.6z M763,611.7c1.5-0.9,3-1.7,4.6-2.4c-7.1-4.6-15.4-7.1-23.9-7.4
			C746.9,607.8,757.4,609.1,763,611.7C763,611.5,761.5,611,763,611.7L763,611.7z M959.8,627.7c2.8-0.5,1.3-9.5,1-11.6
			c-0.1-0.8-5-15.8-6.7-8.5c0.4,2.9,1.2,5.8,2.5,8.5C957.2,620,958.3,623.9,959.8,627.7C960,627.6,959.3,626.7,959.8,627.7
			L959.8,627.7z M803,609.2c-3.5-5.6-10.7-3.9-15.2-7.9C788.5,608.4,796.4,611.5,803,609.2C799.3,603.2,797.6,611.1,803,609.2z
			 M926.7,648.5c0-4.2-26.9-2-26.2-0.4C901.9,651.8,923.4,648.9,926.7,648.5C926.7,648.2,925.5,648.7,926.7,648.5L926.7,648.5z
			 M740,594.7c0.4-0.6-9.8-10.5-12-9.3C720,589.8,739.1,594.6,740,594.7C740.2,594.5,736.7,594.1,740,594.7z M821.6,641.7
			c-5.4-1.6-11-2.2-16.5-1.8C806,643.6,819.8,645.9,821.6,641.7C818.9,641.2,820.6,643.9,821.6,641.7z M1008,587.3
			c-0.9,1.8-0.2,11,3.2,11.3C1013.2,598.8,1012.7,587.4,1008,587.3C1007.8,587.7,1010.7,587.4,1008,587.3z M948.8,643.5
			c6.9,0,10.6-0.8,3.9-6.1L948.8,643.5C950.9,643.5,950.5,640.8,948.8,643.5L948.8,643.5z M486.7,600.9c1.7-1.2,5.2-7.8,3.6-10.1
			C487.3,586.5,486.4,600,486.7,600.9C488.9,599.3,485.7,597,486.7,600.9L486.7,600.9z M490.6,655c-1.9-0.1-8.2,3.2-6.8,5.8
			C484.7,662.7,492.3,659.3,490.6,655C487.2,654.8,492,658.6,490.6,655L490.6,655z M505.1,585.4l-1.7-2c-2.7,2.7-3.7,6.6-2.8,10.3
			C503.5,592.4,504.1,588.1,505.1,585.4C504.4,584.5,504.1,588,505.1,585.4L505.1,585.4z M755.8,622.9c0.3,2.6,8.3,1.4,9.4-1
			C767,618.2,755.9,622.9,755.8,622.9C755.9,623.4,758.5,622,755.8,622.9L755.8,622.9z M1013.3,610.9c0.4-5-0.2-10.1-2-14.9
			C1015.5,586.3,1015.1,615.1,1013.3,610.9L1013.3,610.9z M493.6,639.6c-3.7-1-7.5,0.6-9.4,3.9C487.7,643.5,491.1,642.1,493.6,639.6
			L493.6,639.6z M571.3,582.3c0,0.8,8.5,0.6,7.6-2.3C577.7,576,572.4,581.3,571.3,582.3C571.3,582.5,572.7,581.1,571.3,582.3z
			 M572.4,556c2.5,4.4,5-0.5,5.5-3.3C575.6,552.7,573.5,554,572.4,556C574.1,558.8,573.4,555,572.4,556L572.4,556z M469.9,599.8
			c-2.5,0.9-3.7,3.7-2.8,6.1c0.2,0.4,0.4,0.8,0.7,1.2C469.5,605,470.2,602.4,469.9,599.8C466.8,600.7,469.7,602,469.9,599.8
			L469.9,599.8z M917.8,610.3c-0.3,2.5,6,2.1,7.5,1.3C926.7,610.9,920,608.9,917.8,610.3C917.8,610.7,919.9,609,917.8,610.3
			L917.8,610.3z M926,618c0.8,2,2.7,3.4,4.9,3.7C932.1,617.8,929.7,617.5,926,618C926.8,619,927.2,617.8,926,618L926,618z
			 M458.9,639.6c-1.7,2.8,1.7,5.9,4.3,1.6L458.9,639.6C458.6,640.2,460.3,640.2,458.9,639.6z M621.4,597.7
			C618.4,603.4,627.2,605.6,621.4,597.7C620.6,599.1,622.7,599.5,621.4,597.7L621.4,597.7z M803.3,601.4l2.5-2c-4.2-2.4-3-2.6-5.8-1
			L803.3,601.4C804.4,600.5,802,600.3,803.3,601.4L803.3,601.4z M751.1,612.8l-3.3,2.3C751.8,617.2,754.6,617.4,751.1,612.8
			C749.7,613.9,752,614,751.1,612.8L751.1,612.8z M727,594.1C724.8,598.1,739.8,598.3,727,594.1C726.8,594.5,728.6,594.6,727,594.1
			L727,594.1z M605.2,544.9c1.7-2.1,4-3.2,2.1-5.5C603.8,543.5,603.6,542,605.2,544.9C606.5,543.3,604.7,543.9,605.2,544.9
			L605.2,544.9z M503.1,643.6l5.8-2.4C505.5,639.1,504.2,639.6,503.1,643.6L503.1,643.6z M848.5,598.4c1.4-2,0.5-3.3-2.8-3.9
			C845.4,597.6,845.5,597.4,848.5,598.4C848.7,597.8,847.5,598,848.5,598.4L848.5,598.4z M1012.9,642.8l-1.6-1.9
			c-2.1,3.6,1.6,1.5,3,3.9C1015.1,643.7,1012.1,643.8,1012.9,642.8C1012.2,641.9,1012,643.9,1012.9,642.8L1012.9,642.8z
			 M818.1,586.4c0.6-3.9-0.1-4.7-3.3-4L818.1,586.4z M638.8,603.2C641.8,601.1,633.5,595.3,638.8,603.2
			C639.2,602.9,638,602.1,638.8,603.2L638.8,603.2z M945,622.5c-2.5,1.3-2.6,2.1-0.6,4.2c1.2-0.5,1.8-2,1.3-3.2
			C945.6,623.1,945.3,622.8,945,622.5C944.6,622.8,945.3,623.3,945,622.5L945,622.5z M681.2,590.7c-3,1.7,0.1,3.8,2.3,4L681.2,590.7
			C680.8,590.9,681.8,591.9,681.2,590.7L681.2,590.7z M739.1,624C734.9,620.6,734.7,626.3,739.1,624C738,623.2,738,624.6,739.1,624
			L739.1,624z"/>
		<path fill="#FFAA96" d="M219.7,613.6c-0.8,2-14.3,7.1-16.4,7.3c-7.3,0.9-7.1-3.5-12.1-8.1c7.6-1.9,6.2-28,5.9-33.6
			c-0.1-5.8-0.8-11.6-2.3-17.2c-1.1-4.3-5.5-13.2-3-16.6c-1.5,0.1-3-9.7-3.4-11.4c3.5-0.8,7.1-1.2,10.7-1.2c2.5,1.5-0.3,8,3.9,7.1
			c-0.5-5.3-1.8-6.7,2.3-9c4.7-2.6,13.3-1.5,18.5-2.5c11-2.1,22-4,33-6c20.9-3.7,42.2-6.7,63.2-9.2c4.9-0.6,10-3.5,14.8-3.7
			c2.9-0.1,4.9,1.1,7.7,1c4.9-0.2,10.5-4.8,15.5-4.1c3.2,0.5,2.8,2.4,5.9,2c2.9-0.4,7.8-3.3,11.2-4.2c5.4-1.6,10.9-2.6,16.4-3.1
			c14.4-0.5,3.8,9.6-2,13.7c5.1,2.4,9.7,5.8,13.5,9.9c3.9,5.5,3.4,12.4,4.9,18.8c2.5,10.9,12.1,19.4,4.4,31
			c-7.8,11.7-21.2,7.2-32.7,10.4c-5.2,1.4-10.3,1.7-15.5,2.9c-4.1,1-8.4,3.4-12.6,4c-2.2,0.3-4.6-0.7-6.7-0.2c-3.2,1.2-6.6,2-10,2.5
			c-6.7,0.7-13.3,1.9-19.8,3.4c-2.8,0.7-5.7,1.1-8.7,1.1c-1.3-0.8-2.7-1.4-4.2-2c-0.4,0-3.8,2.6-4.5,2.9c-2.7,0.5-5.5,0.8-8.3,0.9
			c-11.4,1.7-22.6,4.4-34,6.2C244.1,608.6,231.2,615.5,219.7,613.6C218.8,615.9,221,613.8,219.7,613.6z M380.6,510.2
			c-4.3,1.3-21.3,16.6-7.9,15C376.7,524.8,385.9,513.5,380.6,510.2C379.6,510.5,381.3,510.7,380.6,510.2z M296,593.2
			c-0.1-3.3-33.7,1.8-37.3,4.3C266,601.4,288.5,596.5,296,593.2C296,592.9,295.6,593.4,296,593.2z M221.3,573.4
			c3.6-4.1,0.1-29.1-3.9-33C215.7,551.1,219.6,562.6,221.3,573.4C223.5,570.9,221,571.3,221.3,573.4L221.3,573.4z M315.3,538.7
			c-1.6,3.6-0.7,13.6,6.2,12.6c3-0.5,1.6-0.5,1-4.8C321.7,540.8,319.8,540.8,315.3,538.7C314.8,539.8,318,540,315.3,538.7z
			 M232.5,602.5c0.9,3.2,19.7,0.9,17.2-2.1C247.2,597.4,235.5,600,232.5,602.5C232.6,602.9,233.2,601.9,232.5,602.5z M391.6,548.6
			c2.2-1.5,8.6-9.6,2.2-9.6C390.2,539,386,547.3,391.6,548.6C393,547.6,388.3,547.8,391.6,548.6z M380.5,529.7
			c2.3,0.9,11.3-9.2,6.9-9.6C384.1,519.8,380.1,527.3,380.5,529.7C380.9,529.9,380.4,529,380.5,529.7z M295.7,537.8
			c-0.8-1.4-8-11.9-10.3-4.8C284.2,536.4,293.8,537.3,295.7,537.8C294.4,535.6,292.2,536.9,295.7,537.8z M359.8,568.5
			c2.1,0.3,5.7-6.5,6.9-8.2C359.4,561.2,357.6,561,359.8,568.5C360.1,568.5,359.6,567.9,359.8,568.5L359.8,568.5z M245.2,592.3
			c2.7-2.5,2.5-1.3-0.2-5.8l-4.4,2.8L245.2,592.3C246.1,591.4,243.4,591.1,245.2,592.3L245.2,592.3z M238.9,563
			c-1.1,3.6-0.1,7.5,2.7,10C242,569.5,241.1,565.9,238.9,563L238.9,563z M351.2,519.9l-3.2-4C346.3,519,346.9,520.6,351.2,519.9
			C349.9,518.2,348.7,520.3,351.2,519.9L351.2,519.9z M386.5,535.7c-1.2-2.4-4,2.8-3.9,4.4C384.6,539.5,386.2,537.8,386.5,535.7
			C386.3,535.4,385.8,536.8,386.5,535.7L386.5,535.7z"/>
	</g>
	<g id="_2yMdnJ.tif">
		<path fill="#FF564D" d="M443.8,470.9C444.3,470.2,444.9,478,443.8,470.9c2-3.2,0-6.4,1.3-9.7c2.1-3.8,4.6-7.3,7.5-10.5
			c4-5.4,7.1-11.4,9.1-17.8c0.7-3.6,2.1-7,4-10c1.8-2.7,3.8-5.3,5.4-8.3c3-6.9,7-13.2,11.9-19c3.1-3,7.4-3.6,10.4-6.7
			c2.3-2.3,2.9-4.6,5.4-6.9c7.4-7,15.8-12.7,25.1-16.9c18.8-6.6,37.2-12.1,57.4-9.5c7.4,1,21.7,6.5,26.8,6.3
			c3.8-0.3,7.6-1.1,11.2-2.3c0.6-4-1.3-12.2,6.8-13c11.3-0.6,22.6-0.3,33.9,0.9c7.3,0.4,15.1,4.4,20.1-1.8c3-3.7,2.9-8.9,4.3-13.3
			c1-3.2,3.7-6.6,4.4-9.7c1.4-1.8,1.4-4.3,0.1-6.1c-0.2-1.5,0.7-2.9,2.1-3.3c1.1-3.4,2.3-6.8,3.7-10c2.4-7,1.6-16,11-14.6
			c12.1,1.8,8.1,13.4,7.2,22.4c4.9-3.2,0.9,2.8,0.8,4.4c0,4,0.1,8,0.5,12c0.2,3.7-0.6,7.6-0.2,11.3c0-0.1,1.3,10.3,1.4,10.4
			c3.6,4.5,15.2,2,20.5,1.9c4.9-0.1,30.8,3.5,34-0.2c1.6-1.9-0.7-6.1-0.8-8.4c0.1-3.3-0.5-6.5-1.6-9.6c-3-8.8-4.7-17.9-8.3-26.4
			c-2.7-5.7-4.7-11.7-6.1-17.8c-2.1-8.3-5.1-16.3-9-23.9c-2-6.3-4.3-12.4-7-18.4c-2.5-4.5-13.6,4-18.4,5.1c-3.1,0.8-5.8,0.6-8.7,1.3
			c-14.2,3.4-29,10.7-42.1,15.6c-17.7,6.6-36.5,11.8-54.4,18.2c-8.2,2.9-15.1,7.5-23.7,9.7c-11,2.8-21.8,6.6-32.2,11.4
			c-16.7,7.7-33,14-50,20.9c-18.8,7.7-36.8,17.4-55.7,25.1c-18,7.4-34,18.3-52.2,25.2c-12.2,4.9-23.6,11.5-34,19.4
			c2.5,10.9,6,21.5,10.6,31.7c3.5,7.7,5.7,15.9,9.6,23.6c3.1,7.6,5.1,15.5,6.2,23.6c2.3,8.4,5.2,16.6,8.6,24.6
			c1.3,3.5,0.7,7.6,1.6,11.2c1.4,4.3,3.1,8.4,5.1,12.5c3,7.5,5.1,15.4,7.9,22.7c2.2,5.8,3.7,11.2,5.9,17.6c3.4,9.8,10.4,18,14,27.6
			c3,6.3,5.5,12.9,7.5,19.6c1.9,7.9,4.5,15.7,7.7,23.2c4.2,11.2,27.5,44.9,17.1,50.2c-7.7,3.9-5.4,3.2-8.6-5.3
			c-2.2-3.8-4.1-7.6-5.8-11.7c-1.1-4.2-8.6-21.4-10.2-25.3c-4-9.9-8.6-16.7-10.4-27.4c-2.3-13.1-8.8-22.2-14.1-34
			c-6.8,5.4-9.2,4.4-17.2,5.2c-3,0.8-6.1,0.9-9.2,0.5c-4.8-0.1-9.5,0.9-13.9,2.8c-9.7,2.5-19.4,0.5-28.9,0.7
			c-7.7,0.7-15.4,1.9-22.9,3.8c-37.2,7.4-76.4,4.3-111.4,19.4c-12.4,5.3-24.9,3.5-26.2-3c-1.2-6.2-5.6-20.7-5.1-27.4
			c0.4-4.8,0-9.7-1.1-14.5c-1-4.1-2.9-6.7-4-11c-2-8.3-0.6-17.7-1.8-26.1c-1.2-8.2-3-15.6-4-24.1c-2.2-17.7-9.3-33.7-11.7-51
			c-1.3-9.2-1.9-18.4-3.7-27.5c-2-10.1,0.9-20.3-1.5-30.5c-4.1-18-4.1-35.6-7.6-53.8c-2.5-12.9-7.2-27.9-6-37.5
			c6.2-3.5,13.2-5.4,20.4-5.5c10.7-0.8,21.3-2.6,31.7-5.5c40.1-8.1,79.9-17.4,119.9-26.5c8.9-2,17.5-2.1,26.4-4.6
			c10.3-2.9,20.8-4.8,31-8.2c13.5-4.6,28.2-6.7,41.5-10.9c41.8-13.1,87.8-11.7,129.5-24.1c4.3-1.3,8.6-2.8,13-3.6
			c2.7-0.7,5.3-1.9,7.7-3.3c4.2-2.4,9.5-2,13.3,1.1c2.5,1.8,4.1,4.4,4.6,7.4c0.3,2.9,0.4,5.7,0.2,8.6c0.9,4.1,2.2,8.2,3.7,12.1
			c0.5,4.3,0.6,8.6,0.2,12.9c0.3,5.6,1.7,11,4,16.1c1.2,3.1,2.2,8.1,3.2,11.6c2.6-1.1,8.9-3,11.5-4c3.4-1.3,6.8-2.6,10.2-3.8
			c6.6-2.4,13.1-4.8,19.7-7.2c13.3-4.8,26.7-9.3,40.1-13.7c14.6-4.6,28.9-10.2,42.7-16.7c2.8-1,5.5-2.1,8.2-3.4
			c4.9-3,3.6-4.6,10.1-3.9c12.2,1.3,13,19,17.7,29c3.4,6.2,5.6,12.9,6.6,19.9c0.6,6,2,11.8,4.4,17.3c3.1,6.6,6.6,10.5,7.6,18.3
			c0.1,4.3,1.5,8.6,4,12.1c2,3.5,3.5,7.3,4.6,11.2c1.2,3.2,2,6.5,2.6,9.8c40.5-1.9,77.8,2,118.1,4.7c19.3,1.3,38.5,1.6,57.6,3.9
			c9.8,1.1,19.7,1.6,29.5,2c4.3,0.3,8.7,0.2,13-0.3c5.2-0.8,4.7,2.6,9.6,1c2.7-1,5.7-1,8.4,0c7.6,3.1,5.9,3.3,5.5,8.6
			c-0.3,3.9,1.4,8.8,1.3,13.1c-0.5,8.1-0.5,16.3,0.3,24.4c0.7,9.9,0.2,19.8-1.2,29.5c-2,19.9-5.5,39.4-7.6,59.2
			c-1,9.4,0.2,18.8-0.9,28.2c-1.4,8.8-1.9,17.7-1.5,26.6c0,0.5,1.3,4.5,1.6,5.9c1.1,5,0.1,10.5,1.6,15.4c2.2,7-0.2,13.9,1.3,21.5
			c1.5,7.7-1.1,18.3-1.6,26.3c-0.4,3.9-0.4,7.8-0.1,11.7c0.3,2.4,0.1,4.7,0.2,7.1c0.2,3.7,0.2,7.4,0.4,11.1c0.2,2.2,0.2,4.3,0,6.5
			c0.2,2.4-0.4,4.9-1.7,7c-2.8,0.8-5.7,1-8.5,0.6c-4.3-0.1-3.9-1.3-8.5-1.7c-4.9-0.4-9.9-0.3-14.8,0.2c-8.8,1.7-17.8,2.3-26.7,1.9
			c-3.3-0.4-6.7-0.6-10-0.8c-2,0.1-4,0-5.9-0.2c-5.6-0.7-11.3-0.8-17-0.3c-5.5-0.3-10.8-2.7-16.4-2.5c-9.8,0.2-19.8-0.9-29.7-0.6
			c-7.5,0.2-15,1.4-22.6,1.1c-5.2-0.2-10.7-1.1-16.1-1.6c-5.4-0.1-10.7,0.2-16,0.9c-10,0.1-20-0.5-29.9-1.7c-6,0-12-0.6-17.9-1.6
			c-6.8-1.9-13.9-2.2-20.8-0.9c-3.9,0.8-7.9,1.1-11.9,0.7c-9.1-0.7-18.1-3.4-27.3-1.1c-5.4,1.1-11,1.3-16.5,0.6
			c-10.7,0.1-21.4,1-32,2.6c-12.1,1-24.4-0.7-36.4,1.3c-4,0.1-8,0-12-0.4c-9.4,0.4-10.5,1.9-12.6-9.4c-1.7-7.8-2.3-15.7-1.6-23.6
			c-0.2,0.4-7.9,1.7-8.9,2.1c-2.8,1.1-5.6,2.4-8.2,3.9c-5,2.8-10,5.6-15.2,7.9c-5.3,2.4-11,3.6-16.4,5.6
			c-11.4,4-21.1,10.7-32.9,13.6c-5.8,1.5-11.4,3.8-16.5,6.9c-4.9,2.9-26.7,13.8-31.4,16.8c-3.4,2.1-10.5,5.8-12.1,3.5
			c-7.4-10.8-4.2-10.3,2.3-13.3c9.1-4.2,35.9-13.9,45.2-18c11.1-4.9,22.1-10.3,33.2-15.2c9.7-3.6,19.1-7.8,28.2-12.6
			c10.1-6.1,27.5-9.3,33.5-18.8c2.2-3.4-0.1-8.4-0.5-13.6c0.1-3,0-6-0.3-9c-0.3-1.2-4.6,1.4-7.4,2.1c-5,1.5-9.8,3.6-14.4,6.2
			c-7.2,3.7-15.5,11-23.5,12.1c-11.3,1.5-10-8.5-2.4-12.8c10.1-5.4,20.5-9.9,31.4-13.6c5.9-1.3,11.6-3.3,17.1-5.9
			c1-3.6,1.4-7.3,1.2-11c-4.6,1.2-22.6,8.9-27.1,10.6c-5.9,2.2-14.9,9.3-21.1,9.7c-7.9,0.5-11-4.1-4-9.3c3.7-2.5,7.6-4.5,11.8-6.1
			c6.3-2.3,12.5-5,18.5-8c6.2-3.7,16.7-6.4,22-10.2c1.2-4.2,1.4-8.6,0.8-12.9c-0.4-6.7-2-13.3-2.6-19.8c-1.4-13.9,1-29.1-1.7-43
			c-3.7,4.2-15,7-20.3,9c-7.6,3-15.4,5.3-23.4,7c-7.3,1.3-14.5,2.8-21.9,4c-9.5,1.6-18-1.1-27.4,0.1c-9.5,1.2-9.1,2.1-18.4-2.2
			c-6.1-2.3-12.6-3.8-19.1-4.2C463.6,487.2,445.8,483.6,443.8,470.9z M987.6,653.5c6,0.1,14.8-1.2,19.8-0.9c-0.3-6-0.1-12.1,0.8-18
			c0.6-4.6,0.4-7.1,1.2-11.9c2.4-11.1,3-22.6,1.7-33.9c-2-11.5-4.2-22.7-5.5-34.5c-1.1-10.7,3.2-19.6,2.7-29.7
			c-0.9-8.8-1.2-17.7-0.7-26.6c1.3-10.6,5-19.5,5.3-30.5c0.6-21.3,5.3-42.7,5.2-64c0-6.8,2.1-26.4-3.2-31.7c-3-3-24.5-3.7-28.8-3.4
			c-3.8,0.9-7.7,1.3-11.5,1.1c-5.8-0.7-11.5-1.5-17.3-2.1c-12.4-1.3-24.8-0.5-37.1-2.7c-11.4-1.8-22.9-2.8-34.4-2.7
			c-11.4-0.2-22.5-2-34-2.7c-25.1-1.5-50.4-0.3-75.5-0.2c-24.7,0-49.9,2-74.5,1.4c-8.7-0.2-18.4-2.3-27.6-2.2
			c-5.7,0-10.8-0.1-16.5-0.5c-5.2-0.4-19.8-3-24.5-1.1c-7.4,3.1-4.8,14.7-6.9,22.1c-1.9,4.1-3,8.5-3.4,13c0.5,6.4,0.6,12.8,0.3,19.2
			c-1,11.6-3.6,22.7-4.6,34.3c-1,11.7-5,23.9-4.8,35.1c-0.4,18.9,0.6,37.8,3.1,56.6c1.4,13.2,1.3,26.5-0.5,39.6
			c-0.9,11.9,0.4,22.5,0.4,34.3c0,10.4-2.1,23.8-0.8,33.3c0.5,3.8,7,6.7,14.1,6.5c10.8-0.2,22.5-0.6,32.9-1.2
			c11.5-0.7,23.1-2.3,34.6-2.5c6.2-0.1,13.2-1.1,19.2-0.8c6.5,1.1,13.1,1.8,19.7,2.1c6.7-1.1,13.5-1.6,20.4-1.4
			c5.3,1,10.8,1.1,16.1,0.3c6.3-0.8,12,1.7,18.2,2c5.1,0.3,8.4-1.1,13.6-0.4c15.7,1.9,30.7,1.2,46.4,2.1c13.8,0.7,27.3,0.8,41,0.9
			c6.9,0.1,13.5,1.5,20.4,1.8c7-0.3,14-0.3,20.9,0.1c4.8,0.9,9.6,1.6,14.5,2c5.2,0.3,10.4,0.2,15.6-0.4
			C976.8,653.7,974.4,652.7,987.6,653.5z M474.4,327.9C474.6,328.2,475.3,327.2,474.4,327.9c1,1.3,24.1-5.2,27.2-6.3
			c9.8-3.3,20.1-7.8,29.8-11.8c10.2-4.3,20.4-8.8,30.7-12.7c4.7-1.8,13.9-3.9,17.7-7.4c1.6-1.4,2.3-3.6,1.8-5.7
			c-1.3-6.9-2.8-13.7-3.8-20.6c-1.1-6.9-1.4-14-2.7-20.9c-0.1-0.7-2.1-13.1-3.2-13.1c-11.5-3-44,8.9-57.4,9.7
			c-9.8,0.5-19.4,4.4-29.2,5.1c-8.6,0.7-17.1,1.8-25.5,3.5c-15.2,3.1-34,4.1-49.8,9.8c-8.6,3.1-17.5,5.4-26.6,6.8
			c-11.1,1.9-22,4.9-32.5,8.7c-8.1,2.1-16.4,3.6-24.8,4.3c-9.2,1.4-18.5,2.3-27.4,4.1c-9.3,1.9-19,6.7-27.8,9
			c-11.5,3.1-24.6,5.1-36.7,7.9c-18.3,4.2-36.7,8.1-54.9,12.5c-4.4,1.1-11.5,1.9-15.8,3c-2.1,0.5-4.2,1.1-6.3,1.7
			c-1.9,0.2-3.8,0.8-5.5,1.9c-0.1,0.2-0.2,0.5-0.2,0.7c-0.1,2.3,0.2,4.6,1,6.7c0.5,2.6,0.9,5.1,1.3,7.7c1.2,8.3,2.8,16.5,3.8,24.7
			c1,8,2.5,15.9,3,23.8c0.5,7.5,1.7,14.6,2.5,22.4c0.8,8.6,3.1,17,3.6,25.6c0.7,9.7,2.5,19.2,5.2,28.6c4.7,16,8.2,32.4,10.6,48.9
			c1.2,10,1.2,20.2,2.8,30.1c1.5,9.3,5.6,18.2,6.1,27.7c0,6.5,1.2,12.9,3.7,18.9c0.9,3.1,1.4,6.4,1.7,9.6c1,4.3,0.7,12.4,3.1,12.3
			c2,0,23.7-4.2,30-5.7c8.4-2.2,16.9-3.8,25.5-4.9c17.3-1.7,34.4-5.3,51.8-7.3c18.6-2.1,36.3-2.9,54.2-5.8
			c9.2-1.5,18.3-4.1,27.4-5.9c4.5-0.5,9-1.4,13.5-2.4c3.8-1.2,8-5.5,12.2-4.3c0.4-7.1-2.8-7-8.3-7.2c-7.4-0.2-14.7,0-22,0.6
			c-18,1.3-36.1,0.1-54,2.5c-7.9,1.1-32,16.5-33.3,2.5c-1.7-18,28.4-13.9,39.2-14.1c16.9-0.4,33.4-2.3,50.1-3.7
			c3.2-0.3,14.8-2.4,16.8-4.9c1.2-2.6,1.1-5.6-0.3-8c-2.2-6.4-2.1-5.3-7.3-6.6c-12.7-3.1-29.5,3.6-41.6,6.3c-13.9,3-28.1,2-41.7,5.2
			c-7.4,1.7-17.2,7.6-24.8,6.6c-7.9-1-9.8-8-3.9-13.3c5.5-4.9,1.4-1.4,7.2-1.7c3.6,0.2,7.2,0.2,10.8-0.2c8.7-1.9,17.2-4.5,26.2-5.8
			c7.8-1.2,16-0.9,23.8-1.6c8.4-1.3,16.7-3.4,24.7-6.4c4-1.2,15.8-3.5,17.2-8.3c1.8-6.3-7.3-18.6-8.9-24.8
			c-3.1-12.4-3.3-24.4-9.2-36.2c-2.3-5.4-4.4-10.9-6.1-16.6c-3.7-10-8-2.5-16,2c-6.1,3.4-11.7,7.3-17.7,10.8
			c-5.4,3.2-13,5.1-17.6,9.3c-2.5,2.3-3,5.4-6.6,6.6c-2.9,1-5.9-0.1-9,0.8c-7.2,2.2-14,5.5-20.2,9.9c-7,4.9-14.7,7.4-22.1,11.7
			c-4.9,2.8-15,12.4-20.9,8.2c-7.7-5.5,1.7-15.3,5.7-19.4c5.8-6,10.2-15.3,16.6-20.3c6.2-4.9,14.6-8.9,21.3-13.4
			c8.3-5.5,14-13.2,21.7-19.1c2.6-2,5.7-2.3,8.2-4c3.6-3.4,7-7.1,10-11.1c2.4-2.9,5.2-5.4,8.4-7.4c4-0.7,2.5,1.8,5.6,3.6
			c3.8-3.8-1.2-2.2-0.8-6.5c0.5-3,2.3-5.7,5-7.2c4.1-3.8,8.3-7.4,12.8-10.8c10-7.2,19-14.8,28.7-22.4c4.3-3.4,7.2-7.7,11.2-10.9
			c3.8-2.1,7.9-3.5,12.2-4.1c3.8-1.2,3-2.4,7.9-1.4c5.1,1,9.8,3.7,14.7,2.5c0.7-0.2,2.9-3.2,4.2-3.9c2-1,4.5-0.5,6.5-1.4
			c2.8-1.6,5-4.2,6.1-7.3c7.4-12,1.5-12.6-1.1-25.3c-1.6-7.8,5.6-23.9,15.9-19c4.9,2.3,6.8,11.5,6.8,16.1c0,4.8-1,9.7-1.3,14.6
			c8-6.4,23.1-34.5,34.4-18.4C510.7,311.9,482.7,320.3,474.4,327.9z M506.9,420.6c-6.2,2.9-14.3,4.9-14.3,13.2
			c0.1,7.3,7.1,11,13.7,10.9C520.1,444.5,521.5,421.2,506.9,420.6C504.3,421.7,515,420.9,506.9,420.6L506.9,420.6z M603.6,384.3
			c-2.7-1.2-9.2,2.7-11.1,2.9c-3.6,0.6-11.9-2.9-15.6-0.3c4.5,2.7,9.6,4,14.9,3.8C596.3,389.8,600.4,387.6,603.6,384.3
			C598.4,382.1,600,387.1,603.6,384.3L603.6,384.3z M594.2,400.8c2.6-0.6,23.5-9.3,18.5-12.3C608.8,386.1,593.4,396.4,594.2,400.8
			C594.6,400.7,593.5,397.1,594.2,400.8L594.2,400.8z M583.1,415.9c3.8,1.2,17.9-0.4,17.7-5.6C600.3,400,586.2,413.6,583.1,415.9
			C584.6,416.3,586.6,413.4,583.1,415.9L583.1,415.9z M374,373.8c-3,0-18,9.1-16.4,12.3C361,392.8,373,375.6,374,373.8
			C373.6,373.8,372.2,376.9,374,373.8L374,373.8z M322.4,413.4c-4.6,2.7-7.5,2.9-7.3,7.4c1,1.7,2.4,3.1,3.9,4.3
			c0.8,2.3,1.3,4.7,1.6,7.1C322.6,426.2,323.2,419.8,322.4,413.4C319.2,415.3,323.5,420.1,322.4,413.4z M564.8,379.9
			c-9.2-4-9.1-4.3-17.8,1.8C552.7,384.8,559.7,384.1,564.8,379.9C561.7,378.6,561.6,383.7,564.8,379.9L564.8,379.9z M534.5,434.1
			c2.6-1.6,14.6-7.2,5.1-9.8c-4.3-1.2-6.1,3.4-8.9,6.7L534.5,434.1C537.2,432.5,532.9,432.8,534.5,434.1L534.5,434.1z M582.5,424.1
			c1.5,5.1,10.6,4.9,12.5,0C597.5,417.5,584.7,423.4,582.5,424.1C582.6,424.5,586.2,423,582.5,424.1L582.5,424.1z M392.6,368.1
			c-5.9-6.5-10.6,5.8-15,11C379.3,380.9,390.4,370,392.6,368.1C391.9,367.3,387.7,372.3,392.6,368.1z M534.7,392.6
			c1.7,1.7,11.3,5.6,12.1,0.7C547.8,387.3,536.3,392.3,534.7,392.6C538.4,396.1,538.8,391.7,534.7,392.6L534.7,392.6z M550,436.4
			c4.7,0.9,9.4-1.4,11.5-5.6C557,430.8,552.7,432.8,550,436.4L550,436.4z M572.9,463.8c4.9,1.4,17.2-2.3,19.5-6L572.9,463.8z
			 M343.1,423.7c-2.1,7.8,0.1,6.9,7.2,5.1L343.1,423.7C342.3,426.3,345.4,425.4,343.1,423.7L343.1,423.7z M607.1,371.5
			c3.9-4.6-9.7-5.4-11.3-5.6l1.8,4.7C601.3,366.2,603.4,371.6,607.1,371.5C607.4,371.1,603.9,371.6,607.1,371.5L607.1,371.5z
			 M306.2,439.2C301.3,447.6,313,455.7,306.2,439.2C304.2,442.6,307.5,442.4,306.2,439.2z M555.2,417.8c-2.2-1.3-3.1-1-9.8,3.6
			C548.3,424.9,551,422.5,555.2,417.8L555.2,417.8z M291,445.5c4.6,0.6,4,4.1,5.2,7.4c0.4-3.7,1.6-7.6-1-10.9L291,445.5
			C296.1,446.2,292.7,444.1,291,445.5z M567.9,373.2C566.1,378.3,585.8,380.8,567.9,373.2C567.7,373.5,570.4,374.3,567.9,373.2
			L567.9,373.2z M507.4,478.1l13.1-2C516.2,473.9,511,474.7,507.4,478.1L507.4,478.1z M614.2,387.1c1.9-4.3,0.2-6.6-4.5-6.1
			C610.3,383.6,612,385.8,614.2,387.1C616,383.2,612.8,385.8,614.2,387.1z M539.4,472.7c5.7-4-0.8-5-4.6-3L539.4,472.7
			C540.7,471.8,537.7,471.6,539.4,472.7L539.4,472.7z M408.4,362.1c-3.7-3.1-3.7-1.9-7.5,1C403.8,365.6,405,363.9,408.4,362.1
			C406.8,360.8,406.1,363.3,408.4,362.1z M262.7,472.2c-0.4-5.5-11,2.6-10.2,4.8L262.7,472.2C262.6,471.8,259.3,473.8,262.7,472.2z
			 M541.3,386.3l11.1,1.3C552.8,382.6,543.3,385.5,541.3,386.3C545,386.8,545.2,384.7,541.3,386.3L541.3,386.3z M518.4,454.8
			C534.7,452.8,521.7,449.2,518.4,454.8C521.3,454.4,520,452.1,518.4,454.8L518.4,454.8z M359.8,417.4l-2-7.1
			C354.9,413.7,354.7,418,359.8,417.4C359,414.5,358.6,417.5,359.8,417.4L359.8,417.4z M547.5,375.8c-3.8-0.9-7.7,0.7-9.7,4
			L547.5,375.8z M582.1,409.5c-1.6-2.1-5.9,1.2-7.2,2.9C578,413.2,579.4,411.3,582.1,409.5C581.9,409.2,580.4,410.7,582.1,409.5
			L582.1,409.5z M482.9,429.3c-1.5,1.8,0.4,4.3,1.1,6.3C486.5,431.8,486.5,432.1,482.9,429.3C482.6,429.6,484,430.2,482.9,429.3
			L482.9,429.3z M580.7,425.7c-1.5-2.1-7.8,2.1-6.1,4.5L580.7,425.7C580.4,425.3,578.6,427.2,580.7,425.7L580.7,425.7z M475,457.9
			l-1.5,0.4l2,6.8C478,464.4,475.5,459.9,475,457.9C474.5,458.1,475.6,460.2,475,457.9z M414.5,352.4c-0.9,1.6,3.5,2.9,4.7,3.6
			C420.6,353.3,416.3,352.7,414.5,352.4C414.3,352.7,416.5,352.7,414.5,352.4L414.5,352.4z M598.3,454c2.2,1.9,3.6-1.4,5.3-3.3
			C601.9,449.1,599.8,452.6,598.3,454C598.8,454.4,599.8,452.6,598.3,454L598.3,454z M575.4,453.3c2.6,2,4.4,1.2,6.3-1.5
			L575.4,453.3z"/>
		<path fill="#FF564D" d="M528.3,603.3c0.5,11.4-1.5,16.5-11.5,21.1c-9.7,4.5-23.6,5.9-28.5-6.1c-4-9.7,0.6-20.7,10.2-24.8
			c1.2-0.5,2.4-0.9,3.7-1.1c4.4-1.2,14.7-3.5,18.7-0.6C525,594.8,524.1,600.3,528.3,603.3C528.4,606.8,527.3,602.6,528.3,603.3z"/>
		<path fill="#FF564D" d="M851.4,444.7c3.3-3.4,4.1,2,7.4,2.4c2.5-0.9,4.8-2.1,6.9-3.5c5.6-1,11.4,4.6,16.9,5.8
			c13.1,2.8,30.1-5.6,35.4-8.5c5.4-2.8,15.8-14.4,25.4-20.4c9.4-5.8,19.9,2.6,19.7,13.4c0,4.7-0.9,9.4-2.7,13.8
			c-1.7,3.6-6.4,7.3-6.5,9.8c-0.1,3.8,8.6,6.7,10.7,9.3c4,4.7,4.9,11.3,2.1,16.9c-10.5,20.2-43.5-0.3-58.7-3.4
			c-7.5-1.1-15.2-0.8-22.6,0.8c-2.5,0.1-4.9,0.5-7.2,1.2c-2.5,1.5-2.4,4.2-4.5,5.8c-4.3,3.1-10.4,3-15.5,5.1
			c-7.3,3-14.5,6.4-21.8,9.5c-24.6,10.7-49,20.9-75.4,25.6c-25.2,4.5-44.3-3.8-65.3-15.9c-19.9-11.5-17.7-46.5-8.1-63.9
			c6.7-12.1,17.4-14.7,29.9-17.7c16.3-3.8,28.2-7.8,44.7-4.6c14.5,2.8,30.1,2.9,44.2,5.9C821.9,434.9,836.9,439.1,851.4,444.7
			C853,443.1,850,444.1,851.4,444.7z M876.3,472.7c11.8-1.5,23.5-4.1,35.4-1.1c10.4,2.7,20,11.9,31.2,11.8c3.6,0,11.7-0.9,13.5-5.5
			c1.7-4.6-2.8-7.5-6.1-8.7c-5.5-1.7-8.6-7.6-6.9-13.2c0.4-1.4,1.2-2.7,2.2-3.8c2.3-2.8,4.3-5.8,5.9-9c1.5-3.4,3.3-8.9-0.7-12.2
			c-4.5-3.8-10,3.3-13.3,6.8c-4.4,4.9-9.8,8.9-15.7,11.8c-8.1,4.2-16.8,6.9-25.9,7.9C881.8,458.4,878.1,457.9,876.3,472.7
			C878.1,472.4,876.6,470,876.3,472.7L876.3,472.7z M699.2,482.3c0,6.6,1.4,4.2,5.2,8.3c3,4,5.8,8.2,8.3,12.6
			c2.6-4.4,2.1-9.9-1.1-13.8c-0.6-0.6,0.1-1.9-0.5-2.2c-1.3-0.6-2.8,2-4.3,1.4C703.7,487.3,701,485.1,699.2,482.3
			C699.2,484,704.2,487.9,699.2,482.3L699.2,482.3z M745.7,467.2l-19.1,18c8.7,0.3,18.5-9.5,25.2-14L745.7,467.2
			C739.7,472.9,748.2,468.8,745.7,467.2L745.7,467.2z M773.1,486.6c-4.1-2.3-28.4,9.5-29.1,14.4
			C754.6,497.3,763.3,490.9,773.1,486.6L773.1,486.6z M710.8,451.2c-6.8,1.8-15.3,16.6-11.8,25.9L710.8,451.2z M813.9,478.4
			c-1.4-1.8-10.9,8.2-12.2,11.3C811.4,491.1,811.6,486.9,813.9,478.4C813.7,478.1,813,481.7,813.9,478.4z M753.3,476.4
			c4.9-0.7,13.8-0.1,15.6-6.1C761.9,468.2,754.9,468.9,753.3,476.4C756.3,475.9,754.7,470.1,753.3,476.4L753.3,476.4z M812.8,444.2
			c-1.5,6,25.8,9.8,30.2,9.8C843,451.7,816.2,445.2,812.8,444.2C812.2,446.5,823.1,447.3,812.8,444.2L812.8,444.2z M803.7,441.2
			l-23.2-2.7C788.5,444.3,802.1,445.6,803.7,441.2L803.7,441.2z M824.4,480.4c8.1-1.7,15.5-5.5,21.6-11.1
			C839.9,468.1,829.6,477.4,824.4,480.4C833,479,825.9,479.5,824.4,480.4L824.4,480.4z M772.5,455.6c3.8,3.8,19.8,2.5,23.8-0.5
			c-1.9,0.3-3.8,0-5.6-0.7c-2-0.8-4.3-0.1-5.5,1.7C781.1,456.6,776.7,455.4,772.5,455.6C775.3,458.4,773.5,455.6,772.5,455.6
			L772.5,455.6z M823.9,467c-5,1.8-9.7,4.2-14.1,7.1C815.5,475.2,821.3,472.3,823.9,467C821.9,467.8,823.4,468.6,823.9,467z
			 M712,472.6c3.1,2.5,13.8-10.7,10.1-13.5L712,472.6C712.4,472.9,715.3,468.1,712,472.6L712,472.6z M713.8,458.6
			c1.7,1.7,5.9-4.1,7.1-5.4C718,450.3,715.6,457.2,713.8,458.6C714.1,458.9,716.1,456.7,713.8,458.6L713.8,458.6z"/>
		<path fill="#FF564D" d="M733.5,594.3c36.8,4.7,74.8-2.1,111.9-0.1c17.9,1,35.7,1.6,53.6,2.7c8.6,0.5,17.1-0.5,25.7,0.2
			c4.5,0.4,8.9,1.8,13.4,1.9c4.4-0.6,8.7-1.8,12.8-3.4c6-1.3,14.2,1.7,12.7,9.5c-1.7,9.1-13.6,7.2-19.9,6
			c-18.8-3.8-37.9-3.1-57.2-4.4c-28.9-1.9-57.6-2.1-86-2.2c-20.3-0.5-40.7,0.4-60.9,2.7c-4.7,0.6-15,4.8-17.9-1.4
			C717.8,597.5,733,592.4,733.5,594.3C737,594.7,733.5,594.1,733.5,594.3z"/>
		<path fill="#FF564D" d="M814.9,626.5c-12.3,0-24.4,0-36.6,1.2c-6.1,0.6-12.3,0.7-18.4,1.2c-4.3,0.3-8.2,1.4-12.5,1.7
			c-8.4,0.4-17.2-6-8-13c6.6-5,17.3-2,25-2.3c42-1.3,83.7,2.7,125.7,4.1c9.1,0.3,17.5-0.4,26.5-0.4c6.5,0,12.5,2.5,19.2,1.4
			c6.3-1,16.1-6.7,15.8,4.3c-0.3,12.1-15.7,7.7-23.5,7.6c-10.3-0.2-20.6-0.3-30.9-1.2c-10.7-1-21.7-1.2-32.3-2.3
			C860.4,628.3,814.8,625.6,814.9,626.5C807.4,626.5,814.9,626.6,814.9,626.5z"/>
		<path fill="#FF564D" d="M682.2,586.7c0.6,2.6,6.3,3.2,8.1,7.9c1.6,4.8,2.2,9.9,1.7,14.9c-2.6,7.7-23.6,17.8-31.2,17.2
			c-7.9-0.4-14.6-6-16.6-13.7c-1-5.1-0.8-10.3,0.5-15.3c2.9-7,11.3-10.1,17.9-11.8c3.8-1.4,7.7-2.1,11.7-2.1
			C676.8,584.2,679.4,589.5,682.2,586.7C682.4,587.5,681.9,587,682.2,586.7z"/>
		<path fill="#FF564D" d="M229.9,562.7c-1.6-9.1-4.4-21.2,4.9-26.6c8.7-5,26.2-9.7,33.7-1c3.6,5.5,5.6,11.8,5.8,18.4
			c-0.5,6.2-6.5,8.5-12.3,11.5c-6.1,3.3-13,4.9-19.9,4.5C237,568.8,234.3,565.1,229.9,562.7C229.6,560.7,230.5,563,229.9,562.7z"/>
	</g>
</g>
<g id="HIW-1_Recipes">
</g>
</svg>
